<?xml version="1.0" encoding="iso-8859-1"?>
<!-- Generator: Adobe Illustrator 19.0.0, SVG Export Plug-In . SVG Version: 6.00 Build 0)  -->
<svg version="1.1" id="Capa_1" xmlns="http://www.w3.org/2000/svg" xmlns:xlink="http://www.w3.org/1999/xlink" x="0px" y="0px"
	 viewBox="0 0 480 480" style="enable-background:new 0 0 480 480;" xml:space="preserve">
<path style="fill:#EF9F35;" d="M240,0C107.452,0,0,107.452,0,240v112h72v80h168v48h240V240C480,107.452,372.548,0,240,0z"/>
<path style="fill:#F9F6ED;" d="M240,64c-88,0-160,96-160,96s72,96,160,96s160-96,160-96S328.4,64,240,64z M240,224
	c-35.346,0-64-28.654-64-64s28.654-64,64-64s64,28.654,64,64S275.346,224,240,224z"/>
<path style="fill:#63C8CD;" d="M240,96c-35.346,0-64,28.654-64,64s28.654,64,64,64s64-28.654,64-64S275.346,96,240,96z M240,192
	c-17.673,0-32-14.327-32-32s14.327-32,32-32s32,14.327,32,32S257.673,192,240,192z"/>
<circle style="fill:#1895AA;" cx="240" cy="160" r="32"/>
<g>
	<path style="fill:#F9F6ED;" d="M432,432h16v16h-16V432z"/>
	<path style="fill:#F9F6ED;" d="M432,400h16v16h-16V400z"/>
	<path style="fill:#F9F6ED;" d="M432,368h16v16h-16V368z"/>
</g>
<g>
</g>
<g>
</g>
<g>
</g>
<g>
</g>
<g>
</g>
<g>
</g>
<g>
</g>
<g>
</g>
<g>
</g>
<g>
</g>
<g>
</g>
<g>
</g>
<g>
</g>
<g>
</g>
<g>
</g>
</svg>
