<?xml version="1.0" encoding="iso-8859-1"?>
<!-- Generator: Adobe Illustrator 19.0.0, SVG Export Plug-In . SVG Version: 6.00 Build 0)  -->
<svg version="1.1" id="Capa_1" xmlns="http://www.w3.org/2000/svg" xmlns:xlink="http://www.w3.org/1999/xlink" x="0px" y="0px"
	 viewBox="0 0 463.739 463.739" style="enable-background:new 0 0 463.739 463.739;" xml:space="preserve">
<circle style="fill:#F9B310;" cx="231.87" cy="137.979" r="22.4"/>
<g>
	<circle style="fill:#FFFFFF;" cx="297.79" cy="309.499" r="27.6"/>
	<circle style="fill:#FFFFFF;" cx="166.03" cy="309.499" r="27.6"/>
</g>
<path style="fill:#B1523E;" d="M89.47,455.739c-4.86,0-8.8-3.94-8.8-8.8v-78.64H70.51c-4.86,0-8.8-3.94-8.8-8.8v-50.24
	c0-4.86,3.94-8.8,8.8-8.8h10.16v-43.68c0-45.04,37.2-48.56,48.56-48.56h205.28c45.04,0,48.56,37.2,48.56,48.56v43.6h10.24
	c4.86,0,8.8,3.94,8.8,8.8v50.56c0,4.86-3.94,8.8-8.8,8.8h-10.24v78.32c0.044,4.86-3.86,8.835-8.72,8.88c-0.027,0-0.054,0-0.08,0
	L89.47,455.739z M297.47,282.139c-15.243,0-27.6,12.357-27.6,27.6c0,15.243,12.357,27.6,27.6,27.6c15.243,0,27.6-12.357,27.6-27.6
	c0.089-15.195-12.087-27.621-27.28-27.84L297.47,282.139z M165.71,282.139c-15.243,0-27.6,12.357-27.6,27.6
	c0,15.243,12.357,27.6,27.6,27.6s27.6-12.357,27.6-27.6c0.089-15.225-12.135-27.664-27.36-27.84L165.71,282.139z"/>
<g>
	<path style="fill:#58171D;" d="M165.95,273.899c-19.661,0-35.6,15.939-35.6,35.6c0,19.661,15.939,35.6,35.6,35.6
		s35.6-15.939,35.6-35.6C201.506,289.856,185.593,273.943,165.95,273.899L165.95,273.899z M165.95,329.179
		c-10.825,0-19.6-8.775-19.6-19.6s8.775-19.6,19.6-19.6c10.825,0,19.6,8.775,19.6,19.6c-0.088,10.775-8.824,19.477-19.6,19.52
		V329.179z"/>
	<path style="fill:#58171D;" d="M297.79,273.899c-19.661,0-35.6,15.939-35.6,35.6c0,19.661,15.939,35.6,35.6,35.6
		c19.661,0,35.6-15.939,35.6-35.6C333.346,289.856,317.433,273.943,297.79,273.899z M297.79,329.179c-10.825,0-19.6-8.775-19.6-19.6
		s8.775-19.6,19.6-19.6c10.825,0,19.6,8.775,19.6,19.6c-0.088,10.775-8.824,19.477-19.6,19.52V329.179z"/>
	<path style="fill:#58171D;" d="M393.23,292.379h-2.16v-35.6c0-27.36-14.88-56.56-56.56-56.56h-94.64v-33.04
		c16.243-4.418,25.83-21.168,21.411-37.411c-4.418-16.243-21.168-25.83-37.411-21.411s-25.83,21.168-21.411,37.411
		c2.837,10.428,10.983,18.575,21.411,21.411v33.04h-94.64c-27.36,0-56.56,14.88-56.56,56.56v35.6h-2.24
		c-9.26,0.044-16.756,7.54-16.8,16.8v50.56c0.044,9.26,7.54,16.756,16.8,16.8h2.24v70.4c0.044,9.26,7.54,16.756,16.8,16.8h284.8
		c9.26-0.044,16.756-7.54,16.8-16.8v-70.4h2.24c9.26-0.044,16.756-7.54,16.8-16.8v-50.48
		C410.11,299.937,402.552,292.379,393.23,292.379L393.23,292.379L393.23,292.379z M217.23,137.979
		c0-7.997,6.484-14.48,14.481-14.479c7.997,0,14.48,6.484,14.479,14.481c0,7.934-6.386,14.391-14.32,14.478
		c-7.997,0-14.48-6.483-14.48-14.48H217.23z M394.11,359.739c0,0.442-0.358,0.8-0.8,0.8h-10.24c-4.418,0-8,3.582-8,8v78.4
		c0,0.442-0.358,0.8-0.8,0.8H89.47c-0.442,0-0.8-0.358-0.8-0.8v-78.4c0-4.418-3.582-8-8-8H70.51c-0.442,0-0.8-0.358-0.8-0.8v-50.48
		c0-0.442,0.358-0.8,0.8-0.8h10.16c4.418,0,8-3.582,8-8v-43.68c0-36.64,28.4-40.56,40.56-40.56h205.28
		c36.64,0,40.56,28.4,40.56,40.56v43.6c0,4.418,3.582,8,8,8h10.24c0.442,0,0.8,0.358,0.8,0.8V359.739z"/>
	<path style="fill:#58171D;" d="M231.87,345.899c-4.418,0-8,3.582-8,8v36.08c0,4.418,3.582,8,8,8s8-3.582,8-8v-36.08
		C239.87,349.481,236.288,345.899,231.87,345.899L231.87,345.899z"/>
	<path style="fill:#58171D;" d="M166.51,43.099c36.072-36.097,94.576-36.118,130.673-0.047c0.016,0.016,0.031,0.031,0.047,0.047
		c3.137,3.115,8.205,3.097,11.32-0.04c3.115-3.137,3.097-8.205-0.04-11.32l0,0c-42.33-42.319-110.95-42.319-153.28,0
		c-3.356,2.874-3.747,7.924-0.873,11.28c2.874,3.356,7.924,3.747,11.28,0.873c0.313-0.268,0.605-0.56,0.873-0.873L166.51,43.099z"/>
	<path style="fill:#58171D;" d="M279.87,68.859c4.418,0.026,8.021-3.535,8.046-7.953c0.012-2.149-0.84-4.213-2.366-5.727
		c-29.437-29.323-77.043-29.323-106.48,0c-3.356,2.874-3.747,7.924-0.873,11.28c2.874,3.356,7.924,3.747,11.28,0.873
		c0.313-0.268,0.605-0.56,0.873-0.873c23.178-23.163,60.742-23.163,83.92,0C275.747,67.967,277.759,68.829,279.87,68.859
		L279.87,68.859z"/>
	<path style="fill:#58171D;" d="M201.87,78.459c-3.356,2.874-3.747,7.924-0.873,11.28c2.874,3.356,7.924,3.747,11.28,0.873
		c0.313-0.268,0.605-0.56,0.873-0.873c10.358-10.292,27.082-10.292,37.44,0c2.874,3.356,7.924,3.747,11.28,0.873
		s3.747-7.924,0.873-11.28c-0.268-0.313-0.56-0.605-0.873-0.873C245.271,61.964,218.469,61.964,201.87,78.459z"/>
</g>
<g>
</g>
<g>
</g>
<g>
</g>
<g>
</g>
<g>
</g>
<g>
</g>
<g>
</g>
<g>
</g>
<g>
</g>
<g>
</g>
<g>
</g>
<g>
</g>
<g>
</g>
<g>
</g>
<g>
</g>
</svg>
