<?xml version="1.0" encoding="iso-8859-1"?>
<!-- Generator: Adobe Illustrator 19.0.0, SVG Export Plug-In . SVG Version: 6.00 Build 0)  -->
<svg version="1.1" id="Capa_1" xmlns="http://www.w3.org/2000/svg" xmlns:xlink="http://www.w3.org/1999/xlink" x="0px" y="0px"
	 viewBox="0 0 489.084 489.084" style="enable-background:new 0 0 489.084 489.084;" xml:space="preserve">
<g>
	<path style="fill:#5A5A60;" d="M176.004,244.551h-16c0-26.51-21.49-48-48-48v-16C147.35,180.551,176.004,209.205,176.004,244.551z"
		/>
	<path style="fill:#5A5A60;" d="M224.004,244.551h-16c0.003-22.413-7.837-44.121-22.16-61.36l12.32-10.24
		C214.872,193.069,224.014,218.4,224.004,244.551z"/>
</g>
<path style="fill:#63C8CD;" d="M469.604,106.311c-45.432-90.899-155.95-127.758-246.849-82.326
	c-43.636,21.809-76.825,60.054-92.271,106.326l-2.48,7.6l294.8,98.64h-310.8v29.2l-63.36,90.8h55.36v80h136v48h240v-239.2
	C495.034,199.45,491.295,149.466,469.604,106.311z"/>
<path style="fill:#E05B69;" d="M102.804,125.591c-12.362-11.784-31.798-11.784-44.16,0l-2.64,2.56l-2.64-2.56
	c-12.362-11.784-31.798-11.784-44.16,0c-12.128,11.927-12.291,31.428-0.364,43.556c0.12,0.122,0.241,0.243,0.364,0.364l46.8,46.32
	l46.8-46.32c12.128-11.927,12.291-31.428,0.364-43.556C103.047,125.833,102.926,125.712,102.804,125.591z"/>
<path style="fill:#1895AA;" d="M188.004,300.551c-16.967,0.035-33.254-6.67-45.28-18.64l11.36-11.36
	c18.74,18.717,49.1,18.717,67.84,0l11.36,11.36C221.258,293.881,204.971,300.586,188.004,300.551z"/>
<g>
	<path style="fill:#91E8E8;" d="M432.004,436.551h16v16h-16V436.551z"/>
	<path style="fill:#91E8E8;" d="M432.004,404.551h16v16h-16V404.551z"/>
	<path style="fill:#91E8E8;" d="M432.004,372.551h16v16h-16V372.551z"/>
</g>
<g>
</g>
<g>
</g>
<g>
</g>
<g>
</g>
<g>
</g>
<g>
</g>
<g>
</g>
<g>
</g>
<g>
</g>
<g>
</g>
<g>
</g>
<g>
</g>
<g>
</g>
<g>
</g>
<g>
</g>
</svg>
