<?xml version="1.0" encoding="iso-8859-1"?>
<!-- Generator: Adobe Illustrator 19.0.0, SVG Export Plug-In . SVG Version: 6.00 Build 0)  -->
<svg version="1.1" id="Capa_1" xmlns="http://www.w3.org/2000/svg" xmlns:xlink="http://www.w3.org/1999/xlink" x="0px" y="0px"
	 viewBox="0 0 512 512" style="enable-background:new 0 0 512 512;" xml:space="preserve">
<path style="fill:#727272;" d="M143.82,8.931c-1.377,11.044-1.13,20.893-0.594,32.105c0.155,3.248-0.98,9.882,0.613,12.645
	c2.081,3.609,8.445,2.619,12.928,2.836c43.528,2.108,87.7,1.348,131.271,1.326c17.295-0.009,34.66,0.597,52.025,0.597
	c4.005,0,24.129,2.201,26.754-0.718c1.84-2.045,0.662-13.135,0.687-15.95c0.064-7.314,0.477-14.851,0-22.149
	c-0.938-14.344-20.056-9.007-31.459-9.469C301.068,8.739,266.047,8.93,230.992,8.93c-16.161,0-32.295,0.006-48.395,1.176
	C171.84,10.889,157.378,8.096,143.82,8.931z"/>
<path style="fill:#71D182;" d="M96.1,8.335c0,15.274,1.076,30.155,1.88,45.243c15.085,0.723,31.468,1.851,46.346,1.191
	c0.555-9.554-3.014-19.728-1.645-29.027c0.718-4.881,4.991-9.121,1.918-13.919C137.684,1.023,107.119,10.403,96.1,8.335z"/>
<path style="fill:#FFDC0F;" d="M59.714,10.124c-0.098,12.367-1.21,24.857-0.597,37.285c0.244,4.953,0.058,6.929,4.727,8.512
	c9.502,3.222,24.089-0.297,33.954-0.554c2.055-10.727-0.946-20.749-2.346-31.264c-0.594-4.461,1.045-13.217-2.027-15.774
	C86.955,2.944,69.041,8.873,59.714,10.124z"/>
<path style="fill:#FF3535;" d="M13.188,16.686c0.076,7.184-0.676,14.454-1.207,21.612c-0.239,3.222-2.194,11.892-0.583,15.366
	c2.016,4.345,4.563,2.383,10.532,2.39c12.547,0.014,25.228,0.019,37.725-0.687c-2.342-7.155-0.666-16.343-1.467-23.934
	c-0.479-4.533-0.24-14.459-2.052-18.922C51.328,0.676,26.377,18.582,13.188,16.686z"/>
<path style="fill:#FFCFB4;" d="M13.693,214.141c-0.621,19.77-3.136,39.436-3.885,59.202c-0.432,11.395,2.688,21.527,2.523,32.795
	c-0.16,10.966-2.503,21.743-3.186,32.666c-0.934,14.937-1.419,29.813-2.055,44.74c-0.999,23.448-0.599,47.088-1.059,70.547
	c-0.188,9.56-2.949,27.05,6.219,33.592c4.898,3.495,13.688,4.37,19.401,4.987c11.978,1.293,23.948,3.02,36.012,3.629
	c26.188,1.321,52.345,2.843,78.537,4.127c24.576,1.205,48.821,5.746,73.397,6.572c23.203,0.78,45.659-2.826,68.784-4.185
	c14.934-0.878,29.427-0.283,44.033-3.713c11.669-2.74,25.864-2.464,31.378-15.198c4.224-9.757,4.329-21.772,4.31-32.208
	c-0.016-8.783,0.563-17.491,0.581-26.27c0.036-17.943-1.245-34.048-4.959-51.339c-4.18-19.46-1.017-41.686-1.6-61.529
	c-0.439-14.952-2.105-29.901-1.789-44.879c0.432-20.5,3.039-40.901,4.055-61.376c0.684-13.783-1.134-27.498-0.432-41.293
	c1.113-21.883,5.347-43.308,5.339-65.311c-0.005-13.387,1.882-28.605-0.685-41.775c-29.427-1.234-59.15,1.046-88.675,1.117
	c-74.749,0.179-150.04-4.767-224.587-1.162c-12.345,0.597-25.921-2.271-38.015-0.627c-10.766,1.463-5.567,15.366-4.793,23.855
	c3.874,42.483,1.842,85.326,1.27,127.908C13.786,210.721,13.746,212.432,13.693,214.141z"/>
<path style="fill:#F4F4F4;" d="M120.585,154.985c3.671-3.187,8.642-4.31,13.165-6.536c7.658-3.771,15.027-7.962,22.916-11.283
	c15.141-6.375,31.397-10.8,47.949-10.16c19.544,0.756,40.463,8.997,57.806,17.809c16.018,8.138,17.794,24.506,8.351,39.45
	c-12.983,20.547-45.942,28.678-68.645,25.713c-17.415-2.274-35.787-8.348-51.032-17.181c-8.701-5.041-15.614-10.899-22.714-17.904
	c-4.247-4.19-14.796-8.382-11.094-15.673C118.176,157.466,119.301,156.1,120.585,154.985z"/>
<g>
	<path style="fill:#DD8C4E;" d="M80.592,287.493c-16.293,10.734-2.712,36.176,14.912,29.182c7.712-3.06,11.826-11.743,9.587-19.814
		C101.323,283.282,89.139,283.885,80.592,287.493z"/>
	<path style="fill:#DD8C4E;" d="M161.715,258.265c-12.161,7.317-11.073,27.382,2.982,30.885
		c13.665,3.405,22.695-7.756,17.878-21.341c-1.263-3.563-3.251-6.555-6.544-8.828C169.603,254.544,165.714,256.2,161.715,258.265z"
		/>
</g>
<path style="fill:#FF3535;" d="M218.382,427.073c18.109-7.005,36.349-19.849,52.491-30.714c12.59-8.473,26.332-20.364,36.983-31.082
	c7.413,11.339,22.829,21.099,36.312,21.239c4.51,0.047,18.15-4.046,20.98-1.227c2.023,2.015,1.588,14.176,1.761,16.46
	c0.792,10.478,1.193,20.806,1.193,31.332c0,14.554-0.949,28.932-5.489,42.844c-3.461,0.273-6.563-1.207-10.017-1.595
	c-5.58-0.628-11.453,0.094-17.019,0.455c-12.941,0.839-24.551,0.707-37.147-2.379c-20.145-4.936-39.189-8.07-55.146-22.702
	C234.552,441.698,223.209,433.511,218.382,427.073z"/>
<path style="fill:#727272;" d="M128.908,309.564c-0.911,13.389-5.392,27.273-8.649,40.285c-3.077,12.294-4.411,24.22-5.698,36.643
	c-0.758,7.321-1.093,12.703,7.608,11.963c7.115-0.605,15.195-4.923,22.16-4.099c2.361,13.812,5.883,29.582,10.332,42.753
	c6.522,0.199,22.561,0.104,26.9-6.296c2.588-3.817-0.833-13.36-1.355-17.294c-0.732-5.521-4.475-15.932-2.994-21.041
	c2.22-7.658,17.841-8.281,16.131-18.493c-1.096-6.544-10.522-14.531-14.726-19.501c-5.933-7.014-10.999-14.683-16.932-21.731
	C157.222,327.45,132.841,296.51,128.908,309.564z"/>
<path style="fill:#008EE5;" d="M190.943,135.389c-21.359,6.126-26.171,44.246-2.881,50.103c23.229,5.842,46.335-2.812,43.492-30.224
	C229.47,135.169,212.156,128.286,190.943,135.389z"/>
<path style="fill:#9E9E9E;" d="M400.908,110.335c0.583,24.419-2.891,49.524-4.085,73.955c-0.912,18.648,0.48,38.363,2.923,56.83
	c4.446,33.606,0.015,68.599,1.628,102.444c0.613,12.861,0.95,25.026,10.398,34.863c6.816,7.096,15.002,7.022,24.344,7.316
	c19.843,0.625,41.356,1.078,57.773-11.769c6.743-5.277,11.648-9.067,13.062-17.805c2.038-12.597,0.133-25.71,0.133-38.387
	c0-12.147-2.365-24.194,0.278-36.089c2.548-11.465,1.161-23.405,0.247-35.157c-2.052-26.387-5.894-53.245-5.894-79.399
	c0-16.305,5.591-40.298-6.491-53.842c-11.228-12.586-31.673-10.975-46.856-11.862C433.263,100.55,408.928,98.668,400.908,110.335z"
	/>
<path style="fill:#F4F4F4;" d="M467.119,206.371c-11.845,13.687-63.242,37.449-38.473,61.139
	c11.415,10.918,25.223-6.189,32.817-13.231c9.341-8.661,21.988-16.12,26.401-28.821c1.922-5.533,0.055-9.474-2.833-13.985
	C479.622,203.024,474.858,200.587,467.119,206.371z"/>
<path d="M375.391,24.05c-2.264-11.142-8.789-17.948-19.869-19.547c-16.244-2.344-33.415,0.372-49.734,0.745
	c-5.989,0.137-11.892,0.265-17.767,0.454c-39.8-0.972-79.64-1.163-119.401-2.174c-30.898-0.786-61.861-2.479-92.755-1.032
	C62.682,3.113,49.317,2.524,36.204,4.033C25.733,5.238,13.699,4.078,8.7,15.132C3.839,25.883,5.42,39.166,5.017,50.623
	c-0.596,16.933-0.198,33.842-0.199,50.782c-0.002,33.521-1.7,67.119-0.863,100.619c0.816,32.632,1.237,65.235,0.802,97.88
	c-0.433,32.481-2.964,64.937-2.878,97.413c0.042,15.938,0.622,31.934-0.12,47.864C1.171,457.8-2.567,473.23,3.066,485.214
	c3.521,7.492,12.172,9.835,19.636,11.942c14.317,4.041,29.952,5.346,44.684,7.104c63.476,7.573,128.03,5.55,191.855,5.599
	c27.12,0.021,54.659,0.636,81.529-2.811c9.133-1.171,17.792-2.97,23.107-11.356c6.84-10.792,7.876-26.659,9.678-39.065
	c4.133-28.46,0.631-58.188-1.499-86.699c-2.319-31.034-2.412-62.102-2.405-93.224c0.008-34.768-0.312-69.537,1.15-104.244
	c1.447-34.361,4.7-68.49,4.689-102.91c-0.003-7.807-0.005-15.614-0.007-23.421C375.479,38.984,376.821,31.087,375.391,24.05z
	 M139.532,14.658c-0.165,0.986-0.299,1.849-0.313,2.36c-0.145,5.407-0.567,10.908-0.058,16.302
	c0.544,5.762,0.043,12.755,1.188,18.834c-11.324-0.531-22.65-0.926-33.993-0.8c-0.891,0.01-1.788,0.021-2.679,0.031
	c-0.198-0.245-0.423-0.476-0.698-0.668c0.142,0.099-0.344-6.05-0.326-5.902c-0.533-4.408-0.694-8.791-1.211-13.204
	c-0.684-5.84-1.368-11.685-2.041-17.534C112.778,14.021,126.155,14.319,139.532,14.658z M61.742,15.11
	c4.013-0.118,8.033-0.243,12.067-0.433c6.706-0.316,13.411-0.474,20.117-0.553c-0.421,6.299,0.092,12.603,0.472,18.955
	c0.273,4.574,0.737,9.117,1.273,13.661c0.178,1.509,0.081,3.161,0.235,4.735c-0.037-0.378-23.879,0.313-26.081,0.291
	c-7.782-0.077-7.57-3.055-8.122-10.227C61.703,32.807,62.399,23.811,61.742,15.11z M17.416,32.468
	c0.148-2.073,0.299-6.33,1.184-8.801c2.595-7.237,5.66-6.147,13.05-6.938c8.105-0.868,16.175-1.193,24.262-1.441
	c0,2.982-0.129,36.696,0.379,36.687c-13.272,0.218-26.541,0.503-39.773,0.97C16.757,46.124,16.931,39.265,17.416,32.468z
	 M362.274,446.865c-0.522,6.078-1.553,11.993-2.617,17.95c-5.251,0.161-10.907,2.306-16,3.243
	c-8.398,1.546-15.839,2.013-24.362,1.657c-8.711-0.363-17.193-0.606-25.849-1.738c-9.318-1.218-16.024-4.005-24.386-8.133
	c-13.606-6.716-23.336-18.453-36.6-25.62c-0.69-0.373-1.436-0.789-2.222-1.225c2.592-0.044,5.18-0.044,7.749,0.048
	c7.456,0.269,14.092,2.145,21.595,1.316c15.972-1.764,29.993-9.631,45.307-13.594c6.005-1.554,12.002-2.995,18.072-0.29
	c3.285,1.464,6.035,4.234,9.219,5.911c4.484,2.363,10.391,4.473,15.472,3.438c4.218-0.859,10.496-3.839,15.078-7.861
	C363.001,430.241,362.995,438.467,362.274,446.865z M231.707,424.073c12.182-5.659,23.722-12.571,35.346-19.736
	c16.162-9.961,28.333-21.693,40.523-35.611c2.792,4.222,4.851,8.796,9.06,12.396c4.192,3.585,8.995,6.138,14.244,7.749
	c10.63,3.26,20.298,4.538,30.395,2.306c0.249,5.58,0.51,11.154,0.809,16.714c0.03,0.56,0.058,1.115,0.087,1.674
	c-3.283,2.622-6.687,5.543-10.663,6.695c-9.89,2.865-14.962-1.527-22.77-5.664c-10.365-5.491-22.353-2.592-32.83,1.093
	c-12.768,4.489-25.409,10.057-38.91,12.1c-6.413,0.971-12.58-0.12-19.011-0.074C236.204,423.728,234.009,423.914,231.707,424.073z
	 M359.058,163.602c-1.306,27.112-1.746,54.194-1.74,81.346c0.006,27.68-1.31,55.742,0.744,83.329
	c0.224,3.012,0.381,6.044,0.574,9.065c-5.275-0.28-10.508,0.952-15.862-1.114c-6.905-2.665-10.278-9.55-16.596-13.17
	c-11.908-6.823-38.649,1.06-32.634-21.454c7.568-28.325,27.119-57.207,21.787-87.885c-0.475-2.735-4.728-2.542-5.338,0
	c-5,20.814-9.927,41.735-18.395,61.427c-5.66,13.164-17.576,32.933-6.963,46.447c4.246,5.407,10.714,8.085,17.407,8.896
	c9.413,1.139,16.501,1.084,23.872,8.039c8.953,8.449,21.505,13.867,33.414,9.807c0.601,11.159,1.064,22.352,1.542,33.532
	c-8.444-0.095-16.685,0.368-25.314-1.936c-8.06-2.151-15.043-6.035-19.637-13.328c-1.826-2.898-2.614-5.448-5.016-7.95
	c-1.618-1.687-4.634-1.712-6.251,0c-14.399,15.249-28.625,27.987-46.687,39.051c-9.357,5.732-18.79,11.332-28.251,16.887
	c-5.164,3.032-13.636,5.654-16.324,11.697c-3.799,8.542,8.59,12.671,14.171,16.315c7.481,4.888,13.644,11.136,20.378,16.936
	c9.099,7.836,22.425,15.594,34.186,18.236c14.597,3.278,30.673,4.347,45.577,4.089c9.264-0.16,20.855-1.121,30.028-4.958
	c-0.828,5.286-2.126,10.793-5.564,14.053c-6.571,6.231-23.063,4.78-31.519,5.453c-13.724,1.092-27.453,1.207-41.224,1.24
	c-59.215,0.143-118.841,2.015-177.905-2.844c-25.947-2.135-53.904-2.158-78.908-10.305c-7.864-2.562-9.493-4.203-10.104-13.224
	c-0.411-6.065,0.311-12.138,0.748-18.18c1.069-14.769,0.787-29.586,0.641-44.383c-0.576-58.651,3.643-117.233,2.594-175.942
	c-0.528-29.554-0.551-58.869-0.089-88.421c0.442-28.335-0.936-56.773-0.076-85.095c32.26,0.948,64.45-0.664,96.689-0.323
	c33.209,0.351,66.456,2.302,99.674,2.952c33.234,0.65,66.45,0.238,99.717,1.053c13.014,0.319,25.962-0.886,38.902-0.659
	c3.262,0.057,7.938,0.707,11.805-0.104c0.04,6.175,0.101,12.349,0.099,18.511C363.202,108.338,360.388,135.992,359.058,163.602z
	 M363.285,37.918c-0.145,4.888-0.182,9.785-0.19,14.684c-0.464,0.333-0.882,0.795-1.21,1.431
	c-0.531,1.028-24.434,0.839-25.727,0.902c-15.507,0.765-31.119-0.419-46.623-0.741c-30.777-0.638-61.732-0.266-92.499-0.034
	c-16.348,0.123-32.661-0.798-48.974-1.623c-0.852-3.394-0.674-9.275-0.863-11.887c-0.333-4.607-0.822-9.318-1.004-13.944
	c-0.153-3.915-0.437-7.946-0.345-11.889c6.812,0.177,13.625,0.351,20.439,0.488c32.273,0.647,64.735-0.488,96.96,1.191
	c30.396,1.584,60.936,1.142,91.328-0.602C365.109,20.232,363.552,28.883,363.285,37.918z"/>
<path d="M236.529,129.389c-13.733-3.236-28.42-4.815-41.786-4.53c-17.068,0.364-32.084,4.24-47.383,11.612
	c-18.176,8.759-35.996,14.969-55.569,19.797c-3.33,0.821-3.494,6.18,0,6.902c8.32,1.72,16.236,1.028,23.923-0.995
	c6.754,21.774,29.84,36.519,49.609,44.87c12.835,5.421,28.776,7.863,42.653,8.995c13.134,1.072,25.445-2.778,38.096-5.653
	c19.524-4.436,41.08-23.443,37.305-45.888c-2.727-16.213-17.582-25.772-32.004-30.813
	C246.636,132.031,241.649,130.594,236.529,129.389z M198.984,135.977c3.82,0.114,7.638,0.415,11.443,0.851
	c8.399,2.365,14.885,6.788,16.751,17.671c1.635,9.537-2.429,20.047-10.316,25.866c-8.271,6.102-15.184,5.715-24.851,3.137
	c-10.842-2.89-17.1-13.75-15.578-24.611C178.035,147.449,188.25,139.41,198.984,135.977z M270.882,173.589
	c-5.615,20.513-24.806,25.806-43.332,29.139c-19.651,3.535-42.81,0.993-61.139-7.542c-15.692-7.307-35.737-18.53-44.58-34.903
	c17.055-5.986,33.174-17.269,50.317-21.608c3.628-0.919,7.289-1.571,10.966-2.016c-8.564,6.051-15.121,15.395-14.942,24.702
	c0.34,17.73,12.233,29.23,29.031,32.013c19.568,3.241,38.266-14.417,38.533-33.795c0.113-8.167-2.018-14.596-5.753-19.47
	c10.06,1.978,22.996,4.743,31.966,10.83C268.732,157.454,273.16,165.266,270.882,173.589z"/>
<path d="M191.406,165.348c1.025,4.909,6.063,8.769,11.097,7.906c4.34-0.744,7.445-4.39,9.05-8.286
	c1.655-4.017,1.96-9.246-1.076-12.725c-3.348-3.838-9.465-3.202-13.649-1.19c-4.595,2.209-6.592,7.665-5.614,12.519
	C191.226,164.174,191.285,164.768,191.406,165.348z"/>
<path d="M154.222,284.529c3.662,5.761,11.487,9.312,18.227,8.579c6.713-0.73,10.674-5.756,12.869-11.755
	c5.335-14.582-6.462-33.379-23.017-25.85c-6.056,2.754-12.407,9.874-13.061,16.745c-0.33,3.464,1.22,8.534,4.272,10.881
	C153.744,283.599,153.943,284.09,154.222,284.529z M158.123,267.454c2.046-3.062,5.049-5.566,7.809-6.412
	c11.241-3.444,15.915,10.396,12.537,18.818c-3.798,9.47-17.442,8.277-20.892-1.217C156.318,275.178,156.676,271.145,158.123,267.454
	z"/>
<path d="M83.13,282.87c-6.056,2.754-12.407,9.874-13.061,16.745c-0.33,3.464,1.22,8.534,4.272,10.881
	c0.232,0.47,0.431,0.961,0.711,1.4c3.662,5.761,11.487,9.311,18.227,8.579c6.712-0.73,10.674-5.756,12.869-11.755
	C111.481,294.139,99.685,275.342,83.13,282.87z M99.298,307.227c-3.798,9.47-17.442,8.277-20.892-1.217
	c-1.259-3.465-0.901-7.497,0.546-11.188c2.046-3.062,5.049-5.566,7.809-6.412C98.002,284.966,102.676,298.805,99.298,307.227z"/>
<path d="M224.755,290.43c-3.11-0.012-6.233,1.897-7.562,4.448c-0.975,1.641-1.408,3.609-1.087,5.487
	c0.507,2.965,3.009,5.763,5.934,6.551c3.273,0.882,5.801-1.012,7.607-3.529c1.559-2.174,3.308-4.85,2.615-7.652
	C231.437,292.404,228.046,290.442,224.755,290.43z"/>
<path d="M116.321,265.499c1.476-0.912,2.653-2.256,3.08-3.976c0.399-1.607,0.331-3.787-0.603-5.236
	c-1.43-2.219-4.252-2.779-6.54-1.576c-1.68,0.882-2.294,2.465-2.366,4.147c0.127-0.285,0.138-0.306,0.033-0.058
	c-0.009,0.023-0.024,0.041-0.033,0.064c0,0-0.001,0.012-0.002,0.017c-0.025,0.059-0.046,0.107-0.08,0.189
	c-0.236,0.448-0.344,0.931-0.324,1.449c-0.002,0.38,0.081,0.803,0.131,1.174c0.168,1.248,0.882,2.255,1.724,3.163
	C112.547,266.158,114.818,266.428,116.321,265.499z"/>
<path d="M109.875,258.897c0.004-0.011,0.012-0.02,0.016-0.031l0.001-0.007C109.885,258.874,109.883,258.879,109.875,258.897z"/>
<path d="M146.825,312.912c-9.085-9.894-16.813-15.265-22.852-0.557c-3.337,8.127-3.424,16.207-4.957,24.669
	c-4.145,15.387-6.665,31.827-8.538,47.227c-1.428,11.734-0.234,20.195,12.742,18.085c4.297-0.698,8.455-1.918,12.701-2.792
	c3.921-0.807,3.866-1.171,5.77,1.664c2.089,3.111,2.24,11.895,3.112,15.637c1.162,4.988,1.925,10.324,3.491,15.183
	c4.383,13.605,16.787,8.477,27.602,4.563c11.721-4.242,12.642-7.704,10.426-19.631c-0.775-4.173-1.173-8.322-2.11-12.474
	c-0.503-2.228-3.583-9.759-2.64-12.183c1.917-4.931,11.785-7.465,15.257-11.072c6.843-7.107-5.104-17.909-9.587-22.818
	C173.524,343.392,160.565,327.875,146.825,312.912z M189.736,376.092c-0.999,1.736-4.862,2.982-6.485,4.093
	c-6.094,4.172-10.627,7.994-9.338,15.744c0.866,5.208,2.398,10.269,3.595,15.404c1.102,4.728,1.264,9.541,2.277,14.257
	c0.54,2.513-11.165,4.797-12.563,5.169c-6.064,1.613-8.591,2.583-11.706-3.255c-1.81-3.391-2.135-9.101-2.972-12.792
	c-1.335-5.886-1.043-17.244-5.552-21.833c-6.453-6.568-16.619,2.077-23.979,1.294c-12.064-1.285-0.906-27.527,0.173-33.793
	c1.249-7.257,2.487-14.519,3.483-21.816c0.89-6.523,0.645-13.944,2.958-20.161c0.532-1.429,2.202-5.482,3.695-6.075
	c2.153-0.854,3.905,2.257,5.271,3.635c7.096,7.16,14.615,14.498,20.875,22.354c6.176,7.752,12.617,15.441,19.218,22.84
	C181.283,364.069,191.51,372.986,189.736,376.092z"/>
<path d="M439.276,275.073c4.887-0.279,7.678-2.563,11.259-5.413c6.578-5.233,12.991-11.206,19.097-17.018
	c8.805-8.381,19.687-14.658,21.491-27.678c1.229-8.87-1.592-24.079-12.292-26.04c-11.283-2.068-23.357,9.298-30.794,16.079
	c-4.927,4.492-9.204,9.565-13.874,14.299c-0.163,0.117-0.326,0.238-0.489,0.354c-9.105,6.528-16.812,17.999-14.381,29.803
	C421.068,268.078,430.357,275.581,439.276,275.073z M427.779,248.973c2.332-7.133,6.559-10.348,11.977-14.584
	c6.072-4.747,12.146-9.497,18.038-14.468c5.803-4.897,15.14-18.097,23.45-9.15c6.554,7.056,1.061,19.503-4.332,24.945
	c-5.37,5.418-11.603,10.368-17.241,15.544c-6.823,6.264-16.599,17.42-26.909,14.312C425.409,263.355,426.058,254.24,427.779,248.973
	z"/>
<path d="M449.174,241.913c2.197,3.918,7.071,4.388,10.332,1.6c2.117-1.81,3.936-4.355,4.943-6.95c1.298-3.346-0.27-7.258-3.9-8.292
	c-3.299-0.939-6.761,1.007-9.041,3.273c-1.821,1.811-3.309,4.552-3.266,7.175c0.012,0.679,0.168,1.278,0.384,1.837
	C448.758,241.016,448.927,241.471,449.174,241.913z"/>
<path d="M509.675,226.576c-1.718-29.081-1.801-58.441-1.799-87.641c0.001-9.041,0.318-19.314-6.134-26.432
	c-6.72-7.414-19.659-11.505-29.249-12.128c-16.152-1.05-32.382-1.382-48.609-1.064c-8.758,0.171-23.067-1.598-28.21,7.204
	c-4.586,7.848-3.017,16.973-2.434,25.431c0.763,11.063,0.232,22.389,0.246,33.477c0.033,24.856-0.69,49.782,0.054,74.533
	c0.794,26.41,1.334,52.83,2.549,79.226c0.625,13.586,0.248,27.228,1.35,40.803c0.825,10.165,2.988,21.151,13.305,25.498
	c11.257,4.744,23.724,2.775,35.463,2.668c13.922-0.126,29.018-1.681,42.491-5.375c23.873-6.546,22.348-39.35,22.937-59.333
	C512.589,291.061,511.581,258.816,509.675,226.576z M402.719,125.007c0.481-4.463,0.347-8.892,3.954-11.666
	c3.784-2.91,12.551-2.726,17.211-2.844c12.181-0.305,24.999-0.746,37.145,0.171c9.747,0.736,21.041,1.082,29.388,7.009
	c9.927,7.047,6.262,27.069,6.262,38.018c-0.001,9.089,0.27,18.157,0.598,27.216c-5.501,0.474-11.69,0.23-16.756,0.415
	c-10.876,0.397-22.221,0.547-33.079-0.158c-14.792-0.96-30.478-2.577-45.34-0.679C405.028,163.475,400.656,144.158,402.719,125.007z
	 M402.011,212.025c-0.361-8.094-0.455-16.187-0.471-24.279c18.669,2.9,38.499,3.121,57.27,3.129
	c9.888,0.005,19.816,0.332,29.656-0.571c3.045-0.279,6.194,0.1,9.078-0.15c0.412,10.868,0.829,21.728,0.885,32.597
	c0.059,11.445,2.117,22.748,2.136,34.257c0.01,6.597,0.011,13.195,0.011,19.792c0,4.351,1.649,10.381-2.457,12.943
	c-5.061,3.157-13.941,0.976-19.591,1.134c-9.329,0.262-18.667,0.191-27.989,0.692c-7.806,0.419-15.676,0.165-23.491,0.263
	c-6.421,0.08-14.844,1.067-21.655,0.093C404.334,265.299,403.199,238.658,402.011,212.025z M499.868,334.665
	c-0.884,12.529-0.254,32.212-14.156,37.274c-10.55,3.842-24.273,4.663-35.381,5.257c-10.278,0.549-32.775,4.467-39.597-5.531
	c-5.432-7.96-3.576-25.996-3.832-35.47c-0.332-12.322-0.728-24.632-1.21-36.953c-0.015-0.385-0.032-0.771-0.047-1.156
	c2.91,0.579,6.1,0.535,8.848,0.793c9.647,0.906,19.486,0.573,29.166,0.593c8.669,0.018,17.146-1.425,25.806-1.32
	c9.983,0.121,19.864,0.573,29.77-0.705c0.43-0.055,0.891-0.167,1.342-0.33C500.591,309.63,500.749,322.174,499.868,334.665z"/>
<path d="M426.375,134.141c8.735,1.58,17.705,1.287,26.556,1.342c7.502,0.046,15.317,0.719,22.181-2.643
	c1.96-0.961,1.159-3.625-0.557-4.259c-7.02-2.594-16.011-0.486-23.477-0.441c-8.247,0.049-16.566-0.143-24.703,1.329
	C424.063,129.886,424.062,133.723,426.375,134.141z"/>
<path d="M426.375,149.779c8.735,1.58,17.705,1.287,26.556,1.342c7.502,0.046,15.317,0.719,22.181-2.643
	c1.96-0.961,1.159-3.625-0.557-4.259c-7.02-2.594-16.011-0.486-23.477-0.441c-8.247,0.05-16.566-0.143-24.703,1.329
	C424.063,145.524,424.062,149.361,426.375,149.779z"/>
<path d="M426.375,165.419c8.735,1.58,17.705,1.287,26.556,1.342c7.502,0.046,15.317,0.719,22.181-2.643
	c1.96-0.961,1.159-3.625-0.557-4.259c-7.02-2.594-16.011-0.486-23.477-0.441c-8.247,0.049-16.566-0.143-24.703,1.329
	C424.063,161.163,424.062,165.001,426.375,165.419z"/>
<path d="M474.555,315.266c-7.02-2.595-16.011-0.486-23.477-0.44c-8.247,0.049-16.566-0.143-24.703,1.328
	c-2.312,0.418-2.314,4.255,0,4.673c8.735,1.581,17.705,1.287,26.556,1.342c7.502,0.046,15.317,0.719,22.181-2.643
	C477.072,318.564,476.271,315.9,474.555,315.266z"/>
<path d="M474.555,330.905c-7.02-2.594-16.011-0.486-23.477-0.441c-8.247,0.049-16.566-0.143-24.703,1.329
	c-2.312,0.418-2.314,4.255,0,4.673c8.735,1.58,17.705,1.287,26.556,1.342c7.502,0.046,15.317,0.719,22.181-2.643
	C477.072,334.203,476.271,331.539,474.555,330.905z"/>
<path d="M474.555,346.544c-7.02-2.595-16.011-0.486-23.477-0.441c-8.247,0.049-16.566-0.143-24.703,1.329
	c-2.312,0.418-2.314,4.255,0,4.673c8.735,1.58,17.705,1.287,26.556,1.341c7.502,0.046,15.317,0.719,22.181-2.643
	C477.072,349.842,476.271,347.178,474.555,346.544z"/>
<g>
</g>
<g>
</g>
<g>
</g>
<g>
</g>
<g>
</g>
<g>
</g>
<g>
</g>
<g>
</g>
<g>
</g>
<g>
</g>
<g>
</g>
<g>
</g>
<g>
</g>
<g>
</g>
<g>
</g>
</svg>
