<?xml version="1.0" encoding="iso-8859-1"?>
<!-- Generator: Adobe Illustrator 19.0.0, SVG Export Plug-In . SVG Version: 6.00 Build 0)  -->
<svg version="1.1" id="Capa_1" xmlns="http://www.w3.org/2000/svg" xmlns:xlink="http://www.w3.org/1999/xlink" x="0px" y="0px"
	 viewBox="0 0 480.058 480.058" style="enable-background:new 0 0 480.058 480.058;" xml:space="preserve">
<path style="fill:#F7D04F;" d="M298.748,22.458C262.549-9.973,206.915-6.919,174.484,29.28
	c-11.611,12.96-19.12,29.072-21.576,46.299c-3.929,27.056,4.939,54.401,24,74c15.097,15.694,23.404,36.705,23.12,58.48v8h80v-8
	c0.086-22.276,8.67-43.679,24-59.84c33.303-35.398,31.604-91.09-3.793-124.393C299.744,23.364,299.248,22.908,298.748,22.458z"/>
<g>
	<path style="fill:#63C8CD;" d="M63.548,144.538l-6.4,0.64l-0.64,6.4c-0.48,2.16-5.28,51.92,23.52,80.48
		c20.88,20.96,53.12,24,69.76,24c3.606,0.033,7.211-0.127,10.8-0.48l6.4-0.64l0.64-6.4c0-2.16,5.28-51.92-23.44-80.56
		S65.708,144.058,63.548,144.538L63.548,144.538z"/>
	<path style="fill:#63C8CD;" d="M423.548,183.578l-0.64-6.4l-6.4-0.64c-2.16-0.48-51.92-5.2-80.48,23.52s-24,78.4-23.44,80.56
		l0.64,6.4l6.4,0.64c3.589,0.353,7.194,0.513,10.8,0.48c16.64,0,48.88-2.96,69.76-24
		C428.828,235.498,424.027,185.738,423.548,183.578L423.548,183.578z"/>
</g>
<path style="fill:#5A5A60;" d="M381.708,229.738l-11.36-11.36l-85.6,85.68h-36.72v-64h-16v32h-36.72l-85.6-85.68l-11.36,11.36
	l90.4,90.32h43.28v56h16v-24h43.28L381.708,229.738z"/>
<path style="fill:#F9F6ED;" d="M277.708,77.738l-11.36-11.36l-26.32,26.4l-26.32-26.4l-11.36,11.36l29.68,29.6v100.72h16v-100.72
	L277.708,77.738z"/>
<g>
	<path style="fill:#EF9F35;" d="M272.028,200.058h-64c-13.255,0-24,10.745-24,24s10.745,24,24,24h64c13.255,0,24-10.745,24-24
		S285.282,200.058,272.028,200.058z"/>
	<path style="fill:#EF9F35;" d="M336.028,336.058h-192v56h17.92l24,88h108.16l24-88h17.92L336.028,336.058z"/>
</g>
<path style="fill:#5A5A60;" d="M166.268,408.058h147.52l4.32-16h-156.16L166.268,408.058z"/>
<g>
</g>
<g>
</g>
<g>
</g>
<g>
</g>
<g>
</g>
<g>
</g>
<g>
</g>
<g>
</g>
<g>
</g>
<g>
</g>
<g>
</g>
<g>
</g>
<g>
</g>
<g>
</g>
<g>
</g>
</svg>
