<?xml version="1.0" encoding="iso-8859-1"?>
<!-- Generator: Adobe Illustrator 19.0.0, SVG Export Plug-In . SVG Version: 6.00 Build 0)  -->
<svg version="1.1" id="Capa_1" xmlns="http://www.w3.org/2000/svg" xmlns:xlink="http://www.w3.org/1999/xlink" x="0px" y="0px"
	 viewBox="0 0 511.999 511.999" style="enable-background:new 0 0 511.999 511.999;" xml:space="preserve">
<path style="fill:#FFDC0F;" d="M8.294,19.076C8.161,37.136,7.431,54.637,8.478,72.85c0.503,8.757-1.009,27.551,5.814,34.37
	c7.292,7.287,25.747,4.251,34.937,3.818c12.55-0.591,25.056-1.785,37.538-2.587c21.755-1.399,16.778-32.438,15.409-48.67
	c-1.005-11.908,0.266-25.716-3.25-37.099c-2.523-8.169-4.736-6.918-13.557-7.356c-15.644-0.777-31.457,0.219-47.056,0.787
	C29.525,16.432,16.699,14.542,8.294,19.076z"/>
<path style="fill:#F4F4F4;" d="M96.128,67.122c-10.736,9.581-25.539,23.956-27.702,38.924c7.837,0.41,22.572,1.909,28.676-4.185
	c5.382-5.373,8.243-31.974,3.564-37.098C98.895,65.507,97.095,66.908,96.128,67.122z"/>
<path style="fill:#FF8225;" d="M141.922,19.076c-0.133,18.06-0.863,35.561,0.184,53.774c0.503,8.757-1.009,27.551,5.814,34.37
	c7.292,7.287,25.747,4.251,34.936,3.818c12.55-0.591,25.056-1.785,37.538-2.587c21.755-1.399,16.779-32.438,15.409-48.67
	c-1.005-11.908,0.266-25.716-3.25-37.099c-2.523-8.169-4.736-6.918-13.557-7.356c-15.644-0.777-31.457,0.219-47.056,0.787
	C163.152,16.432,150.327,14.542,141.922,19.076z"/>
<path style="fill:#F4F4F4;" d="M229.755,67.122c-10.736,9.581-25.539,23.956-27.702,38.924c7.837,0.41,22.572,1.909,28.676-4.185
	c5.382-5.373,8.243-31.974,3.564-37.098C232.523,65.507,230.723,66.908,229.755,67.122z"/>
<path style="fill:#FF3535;" d="M275.549,19.076c-0.133,18.06-0.863,35.561,0.184,53.774c0.503,8.757-1.009,27.551,5.814,34.37
	c7.292,7.287,25.747,4.251,34.936,3.818c12.55-0.591,25.056-1.785,37.538-2.587c21.754-1.399,16.778-32.438,15.409-48.67
	c-1.005-11.908,0.266-25.716-3.25-37.099c-2.523-8.169-4.736-6.918-13.557-7.356c-15.644-0.777-31.457,0.219-47.056,0.787
	C296.78,16.432,283.954,14.542,275.549,19.076z"/>
<path style="fill:#F4F4F4;" d="M363.383,67.122c-10.736,9.581-25.539,23.956-27.702,38.924c7.837,0.41,22.572,1.909,28.676-4.185
	c5.383-5.373,8.243-31.974,3.564-37.098C366.151,65.507,364.35,66.908,363.383,67.122z"/>
<path style="fill:#71D182;" d="M409.177,19.076c-0.133,18.06-0.863,35.561,0.184,53.774c0.503,8.757-1.009,27.551,5.814,34.37
	c7.292,7.287,25.747,4.251,34.936,3.818c12.55-0.591,25.056-1.785,37.538-2.587c21.755-1.399,16.778-32.438,15.409-48.67
	c-1.005-11.908,0.266-25.716-3.25-37.099c-2.523-8.169-4.736-6.918-13.557-7.356c-15.644-0.777-31.457,0.219-47.056,0.787
	C430.407,16.432,417.582,14.542,409.177,19.076z"/>
<path style="fill:#F4F4F4;" d="M497.011,67.122c-10.736,9.581-25.539,23.956-27.702,38.924c7.837,0.41,22.572,1.909,28.676-4.185
	c5.383-5.373,8.243-31.974,3.564-37.098C499.778,65.507,497.978,66.908,497.011,67.122z"/>
<path style="fill:#00CEE6;" d="M8.294,148.2c-0.133,18.06-0.863,35.561,0.184,53.774c0.503,8.757-1.009,27.551,5.814,34.37
	c7.292,7.287,25.747,4.251,34.937,3.818c12.55-0.591,25.056-1.785,37.538-2.587c21.755-1.399,16.778-32.438,15.409-48.67
	c-1.005-11.908,0.266-25.716-3.25-37.099c-2.523-8.169-4.736-6.918-13.557-7.356c-15.644-0.777-31.457,0.219-47.056,0.787
	C29.525,145.555,16.699,143.666,8.294,148.2z"/>
<path style="fill:#F4F4F4;" d="M96.128,196.245c-10.736,9.581-25.539,23.956-27.702,38.924c7.837,0.41,22.572,1.909,28.676-4.185
	c5.382-5.373,8.243-31.974,3.564-37.098C98.895,194.63,97.095,196.032,96.128,196.245z"/>
<path style="fill:#F3429E;" d="M141.922,148.2c-0.133,18.06-0.863,35.561,0.184,53.774c0.503,8.757-1.009,27.551,5.814,34.37
	c7.292,7.287,25.747,4.251,34.936,3.818c12.55-0.591,25.056-1.785,37.538-2.587c21.755-1.399,16.779-32.438,15.409-48.67
	c-1.005-11.908,0.266-25.716-3.25-37.099c-2.523-8.169-4.736-6.918-13.557-7.356c-15.644-0.777-31.457,0.219-47.056,0.787
	C163.152,145.555,150.327,143.666,141.922,148.2z"/>
<path style="fill:#F4F4F4;" d="M229.755,196.245c-10.736,9.581-25.539,23.956-27.702,38.924c7.837,0.41,22.572,1.909,28.676-4.185
	c5.382-5.373,8.243-31.974,3.564-37.098C232.523,194.63,230.723,196.032,229.755,196.245z"/>
<path style="fill:#008EE5;" d="M275.549,148.2c-0.133,18.06-0.863,35.561,0.184,53.774c0.503,8.757-1.009,27.551,5.814,34.37
	c7.292,7.287,25.747,4.251,34.936,3.818c12.55-0.591,25.056-1.785,37.538-2.587c21.754-1.399,16.778-32.438,15.409-48.67
	c-1.005-11.908,0.266-25.716-3.25-37.099c-2.523-8.169-4.736-6.918-13.557-7.356c-15.644-0.777-31.457,0.219-47.056,0.787
	C296.78,145.555,283.954,143.666,275.549,148.2z"/>
<path style="fill:#F4F4F4;" d="M363.383,196.245c-10.736,9.581-25.539,23.956-27.702,38.924c7.837,0.41,22.572,1.909,28.676-4.185
	c5.383-5.373,8.243-31.974,3.564-37.098C366.151,194.63,364.35,196.032,363.383,196.245z"/>
<path style="fill:#14DDF7;" d="M409.177,148.2c-0.133,18.06-0.863,35.561,0.184,53.774c0.503,8.757-1.009,27.551,5.814,34.37
	c7.292,7.287,25.747,4.251,34.936,3.818c12.55-0.591,25.056-1.785,37.538-2.587c21.755-1.399,16.778-32.438,15.409-48.67
	c-1.005-11.908,0.266-25.716-3.25-37.099c-2.523-8.169-4.736-6.918-13.557-7.356c-15.644-0.777-31.457,0.219-47.056,0.787
	C430.407,145.555,417.582,143.666,409.177,148.2z"/>
<path style="fill:#F4F4F4;" d="M497.011,196.245c-10.736,9.581-25.539,23.956-27.702,38.924c7.837,0.41,22.572,1.909,28.676-4.185
	c5.383-5.373,8.243-31.974,3.564-37.098C499.778,194.63,497.978,196.032,497.011,196.245z"/>
<path style="fill:#9BB8E1;" d="M8.294,277.323c-0.133,18.06-0.863,35.561,0.184,53.774c0.503,8.757-1.009,27.551,5.814,34.37
	c7.292,7.287,25.747,4.251,34.937,3.818c12.55-0.591,25.056-1.785,37.538-2.587c21.755-1.399,16.778-32.438,15.409-48.67
	c-1.005-11.908,0.266-25.716-3.25-37.099c-2.523-8.169-4.736-6.918-13.557-7.356c-15.644-0.777-31.457,0.219-47.056,0.787
	C29.525,274.678,16.699,272.789,8.294,277.323z"/>
<path style="fill:#F4F4F4;" d="M96.128,325.369c-10.736,9.581-25.539,23.956-27.702,38.924c7.837,0.41,22.572,1.909,28.676-4.185
	c5.382-5.373,8.243-31.974,3.564-37.098C98.895,323.754,97.095,325.155,96.128,325.369z"/>
<path style="fill:#FF8B97;" d="M141.922,277.323c-0.133,18.06-0.863,35.561,0.184,53.774c0.503,8.757-1.009,27.551,5.814,34.37
	c7.292,7.287,25.747,4.251,34.936,3.818c12.55-0.591,25.056-1.785,37.538-2.587c21.755-1.399,16.779-32.438,15.409-48.67
	c-1.005-11.908,0.266-25.716-3.25-37.099c-2.523-8.169-4.736-6.918-13.557-7.356c-15.644-0.777-31.457,0.219-47.056,0.787
	C163.152,274.678,150.327,272.789,141.922,277.323z"/>
<path style="fill:#F4F4F4;" d="M229.755,325.369c-10.736,9.581-25.539,23.956-27.702,38.924c7.837,0.41,22.572,1.909,28.676-4.185
	c5.382-5.373,8.243-31.974,3.564-37.098C232.523,323.754,230.723,325.155,229.755,325.369z"/>
<path style="fill:#DF91C3;" d="M275.549,277.323c-0.133,18.06-0.863,35.561,0.184,53.774c0.503,8.757-1.009,27.551,5.814,34.37
	c7.292,7.287,25.747,4.251,34.936,3.818c12.55-0.591,25.056-1.785,37.538-2.587c21.754-1.399,16.778-32.438,15.409-48.67
	c-1.005-11.908,0.266-25.716-3.25-37.099c-2.523-8.169-4.736-6.918-13.557-7.356c-15.644-0.777-31.457,0.219-47.056,0.787
	C296.78,274.678,283.954,272.789,275.549,277.323z"/>
<path style="fill:#F4F4F4;" d="M363.383,325.369c-10.736,9.581-25.539,23.956-27.702,38.924c7.837,0.41,22.572,1.909,28.676-4.185
	c5.383-5.373,8.243-31.974,3.564-37.098C366.151,323.754,364.35,325.155,363.383,325.369z"/>
<path style="fill:#C7E171;" d="M409.177,277.323c-0.133,18.06-0.863,35.561,0.184,53.774c0.503,8.757-1.009,27.551,5.814,34.37
	c7.292,7.287,25.747,4.251,34.936,3.818c12.55-0.591,25.056-1.785,37.538-2.587c21.755-1.399,16.778-32.438,15.409-48.67
	c-1.005-11.908,0.266-25.716-3.25-37.099c-2.523-8.169-4.736-6.918-13.557-7.356c-15.644-0.777-31.457,0.219-47.056,0.787
	C430.407,274.678,417.582,272.789,409.177,277.323z"/>
<path style="fill:#F4F4F4;" d="M497.011,325.369c-10.736,9.581-25.539,23.956-27.702,38.924c7.837,0.41,22.572,1.909,28.676-4.185
	c5.383-5.373,8.243-31.974,3.564-37.098C499.778,323.754,497.978,325.155,497.011,325.369z"/>
<path style="fill:#FFF359;" d="M8.294,406.446c-0.133,18.06-0.863,35.561,0.184,53.774c0.503,8.757-1.009,27.551,5.814,34.37
	c7.292,7.287,25.747,4.251,34.937,3.818c12.55-0.591,25.056-1.785,37.538-2.587c21.755-1.399,16.778-32.438,15.409-48.67
	c-1.005-11.908,0.266-25.716-3.25-37.099c-2.523-8.169-4.736-6.918-13.557-7.356c-15.644-0.777-31.457,0.219-47.056,0.787
	C29.525,403.802,16.699,401.912,8.294,406.446z"/>
<path style="fill:#F4F4F4;" d="M96.128,454.492c-10.736,9.581-25.539,23.956-27.702,38.924c7.837,0.41,22.572,1.909,28.676-4.185
	c5.382-5.373,8.243-31.974,3.564-37.098C98.895,452.877,97.095,454.278,96.128,454.492z"/>
<path style="fill:#FF983A;" d="M141.922,406.446c-0.133,18.06-0.863,35.561,0.184,53.774c0.503,8.757-1.009,27.551,5.814,34.37
	c7.292,7.287,25.747,4.251,34.936,3.818c12.55-0.591,25.056-1.785,37.538-2.587c21.755-1.399,16.779-32.438,15.409-48.67
	c-1.005-11.908,0.266-25.716-3.25-37.099c-2.523-8.169-4.736-6.918-13.557-7.356c-15.644-0.777-31.457,0.219-47.056,0.787
	C163.152,403.802,150.327,401.912,141.922,406.446z"/>
<path style="fill:#F4F4F4;" d="M229.755,454.492c-10.736,9.581-25.539,23.956-27.702,38.924c7.837,0.41,22.572,1.909,28.676-4.185
	c5.382-5.373,8.243-31.974,3.564-37.098C232.523,452.877,230.723,454.278,229.755,454.492z"/>
<path style="fill:#DD5011;" d="M275.549,406.446c-0.133,18.06-0.863,35.561,0.184,53.774c0.503,8.757-1.009,27.551,5.814,34.37
	c7.292,7.287,25.747,4.251,34.936,3.818c12.55-0.591,25.056-1.785,37.538-2.587c21.754-1.399,16.778-32.438,15.409-48.67
	c-1.005-11.908,0.266-25.716-3.25-37.099c-2.523-8.169-4.736-6.918-13.557-7.356c-15.644-0.777-31.457,0.219-47.056,0.787
	C296.78,403.802,283.954,401.912,275.549,406.446z"/>
<path style="fill:#F4F4F4;" d="M363.383,454.492c-10.736,9.581-25.539,23.956-27.702,38.924c7.837,0.41,22.572,1.909,28.676-4.185
	c5.383-5.373,8.243-31.974,3.564-37.098C366.151,452.877,364.35,454.278,363.383,454.492z"/>
<path style="fill:#885D47;" d="M409.177,406.446c-0.133,18.06-0.863,35.561,0.184,53.774c0.503,8.757-1.009,27.551,5.814,34.37
	c7.292,7.287,25.747,4.251,34.936,3.818c12.55-0.591,25.056-1.785,37.538-2.587c21.755-1.399,16.778-32.438,15.409-48.67
	c-1.005-11.908,0.266-25.716-3.25-37.099c-2.523-8.169-4.736-6.918-13.557-7.356c-15.644-0.777-31.457,0.219-47.056,0.787
	C430.407,403.802,417.582,401.912,409.177,406.446z"/>
<path style="fill:#F4F4F4;" d="M497.011,454.492c-10.736,9.581-25.539,23.956-27.702,38.924c7.837,0.41,22.572,1.909,28.676-4.185
	c5.383-5.373,8.243-31.974,3.564-37.098C499.778,452.877,497.978,454.278,497.011,454.492z"/>
<path d="M72.057,9.727c-11.646-0.174-23.264,1.026-34.909,0.862c-9.147-0.128-21.559-3.805-29.949,1.066
	c-11.458,6.653-6.207,30.757-4.575,42.101c0.197,10.096,0.766,20.202,1.08,30.14C4.16,98.333,4.199,113.7,21.06,116.708
	c19.771,3.529,43.894,1.43,63.426-2.77c16.727-3.597,23.324-11.849,24.468-28.81c1.328-19.7,1.195-42.886-5.589-61.737
	C98.602,10.159,84.058,9.908,72.057,9.727z M61.07,103.456c-11.027,0.817-30.903,4.34-39.752-2.812
	c-8.175-6.608-5.997-28.202-6.37-38.774c-0.413-11.727-0.659-23.759-1.881-35.47c-0.574-5.559,37.427-2.646,42.351-2.689
	c7.053-0.062,14.251-0.302,21.292,0.047c11.775,0.583,13.447,2.023,15.729,12.76c1.638,7.703,2.375,15.557,2.709,23.441
	c-6.036,6.454-11.412,13.6-16.61,20.765c-4.993,6.883-10.178,14.674-14.022,22.519C63.324,103.308,62.16,103.376,61.07,103.456z
	 M85.792,99.675c-3.703,1.779-8.384,2.567-13.077,3.011c4.442-5.836,8.502-11.907,12.935-17.806
	c2.303-3.066,6.291-6.859,9.758-10.85c0,1.069,0.002,2.138-0.001,3.204C95.372,86.966,96.572,94.496,85.792,99.675z"/>
<path d="M206.185,9.727c-11.646-0.174-23.263,1.026-34.909,0.862c-9.148-0.129-21.56-3.806-29.949,1.065
	c-11.459,6.653-6.207,30.757-4.575,42.101c0.197,10.096,0.766,20.202,1.08,30.14c0.456,14.437,0.495,29.804,17.356,32.812
	c19.77,3.529,43.893,1.43,63.426-2.77c16.727-3.597,23.324-11.849,24.468-28.81c1.328-19.7,1.195-42.886-5.589-61.737
	C232.73,10.159,218.186,9.908,206.185,9.727z M195.198,103.456c-11.027,0.817-30.903,4.34-39.752-2.812
	c-8.174-6.608-5.997-28.202-6.37-38.774c-0.413-11.727-0.659-23.759-1.88-35.47c-0.574-5.559,37.427-2.646,42.351-2.689
	c7.053-0.062,14.251-0.302,21.292,0.047c11.775,0.583,13.447,2.023,15.73,12.76c1.638,7.703,2.375,15.557,2.709,23.441
	c-6.037,6.454-11.413,13.6-16.61,20.765c-4.993,6.883-10.178,14.674-14.022,22.519C197.452,103.308,196.288,103.376,195.198,103.456
	z M219.92,99.675c-3.703,1.779-8.384,2.567-13.077,3.011c4.442-5.836,8.502-11.907,12.935-17.806
	c2.303-3.066,6.291-6.859,9.758-10.85c0,1.069,0.002,2.138-0.002,3.204C229.5,86.966,230.7,94.496,219.92,99.675z"/>
<path d="M340.313,9.727c-11.646-0.174-23.263,1.026-34.908,0.862c-9.148-0.129-21.56-3.806-29.95,1.065
	c-11.458,6.653-6.207,30.757-4.575,42.101c0.197,10.096,0.766,20.202,1.08,30.14c0.456,14.437,0.495,29.804,17.356,32.812
	c19.771,3.529,43.893,1.43,63.426-2.77c16.728-3.597,23.324-11.849,24.468-28.81c1.328-19.7,1.196-42.886-5.589-61.737
	C366.858,10.159,352.314,9.908,340.313,9.727z M329.326,103.456c-11.027,0.817-30.903,4.34-39.751-2.812
	c-8.175-6.608-5.998-28.202-6.37-38.774c-0.414-11.727-0.659-23.759-1.881-35.47c-0.574-5.559,37.427-2.646,42.351-2.689
	c7.053-0.062,14.251-0.302,21.293,0.047c11.775,0.583,13.446,2.023,15.729,12.76c1.638,7.703,2.375,15.557,2.709,23.441
	c-6.037,6.454-11.413,13.6-16.61,20.765c-4.993,6.883-10.178,14.674-14.022,22.519C331.579,103.308,330.416,103.376,329.326,103.456
	z M354.047,99.675c-3.703,1.779-8.383,2.567-13.077,3.011c4.442-5.836,8.503-11.907,12.935-17.806
	c2.303-3.066,6.292-6.859,9.758-10.85c0.001,1.069,0.002,2.138-0.001,3.204C363.628,86.966,364.828,94.496,354.047,99.675z"/>
<path d="M406.088,83.896c0.456,14.437,0.495,29.804,17.356,32.812c19.771,3.529,43.893,1.43,63.426-2.77
	c16.727-3.597,23.324-11.849,24.468-28.81c1.328-19.7,1.195-42.886-5.589-61.737c-4.762-13.232-19.307-13.484-31.307-13.664
	c-11.646-0.174-23.263,1.026-34.909,0.862c-9.148-0.129-21.559-3.806-29.949,1.065c-11.458,6.653-6.207,30.757-4.575,42.101
	C405.205,63.852,405.774,73.958,406.088,83.896z M488.176,99.675c-3.703,1.779-8.384,2.567-13.077,3.011
	c4.442-5.836,8.502-11.907,12.935-17.806c2.303-3.066,6.291-6.859,9.758-10.85c0,1.069,0.002,2.138-0.002,3.204
	C497.756,86.966,498.956,94.496,488.176,99.675z M457.803,23.711c7.053-0.062,14.251-0.302,21.292,0.047
	c11.775,0.583,13.447,2.023,15.729,12.76c1.638,7.703,2.375,15.557,2.709,23.441c-6.036,6.454-11.413,13.6-16.61,20.765
	c-4.993,6.883-10.178,14.674-14.022,22.519c-1.194,0.065-2.358,0.133-3.448,0.213c-11.027,0.817-30.902,4.34-39.752-2.812
	c-8.175-6.608-5.997-28.202-6.37-38.774c-0.414-11.727-0.659-23.759-1.881-35.47C414.878,20.841,452.879,23.754,457.803,23.711z"/>
<path d="M72.057,137.85c-11.646-0.175-23.264,1.026-34.909,0.862c-9.147-0.129-21.559-3.806-29.949,1.065
	c-11.458,6.652-6.207,30.757-4.575,42.1c0.197,10.097,0.766,20.202,1.08,30.14c0.456,14.437,0.495,29.804,17.356,32.813
	c19.771,3.528,43.894,1.43,63.426-2.771c16.727-3.597,23.324-11.849,24.468-28.809c1.328-19.7,1.195-42.886-5.589-61.738
	C98.602,138.282,84.058,138.03,72.057,137.85z M61.07,231.579c-11.027,0.817-30.903,4.34-39.752-2.812
	c-8.175-6.608-5.997-28.202-6.37-38.775c-0.413-11.727-0.659-23.759-1.881-35.469c-0.574-5.56,37.427-2.646,42.351-2.69
	c7.053-0.062,14.251-0.302,21.292,0.047c11.775,0.584,13.447,2.023,15.729,12.761c1.638,7.702,2.375,15.557,2.709,23.441
	c-6.036,6.453-11.412,13.599-16.61,20.765c-4.993,6.882-10.178,14.674-14.022,22.518C63.324,231.431,62.16,231.498,61.07,231.579z
	 M85.792,227.798c-3.703,1.778-8.384,2.567-13.077,3.01c4.442-5.836,8.502-11.906,12.935-17.806
	c2.303-3.066,6.291-6.859,9.758-10.85c0,1.069,0.002,2.138-0.001,3.204C95.372,215.088,96.572,222.619,85.792,227.798z"/>
<path d="M206.185,137.85c-11.646-0.175-23.263,1.026-34.909,0.862c-9.148-0.129-21.56-3.806-29.949,1.065
	c-11.459,6.652-6.207,30.757-4.575,42.1c0.197,10.097,0.766,20.202,1.08,30.14c0.456,14.437,0.495,29.804,17.356,32.813
	c19.77,3.528,43.893,1.43,63.426-2.771c16.727-3.597,23.324-11.849,24.468-28.809c1.328-19.7,1.195-42.886-5.589-61.738
	C232.73,138.282,218.186,138.03,206.185,137.85z M195.198,231.579c-11.027,0.817-30.903,4.34-39.752-2.812
	c-8.174-6.608-5.997-28.202-6.37-38.775c-0.413-11.727-0.659-23.759-1.88-35.469c-0.574-5.56,37.427-2.646,42.351-2.69
	c7.053-0.062,14.251-0.302,21.292,0.047c11.775,0.584,13.447,2.023,15.73,12.761c1.638,7.702,2.375,15.557,2.709,23.441
	c-6.037,6.453-11.413,13.599-16.61,20.765c-4.993,6.882-10.178,14.674-14.022,22.518
	C197.452,231.431,196.288,231.498,195.198,231.579z M219.92,227.798c-3.703,1.778-8.384,2.567-13.077,3.01
	c4.442-5.836,8.502-11.906,12.935-17.806c2.303-3.066,6.291-6.859,9.758-10.85c0,1.069,0.002,2.138-0.002,3.204
	C229.5,215.088,230.7,222.619,219.92,227.798z"/>
<path d="M340.313,137.85c-11.646-0.175-23.263,1.026-34.908,0.862c-9.148-0.129-21.56-3.806-29.95,1.065
	c-11.458,6.652-6.207,30.757-4.575,42.1c0.197,10.097,0.766,20.202,1.08,30.14c0.456,14.437,0.495,29.804,17.356,32.813
	c19.771,3.528,43.893,1.43,63.426-2.771c16.728-3.597,23.324-11.849,24.468-28.809c1.328-19.7,1.196-42.886-5.589-61.738
	C366.858,138.282,352.314,138.03,340.313,137.85z M329.326,231.579c-11.027,0.817-30.903,4.34-39.751-2.812
	c-8.175-6.608-5.998-28.202-6.37-38.775c-0.414-11.727-0.659-23.759-1.881-35.469c-0.574-5.56,37.427-2.646,42.351-2.69
	c7.053-0.062,14.251-0.302,21.293,0.047c11.775,0.584,13.446,2.023,15.729,12.761c1.638,7.702,2.375,15.557,2.709,23.441
	c-6.037,6.453-11.413,13.599-16.61,20.765c-4.993,6.882-10.178,14.674-14.022,22.518
	C331.579,231.431,330.416,231.498,329.326,231.579z M354.047,227.798c-3.703,1.778-8.383,2.567-13.077,3.01
	c4.442-5.836,8.503-11.906,12.935-17.806c2.303-3.066,6.292-6.859,9.758-10.85c0.001,1.069,0.002,2.138-0.001,3.204
	C363.628,215.088,364.828,222.619,354.047,227.798z"/>
<path d="M474.441,137.85c-11.646-0.175-23.263,1.026-34.909,0.862c-9.148-0.129-21.559-3.806-29.949,1.065
	c-11.458,6.652-6.207,30.757-4.575,42.1c0.197,10.097,0.766,20.202,1.08,30.14c0.456,14.437,0.495,29.804,17.356,32.813
	c19.771,3.528,43.893,1.43,63.426-2.771c16.727-3.597,23.324-11.849,24.468-28.809c1.328-19.7,1.195-42.886-5.589-61.738
	C500.986,138.282,486.442,138.03,474.441,137.85z M463.454,231.579c-11.027,0.817-30.902,4.34-39.752-2.812
	c-8.175-6.608-5.997-28.202-6.37-38.775c-0.414-11.727-0.659-23.759-1.881-35.469c-0.574-5.56,37.427-2.646,42.351-2.69
	c7.053-0.062,14.251-0.302,21.292,0.047c11.775,0.584,13.447,2.023,15.729,12.761c1.638,7.702,2.375,15.557,2.709,23.441
	c-6.036,6.453-11.413,13.599-16.61,20.765c-4.993,6.882-10.178,14.674-14.022,22.518
	C465.708,231.431,464.544,231.498,463.454,231.579z M488.176,227.798c-3.703,1.778-8.384,2.567-13.077,3.01
	c4.442-5.836,8.502-11.906,12.935-17.806c2.303-3.066,6.291-6.859,9.758-10.85c0,1.069,0.002,2.138-0.002,3.204
	C497.756,215.088,498.956,222.619,488.176,227.798z"/>
<path d="M72.057,265.973c-11.646-0.175-23.264,1.026-34.909,0.862c-9.147-0.129-21.559-3.806-29.949,1.065
	c-11.458,6.653-6.207,30.757-4.575,42.101c0.197,10.096,0.766,20.202,1.08,30.14c0.456,14.437,0.495,29.804,17.356,32.812
	c19.771,3.529,43.894,1.43,63.426-2.771c16.727-3.597,23.324-11.849,24.468-28.81c1.328-19.7,1.195-42.886-5.589-61.737
	C98.602,266.404,84.058,266.153,72.057,265.973z M61.07,359.701c-11.027,0.817-30.903,4.34-39.752-2.812
	c-8.175-6.608-5.997-28.202-6.37-38.774c-0.413-11.727-0.659-23.759-1.881-35.469c-0.574-5.56,37.427-2.647,42.351-2.69
	c7.053-0.062,14.251-0.302,21.292,0.047c11.775,0.584,13.447,2.023,15.729,12.76c1.638,7.703,2.375,15.557,2.709,23.441
	c-6.036,6.454-11.412,13.6-16.61,20.765c-4.993,6.883-10.178,14.674-14.022,22.519C63.324,359.553,62.16,359.62,61.07,359.701z
	 M85.792,355.919c-3.703,1.779-8.384,2.567-13.077,3.011c4.442-5.836,8.502-11.907,12.935-17.806
	c2.303-3.066,6.291-6.859,9.758-10.85c0,1.069,0.002,2.138-0.001,3.204C95.372,343.211,96.572,350.741,85.792,355.919z"/>
<path d="M206.185,265.973c-11.646-0.175-23.263,1.026-34.909,0.862c-9.148-0.129-21.56-3.806-29.949,1.065
	c-11.459,6.653-6.207,30.757-4.575,42.101c0.197,10.096,0.766,20.202,1.08,30.14c0.456,14.437,0.495,29.804,17.356,32.812
	c19.77,3.529,43.893,1.43,63.426-2.771c16.727-3.597,23.324-11.849,24.468-28.81c1.328-19.7,1.195-42.886-5.589-61.737
	C232.73,266.404,218.186,266.153,206.185,265.973z M195.198,359.701c-11.027,0.817-30.903,4.34-39.752-2.812
	c-8.174-6.608-5.997-28.202-6.37-38.774c-0.413-11.727-0.659-23.759-1.88-35.469c-0.574-5.56,37.427-2.647,42.351-2.69
	c7.053-0.062,14.251-0.302,21.292,0.047c11.775,0.584,13.447,2.023,15.73,12.76c1.638,7.703,2.375,15.557,2.709,23.441
	c-6.037,6.454-11.413,13.6-16.61,20.765c-4.993,6.883-10.178,14.674-14.022,22.519C197.452,359.553,196.288,359.62,195.198,359.701z
	 M219.92,355.919c-3.703,1.779-8.384,2.567-13.077,3.011c4.442-5.836,8.502-11.907,12.935-17.806
	c2.303-3.066,6.291-6.859,9.758-10.85c0,1.069,0.002,2.138-0.002,3.204C229.5,343.211,230.7,350.741,219.92,355.919z"/>
<path d="M340.313,265.973c-11.646-0.175-23.263,1.026-34.908,0.862c-9.148-0.129-21.56-3.806-29.95,1.065
	c-11.458,6.653-6.207,30.757-4.575,42.101c0.197,10.096,0.766,20.202,1.08,30.14c0.456,14.437,0.495,29.804,17.356,32.812
	c19.771,3.529,43.893,1.43,63.426-2.771c16.728-3.597,23.324-11.849,24.468-28.81c1.328-19.7,1.196-42.886-5.589-61.737
	C366.858,266.404,352.314,266.153,340.313,265.973z M329.326,359.701c-11.027,0.817-30.903,4.34-39.751-2.812
	c-8.175-6.608-5.998-28.202-6.37-38.774c-0.414-11.727-0.659-23.759-1.881-35.469c-0.574-5.56,37.427-2.647,42.351-2.69
	c7.053-0.062,14.251-0.302,21.293,0.047c11.775,0.584,13.446,2.023,15.729,12.76c1.638,7.703,2.375,15.557,2.709,23.441
	c-6.037,6.454-11.413,13.6-16.61,20.765c-4.993,6.883-10.178,14.674-14.022,22.519C331.579,359.553,330.416,359.62,329.326,359.701z
	 M354.047,355.919c-3.703,1.779-8.383,2.567-13.077,3.011c4.442-5.836,8.503-11.907,12.935-17.806
	c2.303-3.066,6.292-6.859,9.758-10.85c0.001,1.069,0.002,2.138-0.001,3.204C363.628,343.211,364.828,350.741,354.047,355.919z"/>
<path d="M474.441,265.973c-11.646-0.175-23.263,1.026-34.909,0.862c-9.148-0.129-21.559-3.806-29.949,1.065
	c-11.458,6.653-6.207,30.757-4.575,42.101c0.197,10.096,0.766,20.202,1.08,30.14c0.456,14.437,0.495,29.804,17.356,32.812
	c19.771,3.529,43.893,1.43,63.426-2.771c16.727-3.597,23.324-11.849,24.468-28.81c1.328-19.7,1.195-42.886-5.589-61.737
	C500.986,266.404,486.442,266.153,474.441,265.973z M463.454,359.701c-11.027,0.817-30.902,4.34-39.752-2.812
	c-8.175-6.608-5.997-28.202-6.37-38.774c-0.414-11.727-0.659-23.759-1.881-35.469c-0.574-5.56,37.427-2.647,42.351-2.69
	c7.053-0.062,14.251-0.302,21.292,0.047c11.775,0.584,13.447,2.023,15.729,12.76c1.638,7.703,2.375,15.557,2.709,23.441
	c-6.036,6.454-11.413,13.6-16.61,20.765c-4.993,6.883-10.178,14.674-14.022,22.519C465.708,359.553,464.544,359.62,463.454,359.701z
	 M488.176,355.919c-3.703,1.779-8.384,2.567-13.077,3.011c4.442-5.836,8.502-11.907,12.935-17.806
	c2.303-3.066,6.291-6.859,9.758-10.85c0,1.069,0.002,2.138-0.002,3.204C497.756,343.211,498.956,350.741,488.176,355.919z"/>
<path d="M72.057,394.094c-11.646-0.174-23.264,1.026-34.909,0.862c-9.147-0.129-21.559-3.806-29.949,1.065
	c-11.458,6.653-6.207,30.757-4.575,42.101c0.197,10.096,0.766,20.202,1.08,30.14c0.456,14.437,0.495,29.804,17.356,32.812
	c19.771,3.529,43.894,1.43,63.426-2.77c16.727-3.597,23.324-11.849,24.468-28.81c1.328-19.7,1.195-42.886-5.589-61.737
	C98.602,394.526,84.058,394.275,72.057,394.094z M61.07,487.823c-11.027,0.817-30.903,4.34-39.752-2.812
	c-8.175-6.608-5.997-28.202-6.37-38.774c-0.413-11.727-0.659-23.759-1.881-35.47c-0.574-5.559,37.427-2.647,42.351-2.689
	c7.053-0.062,14.251-0.302,21.292,0.047c11.775,0.584,13.447,2.023,15.729,12.76c1.638,7.703,2.375,15.557,2.709,23.441
	c-6.036,6.454-11.412,13.6-16.61,20.765c-4.993,6.883-10.178,14.674-14.022,22.519C63.324,487.675,62.16,487.743,61.07,487.823z
	 M85.792,484.042c-3.703,1.779-8.384,2.567-13.077,3.011c4.442-5.836,8.502-11.907,12.935-17.806
	c2.303-3.066,6.291-6.859,9.758-10.85c0,1.069,0.002,2.138-0.001,3.204C95.372,471.333,96.572,478.863,85.792,484.042z"/>
<path d="M206.185,394.094c-11.646-0.174-23.263,1.026-34.909,0.862c-9.148-0.129-21.56-3.806-29.949,1.065
	c-11.459,6.653-6.207,30.757-4.575,42.101c0.197,10.096,0.766,20.202,1.08,30.14c0.456,14.437,0.495,29.804,17.356,32.812
	c19.77,3.529,43.893,1.43,63.426-2.77c16.727-3.597,23.324-11.849,24.468-28.81c1.328-19.7,1.195-42.886-5.589-61.737
	C232.73,394.526,218.186,394.275,206.185,394.094z M195.198,487.823c-11.027,0.817-30.903,4.34-39.752-2.812
	c-8.174-6.608-5.997-28.202-6.37-38.774c-0.413-11.727-0.659-23.759-1.88-35.47c-0.574-5.559,37.427-2.647,42.351-2.689
	c7.053-0.062,14.251-0.302,21.292,0.047c11.775,0.584,13.447,2.023,15.73,12.76c1.638,7.703,2.375,15.557,2.709,23.441
	c-6.037,6.454-11.413,13.6-16.61,20.765c-4.993,6.883-10.178,14.674-14.022,22.519C197.452,487.675,196.288,487.743,195.198,487.823
	z M219.92,484.042c-3.703,1.779-8.384,2.567-13.077,3.011c4.442-5.836,8.502-11.907,12.935-17.806
	c2.303-3.066,6.291-6.859,9.758-10.85c0,1.069,0.002,2.138-0.002,3.204C229.5,471.333,230.7,478.863,219.92,484.042z"/>
<path d="M340.313,394.094c-11.646-0.174-23.263,1.026-34.908,0.862c-9.148-0.129-21.56-3.806-29.95,1.065
	c-11.458,6.653-6.207,30.757-4.575,42.101c0.197,10.096,0.766,20.202,1.08,30.14c0.456,14.437,0.495,29.804,17.356,32.812
	c19.771,3.529,43.893,1.43,63.426-2.77c16.728-3.597,23.324-11.849,24.468-28.81c1.328-19.7,1.196-42.886-5.589-61.737
	C366.858,394.526,352.314,394.275,340.313,394.094z M329.326,487.823c-11.027,0.817-30.903,4.34-39.751-2.812
	c-8.175-6.608-5.998-28.202-6.37-38.774c-0.414-11.727-0.659-23.759-1.881-35.47c-0.574-5.559,37.427-2.647,42.351-2.689
	c7.053-0.062,14.251-0.302,21.293,0.047c11.775,0.584,13.446,2.023,15.729,12.76c1.638,7.703,2.375,15.557,2.709,23.441
	c-6.037,6.454-11.413,13.6-16.61,20.765c-4.993,6.883-10.178,14.674-14.022,22.519C331.579,487.675,330.416,487.743,329.326,487.823
	z M354.047,484.042c-3.703,1.779-8.383,2.567-13.077,3.011c4.442-5.836,8.503-11.907,12.935-17.806
	c2.303-3.066,6.292-6.859,9.758-10.85c0.001,1.069,0.002,2.138-0.001,3.204C363.628,471.333,364.828,478.863,354.047,484.042z"/>
<path d="M474.441,394.094c-11.646-0.174-23.263,1.026-34.909,0.862c-9.148-0.129-21.559-3.806-29.949,1.065
	c-11.458,6.653-6.207,30.757-4.575,42.101c0.197,10.096,0.766,20.202,1.08,30.14c0.456,14.437,0.495,29.804,17.356,32.812
	c19.771,3.529,43.893,1.43,63.426-2.77c16.727-3.597,23.324-11.849,24.468-28.81c1.328-19.7,1.195-42.886-5.589-61.737
	C500.986,394.526,486.442,394.275,474.441,394.094z M463.454,487.823c-11.027,0.817-30.902,4.34-39.752-2.812
	c-8.175-6.608-5.997-28.202-6.37-38.774c-0.414-11.727-0.659-23.759-1.881-35.47c-0.574-5.559,37.427-2.647,42.351-2.689
	c7.053-0.062,14.251-0.302,21.292,0.047c11.775,0.584,13.447,2.023,15.729,12.76c1.638,7.703,2.375,15.557,2.709,23.441
	c-6.036,6.454-11.413,13.6-16.61,20.765c-4.993,6.883-10.178,14.674-14.022,22.519C465.708,487.675,464.544,487.743,463.454,487.823
	z M488.176,484.042c-3.703,1.779-8.384,2.567-13.077,3.011c4.442-5.836,8.502-11.907,12.935-17.806
	c2.303-3.066,6.291-6.859,9.758-10.85c0,1.069,0.002,2.138-0.002,3.204C497.756,471.333,498.956,478.863,488.176,484.042z"/>
<g>
</g>
<g>
</g>
<g>
</g>
<g>
</g>
<g>
</g>
<g>
</g>
<g>
</g>
<g>
</g>
<g>
</g>
<g>
</g>
<g>
</g>
<g>
</g>
<g>
</g>
<g>
</g>
<g>
</g>
</svg>
