<?xml version="1.0" encoding="iso-8859-1"?>
<!-- Generator: Adobe Illustrator 19.0.0, SVG Export Plug-In . SVG Version: 6.00 Build 0)  -->
<svg version="1.1" id="Capa_1" xmlns="http://www.w3.org/2000/svg" xmlns:xlink="http://www.w3.org/1999/xlink" x="0px" y="0px"
	 viewBox="0 0 464 464" style="enable-background:new 0 0 464 464;" xml:space="preserve">
<circle style="fill:#91E8E8;" cx="232" cy="232" r="232"/>
<g>
	<path style="fill:#63C8CD;" d="M248,56c0,8.837,7.163,16,16,16h56c8.837,0,16,7.163,16,16s-7.163,16-16,16h-8
		c-8.837,0-16,7.163-16,16s7.163,16,16,16h48c8.837,0,16,7.163,16,16s7.163,16,16,16h62.96C439.889,115.779,406.997,70.488,362,40
		h-98C255.164,40,248,47.164,248,56z"/>
	<path style="fill:#63C8CD;" d="M104,320c0-8.837-7.163-16-16-16H11.52c3.542,10.989,7.929,21.687,13.12,32H88
		C96.837,336,104,328.837,104,320z"/>
	<path style="fill:#63C8CD;" d="M192,408c0-13.255-10.745-24-24-24H56.8c73.255,84.392,196.264,104.569,292.64,48H216
		C202.745,432,192,421.255,192,408z"/>
	<path style="fill:#63C8CD;" d="M72,216c0-8.837-7.163-16-16-16s-16-7.163-16-16s7.163-16,16-16h80c8.837,0,16-7.163,16-16
		s-7.163-16-16-16h-16c-8.837,0-16-7.163-16-16s7.163-16,16-16h56c8.837,0,16-7.163,16-16s-7.163-16-16-16H64
		C22.831,115.084-0.099,172.409,0,232h56C64.837,232,72,224.837,72,216z"/>
	<path style="fill:#63C8CD;" d="M368,240c0,8.837,7.163,16,16,16h8c8.837,0,16,7.163,16,16s-7.163,16-16,16h-72
		c-8.837,0-16,7.163-16,16s7.163,16,16,16h48c8.837,0,16,7.163,16,16s-7.163,16-16,16h-24c-8.837,0-16,7.163-16,16s7.163,16,16,16
		h63.2c36.688-42.133,56.867-96.132,56.8-152c0-2.72,0-5.36,0-8h-80C375.164,224,368,231.164,368,240z"/>
	<path style="fill:#63C8CD;" d="M200,168h16c8.837,0,16-7.163,16-16s-7.163-16-16-16h-16c-8.837,0-16,7.163-16,16
		S191.164,168,200,168z"/>
</g>
<g>
	<path style="fill:#1895AA;" d="M336,168.4c0,0-48-5.12-74.08,21.12S240.4,264,240.4,264s48,5.12,74.08-21.12S336,168.4,336,168.4
		L336,168.4z"/>
	<path style="fill:#1895AA;" d="M104.4,216.4c0,0-5.12,48,21.12,74.08S200,312,200,312s5.12-48-21.12-74.08S104.4,216.4,104.4,216.4
		L104.4,216.4z"/>
</g>
<path style="fill:#5A5A60;" d="M240,275.28l61.68-61.6l-11.36-11.36L224,268.72v56l-74.32-74.4l-11.36,11.36l85.68,85.6V360h-16v16
	h48v-16h-16V275.28z"/>
<g>
</g>
<g>
</g>
<g>
</g>
<g>
</g>
<g>
</g>
<g>
</g>
<g>
</g>
<g>
</g>
<g>
</g>
<g>
</g>
<g>
</g>
<g>
</g>
<g>
</g>
<g>
</g>
<g>
</g>
</svg>
