<?xml version="1.0" encoding="iso-8859-1"?>
<!-- Generator: Adobe Illustrator 19.0.0, SVG Export Plug-In . SVG Version: 6.00 Build 0)  -->
<svg version="1.1" id="Capa_1" xmlns="http://www.w3.org/2000/svg" xmlns:xlink="http://www.w3.org/1999/xlink" x="0px" y="0px"
	 viewBox="0 0 511.999 511.999" style="enable-background:new 0 0 511.999 511.999;" xml:space="preserve">
<path style="fill:#727272;" d="M31.059,288.636c-3.263,2.643-2.167,11.23-2.207,15.027c-0.05,4.68-0.609,9.788,0.614,14.33
	c0.94,3.49,1.242,7.435,3.457,10.394c1.778,2.376,4.098,4.868,6.297,6.872c5.051,4.603,11.471,7.993,17.892,10.249
	c7.095,2.492,14.606,3.947,22.126,4.203c7.464,0.254,14.828-1.716,22.297-0.865c6.19,0.705,12.373-0.098,18.562,0.544
	c4.223,0.438,8.544,0.93,12.779,1.016c4.509,0.092,9.019,0.179,13.527,0.329c3.441,0.115,6.548,1.155,9.92,1.4
	c6.05,0.438,12.299,0.048,18.272,0.575c5.282,0.466,10.374,1.161,15.738,1.274c6.737,0.142,13.697-0.313,20.45-0.543
	c7.887-0.269,15.349-0.939,23.24-0.55c6.73,0.331,13.494,0.264,20.241,0.264c21.539,0,43.017,1.384,64.54,1.384
	c7.293,0,14.64-2.138,21.863-1.239c7.193,0.896,14.781-0.235,22.041-0.402c5.882-0.135,11.544-2.169,17.434-2.456
	c4.981-0.242,10.279-0.391,15.248,0.069c4.629,0.428,8.894,2.518,13.551,2.862c9.093,0.673,19.307-0.044,28.301-1.403
	c6.193-0.936,12.439-0.54,18.733-1.582c7.167-1.188,14.845-4.758,19.41-10.363c4.322-5.307,7.394-13.267,9.969-19.7
	c2.028-5.066,3.682-10.485,4.811-15.826c0.671-3.174,2.57-8.591,1.661-11.847c-0.989-3.547-6.461-2.078-9.529-1.557
	c-6.839,1.161-13.529-0.776-20.389-1.074c-9.477-0.411-18.638,1.394-28.143,1.384c-12.592-0.012-25.143-1.384-37.761-1.384
	c-9.865,0-20.728,2.084-30.486,0.726c-8.941-1.244-17.505,0.073-26.565,0.74c-9.958,0.733-19.7-1.166-29.604-1.472
	c-7.223-0.223-14.492,0.087-21.717,0.007c-6.036-0.066-11.824-1.335-17.756-2.217c-3.783-0.562-7.763-1.521-11.598-1.652
	c-6.946-0.236-12.15,2.292-18.758-0.531c-6.621-2.828-14.463-1.792-21.442-0.943c-6.92,0.841-12.035,0-18.737-1.114
	c-8.657-1.439-17.05,1.685-25.674,1.749c-7.135,0.053-14.165,0.278-21.308,0.277c-9.266-0.002-18.453,0.83-27.713,0.831
	c-4.799,0.001-9.742-0.299-14.476,0.671c-3.444,0.706-5.665,1.845-9.047,0.541c-7.51-2.895-15.7-2.954-23.709-1.776
	c-8.799,1.295-17.625,2.295-26.558,1.948c-3.804-0.148-7.517-0.516-11.35-0.553c-1.669-0.016-3.632-0.948-5.123-0.856
	C31.719,286.561,30.932,289.617,31.059,288.636z"/>
<path style="fill:#6D6D6D;" d="M196.37,389.429c0.016,5.525,0.468,13.087,3.391,17.951c1.825,3.036,6.988,4.501,10.452,5.012
	c7.415,1.093,15.014,0.84,22.466,1.81c7.354,0.958,14.619,1.475,22.003,2.095c10.651,0.894,22.428,0.541,32.999-0.846
	c8.311-1.091,16.427-3.038,24.851-3.038c3.205,0,6.888,0.315,9.968-0.517c3.887-1.05,6.209-4.888,8.041-8.205
	c5.465-9.893,4.885-22.926,3.795-34.012c-0.366-3.723-0.537-7.95-1.238-11.594c-0.995-5.168-5.115-3.986-9.299-3.819
	c-20.046,0.801-39.793-3.767-59.736-3.605c-11.763,0.096-23.262,1.774-35.093,1.379c-7.733-0.258-15.39-0.287-23.068-1.315
	c-2.641-0.354-6.155-0.918-8.747-0.051c-2.553,0.854-1.895,1.55-1.892,4.768c0.008,7.799,0.233,15.67-0.138,23.448
	C194.973,382.054,195.253,385.142,196.37,389.429z"/>
<path style="fill:#F4F4F4;" d="M369.435,416.565c1.324,3.962,1.762,10.199-0.264,14.054c-2.739,5.215-10.448,4.884-15.458,5.544
	c-8.247,1.087-16.671,0.459-24.977,1.517c-4.66,0.594-8.868,1.506-13.574,1.105c-3.993-0.34-8.043-1.145-11.977-1.938
	c-18.944-3.821-37.744,0.486-56.841,0.486c-8.771,0-17.493,0.458-26.251,0.024c-7.423-0.368-14.865-1.131-22.289-1.131
	c-11.428,0-23.5,0.24-34.562-3.077c-3.049-0.915-7.681-2.256-8.936-5.572c-1.385-3.66,0.872-7.571,3.836-9.564
	c3.972-2.67,7.859-4.065,12.475-5.246c5.915-1.514,13.015-1.653,19.118-1.464c3.42,0.106,6.51,1.628,9.965,1.664
	c3.449,0.036,6.817,0.006,10.232,0.345c9.942,0.985,19.632,0.618,29.642,1.033c8.211,0.341,16.404,1.675,24.637,1.24
	c8.164-0.432,15.975-1.095,24.234-0.694c8.479,0.412,17.407,0.687,25.816-0.609c8.185-1.262,16.207-2.699,24.514-2.699
	c5.304-0.001,10.553-0.707,15.831-0.553C358.191,411.133,363.992,411.987,369.435,416.565z"/>
<path style="fill:#6D6D6D;" d="M256.181,307.742c-6.452,3.98-8.787,15.813-4.822,22.014c3.247,5.078,9.103,7.876,14.79,8.169
	c7.111,0.366,11.694-0.194,15.263-7.061c3.728-7.172,5.332-14.255,0.32-21.46c-2.162-3.109-5.276-4.751-8.938-5.483
	c-2.404-0.48-4.366-0.316-6.729,0.337c-1.004,0.277-2.414,0.499-3.314,1.048C261.154,306.28,260.488,308.089,256.181,307.742z"/>
<path style="fill:#F4F4F4;" d="M35.242,61.106c-1.749,7.963-1.899,16.44-2.306,24.545c-0.512,10.228-0.867,20.462-1.385,30.69
	c-0.577,11.398-1.562,22.754-2.098,34.109c-0.245,5.187-0.055,10.425-0.055,15.62c0,6.721-0.277,13.403-0.277,20.125
	c0,11.291-0.244,22.624,0.301,33.884c0.806,16.66,0.909,33.311,0.254,50.018c-0.186,4.757-0.834,10.857,0.339,15.493
	c1.066,4.217,6.346,4.747,10.424,4.735c10.618-0.031,21.268-0.168,31.847-1.145c4.039-0.373,6.986-1.575,10.722-2.777
	c4.184-1.346,8.634-0.021,12.932,0.016c4.497,0.039,8.97-0.281,13.472-0.276c9.484,0.01,18.771-0.159,28.253,0.215
	c5.726,0.226,11.501,0.625,17.231,0.615c9.206-0.015,18.319-2.972,27.326-1.263c10.279,1.951,22.009,0.814,32.434,0.679
	c22.15-0.287,44.33-1.418,66.461,0.09c17.991,1.226,36.465,1.038,54.528,0.231c17.912-0.8,36.177-0.538,53.999,0.803
	c5.03,0.378,10.077,0.898,15.103,1.363c10.626,0.984,21.338,3.17,32.053,3.1c5.325-0.035,10.577-0.291,15.912-0.297
	c4.57-0.005,8.983-0.646,13.514-0.832c4.307-0.177,8.557,0.612,12.844,0.557c2.892-0.038,5.346,1.49,8.176,0.254
	c2.314-1.01,3.995-3.324,5.126-5.475c3.267-6.211,4.173-14.274,5.33-21.093c2.783-16.404,4.362-33.303,6.446-49.846
	c2.492-19.776,3.193-38.798,0.824-58.59c-1.054-8.807-1.971-18.817-0.972-27.646c0.971-8.585,1.247-17.231,1.81-25.848
	c0.382-5.849-1.442-10.622-1.72-16.299c-0.714-14.559,3.31-29.158-4.22-42.74c-3.059-5.517-9.409-9.132-14.815-11.9
	c-4.512-2.311-9.318-2.153-14.204-2.514c-5.667-0.419-11.563-1.601-17.219-2.402c-12.407-1.758-24.401-0.336-36.833-0.346
	c-28.127-0.022-56.216,0.829-84.275-0.614c-14.587-0.751-29.357,0.462-43.97-0.193c-7.044-0.316-14.05,0.333-21.094-0.016
	c-8.384-0.416-16.366-1.861-24.849-1.956c-8.604-0.097-17.179-0.741-25.773-0.293c-7.167,0.374-14.359,0.872-21.541,0.856
	c-13.377-0.03-26.855-1.042-40.215-0.067c-12.455,0.909-24.62,4.086-37.143,4.789c-10.179,0.571-21.064,2.12-31.225,1.658
	c-9.118-0.414-18.007-0.938-26.857,1.658c-3.405,0.999-6.915,1.347-9.76,3.649c-2.289,1.852-4.377,4.366-6.294,6.592
	C39.189,48.381,36.677,54.571,35.242,61.106z"/>
<g>
	<path style="fill:#727272;" d="M10.149,199.492c-0.044,15.755-3.685,31.894-4.449,47.719c-0.787,16.301-1.089,32.614-1.089,48.931
		c0,30.47,0.742,60.87,1.928,91.323c0.735,18.855-1,37.787-0.368,56.69c0.254,7.592-0.532,18.189,4.115,24.745
		c7.661,10.808,20.01,8.375,31.245,11.079c7.811,1.88,15.592,3.449,23.553,4.62c16.985,2.5,34.218,1.236,51.302,3.785
		c8.042,1.2,14.713-1.269,22.616-2.061c9.604-0.963,19.272-2.274,28.94-2.173c9.822,0.103,19.729,2.021,29.528,0.575
		c8.232-1.214,17.903-6.158,21.38-14.22c2.895-6.713,4.638-13.822,4.994-21.13c0.994-20.402,0.603-40.725,0.093-61.124
		c-0.34-13.57-1.455-26.961-1.502-40.585c-0.054-15.629,2.133-31.159,1.401-46.824c-1.356-28.981,3.055-57.605,3.081-86.596
		c0.012-13.463-3.675-27.608-18.139-31.007c-12.406-2.915-28.066-2.461-40.671-1.783c-21.055,1.132-42.372,0.681-63.522,0.684
		c-14.241,0.002-28.341-0.091-42.539,1.108c-10.286,0.869-20.779,1.475-30.985,2.953C19.674,187.849,14.104,189.979,10.149,199.492z
		"/>
	<path style="fill:#727272;" d="M275.607,289.578c0.467,8.612-1.859,17.521-2.773,26.046c-0.955,8.904-1.525,17.749-2.111,26.659
		c-0.853,12.991-1.024,26.017-1.024,39.065c0,10.499,0.048,21.019-0.368,31.463c-0.439,11.038-1.223,22.532,0.45,33.493
		c1.535,10.056,5.878,17.783,13.909,24.01c8.258,6.404,22.559,4.187,32.529,4.614c11.104,0.475,22.295,1.663,33.391,0.656
		c9.469-0.859,16.704-5.084,19.931-14.326c5.511-15.787,5.721-34.768,7.186-51.287c1.069-12.061,0.154-23.776,0.038-35.827
		c-0.13-13.507,2.187-27.531,0.839-40.977c-1.107-11.041,2.31-22.157-2.405-32.891c-5.215-11.871-21.797-12.139-32.89-13.285
		c-12.684-1.31-25.582-2.289-38.325-2.866C294.346,283.687,282.516,282.568,275.607,289.578z"/>
</g>
<g>
	<path style="fill:#14DDF7;" d="M61.838,181.032c2.111-7.204,0.63-16.868,1.097-24.366c0.58-9.3,0.297-18.584,0.735-27.883
		c0.426-9.038-0.453-18.079,0.078-27.082c7.657,3.353,18.454,1.982,26.889,2.353c23.545,1.034,47.201-0.294,70.739-0.572
		c18.461-0.218,36.92-0.309,55.361-0.909c10.173-0.331,20.352,0.819,30.455,0.758c5.385-0.033,10.731-1.343,16.201-1.286
		c5.329,0.056,10.653,0.464,15.984,0.328c12.949-0.331,25.781-1.05,38.717-1.745c25.743-1.383,51.465-1.554,77.147,1.035
		c17.526,1.766,35.682,3.182,53.291,2.493c6.169-0.241,12.603-2.825,14.218,3.572c2.348,9.305,2.253,18.749,2.261,28.311
		c0.009,11.058-0.128,22.306-0.812,33.347c-1.35,21.798-2.523,44.052-1.044,65.839c1.229,18.103-5.129,36.494-3.002,54.297
		c-12.747,0.664-26.024-0.298-38.839-0.313c-20.74-0.026-41.616,4.243-62.342,2.307c-16.989-1.587-33.621-5.525-50.693-6.664
		c-10.613-0.708-20.645,2.399-31.11,2.861c-12.134,0.536-24.788,0.828-37.05,0.757c-10.079-0.058-10.978-4.376-11.748-13.299
		c-1.234-14.311,0.404-29.208,0.349-43.65c-0.035-9.137-0.36-18.444-0.769-27.584c-0.214-4.796-0.61-10.073-3.67-13.961
		c-4.443-5.645-15.162-6.488-21.721-6.748c-7.186-0.285-14.501-0.624-21.694-0.319c-9.705,0.412-18.617,0.548-28.32-0.48
		c-10.502-1.112-21.054-2.09-31.626-1.685c-12.587,0.482-25.14,0.215-37.688,1.566C74.52,183.248,66.832,183.706,61.838,181.032z"/>
	<path style="fill:#14DDF7;" d="M285.945,320.222c-4.873,25.229-2.856,51.309-2.585,76.794c0.089,8.383-0.197,16.594,0.708,24.918
		c0.563,5.181,0.464,12.605,4.894,16.442c4.667,4.042,15.507,4.451,21.258,4.419c9.966-0.054,19.572-0.449,29.514,0.428
		c8.396,0.74,17.644,0.477,20.882-8.836c4.018-11.554,1.754-26.028,1.754-38.13c0-19.566,1.846-38.989,1.846-58.495
		c0-6.941,0.723-26.558-8.121-29.271c-8.452-2.593-17.346,0.744-25.941-0.13c-4.382-0.446-7.801-1.926-12.298-1.798
		c-5.343,0.152-10.667,0.738-16.016,0.737c-2.985-0.001-7.004-1.124-9.914-0.286C285.585,308.84,285.176,316.697,285.945,320.222z"
		/>
	<path style="fill:#14DDF7;" d="M29.348,240.843c1.533,5.669-0.369,12.694-0.656,18.461c-0.415,8.315-0.582,16.493-0.072,24.8
		c0.743,12.095,2.872,24.37,2.95,36.459c0.16,24.591-4.438,49.041-4.438,73.685c0,9.684,0.05,19.807,2.881,29.125
		c4.54,14.941,25.039,18.605,38.364,19.073c9.5,0.334,19.118,0.375,28.618,0.352c21.639-0.053,43.308,1.328,64.905,0.129
		c8.681-0.482,23.066-0.979,30.266-6.658c7.107-5.605,8.489-16.37,9.691-24.799c2.138-14.994,2.86-30.918,2.86-46.037
		c0-17.166-1.974-34.44-1.409-51.602c0.399-12.106,2.333-24.115,2.815-36.203c0.415-10.406,3.7-22.23,2.221-32.482
		c-1.049-7.273-9.427-5.053-15.457-5.391c-8.537-0.478-17.134-0.911-25.692-1.135c-8.123-0.213-16.225,0.641-24.344,0.725
		c-7.343,0.076-14.518-0.771-21.842-0.708c-20.08,0.173-40.359-0.488-60.397,0.74c-6.287,0.386-12.606,1.122-18.907,1.097
		C35.254,240.448,31.437,240.955,29.348,240.843z"/>
</g>
<g>
	<path style="fill:#008EE5;" d="M31.194,205.03c-2.171,9.259-3.078,22.477-1.445,31.953c0.627,3.639,1.326,3.655,4.761,3.86
		c5.47,0.326,10.928,0.321,16.423,0.37c16.15,0.142,32.286,1.79,48.525,1.025c18.955-0.893,37.943-1.329,56.926-1.395
		c12.595-0.043,25.025-0.691,37.571-0.082c2.399,0.116,9.428,1.296,11.517-0.089c2.197-1.457,1.12-7.278,1.095-9.726
		c-0.078-7.488-0.731-20.78-7.573-25.168c-12.584-8.07-30.277-3.462-44.114-3.333c-6.536,0.061-13.054,0.383-19.576,0.371
		c-15.745-0.031-31.03-0.655-46.683,0.008c-9.444,0.4-18.963,0.359-28.414,0.361C50.093,203.186,39.345,205.147,31.194,205.03z"/>
	<path style="fill:#008EE5;" d="M48.546,258.934c-3.459,9.233-0.956,22.128-1.866,32.028c-0.697,7.575-1.442,16.142-0.349,23.721
		c1.926,13.349,26.066,10.548,35.721,9.592c4.732-0.469,11.016-0.443,14.68-3.823c4.646-4.287,4.078-11.815,3.687-17.653
		c-0.621-9.267-1.009-18.497-2.353-27.668c-0.693-4.731-0.542-11.801-3.91-15.646c-4.586-5.237-13.974-3.537-19.93-3.791
		C66.117,255.348,54.732,252.222,48.546,258.934z"/>
	<path style="fill:#008EE5;" d="M137.894,351.235c-3.459,9.233-0.956,22.128-1.866,32.028c-0.697,7.575-1.443,16.141-0.349,23.72
		c1.926,13.349,26.066,10.548,35.721,9.592c4.732-0.469,11.016-0.443,14.68-3.823c4.646-4.287,4.078-11.815,3.687-17.653
		c-0.621-9.267-1.009-18.497-2.353-27.668c-0.693-4.731-0.542-11.801-3.909-15.646c-4.586-5.237-13.974-3.537-19.93-3.791
		C155.465,347.649,144.079,344.523,137.894,351.235z"/>
	<path style="fill:#008EE5;" d="M300.713,327.237c-3.459,9.233-0.956,22.128-1.866,32.028c-0.697,7.575-1.442,16.141-0.349,23.72
		c1.926,13.349,26.066,10.548,35.721,9.592c4.732-0.469,11.016-0.443,14.68-3.823c4.646-4.287,4.078-11.815,3.687-17.653
		c-0.621-9.267-1.009-18.497-2.353-27.668c-0.693-4.731-0.542-11.801-3.91-15.646c-4.586-5.237-13.974-3.537-19.93-3.791
		C318.284,323.65,306.898,320.525,300.713,327.237z"/>
	<path style="fill:#008EE5;" d="M284.837,206.138c-3.459,9.232-0.956,22.128-1.866,32.028c-0.697,7.575-1.442,16.141-0.349,23.721
		c1.926,13.349,26.066,10.548,35.721,9.592c4.732-0.469,11.016-0.443,14.68-3.823c4.646-4.287,4.078-11.815,3.687-17.653
		c-0.621-9.267-1.009-18.497-2.353-27.668c-0.693-4.731-0.542-11.801-3.909-15.646c-4.586-5.237-13.974-3.537-19.93-3.791
		C302.408,202.551,291.022,199.426,284.837,206.138z"/>
	<path style="fill:#008EE5;" d="M285.206,120.482c-3.459,9.232-0.956,22.128-1.866,32.028c-0.697,7.575-1.442,16.141-0.349,23.72
		c1.926,13.349,26.066,10.548,35.721,9.592c4.732-0.469,11.016-0.443,14.68-3.823c4.646-4.287,4.078-11.815,3.687-17.653
		c-0.621-9.267-1.009-18.497-2.353-27.668c-0.693-4.731-0.542-11.801-3.909-15.646c-4.586-5.237-13.974-3.537-19.93-3.791
		C302.777,116.896,291.392,113.77,285.206,120.482z"/>
	<path style="fill:#008EE5;" d="M101.343,121.59c-3.459,9.232-0.956,22.128-1.866,32.028c-0.626,6.801-2.734,17.892,1.898,23.797
		c4.131,5.267,12.235,6.742,18.523,6.94c7.244,0.228,14.526,0.102,21.675-0.728c10.507-1.221,12.271-8.805,11.643-18.172
		c-0.621-9.267-1.009-18.497-2.353-27.668c-0.693-4.731-0.542-11.801-3.91-15.646c-4.586-5.237-13.974-3.537-19.93-3.791
		C118.913,118.003,107.528,114.878,101.343,121.59z"/>
	<path style="fill:#008EE5;" d="M72.545,66.579c-5.466,0.414-8.63,13.391-8.87,17.904c-0.214,4.044-0.092,10.982,1.297,14.774
		c1.459,3.981,4.047,3.143,7.914,3.135c9.732-0.02,19.417,0.379,29.195,0.369c14.463-0.015,29.203-0.283,43.657,0.451
		c16.449,0.835,32.96-3.922,49.678-3.035c6.989,0.371,13.958,0.947,20.946,1.412c15.886,1.058,30.899,0.826,46.715-0.416
		c26.79-2.103,53.897-2.416,80.756-1.284c13.74,0.579,27.644,0.37,41.348,1.597c13.669,1.224,27.051,2.876,40.777,3.571
		c10.956,0.554,21.765,0.568,32.696-0.439c3.821-0.352,6.094-0.23,7.452-3.695c3.434-8.76,0.739-23.929-1.743-32.525
		c-2.492-8.628-7.083-10.663-15.283-11.869c-15.606-2.295-32.484-1.395-48.299-1.395c-24.167,0-48.292,2.246-72.412,2.215
		c-28.366-0.037-56.696,0.623-85.081,0.729c-17.493,0.065-35.15,0.437-52.614,1.396c-15.06,0.827-30.312,0.091-45.381,0.091
		c-12.38,0-24.798-0.615-37.148-0.378C96.263,59.414,79.449,59.569,72.545,66.579z"/>
</g>
<path d="M511.937,110.938c-0.171-15.853-1.295-31.823-2.218-47.667c-0.539-9.239-1.1-20.557-8.369-27.355
	c-8.979-8.397-24.548-11.947-36.243-13.071c-14.633-1.407-29.599-2.372-44.309-2.547c-26.435-0.314-52.849,1.022-79.262,0.886
	c-26.278-0.135-52.557-1.481-78.853-1.481c-58.153,0.002-115.914,1.563-173.968,4.404c-21.708,1.063-46.076,4.107-54.007,27.265
	c-4.072,11.89-4.578,26.88-5.719,39.419c-1.169,12.849-2.443,25.618-2.912,38.53c-0.622,17.167-0.667,34.333-0.483,51.499
	c-1.26,0.33-2.511,0.691-3.745,1.113c-13.513,4.622-16.221,14.251-17.68,27.342c-2.147,19.264-3.319,38.664-4.044,58.016
	c-0.7,18.645,1.794,37.377,1.13,56.065c-0.691,19.457-0.486,38.935-0.218,58.415c0.251,18.281,1.191,36.581,1.126,54.873
	c-0.045,12.765-3.297,33.892,7.783,43.347c10.628,9.069,30.977,7.482,43.985,8.443c19.261,1.423,38.81,2.321,58.135,2.644
	c17.583,0.294,35.789,1.825,53.306,0.954c8.813-0.438,17.621-0.297,26.424-0.828c6.489-0.392,14.089,0.137,20.03-2.866
	c13.237-6.693,16.255-24.759,18.2-37.894c0.385-2.596,0.704-5.214,0.989-7.841c12.003-0.177,24.01-0.381,36.015-0.54
	c0.903,15.634,3.245,29.583,21.99,33.798c21.24,4.778,45.797,8.18,67.494,5.676c21.623-2.495,21.984-22.682,24.193-40.694
	c3.272-26.682,3.518-53.254,3.806-80.077c0.006-0.599-0.004-1.198-0.001-1.797c1.592,0.042,3.184,0.081,4.774,0.137
	c23.613,0.846,53.834,5.74,76-4.413c23.401-10.719,29.153-36.131,34.255-59.013c6.264-28.095,8.654-57.903,10.019-86.617
	C511.1,176.55,512.288,143.477,511.937,110.938z M218.921,453.413c-1.33,6.976-2.904,17.306-8.076,22.536
	c-5.43,5.491-16.779,4.79-24.156,5.101c-15.045,0.634-30.254,0.654-45.296-0.1c-32.263-1.618-64.565-1.575-96.832-3.555
	c-6.836-0.419-16.839-0.262-23.198-3.298c-10.09-4.818-8.78-17.673-8.751-27.223c0.047-15.059-0.7-30.047-0.6-45.096
	c0.107-16.218,0.024-32.815-0.744-49.027c-0.726-15.326,0.288-30.569,0.107-45.91c-0.199-16.839-0.78-33.547-0.562-50.366
	c0.12-9.297,1.103-18.564,1.787-27.837c0.653-8.843,0.464-18.86,2.92-27.435c5.052-17.635,39.492-12.135,53.72-12.364
	c9-0.145,17.959-0.848,26.944-1.308c1.28-0.065,2.63-0.176,4.004-0.299c8.62,0.311,17.254,0.54,25.776,0.81
	c16.158,0.514,32.387,0.342,48.552,0.344c13.321,0.003,41.936-3.62,46.805,11.749c2.131,6.727,0.842,15.889,0.764,22.841
	c-0.1,8.956-0.547,17.881-0.554,26.846c-0.025,34.631-0.668,69.259-0.668,103.903C220.864,386.423,225.071,421.153,218.921,453.413z
	 M103.661,176.655c-2.782-7.382-0.835-19.426-1.017-27.375c-0.158-6.888-2.221-14.899,0.324-21.561
	c3.959-10.364,17.847-6.891,26.765-6.586c16.165,0.553,20.23,9.957,20.335,25.063c0.056,8.124,2,21.376-0.64,28.859
	c-0.499,1.413-1.23,2.563-2.105,3.54c-1.512,0.02-3.025,0.043-4.535,0.058c-10.209,0.101-20.27-0.114-30.462-0.524
	c-2.666-0.107-5.281-0.035-7.87,0.139C104.162,177.765,103.883,177.243,103.661,176.655z M204.885,179.078
	c-16.449-1.141-33.067-0.861-49.611-0.598c0.482-1.699,0.783-3.693,0.919-6.052c0.811-14.026,1.635-30.002-1.686-43.721
	c-2.529-10.443-9.58-13.402-19.718-13.523c-8.294-0.098-26.055-3.777-33.153,0.746c-6.886,4.388-4.756,15.811-4.6,22.526
	c0.257,10.996,0.101,22,0.351,32.992c0.053,2.334,0.132,4.774,0.469,7.093c-7.595,0.043-15.187,0.368-22.782,0.499
	c-3.201,0.055-6.466-0.007-9.768-0.108c0.322-22.38,1.647-44.716,1.491-67.169c-0.014-1.932-0.097-4.281-0.169-6.844
	c4.675-0.28,13.787,1.977,16.696,2.047c9.432,0.228,18.887,0.147,28.316-0.105c18.323-0.488,36.574-0.381,54.904-0.369
	c35.269,0.024,70.484-1.189,105.747-1.415c31.389-0.201,63.225-2.652,94.534-1.157c31.393,1.499,63.158,2.675,94.536,2.728
	c-0.094,11.371-0.132,22.762,0.358,34.096c1.291,29.857-1.241,59.645-1.074,89.396c0.073,13.195-0.561,25.953-2.613,38.936
	c-0.586,3.708-2.671,11.686-2.516,17.489c-5.45-0.014-10.9-0.017-16.349,0.12c-10.936,0.273-21.874,0.499-32.814,0.502
	c-9.8,0.003-19.222,1.073-29.029,0.836c-21.136-0.51-42.2-2.53-63.329-3.216c-5.91-0.192-82.492,1.416-82.43-1.48
	c0.093-3.88,0.186-7.76,0.275-11.627c0.072-3.115,0.16-6.248,0.253-9.39c4.192-0.09,8.203-0.689,11.563-2.375
	c1.36-0.683,1.052-2.97-0.43-3.29c-3.472-0.75-7.164-1.088-10.924-1.257c0.07-2.303,0.137-4.613,0.201-6.923
	c4.044-0.121,7.902-0.743,11.152-2.375c1.36-0.683,1.052-2.97-0.43-3.29c-3.358-0.725-6.922-1.066-10.554-1.244
	c0.067-3.061,0.117-6.12,0.144-9.177c3.929-0.144,7.675-0.76,10.84-2.349c1.36-0.683,1.052-2.97-0.43-3.29
	c-3.311-0.715-6.822-1.059-10.401-1.237c-0.015-3.067-0.063-6.125-0.15-9.174c3.982-0.131,7.778-0.751,10.981-2.36
	c1.36-0.683,1.052-2.97-0.43-3.29c-3.447-0.744-7.102-1.102-10.834-1.274c-0.062-1.216-0.103-2.438-0.182-3.648
	C231.119,188.865,222.034,180.267,204.885,179.078z M76.363,68.228c5.626-2.93,14.461-2.165,20.721-2.745
	c7.587-0.702,15.021-0.719,22.622-1.039c27.032-1.138,54.25-2.14,81.302-2.873c27.857-0.755,55.854,0.368,83.678-1.098
	c27.598-1.454,55.621-2.042,83.25-1.827c13.856,0.108,27.659-0.659,41.5-0.729c13.544-0.069,29.439-1.997,42.651,1.513
	c8.805,2.34,7.961,8.922,8.639,16.364c0.537,5.901,0.781,11.622,0.743,17.534c-0.013,2.084-0.034,4.174-0.052,6.261
	c-31.377-0.015-63.205-1.128-94.591-2.621c-16.25-0.772-32.858-0.007-49.113,0.553c-16.44,0.565-32.849,0.446-49.307,0.75
	c-36.918,0.681-73.784,1.592-110.716,1.505c-17.546-0.042-34.997,0.353-52.536,0.73c-10.058,0.216-20.269,0.643-30.305,0.001
	c-2.553-0.164-5.549-0.854-8.319-0.772C66.418,87.576,67.486,72.85,76.363,68.228z M265.551,411.684
	c-10.918,0.15-22.153,0.266-33.163-0.838c-0.067-5.527-0.253-11.036-0.555-16.481c-0.676-12.184-1.004-24.448-1.143-36.738
	c11.526,0.164,23.053,0.316,34.58,0.461c-0.04,1.509-0.087,3.018-0.146,4.525C264.491,378.963,264.864,395.339,265.551,411.684z
	 M230.6,348.124c-0.054-18.695,0.327-37.431,0.762-56.065c10.004,0.66,20.005,1.361,30.041,1.575
	c2.871,0.061,5.742,0.105,8.613,0.154c-0.419,2.314-0.472,4.732-0.389,7.176c-4.396-0.04-7.523,1.955-10.752,4.157
	c-1.839,0.826-3.526,1.918-5.018,3.23c-0.031,0.031-0.071,0.056-0.099,0.089c-4.809,4.285-7.495,10.823-6.032,17.943
	c1.597,7.774,9.63,14.186,17.911,15.719c-0.068,2.298-0.125,4.597-0.171,6.896C253.847,348.771,242.223,348.461,230.6,348.124z
	 M265.886,335.797c-0.005-0.001-0.009-0.001-0.014-0.002c-4.374-1.014-9.509-4.346-11.899-8.278
	c-4.545-7.478,0.402-13.929,6.775-18.132c2.881-0.977,5.622-2.168,8.734-2.166c-1.091,6.049-2.148,12.112-2.813,18.264
	C266.299,328.909,266.06,332.35,265.886,335.797z M231.817,433.232c0.277-4.16,0.459-8.334,0.54-12.514
	c11.18,1.072,22.404,1.207,33.65,1.056c0.183,3.77,0.371,7.539,0.565,11.303c-3.993,0.016-7.986,0.036-11.981,0.038
	C246.992,433.122,239.404,433.162,231.817,433.232z M374.621,362.647c-0.182,20.036-0.23,39.906-1.844,59.902
	c-0.837,10.384-1.772,20.936-3.616,31.193c-0.818,4.546-1.542,9.163-4.208,13.026c-4.154,6.017-11.24,5.442-18.174,5.434
	c-18.302-0.021-39.44-0.553-57.021-6.071c-11.657-3.659-12.127-11.697-12.851-22.134c-0.718-10.369-1.657-20.752-1.684-31.15
	c-0.049-19.133-0.629-38.205-0.073-57.358c0.334-11.491,0.039-22.858,0.895-34.349c0.393-5.278,0.962-10.54,1.412-15.814
	c0.374-4.384-0.659-8.282,3.604-10.469c5.643-2.895,13.568-1.696,19.652-1.402c8.413,0.407,16.833,0.634,25.255,0.763
	c7.853,0.121,17.289-1.317,24.934,0.481c9.832,2.312,21.611,4.769,22.456,16.773C374.549,328.398,374.775,345.669,374.621,362.647z
	 M487.689,301.142c-2.908,12.442-5.873,26.162-14.913,35.797c-18.057,19.246-50.434,12.044-73.9,12.078
	c-4.81,0.007-9.627-0.038-14.444-0.092c-0.115-6.321-0.309-12.638-0.426-18.966c-0.164-8.918,1.203-22.238-2.803-30.665
	c-0.671-1.41-1.553-2.682-2.606-3.837c0.431,0.015,0.863,0.024,1.294,0.039c19.759,0.693,39.505,0.591,59.277,0.166
	c16.607-0.356,33.266,0.641,49.816-0.502C488.556,297.154,488.155,299.145,487.689,301.142z M499.942,181.756
	c-0.097,25.711-2.391,51.131-5.102,76.674c-0.769,7.246-0.063,24.669-6.946,28.077c-5.953,2.948-15.521,0.044-21.908,0.067
	c-1.113,0.004-2.227,0-3.341,0c0.047-3.157,1.818-9.473,2.056-11.19c0.687-4.953,1.83-9.996,2.238-14.985
	c1.021-12.484,0.305-25.031,1.147-37.516c1.923-28.514,1.437-57.5,0.55-86.084c-0.481-15.511-0.079-31.086-0.058-46.602
	c0.012-9.183,0.71-23.623-4.373-31.877c-5.128-8.328-14.806-6.342-23.45-6.885c-16.138-1.013-32.236-0.529-48.409,0.064
	c-14.598,0.535-29.237-0.562-43.822,0.034c-16.024,0.654-32.112,1.682-48.157,1.66c-30.397-0.041-60.864,1.581-91.269,1.479
	c-30.245-0.102-60.872,1.935-91.123,2.853c-18.188,0.552-51.585-3.932-55.949,19.769c-2.936,15.947-2.195,32.352-2.194,48.475
	c0.001,16.927-1.298,33.615-1.677,50.482c-0.018,0.81-0.013,1.621-0.023,2.432c-7.696-0.271-15.481-0.452-23.021,0.398
	c-0.283-8.03-0.518-16.063-0.515-24.104c0.006-22.79,1.498-45.365,3.903-68.02c1.247-11.751,1.673-29.419,8.846-39.302
	c8.338-11.488,28.322-12.646,41.371-13.386c57.996-3.288,115.853-5.411,173.968-5.848c48.885-0.368,97.529,2.902,146.443,1.333
	c23.262,1.109,49.02-1.102,71.085,6.655c5.339,1.877,13.112,4.908,16.196,10.197c2.767,4.746,2.706,11.395,2.986,16.667
	c0.7,13.177,1.319,26.321,2.099,39.481C503.048,128.988,500.041,155.501,499.942,181.756z"/>
<path d="M169.092,123.978c14.406,1.678,29.222,1.52,43.709,2.421c9.381,0.584,22.241,3.285,30.856-1.039
	c1.36-0.683,1.052-2.97-0.43-3.29c-10.068-2.174-21.904-1.119-32.272-1.504c-13.855-0.513-28.059-0.169-41.863-1.365
	C166,118.934,166.095,123.629,169.092,123.978z"/>
<path d="M169.092,144.469c14.406,1.678,29.222,1.52,43.709,2.421c9.381,0.584,22.241,3.286,30.856-1.04
	c1.36-0.683,1.052-2.97-0.43-3.29c-10.068-2.174-21.904-1.12-32.272-1.503c-13.855-0.513-28.059-0.169-41.863-1.365
	C166,139.425,166.095,144.12,169.092,144.469z"/>
<path d="M243.227,158.621c-10.068-2.174-21.904-1.12-32.272-1.503c-13.855-0.513-28.059-0.169-41.863-1.365
	c-3.092-0.268-2.996,4.428,0,4.777c14.406,1.678,29.222,1.52,43.709,2.421c9.381,0.584,22.241,3.286,30.856-1.039
	C245.016,161.228,244.708,158.941,243.227,158.621z"/>
<path d="M280.513,171.447c0.16,6.995,0.187,15.136,8.428,17.209c10.908,2.813,22.71,1.877,33.645,0.16
	c11.337-1.78,16.048-4.565,16.732-16.388c0.811-14.026,1.635-30.002-1.686-43.721c-2.529-10.443-9.58-13.402-19.717-13.523
	c-8.294-0.098-26.055-3.777-33.153,0.746c-6.886,4.388-4.756,15.811-4.599,22.526C280.419,149.452,280.263,160.456,280.513,171.447z
	 M286.094,127.719c3.959-10.364,17.847-6.891,26.766-6.586c16.165,0.553,20.23,9.957,20.335,25.063
	c0.056,8.124,2,21.376-0.64,28.859c-3.119,8.841-14.56,8.34-22.275,8.907c-7.57,0.557-20.073,1.77-23.493-7.308
	c-2.782-7.382-0.835-19.426-1.017-27.375C285.612,142.392,283.549,134.381,286.094,127.719z"/>
<path d="M352.217,144.469c14.406,1.678,29.222,1.52,43.709,2.421c9.381,0.584,22.241,3.286,30.856-1.04
	c1.36-0.683,1.052-2.97-0.43-3.29c-10.068-2.174-21.905-1.12-32.273-1.503c-13.855-0.513-28.059-0.169-41.862-1.365
	C349.125,139.425,349.22,144.12,352.217,144.469z"/>
<path d="M352.217,160.529c14.406,1.678,29.222,1.52,43.709,2.421c9.381,0.584,22.241,3.286,30.856-1.039
	c1.36-0.683,1.052-2.97-0.43-3.29c-10.068-2.174-21.905-1.12-32.273-1.503c-13.855-0.513-28.059-0.169-41.862-1.365
	C349.125,155.485,349.22,160.181,352.217,160.529z"/>
<path d="M352.217,176.59c14.406,1.678,29.222,1.52,43.709,2.421c9.381,0.584,22.241,3.285,30.856-1.04
	c1.36-0.683,1.052-2.97-0.43-3.29c-10.068-2.174-21.905-1.119-32.273-1.503c-13.855-0.513-28.059-0.169-41.862-1.365
	C349.125,171.545,349.22,176.241,352.217,176.59z"/>
<path d="M280.513,255.626c0.16,6.995,0.187,15.136,8.428,17.209c10.908,2.813,22.71,1.877,33.645,0.16
	c11.337-1.78,16.048-4.565,16.732-16.388c0.811-14.026,1.635-30.002-1.686-43.721c-2.529-10.443-9.58-13.402-19.717-13.523
	c-8.294-0.098-26.055-3.777-33.153,0.746c-6.886,4.388-4.756,15.811-4.599,22.526C280.419,233.63,280.263,244.634,280.513,255.626z
	 M286.094,211.898c3.959-10.364,17.847-6.891,26.766-6.586c16.165,0.553,20.23,9.957,20.335,25.063
	c0.056,8.124,2,21.376-0.64,28.859c-3.119,8.841-14.56,8.34-22.275,8.907c-7.57,0.557-20.073,1.77-23.493-7.308
	c-2.782-7.382-0.835-19.426-1.017-27.375C285.612,226.571,283.549,218.56,286.094,211.898z"/>
<path d="M352.217,212.587c14.406,1.678,29.222,1.52,43.709,2.421c9.381,0.584,22.241,3.286,30.856-1.039
	c1.36-0.683,1.052-2.97-0.43-3.29c-10.068-2.174-21.905-1.119-32.273-1.503c-13.855-0.513-28.059-0.169-41.862-1.365
	C349.125,207.543,349.22,212.238,352.217,212.587z"/>
<path d="M352.217,228.648c14.406,1.678,29.222,1.52,43.709,2.421c9.381,0.584,22.241,3.285,30.856-1.04
	c1.36-0.683,1.052-2.97-0.43-3.29c-10.068-2.174-21.905-1.12-32.273-1.504c-13.855-0.513-28.059-0.169-41.862-1.364
	C349.125,223.603,349.22,228.299,352.217,228.648z"/>
<path d="M352.217,244.708c14.406,1.678,29.222,1.52,43.709,2.421c9.381,0.584,22.241,3.286,30.856-1.039
	c1.36-0.683,1.052-2.97-0.43-3.29c-10.068-2.174-21.905-1.119-32.273-1.503c-13.855-0.513-28.059-0.169-41.862-1.365
	C349.125,239.664,349.22,244.359,352.217,244.708z"/>
<path d="M352.217,258.553c14.406,1.678,29.222,1.52,43.709,2.421c9.381,0.584,22.241,3.286,30.856-1.039
	c1.36-0.683,1.052-2.97-0.43-3.29c-10.068-2.174-21.905-1.119-32.273-1.503c-13.855-0.513-28.059-0.169-41.862-1.365
	C349.125,253.509,349.22,258.204,352.217,258.553z"/>
<path d="M169.45,199.372c-33.411-1.122-67.27-0.801-100.598,1.109c-10.911,0.625-25.091-3.484-35.647,0.389
	c-6.839,2.509-7.371,9.612-6.687,16.537c-1.492,9.751-0.384,20.541-0.483,30.003c-0.181,17.303,0.297,34.595,0.256,51.906
	c-0.075,31.512,0.322,63.047-1.299,94.44c-0.573,11.115-1.972,27.082,2.267,37.579c4.108,10.173,15.581,12.083,25.509,12.992
	c15.919,1.46,32.43-0.723,48.409-0.822c15.702-0.099,31.404,0.534,47.147,0.071c12.52-0.368,25.924,1.732,38.246-1.271
	c11.735-2.86,15.097-11.914,17.344-22.889c2.673-13.057,2.452-26.318,2.913-39.567c0.537-15.465,0.699-30.888,0.688-46.38
	c-0.024-32.479,3.24-64.916,3.283-97.464c0.011-7.863,1.961-21.509-3.761-27.972C199.314,199.312,179.963,199.725,169.45,199.372z
	 M31.892,214.804c0.14-0.746,0.29-1.488,0.464-2.217c0.094-0.393,0.081-0.746,0.009-1.071c0.379-1.624,0.972-2.958,1.888-3.733
	c2.432-2.054,10.216-1.25,13.372-1.168c10.947,0.282,21.697-0.046,32.62-0.097c23.762-0.111,47.418-1.213,71.201-0.922
	c12.993,0.159,27.509-0.232,40.168,2.939c9.334,2.337,11.318,6.286,11.628,14.915c0.158,4.412,0.316,8.818,0.43,13.231
	c-56.689-1.774-114.089-0.141-170.725,1.839c-0.024-0.886-0.072-1.788-0.177-2.732C32,228.832,30.581,221.789,31.892,214.804z
	 M200.551,321.994c-1.286,24.667-0.691,49.645-1.224,74.343c-0.259,12-0.156,35.302-14.624,39.326
	c-11.282,3.139-24.8,0.703-36.38,1.037c-25.616,0.739-51.151-0.169-76.771,0.535c-15.085,0.414-36.755,4.125-38.973-16.104
	c-1.267-11.555-0.759-23.344,0.047-34.9c1.037-14.865,0.286-30.174,0.247-45.118c-0.037-13.933-0.066-27.866-0.1-41.798
	c-0.037-15.365-2.065-31.406-0.978-46.696c0.236-3.315,0.716-6.258,0.984-9.279c2.51,0.184,5.149,0.041,7.235,0.171
	c7.69,0.482,15.401,0.433,23.111,0.469c16.344,0.076,32.676-0.523,48.99-0.937c30.47-0.773,61.303-1.024,91.676,0.072
	c0.001,0.318,0.017,0.632,0.017,0.95C203.796,270.156,201.907,295.97,200.551,321.994z"/>
<path d="M115.611,451.797c-5.694,1.56-10.282,5.926-9.509,12.773c0.92,8.144,9.886,12.897,17.478,11.566
	c8.142-1.427,14.024-9.65,10.293-17.67C130.72,451.688,122.088,447.341,115.611,451.797z M121.788,470.144
	c-3.893,0.619-9.598-1.729-10.405-5.905c-0.79-4.088,1.875-7.138,5.283-8.829c4.085-0.06,7.712-0.358,10.502,3.533
	C130.809,464.021,127.434,469.247,121.788,470.144z"/>
<path d="M44.223,308.053c0.159,6.995,0.186,15.135,8.428,17.209c10.909,2.813,22.71,1.877,33.645,0.159
	c11.337-1.78,16.049-4.565,16.732-16.388c0.811-14.026,1.635-30.002-1.686-43.722c-2.529-10.443-9.58-13.402-19.718-13.522
	c-8.294-0.099-26.055-3.778-33.153,0.746c-6.886,4.388-4.756,15.811-4.6,22.526C44.128,286.057,43.972,297.062,44.223,308.053z
	 M49.803,264.325c3.959-10.364,17.847-6.891,26.765-6.586c16.165,0.553,20.23,9.957,20.335,25.063c0.056,8.124,2,21.376-0.64,28.859
	c-3.119,8.841-14.56,8.34-22.274,8.907c-7.57,0.557-20.073,1.77-23.493-7.308c-2.782-7.383-0.835-19.426-1.017-27.375
	C49.321,278.998,47.258,270.987,49.803,264.325z"/>
<path d="M115.926,260.584c14.406,1.678,29.222,1.52,43.709,2.421c9.381,0.584,22.241,3.286,30.856-1.039
	c1.36-0.683,1.052-2.97-0.43-3.29c-10.068-2.174-21.904-1.12-32.272-1.504c-13.855-0.513-28.059-0.169-41.862-1.365
	C112.834,255.54,112.93,260.235,115.926,260.584z"/>
<path d="M115.926,276.644c14.406,1.678,29.222,1.52,43.709,2.421c9.381,0.584,22.241,3.286,30.856-1.039
	c1.36-0.683,1.052-2.97-0.43-3.29c-10.068-2.174-21.904-1.12-32.272-1.504c-13.855-0.513-28.059-0.169-41.862-1.365
	C112.834,271.6,112.93,276.296,115.926,276.644z"/>
<path d="M115.926,292.705c14.406,1.678,29.222,1.52,43.709,2.421c9.381,0.584,22.241,3.286,30.856-1.039
	c1.36-0.683,1.052-2.97-0.43-3.29c-10.068-2.174-21.904-1.12-32.272-1.504c-13.855-0.513-28.059-0.169-41.862-1.365
	C112.834,287.66,112.93,292.356,115.926,292.705z"/>
<path d="M115.926,308.765c14.406,1.678,29.222,1.52,43.709,2.421c9.381,0.584,22.241,3.286,30.856-1.039
	c1.36-0.683,1.052-2.97-0.43-3.29c-10.068-2.174-21.904-1.12-32.272-1.504c-13.855-0.513-28.059-0.169-41.862-1.364
	C112.834,303.721,112.93,308.416,115.926,308.765z"/>
<path d="M190.576,361.771c-0.159-6.995-0.186-15.135-8.428-17.209c-10.909-2.813-22.71-1.877-33.645-0.16
	c-11.337,1.78-16.049,4.565-16.732,16.388c-0.811,14.026-1.635,30.002,1.686,43.722c2.529,10.443,9.58,13.402,19.718,13.522
	c8.294,0.099,26.055,3.778,33.153-0.746c6.886-4.388,4.756-15.811,4.599-22.526C190.671,383.766,190.827,372.762,190.576,361.771z
	 M184.996,405.499c-3.959,10.364-17.847,6.891-26.766,6.586c-16.165-0.553-20.23-9.957-20.335-25.064
	c-0.056-8.124-2-21.376,0.64-28.859c3.119-8.841,14.56-8.34,22.275-8.908c7.57-0.557,20.073-1.77,23.493,7.308
	c2.782,7.382,0.835,19.426,1.017,27.375C185.478,390.825,187.541,398.837,184.996,405.499z"/>
<path d="M118.873,393.179c-14.406-1.678-29.222-1.52-43.708-2.421c-9.381-0.584-22.241-3.285-30.856,1.039
	c-1.36,0.683-1.052,2.97,0.43,3.29c10.068,2.174,21.904,1.12,32.273,1.503c13.855,0.513,28.059,0.169,41.862,1.365
	C121.964,398.223,121.869,393.528,118.873,393.179z"/>
<path d="M118.873,377.119c-14.406-1.678-29.222-1.52-43.708-2.421c-9.381-0.584-22.241-3.285-30.856,1.039
	c-1.36,0.683-1.052,2.97,0.43,3.29c10.068,2.174,21.904,1.119,32.273,1.503c13.855,0.513,28.059,0.169,41.862,1.365
	C121.964,382.163,121.869,377.467,118.873,377.119z"/>
<path d="M118.873,361.058c-14.406-1.678-29.222-1.52-43.708-2.421c-9.381-0.584-22.241-3.286-30.856,1.039
	c-1.36,0.683-1.052,2.97,0.43,3.29c10.068,2.174,21.904,1.12,32.273,1.504c13.855,0.513,28.059,0.169,41.862,1.365
	C121.964,366.103,121.869,361.407,118.873,361.058z"/>
<path d="M352.842,339.064c-0.159-6.995-0.186-15.135-8.428-17.209c-10.908-2.813-22.71-1.877-33.645-0.159
	c-11.337,1.78-16.048,4.565-16.732,16.388c-0.811,14.026-1.635,30.002,1.686,43.721c2.529,10.443,9.58,13.402,19.718,13.522
	c8.294,0.099,26.055,3.778,33.153-0.746c6.886-4.388,4.756-15.811,4.599-22.526C352.936,361.06,353.092,350.056,352.842,339.064z
	 M347.261,382.792c-3.959,10.364-17.847,6.891-26.766,6.586c-16.165-0.553-20.23-9.957-20.335-25.064
	c-0.056-8.124-2-21.376,0.64-28.859c3.119-8.842,14.56-8.34,22.275-8.907c7.57-0.557,20.073-1.77,23.493,7.308
	c2.782,7.382,0.835,19.426,1.017,27.375C347.743,368.119,349.806,376.131,347.261,382.792z"/>
<path d="M349.156,425.146c-10.003-1.852-20.291-1.678-30.351-2.672c-6.514-0.645-15.444-3.626-21.426,1.147
	c-0.944,0.754-0.73,3.278,0.298,3.632c6.991,2.4,15.21,1.236,22.41,1.659c9.621,0.567,19.484,0.187,29.069,1.506
	C351.303,430.713,351.236,425.53,349.156,425.146z"/>
<path d="M349.156,407.418c-10.003-1.852-20.291-1.678-30.351-2.672c-6.514-0.645-15.444-3.627-21.426,1.147
	c-0.944,0.754-0.73,3.278,0.298,3.632c6.991,2.4,15.21,1.236,22.41,1.659c9.621,0.567,19.484,0.187,29.069,1.506
	C351.303,412.986,351.236,407.803,349.156,407.418z"/>
<path d="M358.907,307.663c-7.176-3.488-18.638-2.299-26.472-2.335c-8.809-0.041-17.667-0.451-26.412-1.574
	c-6.51-0.836-14.328-4.084-19.325,1.809c-3.24,3.82-3.796,10.479-4.406,15.2c-1.503,11.624-0.684,23.276-1.265,34.93
	c-0.917,18.373-1.03,36.98,0.032,55.332c0.683,11.797-2.651,26.211,11.152,31.165c14.322,5.141,28.714,4.038,43.577,4.122
	c12.069,0.067,24.395,1.523,28.393-12.648c2.081-7.375,0.913-15.534,1.388-23.106c0.623-9.914,0.491-19.8,1.023-29.699
	c0.789-14.673,1.34-29.513,1.253-44.209C367.788,327.13,369.127,312.63,358.907,307.663z M358.624,422.031
	c0.097,9.666-1.208,16.53-12.309,17.837c-3.113,0.367-6.31,0.004-9.42-0.047c-6.812-0.11-13.681,0.272-20.521,0.066
	c-7.077-0.212-22.041-1.241-26.611-7.363c-4.463-5.979-2.376-18.434-2.674-25.54c-0.69-16.472-0.573-32.969,0.016-49.442
	c0.368-10.284-0.026-20.612,0.995-30.867c0.966-9.697,1.845-18.857,14.034-17.05c7.552,1.12,14.949,1.587,22.533,2.016
	c7.612,0.43,15.535-0.295,23.065,0.797c7.002,1.015,12.457,3.154,13.051,11.11c0.121,1.62,0.077,3.321,0.16,4.956
	C362.529,359.648,358.311,390.885,358.624,422.031z"/>
<path d="M325.179,451.956c-1.505,0.051-2.838,0.528-3.967,1.319c-2.499,0.778-4.12,3.314-4.012,5.911
	c0.118,2.842,2.11,5.546,4.823,6.454c5.615,1.878,10.679-4.361,9.231-9.643C330.491,453.211,327.968,451.86,325.179,451.956z"/>
<g>
</g>
<g>
</g>
<g>
</g>
<g>
</g>
<g>
</g>
<g>
</g>
<g>
</g>
<g>
</g>
<g>
</g>
<g>
</g>
<g>
</g>
<g>
</g>
<g>
</g>
<g>
</g>
<g>
</g>
</svg>
