<?xml version="1.0" encoding="iso-8859-1"?>
<!-- Generator: Adobe Illustrator 19.0.0, SVG Export Plug-In . SVG Version: 6.00 Build 0)  -->
<svg version="1.1" id="Capa_1" xmlns="http://www.w3.org/2000/svg" xmlns:xlink="http://www.w3.org/1999/xlink" x="0px" y="0px"
	 viewBox="0 0 512 512" style="enable-background:new 0 0 512 512;" xml:space="preserve">
<path style="fill:#F4F4F4;" d="M8.5,96.386c0.09,34.634-1.861,69.239-3.511,103.879c-1.459,30.635,2,61.219,0.582,91.686
	c-0.532,11.43-0.133,23.937,2.478,35.098c5.147,21.994,19.291,39.505,37.575,52.46c20.47,14.503,42.842,24.298,66.101,33.44
	c12.253,4.816,23.938,10.997,36.225,15.68c11.814,4.503,24.043,8.189,35.607,13.243c21.366,9.338,44.216,15.828,66.689,21.972
	c18.994,5.193,31.243,2.621,49.526-4.915c29.377-12.109,56.877-32.804,83.903-49.448c15.73-9.687,30.523-19.627,47.271-27.559
	c6.6-3.126,13.031-6.492,19.366-10.1c3.145-1.791,10.611-4.591,12.804-7.546c5.246-7.068-11.211-10.041-16.163-11.409
	c-23.086-6.376-47.557-5.183-70.698-11.326c-22.112-5.869-44.802-15.166-65.245-25.29c-16.852-8.346-31.201-20.579-44.169-34.058
	c-9.96-10.353-9.66-18.331-9.093-31.777c1.681-39.848-3.704-79.669-0.95-119.684c1.148-16.683,0.985-33.464,1.033-50.251
	c0.021-7.536,0.131-17.683-8.827-19.494c-9.409-1.902-21.815,0.305-31.169,1.19c-15.672,1.482-31.724,2.33-47.489,3.189
	c-22.791,1.242-45.547,3.037-68.334,4.352c-11.395,0.658-22.797,1.204-34.208,1.496c-8.931,0.229-18.133-1.373-26.869-0.194
	c-5.78,0.78-12.446,1.331-17.997,3.176C13.864,77.212,12.004,84.682,8.5,96.386z"/>
<g>
	<path style="fill:#A8AAA2;" d="M191.149,42.461c-5.274,0.461-13.458-2.789-18.132,0.436c-5.869,4.049-4.071,22.441-0.143,25.081
		c4.232,2.845,21.716,0.036,26.365-0.469c4.95-0.537,4.754,1.085,6.392-3.673c1.545-4.487,1.831-14.821-0.131-19.227
		C203.098,39.216,195.221,37.019,191.149,42.461z"/>
	<path style="fill:#A8AAA2;" d="M64.744,48.839c-0.002,7.815-0.218,15.448,1.261,23.143c4.613-0.885,10.167-0.132,15.061,0.1
		c5.292,0.25,12.554-0.57,17.191,0.473c1.188-7.465,5.335-19.733-1.644-25.142C92.29,44.06,68.666,43.413,64.744,48.839z"/>
	<path style="fill:#A8AAA2;" d="M309.436,454.726c4.335,3.305,20.001,10.109,25.386,8.608c3.799-1.059,10.546-8.433,13.753-11.224
		c3.205-2.789,6.991-5.183,9.043-8.979C344.357,424.018,326.253,445.889,309.436,454.726z"/>
	<path style="fill:#A8AAA2;" d="M418.446,390.943c-9.479,3.8-16.964,10.951-25.451,16.362c10.749,19.218,34.12,4.121,43.95-8.275
		c-0.398-3.514-2.609-4.329-5.447-6.053C425.57,389.378,422.939,390.281,418.446,390.943z"/>
</g>
<path style="fill:#FFDC0F;" d="M152.3,217.572c4.727,9.099,9.591,18.591,13.632,28.128c3.696,8.723,0.877,12.958-4.908,19.975
	c-16.697,20.253-29.253,40.276-25.522,67.734c1.477,10.869,6.077,22.353,14.567,29.703c24.374,21.1,60.235,21.614,84.017-1.867
	c12.978-12.814,13.914-34.939,11.552-52.043c-0.92-6.666-2.123-14.473-5.75-20.325c-3.488-5.627-9.609-9.824-13.374-15.345
	c-3.321-4.87-7.725-11.003-9.431-16.658c-2.068-6.854-0.099-14.953,1.162-21.907c1.095-6.04,6.331-19.177,3.196-24.99
	c-5.174-9.596-23.443-7.882-31.902-6.349C177.357,205.835,154.199,208.662,152.3,217.572z"/>
<path style="fill:#9E9E9E;" d="M384.484,113.814c-8.021,4.849-20.338,10.2-23.148,19.736c-1.682,5.708-1.609,10.463-0.842,16.309
	c0.498,3.794,2.716,10.277,0.89,13.821c-4.734-2.352-9.978-2.29-15.253-2.8c-7.658-0.741-14.773-4.01-22.373-4.622
	c-18.498-1.491-33.312,11.113-42.5,25.651c-4.535,7.175-7.758,15.684-8.741,24.142c-0.784,6.74,1.668,12.372,2.695,18.945
	c2.434,15.569,6.333,31.944,18.725,42.828c6.896,6.057,16.934,5.568,25.549,3.152c5.411-1.517,19.07-8.801,24.197-4.532
	c2.522,2.1,4.132,12.443,5.471,15.809c2.468,6.205,5.365,13.113,11.058,17.058c5.548,3.845,14.129,2.961,20.629,2.945
	c13.596-0.034,27.27-0.391,40.671-2.569c17.782-2.89,31.346-19.014,43.61-31.54c9.433-9.635,19.497-19.008,29.396-28.251
	c6.216-5.805,12.801-10.965,13.894-19.719c1.808-14.484-3.618-32.622-6.675-46.723c-3.041-14.028-5.494-29.492-10.841-42.67
	c-1.391-3.428-3.455-11.309-7.254-13.073c-4.374-2.031-12.116,2.794-16.14,3.87c-5.181,1.386-10.678,3.699-14.467-0.413
	c-3.152-3.42-3.646-9.449-6.271-13.347c-2.416-3.586-7.755-11.394-11.196-13.659c-4.632-3.048-11.506-0.453-16.26,1.712
	c-11.678,5.318-23.337,10.849-34.267,17.602C384.857,113.588,384.672,113.701,384.484,113.814z"/>
<g>
	<path style="fill:#7F7F7F;" d="M329.15,161.907c-12.433,8.29-20.209,24.855-24.961,38.582c-1.525,4.405-2.684,8.657-2.883,13.309
		c-0.312,7.297,2.994,14.155,4.476,21.163c1.76,8.325,4.139,16.192,7.69,24.046c3.271,7.234,6.276,9.334,14.39,9.601
		c2.463,0.081,9.972-0.707,11.97-2.38c2.977-2.494,2.056-4.377,1.565-8.518c-2.283-19.241-12.242-39.529-11.087-58.978
		c0.712-11.982,19.957-17.471,26.19-28.111c1.912-3.264,4.731-5.56,0.788-8.669c-2.302-1.815-8.055-0.916-10.686-1.175
		C340.4,160.168,333.465,157.707,329.15,161.907z"/>
	<path style="fill:#7F7F7F;" d="M428.881,183.942c-6.054,4.051-12.052,9.554-17.517,14.478c-7.052,6.356-6.491,9.607-3.919,18.354
		c2.664,9.057,4.777,18.469,7.087,27.629c1.488,5.898,3.997,31.107,12.923,30.593c2.918-0.168,8.662-6.217,11.116-7.947
		c10.026-7.065,20.389-15.861,29.097-24.485c6.483-6.421,12.675-15.426,11.208-24.542c-1.319-8.197-6.708-15.867-9.113-23.87
		c-2.953-9.822-1.339-21.225-8.991-28.824c-6.617,3.423-11.761,9.442-18.393,12.6C437.897,180.062,433.23,181.032,428.881,183.942z"
		/>
	<path style="fill:#7F7F7F;" d="M431.276,124.707c-0.888,0.667-1.738,1.301-2.532,1.756c-5.409,3.103-11.746,5.821-15.504,11.093
		c-3.483,4.888-1.298,13.187,3.597,17.264c8.376,6.977,22.635-1.837,27.658-9.145c3.674-5.346,2.443-22.406-5.533-24.225
		C436.359,120.857,433.678,122.903,431.276,124.707z"/>
	<path style="fill:#7F7F7F;" d="M479.329,153.21c-5.403,3.768-5.875,7.657-5.189,13.916c0.476,4.344,2.209,13.72,8.978,11.617
		c5.143-1.598,4.671-11.371,4.618-15.386C487.696,160.331,486.193,146.2,479.329,153.21z"/>
	<path style="fill:#7F7F7F;" d="M486.866,185.101c-5.403,3.768-5.875,7.657-5.189,13.916c0.476,4.344,2.209,13.72,8.978,11.617
		c5.143-1.598,4.671-11.371,4.618-15.386C495.234,192.222,493.731,178.091,486.866,185.101z"/>
</g>
<path style="fill:#FF8225;" d="M224.78,276.715c-11.861,9.08-28.021,12.834-42.376,15.076c-6.742,1.053-14.642,0.998-21.407-0.129
	c-3.665-0.611-11.761-6.463-14.504-5.359c-2.774,1.117-8.475,14.488-9.705,17.189c-2.962,6.502-4.999,12.706-4.044,19.624
	c1.123,8.135,4.574,9.229,11.81,12.141c20.059,8.07,42.049,7.885,63.224,4.093c13.553-2.427,27.38-8.452,36.764-18.899
	C256.841,306.76,235.597,281.94,224.78,276.715z"/>
<path style="fill:#DB4040;" d="M186.51,215.252c-4.708,1.099-11.711,0.815-15.104,5.205c-6.973,9.024,10.797,7.561,15.931,7.551
	c5.002-0.009,17.32,1.584,19.479-4.752c3.02-8.863-16.456-8.928-20.885-6.844"/>
<path d="M242.834,284.589c-5.988-10.186-13.982-16.567-21.78-25.038c-5.487-5.961-1.228-11.001,0.83-17.741
	c1.528-5.003,2.298-10.063,3.427-15.154c1.484-6.695,5.032-16.331-0.044-22.111c-6.64-7.563-23.002-5.499-31.895-4.852
	c-12.338,0.899-24.561,3.522-36.273,7.482c-16.864,5.701-9.81,17.587-2.484,28.834c4.758,7.304,8.079,14.517,3.324,22.821
	c-2.993,5.227-6.842,10.183-10.359,15.068c-6.582,9.141-12.986,18.773-17.179,29.286c-7.621,19.106-5.381,40.773,7.252,57.154
	c24.086,31.234,69.476,32.399,97.863,6.932c15.661-14.05,18.321-37.769,16.045-57.59
	C250.507,300.507,247.504,292.535,242.834,284.589z M169.792,259.55c2.99-7.208,3.02-13.097-0.692-19.972
	c-2.493-4.617-14.983-17.912-10.634-22.004c4.916-4.627,17.508-6.1,23.939-7.251c8.326-1.49,18.851-3.176,27.241-1.37
	c6.826,1.469,7.683,3.942,6.548,10.193c-0.628,3.456-1.543,6.824-2.263,10.264c-1.63,7.788-5.546,15.21-6.844,22.959
	c-1.643,9.804,7.105,16.292,14.374,22.757c-8.566,6.921-19.881,10.601-30.531,12.617c-11.415,2.16-27.261,4.412-38.72-0.634
	C158.633,278.165,165.646,269.544,169.792,259.55z M239.613,339.096c-10.891,38.278-64.092,47.229-89.996,18.547
	c-6.576-7.281-10.452-15.666-11.844-24.44c12.002,10.414,34.925,11.232,48.628,10.956c13.04-0.263,27.041-2.448,39.023-7.733
	c4.77-2.104,11.827-4.914,16.266-9.154C241.394,331.247,240.719,335.208,239.613,339.096z M241.669,318.537
	c-13.893,13.827-36.428,18.892-55.268,19.392c-15.492,0.412-36.626-0.421-49.208-11.408c-0.121-8.043,1.745-16.258,5.546-24.133
	c1.98-4.101,4.402-7.981,7-11.768c10.005,7.128,27.262,4.715,38.038,3.286c12.809-1.698,27.739-5.871,37.892-14.745
	c0.59,0.633,1.154,1.27,1.661,1.917c8.317,10.631,13.486,23.872,14.378,37.43C241.696,318.521,241.681,318.525,241.669,318.537z"/>
<path d="M187.084,231.171c5.793-0.483,26.106-0.713,22.546-12.123c-2.419-7.753-14.102-6.592-22.789-5.305
	c-6.094-1.34-16.594,2.552-19.337,5.341c-3.112,3.164-2.962,7.438,0.472,10.228C173.197,233.554,181.055,231.673,187.084,231.171z
	 M176.944,219.565c5.208-2.86,14.918-1.521,20.699-1.247c2.681,0.127,6.863,0.461,4.586,4.848c-1.306,2.515-7.92,2.199-10.506,2.395
	C187.006,225.917,163.273,227.071,176.944,219.565z"/>
<path d="M506.5,172.04c-1.696-12.768-3.836-25.493-6.371-38.112c-1.786-8.892-4.109-19.229-14.538-20.916
	c-4.452-0.72-9.056,0.277-13.397,1.217c-6.145,1.33-12.587,6.136-17.098,0.565c-6.292-7.77-6.547-19.064-17.469-22.833
	c-16.083-5.549-31.744,7.503-44.789,14.985c-12.454,7.143-30.738,11.989-37.38,25.994c-4.709,9.929,0.259,16.06,1.419,25.492
	c-17.182-4.7-39.563-8.491-56.013-1.488c-18.455,7.856-29.493,33.457-31.334,52.162c-2.059,20.922,4.786,47.705,22.129,61.115
	c8.644,6.683,18.143,4.645,28.313,3.345c5.936-0.759,13.716-0.597,19.715-2.935c4.849,16.866,12.526,33.711,31.41,35.611
	c12.518,1.259,25.506,0.136,38.004-0.913c12.844-1.079,20.081-2.103,30.368-10.415c10.513-8.495,19.946-18.504,30.182-27.38
	c10.378-9,21.331-17.947,30.452-28.238c6.315-7.126,12.202-13.54,11.884-23.483C511.519,201.196,508.422,186.511,506.5,172.04z
	 M457.278,127.738c7.031,1.183,13.548-4.745,20.789-4.482c0.93,0.033,1.776,0.196,2.58,0.426
	c-6.689,5.192-12.803,11.15-19.023,16.999c-1.219-3.405-2.308-6.874-3.804-10.176c-0.448-0.989-0.916-1.97-1.382-2.952
	C456.717,127.616,456.986,127.689,457.278,127.738z M440.81,108.274c4.602,7.744,7.97,15.427,11.072,23.843
	c1.617,4.388,2.484,9.273,4.178,13.697c-2.985,2.683-6.034,5.289-9.229,7.714c-10.456,7.938-20.935,15.856-31.487,23.662
	c-0.054-0.036-0.122-0.058-0.177-0.094c-1.542-15.098-24.303-28.109-13.29-43.444c4.638-6.457,13.673-11.408,20.427-15.262
	C427.774,115.269,435.782,112.547,440.81,108.274z M372.511,129.288c5.088-3.596,10.63-6.734,16.025-9.834
	c9.173-5.272,18.319-10.542,27.47-15.796c3.45-1.104,6.926-1.965,10.427-2.464c4.332-0.618,7.415,0.213,9.805,1.873
	c-8.77,4.488-17.678,8.923-25.792,14.519c-5.66,3.904-13.377,8.999-17.476,15.135c-3.701-0.745-8.465-0.153-11.311-0.341
	c-3.838-0.254-7.691-0.807-11.54-1.165C370.849,130.558,371.628,129.912,372.511,129.288z M366.035,136.365
	c3.782,1.143,7.719,1.735,11.654,2.224c3.866,0.48,8.431,1.37,12.699,1.273c-0.3,6.647,4.505,13.523,7.687,18.924
	c2.699,4.581,5.377,10.549,8.669,15.623c-3.906-0.63-8-0.92-11.139-1.788c-9.177-2.54-18.776-4.854-27.944-7.73
	c0.57-3.118,0.25-6.629-1.271-10.676C363.904,147.601,363.317,141.599,366.035,136.365z M365.793,169.949
	c8.303,3.473,17.272,5.708,25.749,8.481c4.394,1.437,10.621,3.668,16.277,4.358c-5.584,4.183-11.63,8.753-17.557,11.816
	c-8.318,4.301-17.965,4.318-27.046,3.249c-8.521-1.004-16.938-2.882-25.394-4.196c2.17-2.791,5.274-5.174,9.111-7.639
	C354.49,181.166,362.182,176.452,365.793,169.949z M325.641,208.078c-2.757-0.789-5.851-0.705-8.647-0.684
	c-3.592,0.027-7.176,0.204-10.761,0.337c1.008-5.732,2.838-11.119,5.329-16.183c3.485,0.864,7.612,0.549,11.078,0.58
	c1.357,0.012,2.759,0.294,4.162,0.563C324.925,197.528,325.034,202.66,325.641,208.078z M316.131,213.823
	c3.395,0.159,7.039,0.988,10.289,0.071c0.685,4.622,1.556,9.167,2.523,13.681c-2.847-0.306-5.822-0.053-8.655,0.064
	c-4.758,0.198-9.538,0.738-14.297,1.156c-0.701-5.34-0.893-10.764-0.442-16.007C309.037,213.338,312.438,213.65,316.131,213.823z
	 M320.29,234.178c3.402-0.048,6.826,0.388,10.098-0.173c0.863,3.666,1.777,7.321,2.708,10.985c-2.046,0.035-4.215,0.487-5.361,0.575
	c-2.652,0.205-5.13,0.283-7.77,0.724c-3.18,0.532-6.165,0.457-9.297,0.599c-0.75-1.73-1.441-3.543-2.029-5.525
	c-0.694-2.341-1.286-4.751-1.774-7.198C311.355,234.366,315.747,234.242,320.29,234.178z M330.387,186.666
	c-0.037,0.044-0.067,0.089-0.103,0.134c-5.031-1.351-10.783-0.766-16.024-0.212c2.128-3.598,4.522-7.054,7.141-10.362
	c3.593,2.014,8.977,1.337,12.838,1.394c2.234,0.032,4.643,0.343,7.063,0.566C336.971,181.047,332.802,183.773,330.387,186.666z
	 M355.618,165.483c-1.36,2.542-3.618,4.833-6.255,6.975c-4.174-1.04-8.993-1.012-13.184-0.825c-3.75,0.168-7.621,0.08-11.394,0.504
	c2.384-2.756,4.878-5.426,7.43-8.014C340.026,164.688,347.85,165.696,355.618,165.483z M295.416,259.727
	c-14.476-14.359-19.212-39.765-13.694-58.899c4.494-15.582,13.398-33.029,30.683-36.156c4.204-0.761,8.429-0.961,12.665-0.888
	c-14.124,11.368-23.689,31.494-25.369,48.225c-1.239,12.341,0.743,25.866,5.233,37.367c1.754,4.495,4.209,10.446,7.668,15.217
	C305.816,264.93,299.633,263.91,295.416,259.727z M321.462,263.562c-2.914-3.667-5.612-7.161-7.925-11.064
	c1.521,0.224,3.035,0.402,4.811,0.271c3.154-0.233,6.234-0.439,9.387-0.439c1.497,0,4.621-0.037,7.021-0.811
	c0.362,1.42,0.724,2.83,1.083,4.257c0.391,1.555,0.786,3.159,1.192,4.789C332.213,261.409,326.826,262.662,321.462,263.562z
	 M393.509,295.318c-11.485,0.384-26.459,3.016-34.206-7.059c-7.321-9.521-10.117-23.335-13.142-34.705
	c-2.625-9.866-5.887-19.577-8.316-29.487c-1.263-5.151-2.326-10.472-3.151-15.714c-0.712-4.525-0.309-8.08,0.995-11.102
	c10.21,2.668,20.175,5.903,30.885,6.959c6.333,0.624,11.862,0.121,17.007-1.223c4.717,16.029,8.732,32.201,13.726,48.2
	c4.427,14.182,10.6,28.888,13.784,43.517C405.006,295.243,398.754,295.142,393.509,295.318z M498.922,223.96
	c-4.135,8.933-15.187,16.456-22.402,22.883c-8.314,7.404-16.666,14.772-24.962,22.196c-7.799,6.98-14.984,15.944-24.056,21.289
	c-2.658,1.566-5.767,2.602-9.085,3.31c-0.66-4.382-3.4-9.288-4.44-13.053c-2.689-9.742-6.099-19.285-9.195-28.915
	c-3.172-9.864-6.529-19.679-9.576-29.583c-2.129-6.92-3.301-14.213-6.281-20.833c6.724-2.613,12.998-6.631,19.873-11.374
	c17.307-11.938,36.642-24.583,53.555-39.044c0.487-0.254,0.909-0.619,1.239-1.055c8.165-7.075,15.736-14.582,22.182-22.664
	c5.42,6.518,5.859,19.697,7.266,26.962c2.1,10.843,2.949,21.938,4.533,32.86C499.221,198.301,503.989,213.011,498.922,223.96z"/>
<path d="M408.405,144.423c0.223,4.615,5.208,11.919,9.012,14.478c5.662,3.809,11.259-0.874,16.301-3.602
	c4.822-2.61,12.361-5.583,14.871-10.913c2.31-4.907,0.221-12.506-2.072-17.057c-1.481-2.938-3.883-7.771-7.696-8.087
	c-5.702-0.472-12.641,6.065-17.334,8.842C415.649,131.539,408.033,136.716,408.405,144.423z M419.148,136.075
	c5.224-4.385,11.377-7.578,16.864-11.486c0.15-0.03,0.297-0.056,0.43-0.052c2.754,0.08,4.425,3.134,5.403,5.229
	c2.49,5.34,3.506,11.144-1.247,15.303c-3.221,2.819-7.527,4.636-11.193,6.796c-2.687,1.584-3.626,2.352-7.014,2.254
	c-3.912-0.114-3.986-0.954-5.981-3.875C412.349,144.301,414.044,140.36,419.148,136.075z"/>
<path d="M469.402,173.653c-3.216-10.809-7.527-12.296-17.535-6.64c-14.224,8.038-28.454,16.015-41.017,26.577
	c-12.13,10.198-6.696,23.284-4.253,35.978c1.508,7.838,3.396,15.615,5.242,23.35c1.602,6.712,3.13,26.162,12.779,26.637
	c10.995,0.542,27.75-18.49,34.547-25.387c7.508-7.617,22.737-17.428,22.022-29.195c-0.497-8.181-3.576-16.95-5.557-24.895
	C473.44,191.294,471.986,182.337,469.402,173.653z M472.303,232.332c-5.319,7.776-14.615,15.236-21.499,21.637
	c-3.706,3.446-7.613,6.823-11.525,10.047c-2.67,2.2-5.816,5.178-9.018,6.575c-4.967,2.167-5.901,1.239-7.902-2.368
	c-4.705-8.48-5.58-20.791-8.013-30.158c-2.556-9.841-4.967-20.154-6.208-30.337c1.082-6.739,4.726-9.377,10.209-13.496
	c9.564-7.185,19.523-13.553,30.091-19.171c2.004-1.065,5.39-3.924,7.629-4.243c5.269-0.749,6.382,2.048,7.97,5.689
	c2.312,5.301,2.772,11.837,4.015,17.43C470.322,204.15,478.499,223.273,472.303,232.332z"/>
<path d="M483.366,180.198c4.359-1.682,6.198-4.923,6.337-9.421c0.174-5.65-0.196-11.241-1.868-16.665
	c-3.046-9.884-11.913-0.528-14.845,4.58c-1.738,3.029-0.897,7.138-0.441,10.472C473.32,174.808,476.096,183.003,483.366,180.198z
	 M477.854,159.518c0.777-1.169,3.024-4.879,4.752-4.277c1.488,0.519,1.41,2.869,1.648,4.107c0.577,3.004,2.634,17.666-3.78,16.406
	c-2.826-0.555-3.468-6.339-3.776-8.773C476.37,164.387,476.309,161.841,477.854,159.518z"/>
<path d="M481.04,190.569c-1.738,3.029-0.897,7.138-0.441,10.472c0.771,5.644,3.547,13.84,10.817,11.035
	c4.359-1.682,6.198-4.924,6.337-9.422c0.174-5.649-0.196-11.241-1.868-16.665C492.838,176.104,483.972,185.461,481.04,190.569z
	 M488.523,207.632c-2.826-0.555-3.468-6.34-3.776-8.773c-0.328-2.594-0.389-5.14,1.156-7.463c0.777-1.169,3.024-4.879,4.751-4.277
	c1.488,0.518,1.41,2.869,1.648,4.108C492.88,194.23,494.938,208.892,488.523,207.632z"/>
<path d="M467.035,353.249c-6.172-4.44-19.856-3.508-26.997-4.338c-15.549-1.806-31.152-5.127-46.254-9.199
	c-28.443-7.669-56.851-15.558-83.668-27.956c-25.751-11.905-50.086-33.735-52.708-63.453c-1.367-15.487,0.474-31.527,0.307-47.098
	c-0.166-15.406,0.976-30.691,0.978-46.097c0.003-22.402,1.057-44.813,3.417-67.093c1.515-14.303,5.443-30.585-14.978-29.898
	c-12.773,0.43-25.54,1.605-38.31,2.847c-0.003-4.155,0.032-8.308,0.154-12.458c0.072-2.42,0.295-5.22-1.067-7.381
	c-2.671-4.24-8.809-3.803-13.114-3.307c-6.891,0.794-13.406,1.877-20.398,1.42c-1.468-0.096-2.971-0.232-4.389,0.16
	c-4.184,1.159-3.399,5.85-3.244,9.172c0.243,5.251,0.482,10.538,1.01,15.775c-21.193,1.138-42.419,2.241-63.649,2.74
	c-0.033-0.047-0.065-0.095-0.098-0.142c-0.289-0.417-0.66-0.76-1.072-1.028c-0.112-0.693,0.491-8.424,0.497-8.987
	c0.035-3.757-0.019-7.74-2.403-10.873c-3.976-5.226-14.15-4.068-19.839-3.349c-5.899,0.746-16.901-0.738-20.022,5.717
	c-1.545,3.196-0.615,6.83-0.106,10.153c0.476,3.108,0.589,6.313,1.24,9.364c-5.112,0.186-10.224,0.374-15.329,0.651
	c-9.465,0.514-21.408,0.277-30.06,4.769C-3.222,83.826,3.45,115.171,3.106,133.552c-0.531,28.381-2.823,56.737-2.718,85.128
	c0.104,27.762-0.811,55.464-0.141,83.244c0.61,25.286,5.738,46.149,22.867,65.667c15.111,17.218,38.344,28.76,57.936,39.86
	c23.273,13.185,49.109,22.646,74.702,30.256c26.021,7.738,51.687,17.692,77.33,26.648c10.089,3.523,21.245,9.597,32.083,10.099
	c10.745,0.497,22.24-4.564,31.789-9.084c4.045-1.914,7.991-4.025,11.901-6.206c3.372,1.617,7.124,2.81,10.641,3.623
	c4.929,1.14,10.738,3.887,15.77,2.687c6.042-1.442,12.02-7.149,17.105-10.617c3.975-2.711,8.539-5.382,11.281-9.438
	c0.673-0.995,0.743-2.795,0-3.781c-3.289-4.365-8.617-6.247-14.08-7.242c3.604-2.123,7.23-4.201,10.926-6.143
	c9.721-5.108,19.509-10.087,29.273-15.108c7.324,3.343,17.811,8.462,24.848,6.353c7.517-2.252,16.653-9.692,22.824-14.488
	c7.834-6.089,3.139-12.678-3.786-15.608c1.086-0.636,2.182-1.253,3.263-1.897C442.741,384.041,483.016,364.748,467.035,353.249z
	 M173.984,55.085c-0.016-1.214,0.511-5.704,0.29-8.189c0.917,0.131,2.282,0.011,2.815,0.017c2.978,0.037,5.981-0.366,8.945-0.572
	c3.102-0.216,6.194-0.411,9.285-0.751c1.235-0.136,3.787-0.814,4.906-0.373c1.619,0.638,0.942,0.153,1.345,1.788
	c0.43,1.745-0.25,4.797-0.261,6.591c-0.012,1.798-0.442,4.673-0.038,6.484c-0.08-0.358-0.057,0.702,0.107,1.609
	c-9.155,0.89-18.312,1.722-27.476,2.292C174.063,61.019,174.022,58.065,173.984,55.085z M67.513,54.182
	c0.368-4.072,3.571-2.908,7.166-3.267c4.813-0.481,9.582-1.469,14.425-1.114c0.411,0.03,4.012,0.153,4.496,0.464
	c2.257,1.45,2.394,5.468,2.311,7.736c-0.084,2.302-0.26,4.619-0.126,6.922c0.046,0.788,0.132,1.558,0.258,2.3
	c-2.925,0.045-5.849,0.132-8.774,0.148c-6.394,0.037-12.791,0.161-19.187,0.349C68.499,63.263,67.095,58.803,67.513,54.182z
	 M350.807,442.503c4.252,1.882,3.283,0.22,1.404,3.2c-1.409,2.234-5.137,3.654-7.362,5.162c-2.706,1.835-5.718,4.451-8.638,5.87
	c-4.569,2.22-5.898,0.795-10.129-0.139c-3.181-0.703-6.562-1.051-9.857-1.673c8.17-4.864,16.192-10.021,24.285-15.045
	C343.811,441.032,347.507,441.042,350.807,442.503z M420.854,407.273c-5.381,3.32-8.441,5.16-14.935,3.939
	c-2.951-0.554-5.832-1.266-8.728-1.9c9.357-4.852,18.663-9.796,27.851-14.961c3.259,1.217,8.677,3.265,8.393,4.624
	C432.994,401.084,422.861,406.034,420.854,407.273z M455.209,363.103c-5.424,4.585-11.839,7.902-17.929,11.491
	c-22.286,13.134-45.134,24.919-68.036,36.93c-21.248,11.144-41.424,23.585-62.065,35.758c-9.635,5.683-19.244,10.579-29.92,14.081
	c-13.745,4.51-24.548-1.891-37.414-6.25c-22.234-7.535-44.599-14.903-66.592-23.1c-25.247-9.41-51.921-15.77-75.962-28.155
	c-20.164-10.388-39.343-22.209-57.502-35.762c-10.082-7.525-18.038-18.709-23.262-30.103c-6.015-13.118-5.55-28.464-5.949-42.605
	c-1.421-50.389,0.962-100.827,2.725-151.171c0.499-14.257-0.655-28.787,0.387-42.973c0.74-10.072,2.058-17.257,13.092-20.096
	c6.437-1.656,13.609-1.735,20.211-2.094c27.454-1.491,54.955-1.085,82.419-2.335c27.934-1.272,55.92-2.669,83.757-5.378
	c11.79-1.147,23.755-2.383,35.592-2.784c3.645-0.124,3.889-0.388,4.566,0.882c0.264,0.495-0.409,5.695-0.444,7.132
	c-0.162,6.614-0.635,13.185-0.599,19.814c0.002,0.356,0.048,0.677,0.116,0.98c-1.317,10.818-2.085,21.698-2.316,32.973
	c-0.498,24.337-2.644,48.624-2.6,72.978c0.039,21.842-3.846,45.043,3.857,66.011c6.563,17.867,22.438,33.075,38.037,43.421
	c18.305,12.14,40.251,18.721,60.705,26.196c22.425,8.196,46.763,12.989,70.111,17.707c10.668,2.155,24.869,5.974,35.645,5.221
	c0.073-0.006,0.354-0.024,0.737-0.054C456.12,362.246,455.667,362.678,455.209,363.103z"/>
<g>
</g>
<g>
</g>
<g>
</g>
<g>
</g>
<g>
</g>
<g>
</g>
<g>
</g>
<g>
</g>
<g>
</g>
<g>
</g>
<g>
</g>
<g>
</g>
<g>
</g>
<g>
</g>
<g>
</g>
</svg>
