<?xml version="1.0" encoding="iso-8859-1"?>
<!-- Generator: Adobe Illustrator 19.0.0, SVG Export Plug-In . SVG Version: 6.00 Build 0)  -->
<svg version="1.1" id="Layer_1" xmlns="http://www.w3.org/2000/svg" xmlns:xlink="http://www.w3.org/1999/xlink" x="0px" y="0px"
	 viewBox="0 0 512 512" style="enable-background:new 0 0 512 512;" xml:space="preserve">
<g>
	<path style="fill:#E54728;" d="M391.975,472.705v20.087c0,10.615-8.605,19.207-19.22,19.207H139.233
		c-10.615,0-19.207-8.592-19.207-19.207v-20.087H391.975z"/>
	<path style="fill:#E54728;" d="M444.105,108.74v332.698c0,18.721-15.174,33.895-33.895,33.895H101.777
		c-18.708,0-33.882-15.174-33.882-33.895V108.74C67.895,48.688,116.583,0,176.636,0h158.716c43.354,0,80.783,25.369,98.256,62.049
		C440.334,76.198,444.105,92.029,444.105,108.74z"/>
</g>
<path style="fill:#F95428;" d="M432.281,108.74v332.698c0,12.165-9.906,22.071-22.071,22.071H101.777
	c-12.165,0-22.058-9.906-22.058-22.071V108.74c0-53.444,43.472-96.916,96.916-96.916h158.716c37.193,0,71.574,21.717,87.575,55.309
	C429.141,80.179,432.281,94.184,432.281,108.74z"/>
<path style="fill:#35D8B9;" d="M354.519,107.742h-64.256h-68.539h-64.256v47.295h-3.718c-12.73,0-24.265-5.163-32.608-13.505
	c-8.342-8.356-13.505-19.877-13.505-32.608c0-25.474,20.652-46.126,46.113-46.126h204.474c12.73,0,24.265,5.163,32.621,13.505
	c8.342,8.356,13.505,19.877,13.505,32.621c0,25.461-20.652,46.113-46.126,46.113h-3.705L354.519,107.742L354.519,107.742z"/>
<rect x="132.992" y="97.889" style="fill:#333333;" width="245.989" height="19.706"/>
<polygon style="fill:#CCCCCC;" points="354.519,145.184 354.519,398.097 197.318,265.332 227.097,205.959 224.47,133.955 
	290.263,97.889 354.519,97.889 "/>
<polygon style="fill:#B3B3B3;" points="354.519,97.889 354.519,111.407 285.034,111.407 290.263,97.889 "/>
<g>
	<polygon style="fill:#E6E6E6;" points="290.263,97.889 285.034,111.407 256,186.502 226.953,111.407 221.724,97.889 	"/>
	<polygon style="fill:#E6E6E6;" points="256,213.657 354.519,398.097 157.468,398.097 	"/>
</g>
<polygon style="fill:#F2F2F2;" points="304.32,205.959 256,269.19 157.468,398.097 157.468,97.889 221.724,97.889 232.063,111.407 
	256,142.727 "/>
<polygon style="fill:#CCCCCC;" points="290.263,97.889 285.034,111.407 226.953,111.407 221.724,97.889 "/>
<polygon style="fill:#E6E6E6;" points="232.063,111.407 157.468,111.407 157.468,97.889 221.724,97.889 "/>
<g>
</g>
<g>
</g>
<g>
</g>
<g>
</g>
<g>
</g>
<g>
</g>
<g>
</g>
<g>
</g>
<g>
</g>
<g>
</g>
<g>
</g>
<g>
</g>
<g>
</g>
<g>
</g>
<g>
</g>
</svg>
