<?xml version="1.0" encoding="iso-8859-1"?>
<!-- Generator: Adobe Illustrator 19.0.0, SVG Export Plug-In . SVG Version: 6.00 Build 0)  -->
<svg version="1.1" id="Capa_1" xmlns="http://www.w3.org/2000/svg" xmlns:xlink="http://www.w3.org/1999/xlink" x="0px" y="0px"
	 viewBox="0 0 511.998 511.998" style="enable-background:new 0 0 511.998 511.998;" xml:space="preserve">
<path style="fill:#FFDC0F;" d="M41.829,360.059c-11.757,13.846-17.915,36.413-19.927,54.004
	c-2.345,20.499,2.333,37.774,12.713,55.325c13.148,22.23,40.235,36.281,65.912,35.017c14.128-0.695,30.345-2.643,43.258-9.055
	c16.302-8.094,26.931-25.33,34.109-41.471c6.501-14.619,10.303-28.321,6.617-43.75c-3.961-16.581-4.297-32.758-14.848-47.131
	c-11.313-15.41-35.415-23.142-53.264-26.706C85.866,330.198,58.363,342.031,41.829,360.059z"/>
<path style="fill:#FF3535;" d="M122.231,146.342c21.854-26.355,49.446-48.894,81.676-61.136c17.227-6.543,34.855-12.155,53.4-13.132
	c20.007-1.055,42.103-2.813,61.901,0.357c35.8,5.732,74.042,31.592,97.829,58.106c16.202,18.058,29.092,36.023,35.456,59.913
	c3.599,13.51,4.64,28.036,7.181,41.804c2.533,13.724,2.391,26.712-0.534,40.356c-4.94,23.04-8.037,46.814-17.349,68.603
	c-9.001,21.062-20.477,41.283-34.773,59.191c-14.899,18.664-32.242,34.814-53.295,46.274c-17.958,9.775-37.451,13.257-57.8,14.616
	c-24.567,1.641-52.586,1.114-76.453-5.511c-9.959-2.764-20.727-5.069-30.366-8.83c-6.228-2.43-5.182-1.368-5.54-6.916
	c-1.219-18.897,1.848-36.762-3.748-55.73c-4.298-14.57-12.763-24.262-24.749-33.18c-8.497-6.322-17.845-9.006-27.458-13.138
	c-4.572-1.965-9.069-5.008-13.84-6.453c-3.242-0.982-7.638,0.103-10.55-1.08c-5.913-2.403-7.483-10.636-9.111-16.413
	c-3.719-13.191-5.363-27.69-6.663-41.3C83.142,227.723,94.233,179.756,122.231,146.342z"/>
<g>
	<path style="fill:#71D182;" d="M56.261,17.15c-1.987,10.613-1.801,22.191-1.222,32.985c0.163,3.04-0.292,15.638,2.999,17.477
		c6.785,3.791,32.364-22.817,37.39-27.098c4.477-3.813,21.706-15.806,19.277-22.713c-3.203-9.11-25.384-9.515-32.941-9.585
		C75.311,8.157,54.535,7.16,56.261,17.15z"/>
	<path style="fill:#71D182;" d="M452.771,9.591c-7.914,0.024-35.879,2.586-26.814,14.469c3.811,4.995,11.922,9.979,16.677,14.413
		c4.67,4.353,9.755,8.565,14.26,13.021c5.052,4.997,14.413,18.773,22.677,17.231c11.422-2.13,8.658-29.89,8.244-38.551
		c-0.266-5.582,0.624-15.014-4.085-19.241C476.139,4.118,458.569,6.777,452.771,9.591z"/>
	<path style="fill:#71D182;" d="M472.7,445.271c-10.561,10.949-20.81,23.015-30.411,35.049
		c-2.991,3.749-10.855,10.741-10.204,16.145c0.524,4.349,5.658,4.867,10.433,5.524c7.959,1.097,16.005,0.087,24.004,1.33
		c5.352,0.832,12.456,1.953,17.542-0.668c8.903-4.589,4.201-25.638,3.789-34.719c-0.229-5.056,1.342-19.75-2.494-23.645
		C481.098,439.961,473.02,444.846,472.7,445.271z"/>
</g>
<path d="M491.543,205.284c-0.339-7.66-0.805-15.818-2.605-23.244c-1.247-5.148-9.204-5.166-10.436,0
	c-1.524,6.39-0.05,12.329,0.121,18.676c0.101,3.77-0.928,9.55-0.834,14.45c0.044,2.293,0.335,4.394,1.102,6.005
	c1.913,4.014,7.813,6.842,10.69,0.879C492.056,216.917,491.789,210.854,491.543,205.284z"/>
<path d="M491.543,131.525c-0.339-7.659-0.805-15.818-2.605-23.244c-1.247-5.148-9.204-5.167-10.436,0
	c-1.524,6.39-0.05,12.329,0.121,18.676c0.101,3.77-0.928,9.55-0.834,14.45c0.044,2.293,0.335,4.394,1.102,6.005
	c1.913,4.014,7.813,6.842,10.69,0.878C492.056,143.158,491.789,137.095,491.543,131.525z"/>
<path d="M478.891,392.281c1.913,4.014,7.813,6.842,10.69,0.879c2.475-5.131,2.208-11.195,1.962-16.765
	c-0.339-7.66-0.805-15.818-2.605-23.244c-1.247-5.148-9.204-5.166-10.436,0c-1.524,6.39-0.05,12.329,0.121,18.676
	c0.101,3.77-0.928,9.55-0.834,14.45C477.833,388.57,478.124,390.67,478.891,392.281z"/>
<path d="M491.543,302.636c-0.339-7.659-0.805-15.818-2.605-23.244c-1.247-5.148-9.204-5.167-10.436,0
	c-1.524,6.389-0.05,12.329,0.121,18.676c0.101,3.77-0.928,9.55-0.834,14.45c0.044,2.293,0.335,4.394,1.102,6.005
	c1.913,4.014,7.813,6.842,10.69,0.879C492.056,314.269,491.789,308.207,491.543,302.636z"/>
<path d="M64.796,205.284c-0.339-7.66-0.805-15.818-2.604-23.244c-1.247-5.148-9.204-5.166-10.436,0
	c-1.524,6.39-0.05,12.329,0.121,18.676c0.101,3.77-0.928,9.55-0.834,14.45c0.044,2.293,0.335,4.394,1.102,6.005
	c1.913,4.014,7.813,6.842,10.69,0.879C65.309,216.917,65.042,210.854,64.796,205.284z"/>
<path d="M64.796,131.525c-0.339-7.659-0.805-15.818-2.604-23.244c-1.247-5.148-9.204-5.167-10.436,0
	c-1.524,6.39-0.05,12.329,0.121,18.676c0.101,3.77-0.928,9.55-0.834,14.45c0.044,2.293,0.335,4.394,1.102,6.005
	c1.913,4.014,7.813,6.842,10.69,0.878C65.309,143.158,65.042,137.095,64.796,131.525z"/>
<path d="M52.144,304.091c1.913,4.014,7.813,6.842,10.69,0.878c2.475-5.132,2.208-11.194,1.962-16.765
	c-0.339-7.659-0.805-15.818-2.604-23.244c-1.247-5.148-9.204-5.167-10.436,0c-1.524,6.389-0.05,12.329,0.121,18.676
	c0.101,3.77-0.928,9.55-0.834,14.45C51.086,300.38,51.377,302.48,52.144,304.091z"/>
<path d="M258.814,21.581c5.132,2.475,11.194,2.208,16.765,1.962c7.659-0.339,15.818-0.805,23.244-2.604
	c5.148-1.247,5.167-9.204,0-10.436c-6.389-1.524-12.329-0.05-18.676,0.121c-3.77,0.101-9.55-0.928-14.45-0.834
	c-2.293,0.044-4.394,0.335-6.005,1.103C255.678,12.804,252.85,18.705,258.814,21.581z"/>
<path d="M332.573,21.581c5.132,2.475,11.195,2.208,16.765,1.962c7.66-0.339,15.818-0.805,23.244-2.604
	c5.148-1.247,5.166-9.204,0-10.436c-6.39-1.524-12.329-0.05-18.676,0.121c-3.77,0.101-9.55-0.928-14.45-0.834
	c-2.293,0.044-4.394,0.335-6.005,1.103C329.437,12.804,326.609,18.705,332.573,21.581z"/>
<path d="M175.893,21.581c5.132,2.475,11.195,2.208,16.765,1.962c7.66-0.339,15.818-0.805,23.244-2.604
	c5.148-1.247,5.166-9.204,0-10.436c-6.39-1.524-12.329-0.05-18.676,0.121c-3.77,0.101-9.55-0.928-14.45-0.834
	c-2.293,0.044-4.394,0.335-6.005,1.103C172.757,12.804,169.929,18.705,175.893,21.581z"/>
<path d="M298.823,494.973c-6.389-1.524-12.329-0.05-18.676,0.121c-3.77,0.101-9.55-0.928-14.45-0.834
	c-2.293,0.044-4.394,0.335-6.005,1.103c-4.014,1.913-6.842,7.813-0.878,10.69c5.132,2.475,11.194,2.208,16.765,1.962
	c7.659-0.339,15.818-0.805,23.244-2.604C303.971,504.163,303.99,496.206,298.823,494.973z"/>
<path d="M372.582,494.973c-6.39-1.524-12.329-0.05-18.676,0.121c-3.77,0.101-9.55-0.928-14.45-0.834
	c-2.293,0.044-4.394,0.335-6.005,1.103c-4.014,1.913-6.842,7.813-0.879,10.69c5.132,2.475,11.195,2.208,16.765,1.962
	c7.66-0.339,15.818-0.805,23.244-2.604C377.73,504.163,377.748,496.206,372.582,494.973z"/>
<path d="M215.902,494.973c-6.39-1.524-12.329-0.05-18.676,0.121c-3.77,0.101-9.55-0.928-14.45-0.834
	c-2.293,0.044-4.394,0.335-6.005,1.103c-4.014,1.913-6.842,7.813-0.879,10.69c5.132,2.475,11.195,2.208,16.765,1.962
	c7.66-0.339,15.818-0.805,23.244-2.604C221.05,504.163,221.068,496.206,215.902,494.973z"/>
<path d="M457.159,311.532c7.556-25.6,12.486-50.765,10.514-77.632c-3.704-50.458-28.272-99.407-67.7-131.409
	c-22.568-18.317-51.952-30.913-80.382-36.715c-20.894-4.263-47.068-6.334-68.479,0.187c-2.514,0.317-5.047,0.683-7.618,1.132
	c-17.548,3.059-36.929,8.722-53.115,16.193c-30.209,13.944-57.018,35.288-75.985,62.746c-18.293,26.482-29.811,59.045-33.954,90.864
	c-4.259,32.704,2.793,63.518,13.383,93.919c-8.064,1.598-15.74,4.455-23.209,8.097c-5.275,1.907-10.427,4.162-15.18,6.802
	c-18.211,10.115-29.172,28.102-35.378,47.566c-12.961,40.641-2.32,89.163,38.65,108.684c35.104,16.725,88.299,14.019,112.733-19.431
	c6.931-9.488,12.633-21.123,16.38-33.302c16.561,10.458,33.267,17.501,53.316,20c22.772,2.839,47.95,2.056,70.749-0.802
	c24.989-3.133,47.78-16.665,67.24-31.931c19.29-15.132,32.256-34.392,46.052-54.35C440.312,360.252,449.676,336.886,457.159,311.532
	z M43.775,371.604c5.262-7.58,12.124-12.96,19.87-17.37c3.523-1.397,6.993-2.973,10.461-4.362c6.834-2.737,13.768-4.979,20.884-6.23
	c-11.981,9.666-24.924,18.488-36.44,28.504c-7.556,6.572-15.041,13.062-22.727,19.495c-0.995,0.833-2.24,2.021-3.589,3.344
	C35.066,386.549,38.946,378.562,43.775,371.604z M29.385,405.171c4.943-3.192,9.368-7.634,13.853-11.143
	c8.246-6.452,15.924-13.35,24.085-19.904c9.571-7.687,19.144-15.353,28.752-22.996c3.57-2.84,7.749-5.448,11.384-8.509
	c0.823,0.011,1.642-0.005,2.471,0.04c6.894,0.377,13.882,1.959,20.587,4.493c-3.953,3.154-7.519,7.344-11.016,10.383
	c-12.049,10.471-24.832,20.47-37.564,30.093c-9.938,7.511-19.887,14.925-29.466,22.895c-8.466,7.043-17.712,13.367-25.56,21.112
	C26.526,422.97,27.392,413.957,29.385,405.171z M36.378,464.19c-4.563-7.841-7.635-16.591-8.848-25.641
	c8.539-4.975,16.448-12.028,24.126-18.011c11.98-9.337,23.932-18.629,36.103-27.719c17.245-12.88,35.87-26.257,50.379-42.301
	c8.46,4.29,16.133,10.137,22.167,17.056c-5.302,3.306-10.844,8.686-14.145,11.348c-10.866,8.764-21.538,17.565-33.334,25.174
	C85.885,421.475,60.633,443.019,36.378,464.19z M58.596,487.183c-7.469-4.569-13.883-10.697-18.937-17.841
	c27.241-18.758,51.283-41.912,79.045-59.975c10.551-6.865,20.161-14.857,30.11-22.478c5.107-3.912,12.136-7.339,16.949-12.201
	c4.832,6.94,8.965,13.83,10.582,22.194c0.132,0.686,0.234,1.349,0.356,2.027c-5.283,4.473-16.826,10.571-19.941,12.557
	c-9.337,5.952-18.351,12.921-27.103,19.721c-13.114,10.189-25.727,20.998-39.153,30.783
	C79.766,469.796,67.862,477.506,58.596,487.183z M135.008,493.291c-9.799,3.87-20.959,5.591-32.186,5.431
	c15.446-10.225,30.545-21.316,45.657-31.822c8.245-5.732,15.763-12.146,23.742-18.232c0.502-0.383,1.02-0.736,1.538-1.086
	C167.473,467.933,156.031,484.989,135.008,493.291z M176.643,436.451c-5.095,4.555-11.573,8.371-16.808,12.583
	c-8.549,6.877-17.444,13.205-26.414,19.528c-13.863,9.772-27.613,19.318-41.112,29.459c-9.529-1.138-18.815-3.598-27.038-7.287
	c-0.391-0.175-0.763-0.383-1.149-0.566c12.345-9.538,25.425-18.19,37.923-27.514c13.299-9.923,25.676-21.402,39.653-30.295
	c9.135-5.812,17.436-12.719,26.385-18.959c2.086-1.455,6.179-3.684,9.856-6.304C179.064,416.93,178.794,426.25,176.643,436.451z
	 M323.015,451.59c-21.766,6.156-48.134,5.842-70.548,4.367c-11.273-0.742-21.423-2.748-32.144-5.991
	c-11.466-3.468-19.309-8.686-29.124-14.834c1.166-6.775,1.676-13.532,1.357-20.008c-1.076-21.812-7.595-38.688-21.252-55.691
	c-13.018-16.208-34.705-26.888-55.138-29.467c-3.182-0.402-6.267-0.509-9.31-0.481c-2.252-11.361-8.157-22.186-10.568-33.707
	c-3.246-15.507-4.714-32.864-3.784-48.692c1.833-31.199,13.632-64.626,30.529-90.771c32.906-50.918,90.322-73.997,148.33-81.781
	c9.823-0.124,19.823-0.342,29.504,0.785c24.701,2.875,51.297,12.525,72.859,24.691c41.214,23.254,70.019,69.975,78.273,115.763
	c8.728,48.421-5.136,99.132-27.455,142.047C403.6,398.084,368.027,438.858,323.015,451.59z"/>
<path d="M443.311,48.773c8.69,7.777,19.711,22.165,31.086,26.049c10.139,3.462,15.725-8.071,17.328-16.267
	c1.186-6.065-0.398-12.819-0.337-18.962c0.078-7.949,1.478-16.629,0.254-24.528c-3.754-24.223-79.355-16.12-75.842,2.406
	C418.227,30.274,434.257,40.67,443.311,48.773z M432.232,17.988c1.758-4.783,18.772-1.847,22.726-1.675
	c4.066,0.177,8.137,0.242,12.206,0.19c2.932-0.038,7.958-1.702,10.449,0.501c2.653,2.347,1.382,7.962,1.341,10.964
	c-0.114,8.52,1,17.611,0.579,25.971c-0.59,11.711-6.498,4.515-11.899-0.533c-7.996-7.473-16.964-13.831-24.909-21.357
	C440.234,29.69,430.681,22.207,432.232,17.988z"/>
<path d="M479.677,433.907c-12.804,2.428-23.2,18.458-31.302,27.512c-7.777,8.689-22.165,19.711-26.049,31.086
	c-3.462,10.139,8.071,15.725,16.267,17.328c6.065,1.186,12.819-0.397,18.962-0.337c7.949,0.078,16.63,1.478,24.528,0.254
	C506.306,505.995,498.203,430.395,479.677,433.907z M480.143,495.721c-2.347,2.654-7.962,1.383-10.965,1.342
	c-8.52-0.115-17.611,1-25.971,0.578c-11.711-0.59-4.515-6.497,0.534-11.899c7.473-7.996,13.831-16.964,21.357-24.909
	c2.359-2.491,9.842-12.045,14.061-10.494c4.784,1.758,1.848,18.772,1.675,22.727c-0.177,4.065-0.242,8.136-0.19,12.206
	C480.682,488.205,482.346,493.231,480.143,495.721z"/>
<path d="M46.856,58.555c1.603,8.196,7.189,19.729,17.328,16.267C75.559,70.938,86.58,56.55,95.27,48.773
	c9.054-8.102,25.084-18.499,27.511-31.302c3.512-18.526-72.088-26.629-75.842-2.406c-1.224,7.899,0.177,16.579,0.254,24.528
	C47.254,45.736,45.669,52.49,46.856,58.555z M60.968,17.004c2.49-2.203,7.516-0.539,10.449-0.501
	c4.069,0.052,8.14-0.013,12.206-0.19c3.955-0.172,20.969-3.108,22.726,1.675c1.55,4.22-8.003,11.702-10.494,14.062
	c-7.945,7.526-16.913,13.884-24.909,21.357c-5.402,5.048-11.309,12.245-11.899,0.533c-0.421-8.36,0.694-17.451,0.579-25.971
	C59.586,24.966,58.315,19.351,60.968,17.004z"/>
<g>
</g>
<g>
</g>
<g>
</g>
<g>
</g>
<g>
</g>
<g>
</g>
<g>
</g>
<g>
</g>
<g>
</g>
<g>
</g>
<g>
</g>
<g>
</g>
<g>
</g>
<g>
</g>
<g>
</g>
</svg>
