<?xml version="1.0" encoding="iso-8859-1"?>
<!-- Generator: Adobe Illustrator 19.0.0, SVG Export Plug-In . SVG Version: 6.00 Build 0)  -->
<svg version="1.1" id="Capa_1" xmlns="http://www.w3.org/2000/svg" xmlns:xlink="http://www.w3.org/1999/xlink" x="0px" y="0px"
	 viewBox="0 0 512 512" style="enable-background:new 0 0 512 512;" xml:space="preserve">
<path style="fill:#FFDC0F;" d="M277.548,155.286c-15.531-12.381-46.49-7.234-63.246-0.498c-25.048,10.07-47.26,27.283-56.359,53.87
	c-14.975,43.756-16.648,97.489,19.084,131.735c34.458,33.026,100.612,32.242,140.267,9.626
	c23.277-13.276,35.575-38.88,35.353-64.778c-0.174-20.293-1.622-44.851-11.244-63.12c-3.501-6.648-5.006-11.352-11.617-6.336
	c-9.273,7.036-15.148,16.026-25.705,21.622c-12.356,6.55-25.906,11.628-39.289,15.89c-7.633,2.431-15.41,4.129-22.959,6.75
	c-3.572,1.241-7.325,2.834-11.146,2.519c-3.269-8.957,7.924-25.593,11.258-33.733c4.844-11.826,8.374-23.902,12.405-35.967
	c3.029-9.065,7.804-13.949,15.132-19.51c3.455-2.623,10.239-7.055,11.006-11.63C281.058,158.322,278.81,153.543,277.548,155.286z"/>
<path style="fill:#FF8225;" d="M328.984,105.058c-6.826-6.804-24.348-10.039-30.824-12.012c-10.236-3.119-20.651-4.425-31.191-5.788
	c-10.451-1.351-20.813-4.422-31.444-3.464c-31.481,2.837-62.261,19.244-87.353,37.398c-33.136,23.974-57.167,57.266-63.51,98.017
	c-2.358,15.151-1.874,29.658-2.556,44.81c-0.802,17.845-0.651,35.205,4.169,52.708c3.267,11.865,8.774,22.771,14.143,33.751
	c11.558,23.635,22.737,42.187,46.267,55.937c23.011,13.447,50.017,20.411,76.033,24.881c12.332,2.119,27.866,1.142,40.292-0.379
	c15.416-1.886,30.642-3.303,45.073-9.273c35.814-14.815,75.971-32.33,93.611-69.274c6.971-14.601,9.133-33.356,11.429-49.283
	c2.419-16.783,3.325-34.717,1.733-51.618c-1.78-18.898-2.405-38.252-8.557-56.349c-3.332-9.803-7.033-20.256-10.926-29.666
	c-17.801,12.283-36.609,27.47-51.57,43.135c-4.436,4.645-3.147,5.33-1.123,11.774c2.221,7.071,3.367,14.608,4.818,21.867
	c6.511,32.592,7.305,71.737-17.655,97.216c-27.398,27.968-66.975,31.331-103.281,24.584c-17.894-3.326-33.373-9.659-49.376-18.119
	c-7.581-4.007-14.893-8.048-19.332-15.785c-4.802-8.371-7.101-19.324-8.656-28.745c-3.263-19.774-6.262-38.312-2.653-58.221
	c5.917-32.643,19.808-67.883,51.052-84.033c14.832-7.666,34.941-10.42,51.485-10.295c5.94,0.045,12.067,0.322,17.898,1.542
	c4.773,0.998,8.737,3.755,13.744,3.356c10.154-0.808,18.115-10.075,25.557-16.033c7.164-5.735,25.942-16.136,25.47-27.039
	C331.662,108.561,330.636,106.705,328.984,105.058z"/>
<path style="fill:#FF3535;" d="M380.225,47.916c-2.563-3.024-8.23-4.21-11.849-5.869c-7.318-3.355-14.751-6.406-21.989-10.022
	c-16.159-8.075-34.838-12.238-52.557-15.335c-30.048-5.253-57.169-7.652-87.132,0.131c-50.64,13.153-106.982,38.113-140.09,80.055
	c-26.855,34.021-47.551,75.323-54.159,118.44c-2.534,16.535-2.59,33.498-2.463,50.192c0.366,48.013,10.875,94.324,31.323,137.82
	c8.401,17.87,18.821,29.231,33.197,42.37c26.567,24.282,63.077,37.567,96.593,48.73c18.446,6.144,38.1,11.955,57.561,13.528
	c11.872,0.96,23.969,0.244,35.876-0.025c9.715-0.22,16.646-2.372,25.654-4.682c10.565-2.709,22.134-2.524,32.907-4.258
	c10.844-1.745,21.332-5.638,31.762-8.811c16.531-5.03,29.841-14.905,44.288-23.929c29.849-18.646,50.451-42.118,63.902-74.669
	c7.146-17.294,15.387-34.106,19.997-52.316c4.989-19.708,5.393-41.82,5.136-62.14c-0.263-20.85,1.185-42.995-2.305-63.606
	c-4.365-25.775-13.228-53.9-27.003-76.3c-1.795-2.919-8.264-14.989-12.336-15.43c-4.127-0.447-8.898,7.552-11.516,9.773
	c-13.989,11.869-28.722,23.365-41.843,36.208c3.248,6.868,8.39,12.541,11.101,20.054c3.242,8.986,7.086,17.765,8.285,27.284
	c2.934,23.288,2.845,48.238,2.297,71.652c-0.685,29.223-7.326,59.172-23.614,83.73c-6.896,10.397-15.038,20.7-25.342,27.865
	c-11.952,8.312-27.604,18.102-41.581,22.044c-17.09,4.819-35.533,8.852-53.051,11.455c-20.017,2.975-36.847,2.959-56.762,0.457
	c-24.487-3.076-48.03-12.653-67.927-27.216c-12.274-8.984-23.188-19.802-32.35-31.94c-9.601-12.719-14.61-24.57-19.306-39.452
	c-8.069-25.57-10.719-48.996-10.414-75.737c0.659-57.612,22.197-109.189,69.004-144.505c11.642-8.784,25.844-12.841,39.659-16.962
	c16.954-5.057,34.568-5.234,51.266-10.99c16.594-5.721,37.832,1.216,53.438,7.485c11.528,4.63,27.063,15.789,39.788,15.701
	c7.59-0.053,16.84-11.132,21.523-16.382c8.282-9.285,20.801-21.185,25.659-32.845C387.796,52.403,381.432,46.483,380.225,47.916z"/>
<path style="fill:#F76B25;" d="M444.178,61.997c8.211,7.347,20.966,22.415,22.251,34.357c1.695,15.755-22.205,29.976-33.399,37.206
	c-28.687,18.529-53.661,42.177-80.031,63.676c-5.602,4.567-11.352,8.853-16.802,13.496c-4.027,3.43-7.553,9.246-12.21,11.393
	c0.171-4.863-3.962-14.663-7.26-18.137c-5.679-5.984-11.836-0.169-17.787-2.917c-6.162-2.846-0.682-14.917-4.481-20.373
	c-5.839-8.385-16.978-5.209-24.039-9.527c3.208-4.906,7.885-8.775,12.434-12.54c9.567-7.918,17.354-17.449,25.983-26.356
	c15.544-16.046,31.444-31.927,48.6-46.128c13.405-11.097,26.388-23.382,39.021-35.268c6.205-5.838,13.013-13.912,21.61-10.869
	C431.689,44.832,440.564,55.93,444.178,61.997z"/>
<path style="fill:#F7D9B2;" d="M254.665,193.424c-4.89,7.755-14.438,24.737-14.591,33.694c-0.088,5.134,0.229,3.679,4.719,6.175
	c4.895,2.722,10.888,6.318,13.845,11.177c2.612,4.294,0.771,8.583,5.689,9.346c3.687,0.572,11.467-5.077,15.07-6.283
	c7.323-2.451,14.883-4.398,22.068-7.285c8.039-3.23,17.171-4.959,19.499-13.782c2.105-7.981,1.869-15.607-4.792-21.32
	c-5.198-4.458-14.973-6.202-21.003-2.511c-0.758-13.459,1.34-22.479-13.849-27.097C269.825,172.045,254.057,180.956,254.665,193.424
	z"/>
<path style="fill:#4C4B46;" d="M235.303,245.056c-0.895,6.516-8.58,16.555-5.748,22.807c6.698-4.668,16.857-7.281,24.567-10.384
	c6.182-2.487,9.545-2.174,6.438-10.237c-2.023-5.25-6.692-10.397-12.382-11.441C239.142,234.142,237.001,239.233,235.303,245.056z"
	/>
<path style="fill:#FF6E73;" d="M443.591,10.365c-8.035,5.284-25.557,14.287-27.716,24.056c-1.946,8.802,13.996,15.046,19.413,19.95
	c9.347,8.461,17.957,16.517,24.142,27.605c4.975,8.918,6.492,21.367,18.353,13.11c21.768-15.153,36.042-52.27,15.622-73.541
	C479.065,6.606,458.547-2.97,443.591,10.365z"/>
<path d="M466.455,108.507c0.819-0.601,1.668-1.171,2.558-1.699c6.37-3.778,11.359-8.573,16.643-13.662
	c6.698-6.451,13.339-14.667,17.6-22.999c8.279-16.189,5.565-37.43-5.059-51.821c-7.36-9.969-18.285-16.795-30.696-18.091
	c-13.949-1.457-24.894,4.012-35.844,12.074c-7.01,5.162-13.684,10.528-20.354,16.084c-1.932,1.609-21.434,20.48-21.242,20.611
	c-4.471-3.039-9.042-5.959-13.787-8.656c-22.868-13-48.411-21.858-74.096-27.308c-17.187-3.647-34.51-7.596-52.149-8.012
	c-18.111-0.427-35.471,4.283-53.048,8.012c-25.685,5.45-51.227,14.308-74.096,27.308c-47.271,26.873-81.198,71.183-99.514,121.975
	C3.598,217.156-1.901,274.765,10.472,331.994c5.935,27.451,13.866,54.604,27.365,79.334c12.335,22.597,30.697,40.405,51.114,55.82
	c22.231,16.784,50.058,28.708,77.101,35.082c55.076,12.981,111.591,13.073,167.057,0c27.043-6.374,54.87-18.298,77.101-35.082
	c20.418-15.415,38.779-33.223,51.114-55.82c13.499-24.73,21.43-51.883,27.365-79.334c12.373-57.229,6.874-114.837-12.899-169.671
	c-5.51-15.281-12.449-29.965-20.723-43.775C459.042,115.274,462.374,111.502,466.455,108.507z M442.16,16.524
	c16.977-9.893,37.536-6.858,48.539,10.049c9.717,14.932,7.443,33.071-2.795,46.956c-5.409,7.336-12.417,13.045-18.707,19.42
	c-2.71-17.172-22.175-36.479-31.922-45.243c-4.155-3.736-9.809-9.583-15.948-12.815C428.093,28.644,434.024,21.265,442.16,16.524z
	 M387.25,66.678c2.788-2.825,5.598-5.623,8.415-8.346c6.728-6.502,14.046-17.023,24.106-10.821
	c8.073,4.976,16.095,12.857,22.668,20.533c-26.218,20.883-52.088,42.491-77.686,64.193c-13.099,11.106-25.253,23.216-38.252,34.454
	c-7.349,6.353-14.159,13.172-21.207,19.846c-1.675,1.586-3.548,3.175-5.367,4.846c0.234-6.417-1.044-12.556-6.897-17.206
	c-3.406-2.706-8.457-3.877-13.111-4.438c18.614-18.303,37.866-36.029,57.088-53.723c12.222-11.25,24.425-22.64,35.959-34.605
	C377.602,76.601,382.392,71.601,387.25,66.678z M142.098,296.031c4.933,26.827,18.757,44.952,41.783,59.12
	c40.264,24.773,95.776,25.838,134.889-1.857c42.698-30.233,45.679-93.079,29.572-138.011c-0.585-1.632-1.215-3.208-1.86-4.767
	c3.868-2.905,7.664-5.742,11.026-8.58c11.229-9.48,21.695-19.802,32.626-29.584c4.327,8.201,8.039,16.766,11.209,25.548
	c7.096,22.793,8.002,46.923,7.988,71.695c-0.019,33.442-4.304,66.169-23.076,94.81c-9.856,15.038-21.382,27.442-37.319,35.893
	c-16.001,8.485-32.243,15.321-49.665,20.284c-10.034,2.858-20.776,5.097-31.544,6.655c-12.328,1.13-24.886,1.401-36.541,0.572
	c-8.557-0.608-17.257-2.487-25.683-4.31c-4.764-1.31-9.491-2.673-14.171-3.92c-36.946-9.841-67.049-33.998-83.78-68.405
	c-25.474-52.388-28.434-113.98-4.029-167.288c8.64-18.873,20.094-36.486,35.185-50.852c16.544-15.749,37.592-25.147,59.051-32.17
	c18.426-6.03,37.072-10.528,56.822-9.688c20.26,0.862,40.459,5.603,58.79,14.326c2.723,1.296,9.258,2.347,10.097,5.866
	c1.056,4.425-6.085,8.193-8.767,10.474c-9.137,7.774-16.762,17.156-26.384,24.384c-8.253,6.199-19.267-0.072-28.225-1.303
	c-26.271-3.612-56.095,8.014-77.831,22.092c-9.12,5.907-15.853,16.761-22.199,25.282c-6.574,8.827-11.287,18.766-14.77,29.188
	C137.636,244.402,137.756,272.412,142.098,296.031z M347.317,278.05c-1.95,22.075-10.653,43.271-26.093,59.592
	c-30.045,31.76-85.114,32.454-122.219,14.322c-23.003-11.241-39.527-27.071-45.835-52.267c-5.072-20.26-5.458-47.068-0.613-67.404
	c2.656-11.145,7.645-22.286,14.195-31.605c6.217-8.846,13.019-19.624,22.151-25.497c14.799-9.517,31.766-16.024,49.089-19.056
	c3.811-0.667,7.452-1.047,10.989-1.168c9.083-0.312,17.485,1.111,26.277,3.729c-0.538-0.16-9.287,8.679-10.535,9.775
	c-12.334,10.83-18.12,26.048-23.331,41.278c-4.044,11.818-8.291,23.597-12.101,35.503c-1.706,5.333-7.279,16.603-3.418,22.015
	c3.615,5.068,12.209,2.463,16.985,0.878c10.735-3.562,21.605-6.848,32.246-10.808c10.209-3.799,19.938-8.836,29.816-13.383
	c6.386-2.939,13.041-5.878,17.216-11.573c0.855-0.395,1.641-0.994,2.248-1.828c3.733-5.122,8.921-9.768,14.452-14.169
	C345.518,235.549,349.067,258.235,347.317,278.05z M243.23,236.941c1.295,0.233,2.591,0.516,3.828,1.169
	c3.233,1.706,6.359,4.834,7.98,8.175c0.938,1.935,1.294,4.419,2.083,6.553c-5.383,1.733-14.896,6.215-21.649,6.807
	c0.891-5.394,4.805-13.993,5.795-16.98C241.901,240.75,242.575,238.849,243.23,236.941z M314.262,226.629
	c-0.34,0.48-0.746,0.866-1.226,1.131c-4.174,2.3-8.315,4.651-12.599,6.742c-3.47,1.693-10.423,6.708-14.207,6.708
	c-7.207,3.482-14.557,6.599-22.094,9.272c-1.778-4.883-3.749-9.572-7.492-13.435c-2.729-2.818-7.056-5.486-11.357-6.108
	c1.696-4.861,3.398-9.72,5.039-14.598c2.061-6.125,4.273-12.203,6.77-18.165c1.706-4.071,3.677-12.493,8.21-14.129
	c5.511-1.988,9.343-3.248,15.012-3.248c12.924,3.429,8.618,12.018,7.981,21.221c-0.27,3.9,4.608,6.481,7.791,4.471
	c6.54-4.129,15.309-1.89,18.357,5.304C315.744,214.853,316.707,223.176,314.262,226.629z M471.926,187.161
	c16.555,53.93,14.093,109.469,0.02,163.502c-6.353,24.395-15.061,49.062-30.111,69.558c-14.379,19.583-34.226,35.385-54.769,48.057
	c-21.327,13.155-47.17,20.478-71.455,25.708c-28.707,6.183-62.603,8.921-92.353,6.807c-13.247-0.941-26.739-4.013-39.709-6.807
	c-24.285-5.231-50.127-12.554-71.455-25.708c-20.544-12.672-40.39-28.473-54.769-48.057c-15.05-20.496-23.757-45.163-30.111-69.558
	c-14.072-54.033-16.535-109.572,0.02-163.502c15.188-49.475,41.462-95.702,84.494-125.965c23.32-16.4,49.335-26.906,76.682-34.526
	c20.614-5.744,40.898-7.427,62.053-9.409c20.444-1.915,40.523,3.903,60.285,9.409c19.25,5.364,38.153,12.267,55.795,21.718
	c6.833,3.661,16.789,5.643,11.023,14.267c-3.711,5.549-9.988,8.904-14.646,13.53c-7.35,7.301-15.619,18.201-24.531,23.477
	c-8.633,5.111-14.525-1.927-22.247-5.227c-8.132-3.475-16.704-5.795-25.183-8.245c-15.184-4.388-29.694-3.621-44.918-5.898
	c-0.243-0.037-0.491-0.069-0.763-0.069c-17.471-0.03-35.307,6.024-51.697,11.485c-17.702,5.898-35.836,12.36-51.423,22.974
	c-30.885,21.034-49.247,58.21-58.708,93.368c-10.293,38.249-8.511,79.831,2.104,117.885c2.215,7.939,5.265,16.11,8.886,24.112
	c2.122,5.194,4.475,10.296,7.178,15.247c3.008,5.51,6.554,10.591,10.469,15.357c0.36,0.495,0.705,1.023,1.07,1.509
	c10.519,14.051,26.251,24.812,40.913,34.05c16.864,10.626,37.581,15.617,56.837,19.926c8.755,1.959,17.04,3.674,25.999,4.161
	c11.3,0.614,22.55-1.562,33.757-2.982c19.002-2.408,37.6-6.514,55.307-13.897c0.291-0.121,0.585-0.246,0.876-0.368
	c5.321-1.98,10.57-4.231,15.639-6.798c11.059-5.108,21.818-11.026,30.822-19.025c25.674-22.809,44.414-60.691,45.906-95.188
	c0.141-3.268,0.291-6.568,0.438-9.88c1.793-14.296,2.062-28.584,0.877-42.765c-0.434-19.687-2.546-39.273-8.586-57.695
	c-3.134-9.559-7.49-18.667-12.706-27.295c10.384-8.846,20.815-17.616,31.186-26.512c4.813-4.129,10.001-7.997,15.159-11.909
	C456.717,145.097,465.373,165.814,471.926,187.161z M449.296,108.464c-8.945,7.171-17.895,14.243-26.594,21.709
	c-18.678,16.032-36.785,32.426-55.047,48.905c-9.401,8.483-18.908,16.978-28.598,25.117c-4.456,3.742-9.187,7.06-13.602,10.711
	c-0.141-6.074-1.576-11.553-7.998-16.116c-3.851-2.735-8.14-4.128-12.492-4.381c2.752-2.184,5.568-4.264,7.856-6.38
	c6.075-5.617,12.022-11.324,18.324-16.694c13.592-11.583,26.205-24.142,39.866-35.634c14.206-11.951,28.614-23.642,42.888-35.507
	c10.767-8.95,22.693-17.206,32.873-26.883c4.503,5.761,9.608,13.958,10.66,21.247C458.545,102.268,454.64,104.18,449.296,108.464z"
	/>
<g>
</g>
<g>
</g>
<g>
</g>
<g>
</g>
<g>
</g>
<g>
</g>
<g>
</g>
<g>
</g>
<g>
</g>
<g>
</g>
<g>
</g>
<g>
</g>
<g>
</g>
<g>
</g>
<g>
</g>
</svg>
