<?xml version="1.0" encoding="iso-8859-1"?>
<!-- Generator: Adobe Illustrator 19.0.0, SVG Export Plug-In . SVG Version: 6.00 Build 0)  -->
<svg version="1.1" id="Layer_1" xmlns="http://www.w3.org/2000/svg" xmlns:xlink="http://www.w3.org/1999/xlink" x="0px" y="0px"
	 viewBox="0 0 511.998 511.998" style="enable-background:new 0 0 511.998 511.998;" xml:space="preserve">
<polygon style="fill:#AC92EA;" points="443.005,192.998 435.005,135.998 412.004,149.17 387.004,111.317 266.433,53.997 
	178.002,53.997 167.002,32.997 133.001,60.997 95.001,72.997 91.001,102.997 51,149.17 17,205.998 7,274.999 27,358 61.001,407 
	61.001,428 74.001,434 108.001,459.001 122.001,489.002 132.001,469.235 213.314,489.002 298.003,476.001 369.004,435 
	435.005,351.359 449.005,281.968 482.005,255.89 "/>
<g>
	<path style="fill:#424953;" d="M213.314,281.249c0,26.642-25.93,48.251-57.906,48.251c-31.978,0-57.907-21.609-57.907-48.251
		c0-26.641,25.93-48.25,57.907-48.25S213.314,254.608,213.314,281.249z"/>
	<path style="fill:#424953;" d="M306.722,161.107c-5.563,14.797-27.438,20.25-48.844,12.18
		c-21.391-8.063-34.219-26.594-28.641-41.383c5.578-14.805,27.446-20.258,48.844-12.188
		C299.472,127.779,312.315,146.31,306.722,161.107z"/>
	<path style="fill:#424953;" d="M347.879,335.953c8.344,13.422,3.969,31.219-9.75,39.719c-13.72,8.516-31.595,4.531-39.907-8.906
		c-8.344-13.438-4-31.234,9.719-39.75C321.659,318.516,339.535,322.5,347.879,335.953z"/>
</g>
<g>
	<polygon style="fill:#967ADA;" points="131.673,11.66 87.337,37.661 85.337,61.661 105.337,67.661 143.001,57.661 165.338,23.996 	
		"/>
	<polygon style="fill:#967ADA;" points="497.005,215.662 484.349,177.014 457.677,142.662 444.005,137.333 446.677,195.334 
		483.349,251.999 500.005,253.999 	"/>
	<polygon style="fill:#967ADA;" points="110.251,460.751 73.251,437.25 49,432.5 46.75,448.751 59.251,469.001 95.251,496.002 
		119.001,489.002 	"/>
</g>
<path d="M500.427,184.662c-14.266-34.961-36.953-59.602-53.563-59.602c-1.984,0-3.891,0.359-5.672,1.086
	c-0.063,0.023-0.109,0.047-0.156,0.07l-24.532,10.766c-25.875-36.149-62-64.461-104.11-80.735c0.156-0.727,0.25-1.477,0.25-2.25
	c0-5.891-4.781-10.672-10.672-10.672c-4.297,0-7.984,2.547-9.672,6.211c-19.906-5.633-40.922-8.648-62.641-8.648
	c-15.032,0-29.735,1.461-43.969,4.219l-12.172-25.985C169.08,9.63,157.674,4.661,143.533,4.669c-10.25,0-21.922,2.609-33.422,7.992
	c-27.344,12.813-43.297,36.477-35.625,52.86l11.953,25.508c-17.828,14.242-33.5,31.086-46.407,49.954
	c-1.969-2.242-4.828-3.664-8.047-3.664c-5.891,0-10.656,4.773-10.656,10.665c0,4.953,3.375,9.102,7.938,10.305
	C10.625,191.482,0,229.78,0,270.562c0,17.281,1.906,34.126,5.531,50.313C2.234,322.688,0,326.188,0,330.219
	c0,5.891,4.766,10.656,10.656,10.656c0.109,0,0.219,0,0.313,0c8.766,27.266,22.484,52.313,40.11,74.078l-11.547,13.656
	c-11.704,13.798-2.531,40.813,20.485,60.361c14.078,11.969,30.094,18.359,43.078,18.359c8.234,0,15.266-2.578,19.797-7.922
	l15.329-18.126c28.032,12.188,58.938,18.938,91.438,18.938c33.625,0,65.563-7.219,94.329-20.22c1.516,4.063,5.407,6.954,9.985,6.954
	c5.891,0,10.672-4.782,10.672-10.673c0-2.156-0.656-4.188-1.766-5.875c34.984-19.859,64.25-48.642,84.688-83.267
	c1.578,0.938,3.422,1.484,5.406,1.484c5.891,0,10.656-4.781,10.656-10.656c0-4.266-2.5-7.938-6.109-9.641
	c12.031-25.531,19.5-53.641,21.344-83.267l40.141-17.141l0,0C515.756,261.093,516.396,223.811,500.427,184.662z M450.27,148.412
	c2.484,1.719,5.969,4.68,10.063,9.492c7.609,8.969,14.844,21.328,20.344,34.813c5.5,13.492,8.984,27.383,9.797,39.118
	c0.453,6.305,0.031,10.852-0.547,13.82c-2.5-1.719-5.969-4.68-10.063-9.492c-7.609-8.961-14.844-21.329-20.344-34.813
	c-5.5-13.492-8.984-27.383-9.813-39.117C449.27,155.928,449.692,151.389,450.27,148.412z M98.313,47.684
	c4.766-6.07,12.172-11.648,20.844-15.711c8.234-3.852,16.891-5.977,24.375-5.977l0,0l0,0c6.375,0,9.625,1.523,10.579,2.219
	c-0.078,1.102-0.875,4.258-4.407,8.743c-4.781,6.07-12.188,11.648-20.859,15.703c-8.235,3.86-16.891,5.985-24.375,5.985
	c-6.359,0-9.609-1.523-10.578-2.219C93.97,55.325,94.782,52.168,98.313,47.684z M106.563,485.533
	c-0.484,0.172-1.547,0.469-3.469,0.469c-6.281,0-17.734-3.485-29.266-13.282c-7.297-6.203-12.984-13.531-16-20.641
	c-2.219-5.234-2.172-8.484-1.953-9.578c0.469-0.188,1.547-0.484,3.469-0.484l0,0l0,0c6.281,0,17.719,3.484,29.266,13.281
	c7.297,6.203,12.969,13.516,15.984,20.641C106.829,481.173,106.767,484.439,106.563,485.533z M450.489,265.452l-12.094,5.156
	l-0.828,13.125c-3.281,52.829-26.376,101.985-65.001,138.423c-38.797,36.595-89.548,56.751-142.908,56.751
	c-28.797,0-56.704-5.781-82.938-17.188l-14.531-6.313l-8.782,10.359c-4.281-9.203-11.438-18.609-20.984-26.734
	c-9.594-8.142-20.078-13.688-29.891-16.407l6.219-7.375L67.657,401.53c-14.704-18.156-26.157-38.438-34.032-60.281
	c-8.156-22.625-12.297-46.407-12.297-70.688c0-32.235,7.156-63.126,21.266-91.821c13.469-27.367,33.235-51.938,57.157-71.048
	L112.876,97.2l-7.125-15.219l-0.938-2.008c10.156-0.063,21.719-2.664,33.079-7.992c11.375-5.328,20.766-12.531,27.329-20.313
	l1.156,2.493l7.063,15.055l16.313-3.164c13.125-2.547,26.547-3.836,39.907-3.836c17.157,0,34.204,2.086,50.657,6.203
	c15.984,3.984,31.5,9.906,46.11,17.578c28.672,15.07,53.828,37,72.734,63.407l10.078,14.063l15.845-6.953l3.141-1.383
	c-0.359,15.148,3.469,34.469,11.547,54.273c8.266,20.274,19.375,37.063,30.484,47.61L450.489,265.452z"/>
<path d="M319.331,155.967c2.641-20.563-18.906-40.267-48.109-44.024c-3.266-0.422-6.5-0.625-9.641-0.625
	c-25.063,0-45.704,12.79-48.048,31.055c-2.641,20.563,18.907,40.266,48.11,44.024c3.266,0.414,6.484,0.617,9.641,0.617
	C296.347,187.014,316.972,174.225,319.331,155.967z M298.175,153.248c-0.422,3.219-3.828,5.836-5.828,7.109
	c-5.313,3.391-12.984,5.328-21.063,5.328c-2.281,0-4.609-0.148-6.922-0.445c-19.078-2.453-30.485-13.75-29.672-20.149
	c0.422-3.219,3.828-5.836,5.828-7.109c5.297-3.391,12.985-5.328,21.063-5.328c2.266,0,4.609,0.148,6.922,0.445
	C287.581,135.552,298.987,146.85,298.175,153.248z"/>
<path d="M326.035,312.625c-8.579,0-17.626,2.531-25.845,7.781c-20.109,12.875-27.563,37.156-16.625,54.234
	c6.453,10.109,17.906,15.438,30.344,15.438c8.594,0,17.642-2.547,25.86-7.797c20.109-12.844,27.547-37.125,16.625-54.219
	C349.926,317.937,338.488,312.625,326.035,312.625z M339.332,350.5c-1.641,5.344-5.672,10.375-11.063,13.813
	c-4.47,2.859-9.563,4.438-14.36,4.438c-2.641,0-9.156-0.547-12.375-5.594c-2.516-3.922-1.656-8.563-0.906-10.969
	c1.625-5.328,5.656-10.359,11.063-13.813c4.453-2.844,9.563-4.422,14.345-4.422h0.016c2.641,0,9.141,0.547,12.375,5.594
	C340.926,343.469,340.066,348.094,339.332,350.5z"/>
<path d="M153.861,217.975c-41.235,0-74.657,28.664-74.657,63.993c0,35.345,33.422,64.001,74.657,64.001
	c41.234,0,74.657-28.656,74.657-64.001C228.518,246.639,195.096,217.975,153.861,217.975z M192.768,311.031
	c-10.234,8.766-24.047,13.594-38.906,13.594c-14.86,0-28.673-4.828-38.907-13.594c-9.297-7.969-14.422-18.298-14.422-29.063
	s5.125-21.078,14.422-29.047c10.234-8.782,24.047-13.61,38.907-13.61c14.859,0,28.672,4.828,38.906,13.61
	c9.297,7.969,14.422,18.281,14.422,29.047S202.064,303.062,192.768,311.031z"/>
<g>
</g>
<g>
</g>
<g>
</g>
<g>
</g>
<g>
</g>
<g>
</g>
<g>
</g>
<g>
</g>
<g>
</g>
<g>
</g>
<g>
</g>
<g>
</g>
<g>
</g>
<g>
</g>
<g>
</g>
</svg>
