<?xml version="1.0" encoding="iso-8859-1"?>
<!-- Generator: Adobe Illustrator 19.0.0, SVG Export Plug-In . SVG Version: 6.00 Build 0)  -->
<svg version="1.1" id="Layer_1" xmlns="http://www.w3.org/2000/svg" xmlns:xlink="http://www.w3.org/1999/xlink" x="0px" y="0px"
	 viewBox="0 0 512 512" style="enable-background:new 0 0 512 512;" xml:space="preserve">
<path style="fill:#EC5564;" d="M288.794,254.422c0,16.781-13.609,30.375-30.391,30.375s-30.391-13.594-30.391-30.375
	c0-16.797,13.609-30.398,30.391-30.398S288.794,237.625,288.794,254.422z"/>
<path d="M255.997,213.336c-23.563,0-42.656,19.102-42.656,42.664s19.094,42.672,42.656,42.672s42.672-19.109,42.672-42.672
	S279.56,213.336,255.997,213.336z M255.997,277.328c-11.75,0-21.328-9.563-21.328-21.328s9.578-21.336,21.328-21.336
	c11.766,0,21.344,9.57,21.344,21.336S267.763,277.328,255.997,277.328z"/>
<path d="M403.825,256c58.875-51.031,89.672-100.648,73.875-128c-7.75-13.438-25.781-19.828-50.859-19.828
	c-25.969,0-59.469,6.852-96.922,19.813C315.153,51.477,287.591,0,255.997,0c-31.578,0-59.156,51.477-73.906,127.984
	c-37.453-12.961-70.969-19.813-96.922-19.813c-25.078,0-43.109,6.391-50.875,19.828c-15.781,27.352,15,76.969,73.891,128
	c-58.891,51.031-89.672,100.641-73.891,128c7.766,13.438,25.797,19.828,50.875,19.828c25.953,0,59.469-6.844,96.922-19.813
	C196.841,460.516,224.419,512,255.997,512c31.594,0,59.156-51.484,73.922-127.984c37.453,12.969,70.953,19.813,96.922,19.813
	c25.063,0,43.109-6.391,50.859-19.828C493.497,356.641,462.7,307.031,403.825,256z M173.372,364.453
	c-34.516,11.813-65.016,18.031-88.203,18.031c-19.984,0-29.844-4.719-32.391-9.156c-2.234-3.844-1.453-11.234,2.156-20.25
	c5.094-12.766,15.5-28.219,30.094-44.672c11.203-12.641,24.531-25.547,39.766-38.563c14.516,11.609,30.375,23.219,47.391,34.547
	c1.313,20.406,3.422,39.938,6.219,58.313C176.731,363.297,175.044,363.891,173.372,364.453z M170.966,277.734
	c-9.469-6.625-18.641-13.391-27.438-20.266c-0.625-0.484-1.234-0.984-1.844-1.469c0.609-0.484,1.219-0.984,1.844-1.453
	c8.797-6.891,17.969-13.656,27.438-20.281c-0.188,7.164-0.297,14.406-0.297,21.734S170.778,270.578,170.966,277.734z
	 M172.185,207.609c-17.016,11.328-32.875,22.93-47.391,34.547c-15.234-13.008-28.563-25.93-39.766-38.563
	c-14.594-16.461-25-31.906-30.094-44.672c-3.609-9.016-4.391-16.391-2.156-20.258c2.547-4.422,12.406-9.156,32.391-9.156l0,0
	c23.203,0,53.703,6.234,88.203,18.031c1.672,0.57,3.359,1.172,5.031,1.766C175.606,167.672,173.497,187.211,172.185,207.609z
	 M313.497,159.328c1.563,11.063,2.844,22.375,3.844,33.906c-6.109-3.758-12.328-7.477-18.672-11.133
	c-6.328-3.656-12.656-7.188-18.953-10.594c11.266-5.266,22.438-10.109,33.453-14.508
	C313.278,157.781,313.388,158.547,313.497,159.328z M215.903,81.727c6.953-20.867,15.125-37.602,23.641-48.406
	c6-7.617,12-11.984,16.453-11.984c4.469,0,10.453,4.367,16.469,11.984c8.5,10.805,16.688,27.539,23.641,48.406
	c5.328,16.023,9.859,34.023,13.516,53.727c-17.328,6.75-35.297,14.695-53.625,23.773c-18.313-9.078-36.297-17.023-53.609-23.773
	C206.044,115.75,210.56,97.75,215.903,81.727z M198.497,159.328c0.109-0.781,0.234-1.547,0.344-2.328
	c11,4.391,22.188,9.242,33.453,14.508c-6.297,3.406-12.625,6.938-18.953,10.594c-6.344,3.656-12.578,7.375-18.688,11.133
	C195.669,181.703,196.935,170.391,198.497,159.328z M198.497,352.672c-1.563-11.063-2.828-22.375-3.844-33.906
	c6.109,3.75,12.344,7.469,18.688,11.125c6.328,3.656,12.656,7.188,18.953,10.594c-11.266,5.281-22.453,10.125-33.453,14.516
	C198.731,354.219,198.606,353.453,198.497,352.672z M296.106,430.266c-6.953,20.875-15.141,37.609-23.641,48.406
	c-6.016,7.625-12,12-16.469,12c-4.453,0-10.453-4.375-16.453-12c-8.516-10.781-16.688-27.531-23.641-48.406
	c-5.344-16.016-9.859-34.016-13.516-53.719c17.313-6.75,35.297-14.688,53.609-23.781c18.328,9.094,36.297,17.031,53.625,23.781
	C305.966,396.25,301.435,414.25,296.106,430.266z M313.497,352.672c-0.109,0.781-0.219,1.547-0.328,2.328
	c-11.016-4.391-22.188-9.234-33.453-14.516c6.297-3.406,12.625-6.938,18.953-10.594c6.344-3.656,12.563-7.375,18.672-11.125
	C316.341,330.297,315.06,341.609,313.497,352.672z M319.122,292.453c-10.078,6.484-20.469,12.813-31.125,18.969
	c-10.609,6.125-21.297,11.938-32,17.438c-10.688-5.5-21.391-11.313-32-17.438c-10.656-6.156-21.031-12.484-31.109-18.969
	c-0.594-11.984-0.891-24.156-0.891-36.453c0-12.305,0.297-24.461,0.891-36.438c10.078-6.5,20.453-12.836,31.109-18.984
	c10.609-6.125,21.313-11.945,32-17.438c10.703,5.492,21.391,11.313,32,17.438c10.656,6.148,21.047,12.484,31.125,18.984
	c0.578,11.977,0.875,24.133,0.875,36.438C319.997,268.297,319.7,280.453,319.122,292.453z M338.622,147.547
	c34.516-11.805,65.016-18.039,88.219-18.039l0,0c19.984,0,29.828,4.734,32.391,9.156c2.219,3.859,1.438,11.242-2.156,20.25
	c-5.094,12.773-15.5,28.219-30.094,44.68c-11.203,12.633-24.547,25.555-39.781,38.563c-14.5-11.617-30.375-23.219-47.391-34.547
	c-1.297-20.398-3.406-39.938-6.219-58.305C335.278,148.711,336.966,148.117,338.622,147.547z M341.028,234.266
	c9.484,6.625,18.641,13.391,27.438,20.266c0.625,0.484,1.234,0.984,1.859,1.469c-0.625,0.484-1.234,0.984-1.859,1.469
	c-8.797,6.875-17.953,13.641-27.438,20.266c0.203-7.156,0.313-14.406,0.313-21.734S341.231,241.43,341.028,234.266z
	 M457.075,353.078c3.594,9.016,4.375,16.406,2.156,20.25c-2.563,4.438-12.406,9.156-32.391,9.156
	c-23.203,0-53.703-6.219-88.219-18.031c-1.656-0.563-3.344-1.156-5.031-1.75c2.813-18.375,4.922-37.906,6.219-58.313
	c17.016-11.328,32.891-22.938,47.391-34.547c15.234,13.016,28.578,25.922,39.781,38.563
	C441.575,324.859,451.981,340.313,457.075,353.078z"/>
<g>
</g>
<g>
</g>
<g>
</g>
<g>
</g>
<g>
</g>
<g>
</g>
<g>
</g>
<g>
</g>
<g>
</g>
<g>
</g>
<g>
</g>
<g>
</g>
<g>
</g>
<g>
</g>
<g>
</g>
</svg>
