<?xml version="1.0" encoding="iso-8859-1"?>
<!-- Generator: Adobe Illustrator 19.0.0, SVG Export Plug-In . SVG Version: 6.00 Build 0)  -->
<svg version="1.1" id="Layer_1" xmlns="http://www.w3.org/2000/svg" xmlns:xlink="http://www.w3.org/1999/xlink" x="0px" y="0px"
	 viewBox="0 0 512 512" style="enable-background:new 0 0 512 512;" xml:space="preserve">
<g>
	<path style="fill:#EC5564;" d="M499.328,233.641c0,12.344-8.688,22.359-19.406,22.359S460.5,245.984,460.5,233.641
		s8.703-22.352,19.422-22.352S499.328,221.297,499.328,233.641z"/>
	<polygon style="fill:#EC5564;" points="323.328,221.336 281.328,171.336 190.672,133.336 104.672,147.336 50.672,181.336 
		15.328,227.336 25.328,266 92.672,322.672 183.328,341.328 272,312.672 326.672,247.328 	"/>
</g>
<g>
	<polygon style="fill:#FECD57;" points="144,85.336 96.672,106 44,138.336 30.672,191.336 64.875,176.563 104.672,147.336 
		149.359,140.063 171,117.336 	"/>
	<polygon style="fill:#FECD57;" points="78,319.328 54,381.328 110.969,414.672 141.328,337.328 	"/>
</g>
<path d="M170.656,375.109C170.672,375.172,170.656,375.016,170.656,375.109L170.656,375.109z"/>
<path d="M149.359,375.109C149.359,375.016,149.359,375.172,149.359,375.109L149.359,375.109z"/>
<path d="M480,204.664c-13.938,0-25.781,8.906-30.172,21.336h-23.484c-2.219-36.188-15.563-64-31.688-64
	c-16.109,0-29.438,27.813-31.656,64h-26.344c-27.781-58.477-83.891-100.102-149.938-105.953C175.359,96.336,166.906,78,149.328,78
	c-75.89,0-137.562,60.938-138.734,136.563C6.609,221.656,3.063,229.031,0,236.664c13.938,34.633,37.547,64.086,67.344,84.82
	l-27.922,68.063L121.281,434c6.953-37.047,15.344-63.266,23.656-81.828c1.469,0.203,2.938,0.406,4.422,0.578v22.359
	c0,5.875,4.766,10.891,10.656,10.891s10.641-5.016,10.641-10.891V354c72.938,0,135.984-43.516,166-106.672H363
	c2.219,36.188,15.547,64,31.656,64c16.125,0,29.469-27.813,31.688-64h23.484c4.391,12.438,16.234,21.344,30.172,21.344
	c17.672,0,32-14.344,32-32.008C512,218.992,497.672,204.664,480,204.664z M66.281,133.727c22.188-22.18,51.688-34.398,83.047-34.398
	c0.359,0,0.391,0.016,0.578,0.125c0.375,0.234,1.484,1.023,3.266,3.32c3.078,3.969,6.203,9.82,9.594,16.734
	c-48.328,2.094-91.859,23.297-123.609,56.461C44.938,160.289,54.109,145.906,66.281,133.727z M106.375,401.641l-39.953-21.719
	l19.359-47.156c11.906,6.359,24.563,11.406,37.813,15C117.094,363.109,111.344,381.078,106.375,401.641z M262.219,303.688
	c-27.047,18.953-58.719,28.984-91.563,28.984c-32.828,0-64.5-10.031-91.547-28.984c-24.203-16.953-43.391-40-55.875-67.023
	c12.484-27.023,31.672-50.07,55.875-67.023c27.047-18.953,58.719-28.977,91.547-28.977c32.844,0,64.516,10.023,91.563,28.977
	c24.203,16.953,43.391,40,55.875,67.023C305.609,263.688,286.422,286.734,262.219,303.688z M399.859,275.234
	c-1.781,5.484-3.656,9.281-5.203,11.75c-1.531-2.469-3.406-6.266-5.188-11.75c-2.625-8.063-4.375-17.703-5.094-27.906h20.578
	C404.234,257.531,402.484,267.172,399.859,275.234z M384.375,226c0.719-10.203,2.469-19.844,5.094-27.891
	c1.781-5.5,3.656-9.289,5.188-11.758c1.547,2.469,3.422,6.258,5.203,11.758c2.625,8.047,4.375,17.688,5.094,27.891H384.375z
	 M480,247.328c-5.875,0-10.672-4.781-10.672-10.664S474.125,226,480,226s10.656,4.781,10.656,10.664S485.875,247.328,480,247.328z"
	/>
<path d="M189.531,217.813c-4.172-4.172-10.938-4.172-15.094,0l-15.094,15.078l-30.156-30.164c-4.172-4.172-10.922-4.172-15.094,0
	c-4.156,4.164-4.156,10.914,0,15.086l37.719,37.703c4.156,4.172,10.922,4.172,15.078,0l15.094-15.078l30.172,30.172
	c4.156,4.156,10.906,4.156,15.078,0c4.172-4.172,4.172-10.922,0-15.094L189.531,217.813z"/>
<g>
</g>
<g>
</g>
<g>
</g>
<g>
</g>
<g>
</g>
<g>
</g>
<g>
</g>
<g>
</g>
<g>
</g>
<g>
</g>
<g>
</g>
<g>
</g>
<g>
</g>
<g>
</g>
<g>
</g>
</svg>
