<?xml version="1.0" encoding="iso-8859-1"?>
<!-- Generator: Adobe Illustrator 19.0.0, SVG Export Plug-In . SVG Version: 6.00 Build 0)  -->
<svg version="1.1" id="Layer_1" xmlns="http://www.w3.org/2000/svg" xmlns:xlink="http://www.w3.org/1999/xlink" x="0px" y="0px"
	 viewBox="0 0 511.999 511.999" style="enable-background:new 0 0 511.999 511.999;" xml:space="preserve">
<polygon style="fill:#FFCE54;" points="378.647,212 174.178,21.5 139.991,11.969 115.991,21.5 115.991,65.109 167.991,122.312 
	287.522,258.047 220.725,333.5 110.655,453.219 110.655,494.594 163.514,494.594 216.514,446.641 339.991,333.5 402.647,288 
	402.647,240 "/>
<g>
	<path style="fill:#ED5564;" d="M220.725,82l-40.07,40.312l96.211,113.016l-3.844-16c0,0,23.625-7.328,26.969-8
		S303.335,190,303.335,190l22-19.344L220.725,82z"/>
	<polygon style="fill:#ED5564;" points="313.335,322.844 303.991,303.328 276.866,300 269.335,282 216.514,338.078 180.655,386 
		231.389,428 334.647,337.328 	"/>
</g>
<path d="M396.179,214.375c-0.531-0.531-1.062-1.031-1.625-1.547l0.031-0.031L169.475,11.438C161.389,3.812,151.014,0,140.639,0
	c-10.758,0-21.523,4.094-29.734,12.312c-16.117,16.125-16.414,42.094-0.867,58.562L275.71,255.936L110.084,441.125
	c-15.547,16.469-15.25,42.438,0.875,58.562c8.203,8.203,18.969,12.312,29.727,12.312c10.375,0,20.75-3.812,28.836-11.453
	l223.032-199.641c1.234-1.047,2.438-2.156,3.625-3.328C419.147,274.594,419.147,237.344,396.179,214.375z M342.413,317.156
	l-6.359,5.688h-18.562v-19.5l0,0c0-2.734-1.047-5.469-3.125-7.547c-2.094-2.078-4.812-3.125-7.547-3.125l0,0h-19.516v-17.703
	l4.312-4.797l12.719-14.234l-12.734-14.219l-4.078-4.562v-18.094h19.5c2.734,0,5.469-1.031,7.547-3.125
	c2.078-2.078,3.125-4.812,3.125-7.531v-19.5h18.172l4.656,4.156c-3.25,6.609-8.25,18.5-11.25,34.031
	C325.101,248.578,324.101,281.469,342.413,317.156z M307.022,167.562L307.022,167.562c-2.719,0-5.453,1.047-7.531,3.125
	c-2.094,2.094-3.125,4.812-3.125,7.547l0,0v19.5h-19.5l0,0c-2.75,0-5.469,1.047-7.562,3.125c-2.062,2.078-3.125,4.812-3.125,7.547
	l0,0v4.922l-75.657-84.531l36.906-36.891l84.594,75.656H307.022z M265.991,303.344c0,2.719,1.031,5.453,3.109,7.531
	c2.078,2.094,4.812,3.125,7.547,3.125l0,0h19.5v19.5l0,0c0,2.734,1.047,5.469,3.125,7.547c2.094,2.078,4.812,3.125,7.547,3.125
	h5.406l-84.782,75.891l-36.898-36.891l75.446-84.344V303.344L265.991,303.344z M125.749,56.438l-0.195-0.219
	c-3.703-3.906-5.695-9.047-5.625-14.469c0.078-5.422,2.227-10.516,6.062-14.344c3.914-3.922,9.117-6.078,14.648-6.078
	c5.305,0,10.344,2,14.188,5.641l0.211,0.188l0.211,0.188l16.461,14.719c-0.148,0.125-0.305,0.266-0.445,0.406
	c-4.172,4.156-4.172,10.922,0,15.094c4.164,4.156,10.914,4.156,15.086,0c0.422-0.438,0.797-0.906,1.141-1.375l24.007,21.467
	l-35.227,35.219l-21.484-24c0.484-0.344,0.953-0.719,1.391-1.156c4.164-4.156,4.164-10.906,0-15.078s-10.922-4.172-15.086,0
	c-0.148,0.141-0.281,0.297-0.422,0.453l-14.734-16.438L125.749,56.438z M155.288,484.656l-0.211,0.188l-0.203,0.188
	c-3.844,3.625-8.883,5.625-14.188,5.625c-5.531,0-10.734-2.156-14.648-6.062c-3.836-3.828-5.984-8.938-6.062-14.344
	c-0.07-5.422,1.922-10.562,5.625-14.484l0.195-0.203l0.195-0.219l14.703-16.438c0.07,0.062,0.125,0.125,0.188,0.188
	c4.164,4.172,10.922,4.172,15.086,0c4.164-4.156,4.164-10.906,0-15.078c-0.352-0.359-0.727-0.656-1.109-0.953l21.438-23.969
	l35.227,35.219l-24.039,21.531c-0.383-0.594-0.836-1.141-1.344-1.656c-4.164-4.156-10.922-4.156-15.086,0s-4.164,10.922,0,15.094
	c0.227,0.219,0.469,0.438,0.711,0.625L155.288,484.656z M381.085,282.5c-0.719,0.719-1.5,1.438-2.328,2.141l-0.234,0.172
	l-0.203,0.203l-19.391,17.359c-10.406-22.562-13.391-46.219-8.875-70.406c1.859-9.953,4.719-18.188,7.141-24l21.109,18.875
	l1.75,1.625c0.406,0.375,0.75,0.719,1.031,1C395.71,244.078,395.71,267.875,381.085,282.5z"/>
<path d="M254.225,140.531c4.172-4.188,4.172-10.938,0-15.094c-4.172-4.156-10.922-4.156-15.078,0
	c-4.172,4.156-4.172,10.906,0,15.094C243.303,144.688,250.053,144.688,254.225,140.531z"/>
<path d="M239.147,155.609c-4.172,4.172-4.172,10.922,0,15.078c4.156,4.172,10.906,4.172,15.078,0c4.172-4.156,4.172-10.906,0-15.078
	C250.053,151.438,243.303,151.438,239.147,155.609z"/>
<path d="M284.397,170.688c4.156-4.156,4.156-10.906,0-15.078s-10.922-4.172-15.094,0c-4.156,4.172-4.156,10.922,0,15.078
	C273.491,174.859,280.241,174.859,284.397,170.688z"/>
<path d="M208.975,125.438c-4.164,4.156-4.164,10.906,0,15.094c4.164,4.156,10.914,4.156,15.086,0c4.164-4.188,4.164-10.938,0-15.094
	C219.889,121.281,213.139,121.281,208.975,125.438z"/>
<path d="M156.178,57.562c-4.164,4.156-4.164,10.906,0,15.078s10.914,4.172,15.086,0c4.164-4.172,4.164-10.922,0-15.078
	C167.092,53.391,160.342,53.391,156.178,57.562z"/>
<path d="M223.85,356.125c-4.164,4.172-4.164,10.938,0,15.094s10.914,4.156,15.086,0c4.164-4.156,4.164-10.906,0-15.094
	C234.772,351.969,228.014,351.969,223.85,356.125z"/>
<path d="M254.022,356.125c-4.172,4.172-4.172,10.938,0,15.094c4.157,4.156,10.907,4.156,15.079,0s4.172-10.906,0-15.094
	C264.929,351.969,258.179,351.969,254.022,356.125z"/>
<path d="M254.022,325.969c-4.172,4.156-4.172,10.906,0,15.078c4.157,4.172,10.907,4.172,15.079,0s4.172-10.922,0-15.078
	C264.929,321.797,258.179,321.797,254.022,325.969z"/>
<path d="M223.85,386.312c-4.164,4.156-4.164,10.906,0,15.078s10.914,4.172,15.086,0c4.164-4.172,4.164-10.922,0-15.078
	C234.772,382.141,228.014,382.141,223.85,386.312z"/>
<path d="M155.967,454.188c4.164,4.156,10.922,4.156,15.086,0s4.164-10.922,0-15.094c-4.164-4.156-10.922-4.156-15.086,0
	C151.803,443.266,151.803,450.031,155.967,454.188z"/>
<g>
</g>
<g>
</g>
<g>
</g>
<g>
</g>
<g>
</g>
<g>
</g>
<g>
</g>
<g>
</g>
<g>
</g>
<g>
</g>
<g>
</g>
<g>
</g>
<g>
</g>
<g>
</g>
<g>
</g>
</svg>
