<?xml version="1.0" encoding="iso-8859-1"?>
<!-- Generator: Adobe Illustrator 19.0.0, SVG Export Plug-In . SVG Version: 6.00 Build 0)  -->
<svg version="1.1" id="Layer_1" xmlns="http://www.w3.org/2000/svg" xmlns:xlink="http://www.w3.org/1999/xlink" x="0px" y="0px"
	 viewBox="0 0 512.001 512.001" style="enable-background:new 0 0 512.001 512.001;" xml:space="preserve">
<g>
	<path style="fill:#EC5564;" d="M288.008,43.172c0,15.555-12.609,28.164-28.172,28.164c-15.555,0-28.164-12.609-28.164-28.164
		c0-15.563,12.609-28.172,28.164-28.172C275.398,15,288.008,27.609,288.008,43.172z"/>
	<path style="fill:#EC5564;" d="M102.008,41.172c0,15.555-12.609,28.164-28.172,28.164c-15.555,0-28.164-12.609-28.164-28.164
		C45.672,25.609,58.281,13,73.836,13C89.398,13,102.008,25.609,102.008,41.172z"/>
	<path style="fill:#EC5564;" d="M344.352,227.836c0,15.555-12.625,28.164-28.188,28.164c-15.547,0-28.156-12.609-28.156-28.164
		c0-15.563,12.609-28.172,28.156-28.172C331.727,199.664,344.352,212.273,344.352,227.836z"/>
	<path style="fill:#EC5564;" d="M467.008,346.5c0,15.547-12.609,28.172-28.172,28.172c-15.547,0-28.172-12.625-28.172-28.172
		c0-15.563,12.625-28.172,28.172-28.172C454.398,318.328,467.008,330.938,467.008,346.5z"/>
	<path style="fill:#EC5564;" d="M217.68,346.5c0,15.547-12.609,28.172-28.172,28.172c-15.555,0-28.164-12.625-28.164-28.172
		c0-15.563,12.609-28.172,28.164-28.172C205.07,318.328,217.68,330.938,217.68,346.5z"/>
	<path style="fill:#EC5564;" d="M344.352,469.172c0,15.563-12.625,28.156-28.188,28.156c-15.547,0-28.156-12.594-28.156-28.156
		S300.617,441,316.164,441C331.727,441,344.352,453.609,344.352,469.172z"/>
</g>
<path d="M467.508,318.469c-8.344-8.328-19.25-12.484-30.172-12.484c-7.516,0-15.016,1.969-21.672,5.906l-62.25-62.25
	c9.672-16.359,7.469-37.781-6.594-51.844c-8.266-8.281-19.094-12.438-29.938-12.484l-34.484-106.36
	c2.75-1.703,5.359-3.734,7.75-6.125c16.656-16.656,16.656-43.672,0-60.344C281.82,4.156,270.898,0,259.977,0
	s-21.844,4.156-30.172,12.484c-5.594,5.594-9.297,12.359-11.141,19.516H115.977c-1.844-7.156-5.547-13.922-11.141-19.516
	C96.508,4.156,85.586,0,74.664,0S52.836,4.156,44.492,12.484c-16.656,16.672-16.656,43.688,0,60.344
	c8.344,8.328,19.25,12.5,30.172,12.5s21.844-4.172,30.172-12.5c5.594-5.594,9.297-12.359,11.141-19.5h102.688
	c1.844,7.141,5.547,13.906,11.141,19.5c8.328,8.328,19.25,12.5,30.172,12.5c0.688,0,1.359-0.016,2.047-0.047l34.125,105.266
	c-3.469,1.906-6.734,4.313-9.672,7.25c-14.047,14.063-16.25,35.484-6.578,51.844l-62.25,62.25
	c-6.656-3.938-14.172-5.906-21.672-5.906c-10.922,0-21.844,4.156-30.172,12.484c-16.656,16.672-16.656,43.688,0,60.344
	c8.328,8.328,19.25,12.5,30.172,12.5c7.5,0,15.016-1.969,21.672-5.906l62.25,62.25c-9.672,16.359-7.469,37.781,6.578,51.844
	c8.344,8.328,19.25,12.5,30.172,12.5s21.844-4.172,30.172-12.5c14.063-14.063,16.266-35.484,6.594-51.844l62.25-62.25
	c6.656,3.938,14.156,5.906,21.672,5.906c10.922,0,21.828-4.172,30.172-12.5C484.164,362.156,484.164,335.141,467.508,318.469z
	 M89.758,57.75C85.727,61.781,80.367,64,74.664,64c-5.688,0-11.047-2.219-15.078-6.25c-8.328-8.328-8.328-21.859,0-30.172
	c4.031-4.031,9.391-6.25,15.078-6.25c5.703,0,11.063,2.219,15.094,6.25C98.07,35.891,98.07,49.422,89.758,57.75z M244.883,27.578
	c4.031-4.031,9.391-6.25,15.094-6.25c5.703,0,11.063,2.219,15.078,6.25c8.328,8.313,8.328,21.844,0,30.172
	c-4.016,4.016-9.375,6.25-15.078,6.25s-11.063-2.234-15.094-6.25C236.57,49.422,236.57,35.891,244.883,27.578z M316.648,426.656
	c-7.5,0-15,1.969-21.672,5.906l-62.234-62.234c7.859-13.328,7.859-30.031,0-43.359l62.234-62.234
	c6.672,3.938,14.172,5.906,21.672,5.906c7.516,0,15.016-1.969,21.688-5.906l62.234,62.234c-7.875,13.328-7.875,30.031,0,43.359
	l-62.234,62.234C331.664,428.625,324.164,426.656,316.648,426.656z M301.57,212.875c4.031-4.016,9.391-6.234,15.078-6.234
	c5.703,0,11.063,2.219,15.094,6.234c4.031,4.031,6.25,9.391,6.25,15.094s-2.219,11.047-6.25,15.078s-9.391,6.25-15.094,6.25
	c-5.688,0-11.047-2.219-15.078-6.25s-6.25-9.375-6.25-15.078S297.539,216.906,301.57,212.875z M180.883,363.734
	c-8.313-8.328-8.313-21.859,0-30.172c4.031-4.031,9.391-6.25,15.094-6.25s11.063,2.219,15.078,6.25
	c8.328,8.313,8.328,21.844,0,30.172c-4.016,4.031-9.375,6.25-15.078,6.25S184.914,367.766,180.883,363.734z M331.742,484.406
	c-4.031,4.031-9.391,6.25-15.094,6.25c-5.688,0-11.047-2.219-15.078-6.25c-8.313-8.313-8.313-21.844,0-30.172
	c4.031-4.016,9.391-6.234,15.078-6.234c5.703,0,11.063,2.219,15.094,6.234C340.055,462.563,340.055,476.094,331.742,484.406z
	 M452.414,363.734c-4.031,4.031-9.375,6.25-15.078,6.25s-11.063-2.219-15.078-6.25c-8.328-8.328-8.328-21.859,0-30.172
	c4.016-4.031,9.375-6.25,15.078-6.25s11.047,2.219,15.078,6.25C460.742,341.875,460.742,355.406,452.414,363.734z"/>
<g>
</g>
<g>
</g>
<g>
</g>
<g>
</g>
<g>
</g>
<g>
</g>
<g>
</g>
<g>
</g>
<g>
</g>
<g>
</g>
<g>
</g>
<g>
</g>
<g>
</g>
<g>
</g>
<g>
</g>
</svg>
