<?xml version="1.0" encoding="iso-8859-1"?>
<!-- Generator: Adobe Illustrator 19.0.0, SVG Export Plug-In . SVG Version: 6.00 Build 0)  -->
<svg version="1.1" id="Layer_1" xmlns="http://www.w3.org/2000/svg" xmlns:xlink="http://www.w3.org/1999/xlink" x="0px" y="0px"
	 viewBox="0 0 512.002 512.002" style="enable-background:new 0 0 512.002 512.002;" xml:space="preserve">
<polygon style="fill:#F6BB42;" points="181.672,282.78 179.336,332.999 213.328,362.999 215.672,286.999 "/>
<path style="fill:#FFCE54;" d="M388,197.499l-105.344-56.828L198,137.374l-73.336,14.625L56,205.327l-38,20.672l31.336,28.672
	L144,282.78c0,0,130.656-6.109,134-6.109s112.656-34.672,112.656-34.672l20-23.172L388,197.499z"/>
<path style="fill:#4FC2E9;" d="M275.078,208.171c0,34.094-27.641,61.734-61.742,61.734s-61.742-27.641-61.742-61.734
	c0-34.109,27.641-61.75,61.742-61.75S275.078,174.062,275.078,208.171z"/>
<path d="M501.344,218.78H421c-24.812-29.297-54.016-52.375-86.906-68.641c-30.156-14.922-62.75-23.828-96.844-26.516
	c-30.438-2.406-61.266,0.375-89.141,8.062c-25.992,7.156-48.586,18.469-63.609,31.875c-8.883,7.906-16.094,14.938-22.461,21.156
	c-18.711,18.25-29.023,28.297-53.906,34.375h0.008C3.469,220.249,0,224.437,0,229.452c0,3.531,1.719,6.656,4.367,8.594l-0.008,0.016
	l0.094,0.062c7.555,5.562,48.711,33.969,117.297,47.781c15.992,3.219,32.328,5.406,48.914,6.578v43.641
	c0,3.266,1.477,6.188,3.797,8.156h-0.008c0.141,0.109,14.094,13.375,28.68,58.969c0.016,0.031,0.023,0.062,0.031,0.094
	c0.008,0.016,0.008,0.031,0.008,0.031l0,0c1.375,4.297,5.406,7.406,10.164,7.406c5.891,0,10.664-4.766,10.664-10.656V292.765
	c0.055,0,0.102,0,0.156-0.016c27.562,51.531,59.797,90.938,95.938,117.25c40.438,29.438,72.938,32.734,85.047,32.781
	c0.141,0,0.297,0,0.422,0c20.609,0,38.016-6.484,50.344-18.781c11.719-11.641,18.438-28.328,18.438-45.75
	c0-12.562-4.906-24.375-13.781-33.281c-8.891-8.875-20.703-13.781-33.281-13.781c-21.906,0.016-39.75,17.844-39.75,39.781
	c0,9.062,3.531,17.594,9.938,24s14.938,9.938,24,9.938l0,0c15.906,0,28.891-12.75,29.281-28.562c0-0.219,0.031-0.438,0.031-0.656
	c0-5.906-4.781-10.672-10.672-10.672c-5.859,0-10.641,4.734-10.672,10.609l0,0c0,4.375-3.578,7.953-7.969,7.953
	c-3.375,0-6.531-1.312-8.906-3.703c-2.391-2.375-3.703-5.531-3.703-8.906c0-10.156,8.266-18.438,18.422-18.438
	c6.875,0,13.344,2.672,18.188,7.531c4.859,4.859,7.531,11.312,7.531,18.188c0,11.781-4.422,22.969-12.125,30.641
	c-8.438,8.406-20.438,12.609-35.641,12.562c-10.031-0.047-37.188-2.922-72.578-28.703c-31.656-23.031-60.281-57.281-85.281-101.969
	c1.312-0.156,2.625-0.297,3.938-0.453c54.438-6.578,110.625-23.453,167.078-50.203h82.953c5.875,0,10.656-4.781,10.656-10.672
	S507.219,218.78,501.344,218.78z M398.719,225.718c-47.562,21.469-94.75,35.641-140.594,42.188
	C276.266,254.28,288,232.593,288,208.155c0-25-12.281-47.125-31.156-60.672c23.688,3.922,46.406,11.203,67.812,21.781
	C352.297,182.937,377.156,201.89,398.719,225.718z M213.336,154.827c29.414,0,53.32,23.922,53.32,53.328
	s-23.906,53.344-53.32,53.344S160,237.562,160,208.155S183.922,154.827,213.336,154.827z M35.086,232.28
	c16.711-7.781,27.875-18.672,41.844-32.281c6.211-6.062,13.242-12.922,21.766-20.531c14.094-12.562,38.492-24.375,69.359-30.688
	c-17.859,13.656-29.391,35.172-29.391,59.375c0,26.578,13.883,49.906,34.789,63.141c-16.133-1.078-31.984-3.188-47.492-6.297
	C83.914,256.53,53.211,242.437,35.086,232.28z M202.664,347.437c-4.359-7.594-8.07-12.531-10.664-15.562v-38.454
	c2.453,0.047,4.906,0.078,7.367,0.078c1.102,0,2.203-0.031,3.297-0.031V347.437z"/>
<path d="M23.719,137.437L23.719,137.437l0.047-0.062C23.75,137.405,23.727,137.437,23.719,137.437z"/>
<path d="M484.281,134.39c-0.031-0.016-0.062-0.016-0.078-0.031c-0.031-0.016-0.047-0.016-0.078-0.047
	c-76.344-33.359-147.781-54.156-212.375-61.75c-52.18-6.156-100.086-3.797-142.391,7.031
	C56.898,98.124,25.625,135.124,23.718,137.437c-1.492,1.844-2.383,4.188-2.383,6.719c0,5.906,4.773,10.672,10.664,10.672
	c3.344,0,6.328-1.547,8.281-3.953c0.273-0.328,27.883-33.609,94.359-50.625c39.758-10.156,85.047-12.359,134.609-6.516
	c62.547,7.375,132.016,27.641,206.469,60.203c1.312,0.562,2.75,0.891,4.281,0.891c5.891,0,10.656-4.766,10.656-10.672
	C490.656,139.796,488.031,136.03,484.281,134.39z"/>
<path d="M213.336,218.827c5.891,0,10.664-4.766,10.664-10.672c0-5.875-4.773-10.656-10.664-10.656s-10.672,4.781-10.672,10.656
	C202.664,214.062,207.445,218.827,213.336,218.827z"/>
<g>
</g>
<g>
</g>
<g>
</g>
<g>
</g>
<g>
</g>
<g>
</g>
<g>
</g>
<g>
</g>
<g>
</g>
<g>
</g>
<g>
</g>
<g>
</g>
<g>
</g>
<g>
</g>
<g>
</g>
</svg>
