<?xml version="1.0" encoding="iso-8859-1"?>
<!-- Generator: Adobe Illustrator 19.0.0, SVG Export Plug-In . SVG Version: 6.00 Build 0)  -->
<svg version="1.1" id="Layer_1" xmlns="http://www.w3.org/2000/svg" xmlns:xlink="http://www.w3.org/1999/xlink" x="0px" y="0px"
	 viewBox="0 0 512 512" style="enable-background:new 0 0 512 512;" xml:space="preserve">
<circle style="fill:#E16B5A;" cx="256" cy="256" r="256"/>
<path style="fill:#D16354;" d="M163.428,494.672C192.148,505.82,223.344,512,256,512c120.632,0,221.72-83.464,248.808-195.772
	L440,158.364c0-4.404-3.6-6.364-8-6.364h-72l-15.944-34.588c0-4.4-3.656-9.412-8.056-9.412h-16h-36l-15.08-31.612
	c0-4.4-4.52-8.388-8.92-8.388h-12h-28c-4.4,0-8,3.6-8,8v2.048v2.048V108h-68c-4.4,0-8,3.6-8,8v2.048v2.048V124v2.048v2.048
	c0,2.504,1.728,4.688,4,6.132V136l8,20v2.832V412h-4c-4.4,0-8,3.6-8,8v2.048v2.048V432L163.428,494.672z"/>
<rect x="148" y="132" style="fill:#FFC066;" width="184" height="280"/>
<rect x="312" y="132" style="fill:#F2B661;" width="20" height="280"/>
<g>
	<rect x="188" y="132" style="fill:#FFD599;" width="20" height="280"/>
	<rect x="168" y="132" style="fill:#FFD599;" width="4" height="280"/>
</g>
<g>
	<path style="fill:#242424;" d="M344,420c0-4.4-3.6-8-8-8H144c-4.4,0-8,3.6-8,8v8c0,4.4,3.6,8,8,8h192c4.4,0,8-3.6,8-8V420z"/>
	<path style="fill:#242424;" d="M344,116c0-4.4-3.6-8-8-8H144c-4.4,0-8,3.6-8,8v8c0,4.4,3.6,8,8,8h192c4.4,0,8-3.6,8-8V116z"/>
</g>
<g>
	<path style="fill:#1A1A1A;" d="M336,108h-16c4.4,0,8,3.6,8,8v8c0,4.4-3.6,8-8,8h16c4.4,0,8-3.6,8-8v-8C344,111.6,340.4,108,336,108
		z"/>
	<path style="fill:#1A1A1A;" d="M336,412h-16c4.4,0,8,3.6,8,8v8c0,4.4-3.6,8-8,8h16c4.4,0,8-3.6,8-8v-8C344,415.6,340.4,412,336,412
		z"/>
</g>
<path style="fill:#242424;" d="M212,108V76c0-4.4,3.6-8,8-8h40c4.4,0,8,3.6,8,8v32H212z"/>
<path style="fill:#1A1A1A;" d="M260,68h-12c4.4,0,8,3.6,8,8v32h12V76C268,71.6,264.4,68,260,68z"/>
<path style="fill:#4D4D4D;" d="M432,152H332v240c0,0,26.332,0,36,0c1.832,0,3.864-2.244,4-4c2.556-32.964,31.172-60.96,64-64
	c2.084-0.192,4-3,4-8c0-37,0-156,0-156C440,155.6,436.4,152,432,152z M356,376h-16v-24h16V376z M356,192h-16v-24h16V192z M388,192
	h-16v-24h16V192z M420,192h-16v-24h16V192z"/>
<rect x="332" y="152" style="fill:#333333;" width="8" height="240"/>
<g>
</g>
<g>
</g>
<g>
</g>
<g>
</g>
<g>
</g>
<g>
</g>
<g>
</g>
<g>
</g>
<g>
</g>
<g>
</g>
<g>
</g>
<g>
</g>
<g>
</g>
<g>
</g>
<g>
</g>
</svg>
