<?xml version="1.0" encoding="iso-8859-1"?>
<!-- Generator: Adobe Illustrator 19.0.0, SVG Export Plug-In . SVG Version: 6.00 Build 0)  -->
<svg version="1.1" id="Layer_1" xmlns="http://www.w3.org/2000/svg" xmlns:xlink="http://www.w3.org/1999/xlink" x="0px" y="0px"
	 viewBox="0 0 512 512" style="enable-background:new 0 0 512 512;" xml:space="preserve">
<path style="fill:#F2F2F2;" d="M479.438,255.995l-41.481-41.481c-100.489-100.489-263.415-100.489-363.904,0l-41.481,41.481
	l41.481,41.481c100.489,100.489,263.415,100.489,363.904,0L479.438,255.995z"/>
<circle style="fill:#F95428;" cx="256" cy="256" r="85.607"/>
<path style="fill:#FFFFFF;" d="M323.224,249.143h-19.422c-3.018-21.154-19.791-37.925-40.945-40.945v-19.422h-13.703v19.422
	c-21.154,3.018-37.925,19.791-40.945,40.945h-19.422v13.703h19.422c3.018,21.154,19.791,37.927,40.945,40.945v19.422h13.703v-19.422
	c21.154-3.018,37.925-19.791,40.945-40.945h19.422V249.143z M289.908,249.143h-27.051v-27.051
	C276.441,224.833,287.167,235.559,289.908,249.143z M249.153,222.092v27.051h-27.051
	C224.843,235.559,235.569,224.833,249.153,222.092z M222.102,262.847h27.051v27.053
	C235.569,287.158,224.843,276.433,222.102,262.847z M262.857,289.899v-27.053h27.051
	C287.167,276.433,276.441,287.158,262.857,289.899z"/>
<g>
	<path style="fill:#4D4D4D;" d="M54.719,201.973c-1.916,0-3.833-0.732-5.293-2.197c-2.915-2.923-2.908-7.656,0.016-10.57
		c1.796-1.791,3.646-3.589,5.497-5.343c2.996-2.838,7.727-2.711,10.565,0.287c2.839,2.997,2.712,7.727-0.285,10.566
		c-1.759,1.666-3.515,3.373-5.222,5.075C58.537,201.247,56.628,201.973,54.719,201.973z"/>
	<path style="fill:#4D4D4D;" d="M98.638,166.049c-2.419,0-4.794-1.172-6.232-3.339c-2.285-3.438-1.35-8.077,2.089-10.362
		c4.097-2.723,8.32-5.377,12.55-7.888c3.554-2.108,8.135-0.936,10.242,2.612c2.107,3.55,0.938,8.136-2.612,10.242
		c-4.013,2.382-8.019,4.9-11.908,7.483C101.496,165.644,100.058,166.049,98.638,166.049z M413.322,166.014
		c-1.42,0-2.856-0.404-4.127-1.249c-3.887-2.582-7.892-5.098-11.903-7.477c-3.552-2.105-4.721-6.691-2.616-10.241
		c2.107-3.55,6.692-4.721,10.241-2.615c4.229,2.508,8.45,5.16,12.547,7.881c3.439,2.283,4.375,6.923,2.092,10.362
		C418.117,164.84,415.742,166.014,413.322,166.014z M155.276,137.014c-3.022,0-5.867-1.846-6.995-4.841
		c-1.456-3.863,0.495-8.175,4.358-9.63c4.604-1.735,9.314-3.373,14-4.87c3.925-1.254,8.138,0.913,9.394,4.846
		c1.256,3.933-0.913,8.138-4.847,9.394c-4.442,1.419-8.91,2.972-13.275,4.618C157.042,136.858,156.151,137.014,155.276,137.014z
		 M356.685,136.997c-0.876,0-1.765-0.156-2.634-0.482c-4.366-1.644-8.834-3.198-13.277-4.617c-3.933-1.256-6.103-5.461-4.848-9.393
		c1.256-3.934,5.469-6.1,9.393-4.847c4.688,1.496,9.398,3.134,14.002,4.868c3.863,1.455,5.815,5.767,4.36,9.63
		C362.552,135.149,359.707,136.997,356.685,136.997z M216.971,121.42c-3.68,0-6.886-2.719-7.397-6.468
		c-0.556-4.091,2.31-7.857,6.399-8.414c4.862-0.661,9.816-1.208,14.72-1.627c4.123-0.354,7.732,2.7,8.082,6.813
		c0.35,4.113-2.7,7.731-6.813,8.082c-4.657,0.397-9.359,0.917-13.976,1.545C217.646,121.398,217.306,121.42,216.971,121.42z
		 M294.98,121.413c-0.336,0-0.675-0.022-1.015-0.069c-4.618-0.628-9.322-1.146-13.983-1.542c-4.113-0.35-7.164-3.968-6.815-8.08
		c0.349-4.113,3.986-7.159,8.08-6.815c4.909,0.417,9.866,0.964,14.73,1.624c4.091,0.556,6.956,4.323,6.401,8.412
		C301.867,118.693,298.66,121.413,294.98,121.413z"/>
	<path style="fill:#4D4D4D;" d="M457.293,201.963c-1.908,0-3.816-0.726-5.274-2.179c-1.724-1.717-3.482-3.425-5.225-5.075
		c-2.999-2.838-3.129-7.568-0.29-10.566c2.838-2.998,7.572-3.128,10.565-0.29c1.837,1.738,3.687,3.535,5.5,5.342
		c2.925,2.914,2.934,7.646,0.021,10.57C461.128,201.23,459.21,201.963,457.293,201.963z"/>
</g>
<path style="fill:#F7B239;" d="M256.005,380.94c-70.895,0-137.546-27.608-187.677-77.739L21.12,255.994l47.209-47.207
	c50.13-50.13,116.781-77.739,187.676-77.739s137.546,27.608,187.677,77.739l47.207,47.207l-47.209,47.207
	C393.551,353.332,326.9,380.94,256.005,380.94z M44.023,255.995l35.755,35.755c47.072,47.072,109.656,72.996,176.226,72.996
	S385.16,338.822,432.23,291.75l35.757-35.755l-35.755-35.755c-47.072-47.072-109.656-72.995-176.226-72.995
	S126.85,173.168,79.78,220.24L44.023,255.995z"/>
<g>
	<polygon style="fill:#2BA5F7;" points="512,85.807 495.805,85.807 495.805,16.195 426.206,16.195 426.206,0 512,0 	"/>
	<polygon style="fill:#2BA5F7;" points="16.195,85.807 0,85.807 0,0 85.807,0 85.807,16.195 16.195,16.195 	"/>
	<polygon style="fill:#2BA5F7;" points="85.807,512 0,512 0,426.193 16.195,426.193 16.195,495.805 85.807,495.805 	"/>
	<polygon style="fill:#2BA5F7;" points="512,512 426.206,512 426.206,495.805 495.805,495.805 495.805,426.193 512,426.193 	"/>
</g>
<g>
</g>
<g>
</g>
<g>
</g>
<g>
</g>
<g>
</g>
<g>
</g>
<g>
</g>
<g>
</g>
<g>
</g>
<g>
</g>
<g>
</g>
<g>
</g>
<g>
</g>
<g>
</g>
<g>
</g>
</svg>
