<?xml version="1.0" encoding="iso-8859-1"?>
<!-- Generator: Adobe Illustrator 19.0.0, SVG Export Plug-In . SVG Version: 6.00 Build 0)  -->
<svg version="1.1" id="Layer_1" xmlns="http://www.w3.org/2000/svg" xmlns:xlink="http://www.w3.org/1999/xlink" x="0px" y="0px"
	 viewBox="0 0 512 512" style="enable-background:new 0 0 512 512;" xml:space="preserve">
<path style="fill:#AC92EC;" d="M320.662,258.781c0,33.498-29.545,60.654-65.998,60.654c-36.451,0-65.998-27.156-65.998-60.654
	c0-33.507,29.547-60.67,65.998-60.67C291.117,198.111,320.662,225.275,320.662,258.781z"/>
<path d="M501.313,238.336c-5.875,0-10.656,4.781-10.656,10.664c0,32.046-22.968,62.748-64.686,86.264
	c-43.624,24.607-101.872,38.17-164.011,38.17c-49.342,0-95.56-10.75-130.152-30.249c-32.671-18.437-50.654-42.249-50.654-67.091
	c0-19.063,13.999-37.453,39.437-51.796c23.546-13.289,53.951-21.421,86.919-23.437c-15.313,13.46-24.968,33.187-24.968,55.17
	c0,36.061,25.983,66.061,60.264,72.279c14.39,3.063,29.749,4.656,45.515,4.656c42.717,0,83.06-9.469,113.559-26.688
	c32.437-18.28,50.295-43.279,50.295-70.38c0-32.858-21.843-63.279-61.514-85.654c-37.748-21.28-87.685-33.007-140.636-33.007
	c-65.748,0-127.715,14.531-174.495,40.913c-23.265,13.132-41.64,28.538-54.592,45.803C7.109,222.408,0.063,242.353,0,262.844
	c0.109,5.797,4.844,10.531,10.672,10.531c5.813,0,10.547-4.688,10.656-10.469c0-32.046,22.968-62.647,64.686-86.17
	c43.639-24.616,101.872-38.163,164.011-38.163c49.342,0,95.56,10.742,130.151,30.249c32.672,18.429,50.655,42.249,50.655,67.076
	c0,19.07-13.999,37.46-39.437,51.803c-23.53,13.265-53.92,21.421-86.841,23.421c15.249-13.438,24.89-33.14,24.89-55.092
	c0-36.14-26.108-66.186-60.498-72.303c-14.328-3.031-29.593-4.695-45.28-4.695c-42.717,0-83.044,9.477-113.559,26.679
	C77.67,224.009,59.812,249,59.812,276.094c0,32.873,21.858,63.279,61.514,85.652c37.748,21.297,87.685,33.016,140.636,33.016
	c65.748,0,127.715-14.531,174.495-40.921c23.296-13.125,41.64-28.53,54.607-45.796C504.938,289.516,512,269.594,512,249
	C512,243.118,507.219,238.336,501.313,238.336z M255.992,203.917c28.734,0,52.108,23.382,52.108,52.116
	c0,28.749-23.374,52.123-52.108,52.123c-3.438,0-6.796-0.344-10.046-0.984c-0.203-0.047-0.422-0.078-0.625-0.141v0.031
	c-23.641-4.938-41.452-25.937-41.452-51.029C203.869,227.298,227.259,203.917,255.992,203.917z"/>
<g>
</g>
<g>
</g>
<g>
</g>
<g>
</g>
<g>
</g>
<g>
</g>
<g>
</g>
<g>
</g>
<g>
</g>
<g>
</g>
<g>
</g>
<g>
</g>
<g>
</g>
<g>
</g>
<g>
</g>
</svg>
