<?xml version="1.0" encoding="iso-8859-1"?>
<!-- Generator: Adobe Illustrator 19.0.0, SVG Export Plug-In . SVG Version: 6.00 Build 0)  -->
<svg version="1.1" id="Layer_1" xmlns="http://www.w3.org/2000/svg" xmlns:xlink="http://www.w3.org/1999/xlink" x="0px" y="0px"
	 viewBox="0 0 511.987 511.987" style="enable-background:new 0 0 511.987 511.987;" xml:space="preserve">
<path style="fill:#FFCE54;" d="M391.654,245.341c0,71.605-58.06,129.666-129.666,129.666c-71.607,0-129.667-58.061-129.667-129.666
	c0-71.607,58.06-129.668,129.667-129.668C333.595,115.673,391.654,173.733,391.654,245.341z"/>
<circle style="fill:#ED5564;" cx="255.993" cy="248.733" r="73.39"/>
<path style="fill:#FFCE54;" d="M274.488,242.497c0,9.671-7.828,17.499-17.5,17.499c-9.672,0-17.5-7.828-17.5-17.499
	c0-9.672,7.828-17.5,17.5-17.5C266.66,224.997,274.488,232.825,274.488,242.497z"/>
<path style="fill:#656D78;" d="M491.51,352.836c0,12.249-7.843,22.171-17.514,22.171c-9.672,0-17.516-9.922-17.516-22.171
	s7.844-22.187,17.516-22.187C483.667,330.649,491.51,340.587,491.51,352.836z"/>
<path d="M458.652,117.345c0,5.875,4.781,10.656,10.672,10.656s10.655-4.781,10.655-10.656c0-5.905-4.765-10.687-10.655-10.687
	S458.652,111.439,458.652,117.345z"/>
<path d="M458.652,96.002c0,5.891,4.781,10.656,10.672,10.656s10.655-4.766,10.655-10.656s-4.765-10.655-10.655-10.655
	S458.652,90.111,458.652,96.002z"/>
<path d="M458.652,160c0,5.89,4.781,10.655,10.672,10.655s10.655-4.766,10.655-10.655c0-5.891-4.765-10.656-10.655-10.656
	S458.652,154.109,458.652,160z"/>
<path d="M458.652,138.656c0,5.906,4.781,10.688,10.672,10.688s10.655-4.781,10.655-10.688c0-5.874-4.765-10.655-10.655-10.655
	S458.652,132.782,458.652,138.656z"/>
<path d="M458.652,74.659c0,5.906,4.781,10.688,10.672,10.688s10.655-4.781,10.655-10.688c0-5.875-4.765-10.656-10.655-10.656
	S458.652,68.784,458.652,74.659z"/>
<path d="M458.652,53.347c0,5.875,4.781,10.655,10.672,10.655s10.655-4.78,10.655-10.655c0-5.906-4.765-10.688-10.655-10.688
	S458.652,47.441,458.652,53.347z"/>
<path d="M459.308,28.364c-0.422,1.141-0.656,2.359-0.656,3.641c0,5.89,4.781,10.655,10.672,10.655s10.655-4.766,10.655-10.655
	c0-2.719-1.031-5.219-2.719-7.094c10.359-2.219,15.718-3.797,16.483-4.031c5.641-1.719,8.813-7.656,7.109-13.28
	c-1.703-5.641-7.641-8.828-13.28-7.141c-0.703,0.203-71.388,20.89-231.585,20.89c-160.182,0-230.882-20.687-231.569-20.89
	c-5.64-1.703-11.577,1.484-13.295,7.109c-1.703,5.655,1.483,11.593,7.124,13.312c1.438,0.438,19.266,5.688,56.42,10.938v469.497
	c0,5.891,4.781,10.672,10.672,10.672c5.89,0,10.655-4.781,10.655-10.672V447.99h319.988v53.325c0,5.891,4.781,10.672,10.671,10.672
	c5.891,0,10.672-4.781,10.672-10.672V351.992V31.817C445.59,30.661,452.918,29.473,459.308,28.364z M327.47,41.238l-14.608,77.638
	c-17.359-7.843-36.608-12.218-56.873-12.218c-20.14,0-39.296,4.344-56.576,12.093l-15.749-77.56
	c21.749,0.938,45.811,1.469,72.325,1.469C282.159,42.66,305.955,42.129,327.47,41.238z M255.988,128.001
	c64.701,0,117.34,52.623,117.34,117.34c0,64.685-52.639,117.308-117.34,117.308c-64.686,0-117.324-52.623-117.324-117.308
	C138.664,180.624,191.303,128.001,255.988,128.001z M415.982,426.645H95.994V34.536c18.374,2.125,40.187,4.093,65.67,5.562
	l18.171,89.435c-37.624,24.812-62.498,67.45-62.498,115.809c0,76.434,62.201,138.65,138.651,138.65
	c76.466,0,138.666-62.217,138.666-138.65c0-48.202-24.717-90.716-62.138-115.59l16.874-89.591
	c25.875-1.469,48.014-3.468,66.592-5.624V426.645z"/>
<path d="M255.988,330.649c47.061,0,85.34-38.279,85.34-85.309c0-47.062-38.279-85.341-85.34-85.341
	c-47.045,0-85.325,38.279-85.325,85.341C170.663,292.37,208.943,330.649,255.988,330.649z M255.988,181.343
	c35.295,0,63.998,28.687,63.998,63.998c0,35.279-28.703,63.997-63.998,63.997c-35.28,0-63.998-28.718-63.998-63.997
	C191.99,210.029,220.708,181.343,255.988,181.343z"/>
<path d="M255.988,277.339c17.656,0,31.999-14.374,31.999-31.998c0-17.656-14.343-32-31.999-32c-17.641,0-31.999,14.344-31.999,32
	C223.989,262.965,238.347,277.339,255.988,277.339z M255.988,234.653c5.891,0,10.672,4.797,10.672,10.688
	c0,5.874-4.781,10.655-10.672,10.655c-5.875,0-10.656-4.781-10.656-10.655C245.332,239.45,250.113,234.653,255.988,234.653z"/>
<path d="M479.979,321.837V181.343c0-5.906-4.765-10.688-10.655-10.688s-10.672,4.781-10.672,10.688v140.494
	c-12.422,4.391-21.327,16.25-21.327,30.155c0,17.64,14.343,31.999,31.999,31.999c17.64,0,31.998-14.359,31.998-31.999
	C501.322,338.087,492.4,326.227,479.979,321.837z M469.324,362.648c-5.891,0-10.672-4.781-10.672-10.656
	c0-5.874,4.781-10.655,10.672-10.655c5.875,0,10.655,4.781,10.655,10.655C479.979,357.867,475.199,362.648,469.324,362.648z"/>
<g>
</g>
<g>
</g>
<g>
</g>
<g>
</g>
<g>
</g>
<g>
</g>
<g>
</g>
<g>
</g>
<g>
</g>
<g>
</g>
<g>
</g>
<g>
</g>
<g>
</g>
<g>
</g>
<g>
</g>
</svg>
