<?xml version="1.0" encoding="iso-8859-1"?>
<!-- Generator: Adobe Illustrator 19.0.0, SVG Export Plug-In . SVG Version: 6.00 Build 0)  -->
<svg version="1.1" id="Layer_1" xmlns="http://www.w3.org/2000/svg" xmlns:xlink="http://www.w3.org/1999/xlink" x="0px" y="0px"
	 viewBox="0 0 512 512" style="enable-background:new 0 0 512 512;" xml:space="preserve">
<path style="fill:#FC6E51;" d="M438.5,315.828c0,100.797-81.719,182.5-182.5,182.5c-100.789,0-182.5-81.703-182.5-182.5
	c0-100.781,81.711-182.492,182.5-182.492C356.781,133.336,438.5,215.047,438.5,315.828z"/>
<g>
	<path style="fill:#424953;" d="M309.344,244.008c0,12.148-9.672,21.992-21.594,21.992c-11.938,0-21.609-9.844-21.609-21.992
		s9.672-21.992,21.609-21.992C299.672,222.016,309.344,231.859,309.344,244.008z"/>
	<path style="fill:#424953;" d="M218.945,362.672c0,15.156-12.063,27.422-26.938,27.422s-26.938-12.266-26.938-27.422
		s12.063-27.422,26.938-27.422S218.945,347.516,218.945,362.672z"/>
	<path style="fill:#424953;" d="M368.281,373.344c0,15.141-12.063,27.422-26.938,27.422s-26.938-12.281-26.938-27.422
		s12.063-27.422,26.938-27.422S368.281,358.203,368.281,373.344z"/>
</g>
<rect x="256" y="11.672" style="fill:#EC5564;" width="78" height="62.33"/>
<path d="M266.672,128.305V85.336h96l-21.328-42.672L362.672,0H245.344v128.305C144.266,133.836,64,217.539,64,320
	c0,106.031,85.969,192,192,192c106.047,0,192-85.969,192-192C448,217.539,367.75,133.836,266.672,128.305z M328.156,21.336
	l-5.891,11.789l-4.781,9.539l4.781,9.547L328.156,64h-61.484V21.336H328.156z M376.688,440.688
	c-15.688,15.672-33.938,27.984-54.25,36.578c-21.031,8.891-43.375,13.391-66.438,13.391c-23.047,0-45.391-4.5-66.422-13.391
	c-20.313-8.594-38.578-20.906-54.25-36.578C119.656,425,107.344,406.75,98.75,386.422C89.844,365.406,85.344,343.047,85.344,320
	s4.5-45.406,13.406-66.422c8.594-20.32,20.906-38.578,36.578-54.258s33.938-27.984,54.25-36.586
	c21.031-8.891,43.375-13.398,66.422-13.398c23.063,0,45.406,4.508,66.438,13.398c20.313,8.602,38.563,20.906,54.25,36.586
	s27.984,33.938,36.578,54.258c8.891,21.016,13.406,43.375,13.406,66.422s-4.516,45.406-13.406,66.422
	C404.672,406.75,392.375,425,376.688,440.688z"/>
<path d="M192,320c-23.563,0-42.656,19.094-42.656,42.656s19.094,42.688,42.656,42.688c23.578,0,42.672-19.125,42.672-42.688
	S215.578,320,192,320z M192,384c-11.75,0-21.328-9.563-21.328-21.344c0-11.75,9.578-21.313,21.328-21.313
	c11.766,0,21.344,9.563,21.344,21.313C213.344,374.438,203.766,384,192,384z"/>
<path d="M341.344,341.344c-17.672,0-32,14.313-32,32c0,17.656,14.328,32,32,32s32-14.344,32-32
	C373.344,355.656,359.016,341.344,341.344,341.344z M341.344,384c-5.891,0-10.672-4.781-10.672-10.656
	c0-5.891,4.781-10.688,10.672-10.688c5.875,0,10.656,4.797,10.656,10.688C352,379.219,347.219,384,341.344,384z"/>
<path d="M320,245.328c0-17.664-14.313-31.992-32-31.992c-17.672,0-32,14.328-32,31.992c0,17.688,14.328,32.016,32,32.016
	C305.688,277.344,320,263.016,320,245.328z M288,256c-5.875,0-10.656-4.797-10.656-10.672s4.781-10.664,10.656-10.664
	c5.891,0,10.672,4.789,10.672,10.664S293.891,256,288,256z"/>
<g>
</g>
<g>
</g>
<g>
</g>
<g>
</g>
<g>
</g>
<g>
</g>
<g>
</g>
<g>
</g>
<g>
</g>
<g>
</g>
<g>
</g>
<g>
</g>
<g>
</g>
<g>
</g>
<g>
</g>
</svg>
