<?xml version="1.0" encoding="iso-8859-1"?>
<!-- Generator: Adobe Illustrator 19.0.0, SVG Export Plug-In . SVG Version: 6.00 Build 0)  -->
<svg version="1.1" id="Layer_1" xmlns="http://www.w3.org/2000/svg" xmlns:xlink="http://www.w3.org/1999/xlink" x="0px" y="0px"
	 viewBox="0 0 511.98 511.98" style="enable-background:new 0 0 511.98 511.98;" xml:space="preserve">
<g>
	<polygon style="fill:#A0D468;" points="285.489,78.228 74.997,116.227 71.497,182.724 288.488,137.226 	"/>
	<path style="fill:#A0D468;" d="M71.497,322.281c0,16.844-13.655,30.515-30.499,30.515c-16.858,0-30.514-13.671-30.514-30.515
		c0-16.843,13.655-30.498,30.514-30.498C57.842,291.783,71.497,305.438,71.497,322.281z"/>
	<path style="fill:#A0D468;" d="M286.02,277.83c0,16.781-13.593,30.374-30.374,30.374s-30.374-13.593-30.374-30.374
		c0-16.78,13.593-30.373,30.374-30.373C272.427,247.457,286.02,261.05,286.02,277.83z"/>
</g>
<g>
	<path style="fill:#FFCE54;" d="M411.75,406.606c0,17.874-14.5,32.374-32.374,32.374c-17.89,0-32.39-14.5-32.39-32.374
		c0-17.89,14.5-32.39,32.39-32.39C397.25,374.217,411.75,388.717,411.75,406.606z"/>
	<polygon style="fill:#FFCE54;" points="415.484,208.723 418.484,289.22 497.48,244.222 	"/>
</g>
<path d="M506.074,235.785L420.75,193.13c-3.297-1.656-7.234-1.469-10.375,0.469s-5.063,5.375-5.063,9.062v48.248v37.093v80.387
	c-6.281-3.641-13.563-5.733-21.327-5.733c-23.53,0-42.655,19.124-42.655,42.654s19.125,42.655,42.655,42.655
	s42.67-19.125,42.67-42.655V294.58l79.419-39.702c3.609-1.813,5.906-5.499,5.906-9.546S509.683,237.597,506.074,235.785z
	 M383.985,426.652c-11.765,0-21.327-9.578-21.327-21.343c0-11.749,9.563-21.327,21.327-21.327s21.327,9.578,21.327,21.327
	C405.312,417.074,395.75,426.652,383.985,426.652z M426.655,270.736v-19.827v-30.983l50.795,25.406L426.655,270.736z"/>
<path d="M294.847,66.448c-2.469-2.031-5.719-2.844-8.843-2.234L72.653,106.259c-5,0.969-8.594,5.359-8.594,10.453v22.28v42.03
	v101.762c-6.296-3.656-13.608-5.781-21.405-5.781C19.124,277.003,0,296.159,0,319.673c0,23.516,19.124,42.671,42.654,42.671
	s42.655-19.155,42.655-42.671h0.078V189.786l191.945-37.811v88.122c-6.28-3.656-13.562-5.75-21.327-5.75
	c-23.53,0-42.671,19.14-42.671,42.654c0,23.531,19.141,42.67,42.671,42.67c23.515,0,42.654-19.139,42.654-42.67V140.148
	c0.047-0.391,0.078-0.766,0.078-1.156v-64.31C298.738,71.494,297.301,68.479,294.847,66.448z M42.654,341
	c-11.765,0-21.327-9.563-21.327-21.328s9.563-21.326,21.327-21.326c11.766,0,21.327,9.562,21.327,21.326
	C63.981,331.437,54.42,341,42.654,341z M85.387,138.991v-13.515L277.395,87.65v42.576L85.387,168.037V138.991z M256.006,298.345
	c-11.766,0-21.343-9.563-21.343-21.344c0-11.75,9.577-21.312,21.343-21.312c11.75,0,21.327,9.562,21.327,21.312
	C277.333,288.783,267.756,298.345,256.006,298.345z"/>
<g>
</g>
<g>
</g>
<g>
</g>
<g>
</g>
<g>
</g>
<g>
</g>
<g>
</g>
<g>
</g>
<g>
</g>
<g>
</g>
<g>
</g>
<g>
</g>
<g>
</g>
<g>
</g>
<g>
</g>
</svg>
