<?xml version="1.0" encoding="iso-8859-1"?>
<!-- Generator: Adobe Illustrator 19.0.0, SVG Export Plug-In . SVG Version: 6.00 Build 0)  -->
<svg version="1.1" id="Capa_1" xmlns="http://www.w3.org/2000/svg" xmlns:xlink="http://www.w3.org/1999/xlink" x="0px" y="0px"
	 viewBox="0 0 512.001 512.001" style="enable-background:new 0 0 512.001 512.001;" xml:space="preserve">
<g>
	<path style="fill:#FFCFB4;" d="M149.42,57.136c-3.212,0.526-6.418,1.156-9.613,1.702c-10.793,1.848-21.764,0.826-32.453,3.414
		c-6.139,1.487-10.036,6.69-15.735,8.798c-2.278,0.842-3.92,0.945-5.951,2.533c-2.486,1.945-4.489,4.486-6.826,6.6
		c-3.428,3.101-7.022,5.494-11.499,6.845c-8.792,2.653-18.154,3.689-27.246,4.688c-6.497,0.714-12.916-0.889-19.355,0.71
		c-7.488,1.86-9.799,10.368-11.674,16.878c-1.492,5.178-1.781,10.106-1.983,15.45c-0.187,4.941-1.102,9.868-0.726,14.806
		c0.77,10.107,0.065,20.141-1.073,30.206c-0.92,8.137-2.492,17.41-1.608,25.602c0.505,4.681,1.865,12.594,6.183,15.111
		c4.354,2.538,9.833,0.991,14.205-0.365c5.177-1.606,10.4-0.376,15.752-0.76c5.582-0.4,9.926-1.405,15.506-0.122
		c3.953,0.91,7.666,2.668,11.56,3.88c4.792,1.492,9.736,2.338,14.516,3.71c6.671,1.915,12.952,4.497,19.153,7.534
		c7.716,3.778,14.83,10.31,21.082,16.241c5.824,5.525,10.529,10.145,18.936,10.324c4.559,0.097,9.733-0.286,13.998-2.066
		c5.363-2.238,7.718-7.116,9.076-12.542c3.389-13.547-9.068-19.588-18.498-25.756c-4.167-2.726-10.4-6.641-11.641-11.911
		c-1.426-6.058,8.541-7.139,12.72-7.476c12.87-1.038,25.584,0.094,38.372-2.279c8.885-1.649,18.595-2.03,26.914-5.691
		c5.977-2.63,9.741-8.339,8.615-15.156c-0.56-3.393-2.733-7.124-5.632-8.993c-1.603-1.033-6.134-1.757-5.757-4.331
		c3.076-1.247,5.448-3.795,8.297-5.47c3.744-2.201,7.607-4.111,11.316-6.387c4.301-2.64,6.945-7.667,4.585-12.704
		c-2.526-5.393-8.661-5.113-13.685-6.032c-1.368-0.25-7.035-1.004-7.672-2.209c-0.975-1.847,1.856-4.455,2.81-5.531
		c3.574-4.03,8.774-9.443,8.266-15.294c-0.677-7.792-5.985-11.462-13.087-13.156c-4.418-1.054-13.124,0.651-15.449-3.682
		c-2.228-4.15-2.226-9.765-4.197-14.134c-3.093-6.856-12.122-11.062-18.857-12.88C163.85,55.296,156.619,55.957,149.42,57.136z"/>
	<path style="fill:#FFCFB4;" d="M363.224,454.013c3.212-0.526,6.418-1.155,9.613-1.702c10.793-1.848,21.764-0.826,32.453-3.414
		c6.139-1.487,10.037-6.69,15.735-8.797c2.278-0.843,3.92-0.945,5.951-2.534c2.486-1.945,4.489-4.486,6.826-6.6
		c3.428-3.1,7.022-5.494,11.499-6.845c8.792-2.653,18.154-3.689,27.246-4.688c6.497-0.714,12.916,0.889,19.355-0.71
		c7.488-1.86,9.799-10.368,11.674-16.878c1.492-5.178,1.781-10.106,1.983-15.45c0.187-4.941,1.102-9.868,0.725-14.806
		c-0.77-10.107-0.065-20.141,1.073-30.206c0.92-8.137,2.492-17.411,1.608-25.602c-0.505-4.681-1.865-12.594-6.183-15.111
		c-4.354-2.538-9.833-0.991-14.205,0.365c-5.177,1.606-10.4,0.376-15.752,0.76c-5.582,0.4-9.926,1.406-15.506,0.122
		c-3.953-0.909-7.666-2.668-11.56-3.88c-4.793-1.492-9.736-2.338-14.516-3.71c-6.671-1.915-12.953-4.497-19.153-7.533
		c-7.716-3.779-14.83-10.31-21.082-16.241c-5.824-5.525-10.529-10.145-18.936-10.324c-4.559-0.097-9.733,0.286-13.998,2.065
		c-5.363,2.238-7.719,7.116-9.076,12.542c-3.389,13.547,9.068,19.588,18.498,25.756c4.167,2.726,10.4,6.641,11.641,11.911
		c1.426,6.058-8.541,7.139-12.72,7.476c-12.87,1.038-25.584-0.093-38.372,2.28c-8.885,1.649-18.595,2.03-26.914,5.69
		c-5.977,2.63-9.741,8.339-8.615,15.156c0.56,3.393,2.733,7.124,5.632,8.993c1.603,1.033,6.134,1.757,5.757,4.331
		c-3.076,1.247-5.448,3.795-8.297,5.47c-3.744,2.201-7.607,4.111-11.316,6.387c-4.301,2.64-6.945,7.667-4.585,12.704
		c2.526,5.393,8.661,5.113,13.685,6.031c1.368,0.25,7.035,1.004,7.671,2.21c0.975,1.847-1.856,4.455-2.81,5.531
		c-3.575,4.03-8.774,9.443-8.266,15.294c0.677,7.792,5.985,11.461,13.087,13.155c4.418,1.054,13.123-0.651,15.449,3.682
		c2.228,4.15,2.226,9.765,4.197,14.134c3.093,6.856,12.122,11.062,18.857,12.879C348.793,455.853,356.025,455.192,363.224,454.013z"
		/>
</g>
<path style="fill:#71D182;" d="M72.579,306.744c-0.022,15.302-1.472,30.599-2.413,45.863c-0.625,10.13-1.861,20.29-1.143,30.45
	c0.325,4.593,1.063,9.061,1.074,13.681c0.012,4.828-0.509,9.665,0.148,14.475c0.903,6.609,2.807,13.318,5.048,19.576
	c2.324,6.487,4.947,16.002,12.652,18.106c6.24,1.704,13.737,1.16,20.151,1.107c10.736-0.089,21.299,0.279,32.034,0.923
	c22.452,1.348,44.735-1.37,67.171-0.078c12.178,0.701,24.589,0.147,36.739-1.32c11.977-1.447,23.849-0.227,35.899-1.138
	c10.455-0.79,19.749-2.288,30.205-0.824c4.464,0.625,10.654,2.566,15.038,2.124c-0.133-2.76-1.895-5.665-3.151-8.101
	c-1.547-3.003-2.221-5.426-2.98-8.728c-1.078-4.691-3.276-6.377-7.507-7.513c-4.622-1.24-10.103-0.312-14.135-3.377
	c-5.133-3.902-7.137-9.308-6.107-15.545c0.786-4.754,3.052-8.37,5.209-12.544c1.777-3.44,0.818-3.071-2.558-3.394
	c-3.855-0.369-10.695-2.217-12.913-5.544c-2.247-3.37-1.922-8.394,0.224-11.562c4.861-7.178,12.886-12.211,20.269-16.567
	c-1.139-3.124-5.553-4.456-7.526-7.248c-2.648-3.75-1.417-8.648,1.036-12.357c4.75-7.182,13.953-10.223,21.988-11.812
	c6.676-1.32,13.689-0.744,20.479-1.564c8.959-1.082,18.297-0.781,26.968-3.48c3.48-1.083,12.115-2.331,14.204-5.916
	c1.139-1.955-0.334-2.278-1.933-3.482c-5.333-4.017-10.827-7.789-15.637-12.6c-3.615-3.616-7.329-11.265-12.259-12.984
	c-4.721-1.646-11.022-0.272-15.88-0.049c-12.076,0.555-24.172,0.933-36.254,1.772c-8.552,0.594-17.08,1.133-25.626,1.921
	c-10.874,1.002-21.803,0.437-32.688,1.283c-10.479,0.814-20.991,1.367-31.481,1.859c-13.748,0.645-27.245-2.263-40.94-1.944
	c-14.046,0.327-28.164,3.217-42.193,2.257c-5.859-0.401-11.724-0.831-17.579-1.354c-5.385-0.48-10.961-1.448-16.276-0.319
	c-3.94,0.837-9.284,1.594-12.749,3.689C72.004,297.62,72.293,303.126,72.579,306.744z"/>
<path style="fill:#FFDC0F;" d="M439.107,205.853c0.022-15.302,1.472-30.599,2.413-45.863c0.625-10.13,1.861-20.29,1.143-30.45
	c-0.325-4.593-1.063-9.061-1.074-13.681c-0.012-4.828,0.509-9.665-0.148-14.475c-0.903-6.609-2.807-13.318-5.048-19.576
	c-2.324-6.487-4.947-16.002-12.652-18.106c-6.24-1.704-13.737-1.16-20.151-1.107c-10.736,0.089-21.299-0.279-32.034-0.923
	c-22.452-1.348-44.735,1.37-67.171,0.078c-12.178-0.701-24.589-0.147-36.739,1.32c-11.977,1.447-23.849,0.227-35.899,1.138
	c-10.455,0.79-19.749,2.288-30.205,0.824c-4.464-0.625-10.654-2.566-15.038-2.124c0.133,2.76,1.895,5.665,3.151,8.101
	c1.547,3.003,2.221,5.426,2.98,8.728c1.078,4.691,3.276,6.377,7.507,7.513c4.622,1.24,10.103,0.312,14.135,3.377
	c5.133,3.902,7.137,9.308,6.107,15.545c-0.786,4.754-3.052,8.37-5.209,12.545c-1.777,3.44-0.818,3.071,2.558,3.394
	c3.855,0.369,10.695,2.217,12.913,5.544c2.247,3.37,1.922,8.394-0.224,11.562c-4.861,7.178-12.886,12.211-20.269,16.567
	c1.139,3.124,5.554,4.456,7.526,7.249c2.648,3.75,1.417,8.648-1.036,12.357c-4.75,7.182-13.953,10.223-21.988,11.812
	c-6.676,1.32-13.689,0.744-20.479,1.564c-8.96,1.082-18.297,0.781-26.968,3.48c-3.48,1.083-12.115,2.331-14.204,5.917
	c-1.139,1.955,0.334,2.277,1.933,3.482c5.333,4.017,10.827,7.789,15.637,12.6c3.615,3.616,7.329,11.265,12.259,12.984
	c4.722,1.646,11.022,0.272,15.88,0.049c12.076-0.555,24.172-0.933,36.254-1.772c8.552-0.594,17.08-1.133,25.626-1.921
	c10.874-1.002,21.803-0.437,32.688-1.283c10.479-0.814,20.991-1.367,31.481-1.859c13.748-0.645,27.245,2.263,40.94,1.944
	c14.046-0.327,28.164-3.217,42.193-2.257c5.859,0.401,11.724,0.832,17.579,1.354c5.385,0.48,10.961,1.448,16.276,0.319
	c3.94-0.837,9.284-1.594,12.749-3.689C439.682,214.978,439.393,209.472,439.107,205.853z"/>
<path style="fill:#14DDF7;" d="M342.572,89.155c-3.286,10.341-9.814,20.194-14.588,29.968
	c-5.082,10.404-10.168,20.869-15.435,31.123c-2.522,4.91-4.715,9.969-7.418,14.809c-1.877,3.361-4.799,6.897-5.005,10.787
	c-0.468,8.809,10.936,11.93,17.169,14.639c5.214,2.266,9.771,4.968,15.309,6.621c8.432,2.518,16.317,4.918,24.636,0.429
	c5.214-2.814,9.86-6.907,15.015-9.899c5.217-3.028,10.526-6.06,15.388-9.613c5.068-3.703,6.935-4.589,8.193-10.85
	c1.232-6.129-3.755-14.272-6.815-19.326c-4.861-8.031-10.638-15.546-15.299-23.72c-4.145-7.27-9.799-13.476-14.549-20.329
	c-3.843-5.545-4.649-11.575-10.485-15.782C343.947,84.594,344.048,84.38,342.572,89.155z"/>
<g>
	<path style="fill:#00AA79;" d="M209,330.383c-6.556,5.246-13.399,12.296-16.695,20.222c-3.509,8.436-7.096,18.992-5.532,28.245
		c0.495,2.932,1.467,5.877,2.077,8.82c0.622,2.999,1.387,6.877,2.834,9.585c2.046,3.829,5.003,7.155,9.042,8.957
		c8.051,3.591,17.816,4.842,26.508,3.638c9-1.247,20.005-5.939,25.171-13.827c7.245-11.063,10.765-25.975,8.12-39.04
		c-1.407-6.948-4.794-15.232-8.98-20.949c-2.576-3.519-7.055-5.724-11.049-7.337C231.417,325.028,216.308,321.771,209,330.383z"/>
	<path style="fill:#00AA79;" d="M93.37,409.273c-1.298,4.956-1.169,11.845,1.069,16.518c1.788,3.735,4.866,4.197,8.552,4.55
		c8.317,0.798,16.538,2.256,24.777,2.285c3.821,0.014,7.372-0.689,11.171-0.854c4.326-0.189,5.887,0.268,6.536-4.473
		c0.939-6.866,1.211-20.809-7.953-22.29c-8.973-1.45-17.679,0.853-26.695,0.283C105.045,404.927,90.989,403.645,93.37,409.273z"/>
</g>
<path d="M145.969,255.94c12.297,0.322,21.18-6.878,21.618-19.348c0.062-1.76-0.043-3.457-0.269-5.102
	c19.233-0.227,38.299-2.282,57.588-2.225c24.037,0.07,48.033-1.903,72.072-2.228c25.931-0.35,51.917-1.121,77.847-0.578
	c10.694,0.224,21.408,0.752,32.105,0.405c8.339-0.271,21.484,1.665,29.004-2.927c5.832-3.561,6.844-10.037,7.494-16.134
	c1.276-11.976,1.342-24.024,1.637-36.047c0.603-24.618,1.973-49.05-0.938-73.628c-1.752-14.795-1.948-39.464-20.846-41.569
	c-25.176-2.804-51.828-0.397-77.179-0.379c-30.624,0.021-61.347-0.237-91.951,0.978c-13.362,0.53-26.671-0.215-40.034,0.231
	c-11.313,0.378-24.309-2.303-35.332,0.552c-12.159-4.678-27.995-5.117-38.779-4.534c-14.356,0.776-28.603,2.542-41.863,8.396
	C83.535,68.252,76.679,85.082,60.124,86.69c-13.964,1.357-30.991-3.452-44.235,2.086C5.749,93.015,5.045,107.564,3.88,117.015
	c-3.198,25.955-4.264,53.091-3.762,79.241c0.195,10.185,2.238,22.113,14.005,22.94c0.138,0.016,0.276,0.023,0.417,0.022
	c0.349,0.016,0.675,0.059,1.04,0.056c6.984-0.056,14.144-2.611,21.025-3.908c9.376-1.34,18.89-1.965,27.584-0.452
	c17.236,3,33.034,12.204,46.1,23.374C120.671,247.163,131.659,255.565,145.969,255.94z M205.865,66.474
	c10.665,0.484,21.39,0.199,32.071,0.586c23.281,0.844,46.735-0.755,70.037-0.805c23.886-0.051,47.772,0.04,71.657,0.06
	c11.673,0.01,23.345,0.023,35.018,0.006c5.111-0.008,10.544,0.284,13.911,5.033c3.473,4.899,3.956,16.815,4.748,22.632
	c2.925,21.473,3.372,43.846,1.887,65.447c-0.691,10.053-0.845,20.206-0.926,30.267c-0.072,8.798,1.708,25.434-9.439,26.285
	c-20.638,1.576-41.563,0.113-62.238-0.029c-22.581-0.156-45.207,0.358-67.789,0.701c-24.011,0.365-47.964,2.251-71.976,2.156
	c-19.693-0.078-39.129,2.258-58.783,2.255c-0.113,0-0.21,0.026-0.32,0.032c-2.914-5.018-7.293-9.238-12.592-12.595
	c-3.02-1.913-6.422-3.122-9.576-4.777c-0.858-0.45-2.268-0.861-2.943-1.545c-2.212-2.239-2.712,0.069-0.372-2.17
	c1.895-1.813,7.917-1.769,10.285-2.123c6.01-0.897,12.043-1.594,18.093-2.145c13.829-1.26,73.505-4.52,58.672-31.982
	c-1.921-3.557-4.762-6.245-8.112-8.293c3.143-0.782,6.134-1.833,8.844-3.233c9.156-4.732,20.757-20.34,8.578-28.336
	c-4.505-2.958-10.048-4.657-15.966-5.635c2.982-2.23,5.506-4.89,7.066-7.471c6.256-10.349,1.351-21.308-9.257-26.005
	c-5.951-2.635-12.881-3.629-19.996-3.834c0.182-6.97-2.325-12.243-6.455-16.229C195.347,65.263,200.785,66.243,205.865,66.474z
	 M46.542,205.167c-1.666-0.063-3.32-0.091-4.942-0.054c-6.84,0.158-14.494,3.757-21.11,3.181
	c-14.772-1.285-10.336-24.212-10.305-35.308c0.035-12.345,1.783-24.636,2.315-36.979c0.313-7.27,0.605-14.609,1.668-21.812
	c1.3-8.804,3.159-16.329,13.386-16.902c13.824-0.775,29.642,2.616,43.035-2.057c11.64-4.061,17.177-16.483,27.496-22.456
	c13.902-8.048,32.455-9.399,48.196-9.357c16.023,0.043,36.167,1.221,42.71,17.572c-6.625,0.224-13.177,0.867-19.023,1.266
	c-19.319,1.32-37.336,3.96-56.134,8.506c-2.18,0.527-1.643,3.771,0.518,3.829c22.074,0.591,44.08-2.311,66.151-2.5
	c8.961-0.077,23.171-2.49,31.292,2.029c7.057,3.926,6.178,15.084,0.104,19.058c-7.62,4.984-17.494,3.985-26.148,4.024
	c-10.051,0.046-20.245,1.356-30.246,2.367c-10.337,1.045-21.297,0.71-31.117,4.383c-3.119,1.167-2.834,6.001,0.817,6.031
	c27.114,0.229,54.02-3.966,81.128-2.082c4.974,0.346,14.804,0.314,19.296,3.393c8.94,6.126-4.575,13.78-10.491,15.63
	c-4.75,1.486-9.684,2.298-14.655,2.966c-3.006-0.497-5.968-0.824-8.706-1.065c-18.719-1.646-39.311,1.133-57.672,4.852
	c-3.441,0.697-2.538,5.918,0.809,5.979c18.175,0.331,36.625-2.672,54.766-1.127c6.804,0.579,33.81,2.905,22.349,17.698
	c-4.512,5.825-22.031,7.126-28.95,7.897c-15.469,1.722-33.503,0.551-48.243,6.027c-9.148,3.399-12.911,11.889-4.763,18.705
	c4.656,3.895,10.782,5.346,15.808,8.626c3.272,2.136,7.726,5.803,9.559,9.378c5.458,10.644-2.107,20.499-13.96,18.29
	c-17.935-3.342-29.749-21.03-45.618-29.106C80.634,208.3,63.49,204.339,46.542,205.167z"/>
<path d="M511.882,315.744c-0.195-10.185-2.238-22.113-14.005-22.94c-0.138-0.016-0.276-0.023-0.417-0.022
	c-0.349-0.016-0.675-0.059-1.04-0.056c-6.984,0.056-14.144,2.611-21.025,3.907c-9.376,1.34-18.89,1.966-27.584,0.453
	c-17.236-3-33.034-12.204-46.1-23.374c-10.382-8.875-21.37-17.277-35.679-17.652c-12.297-0.323-21.18,6.878-21.618,19.348
	c-0.062,1.76,0.043,3.457,0.269,5.102c-19.233,0.227-38.299,2.282-57.588,2.225c-24.037-0.07-48.033,1.903-72.072,2.228
	c-25.932,0.35-51.917,1.121-77.847,0.578c-10.694-0.224-21.407-0.752-32.105-0.405c-8.339,0.271-21.484-1.665-29.004,2.927
	c-5.832,3.561-6.844,10.037-7.494,16.134c-1.276,11.975-1.342,24.024-1.637,36.047c-0.603,24.617-1.972,49.05,0.938,73.628
	c1.752,14.795,1.948,39.464,20.846,41.569c25.176,2.804,51.828,0.397,77.179,0.379c30.624-0.021,61.347,0.237,91.951-0.978
	c13.362-0.53,26.671,0.216,40.034-0.231c11.313-0.378,24.309,2.303,35.332-0.552c12.159,4.678,27.995,5.117,38.779,4.534
	c14.356-0.776,28.603-2.542,41.863-8.396c14.608-6.449,21.464-23.279,38.019-24.887c13.964-1.357,30.991,3.452,44.235-2.086
	c10.139-4.239,10.844-18.789,12.008-28.239C511.318,369.031,512.384,341.895,511.882,315.744z M306.135,445.527
	c-10.665-0.484-21.39-0.199-32.071-0.586c-23.281-0.844-46.735,0.755-70.037,0.805c-23.886,0.051-47.772-0.04-71.657-0.06
	c-11.673-0.01-23.345-0.023-35.018-0.006c-5.111,0.008-10.544-0.284-13.911-5.033c-3.473-4.899-3.955-16.816-4.748-22.632
	c-2.925-21.473-3.371-43.846-1.887-65.447c0.691-10.053,0.845-20.205,0.926-30.267c0.072-8.798-1.708-25.434,9.439-26.285
	c20.638-1.576,41.563-0.113,62.238,0.029c22.581,0.156,45.208-0.358,67.789-0.701c24.011-0.365,47.964-2.251,71.976-2.156
	c19.693,0.078,39.129-2.258,58.783-2.254c0.113,0,0.21-0.026,0.32-0.032c2.914,5.018,7.293,9.238,12.592,12.595
	c3.02,1.913,6.422,3.122,9.577,4.777c0.858,0.45,2.268,0.861,2.943,1.545c2.212,2.239,2.712-0.069,0.372,2.17
	c-1.895,1.813-7.917,1.769-10.285,2.123c-6.01,0.897-12.043,1.594-18.093,2.145c-13.828,1.26-73.505,4.52-58.672,31.982
	c1.921,3.557,4.762,6.245,8.112,8.293c-3.143,0.782-6.134,1.833-8.844,3.233c-9.155,4.732-20.757,20.34-8.578,28.336
	c4.505,2.958,10.048,4.657,15.966,5.635c-2.982,2.23-5.506,4.89-7.066,7.471c-6.256,10.349-1.351,21.308,9.257,26.005
	c5.951,2.636,12.881,3.63,19.996,3.835c-0.182,6.97,2.325,12.243,6.455,16.229C316.653,446.737,311.215,445.757,306.135,445.527z
	 M501.814,339.014c-0.035,12.345-1.783,24.636-2.315,36.979c-0.313,7.27-0.605,14.609-1.668,21.812
	c-1.3,8.804-3.159,16.329-13.386,16.902c-13.824,0.775-29.642-2.616-43.035,2.057c-11.64,4.061-17.177,16.483-27.496,22.456
	c-13.902,8.048-32.455,9.399-48.196,9.357c-16.023-0.043-36.167-1.221-42.71-17.573c6.625-0.224,13.177-0.866,19.023-1.266
	c19.319-1.32,37.336-3.96,56.134-8.506c2.18-0.527,1.643-3.771-0.518-3.829c-22.074-0.591-44.08,2.311-66.151,2.5
	c-8.961,0.077-23.171,2.49-31.292-2.029c-3.896-2.167-5.719-8.461-4.699-12.589c2.916-11.798,21.986-10.453,30.743-10.493
	c10.051-0.045,20.245-1.356,30.246-2.367c10.337-1.045,21.297-0.71,31.117-4.383c3.119-1.167,2.834-6.001-0.817-6.031
	c-27.114-0.229-54.02,3.966-81.128,2.082c-4.974-0.346-14.804-0.314-19.296-3.393c-8.94-6.126,4.575-13.78,10.491-15.63
	c4.75-1.486,9.684-2.298,14.655-2.966c3.006,0.497,5.968,0.824,8.707,1.065c18.719,1.646,39.311-1.133,57.672-4.852
	c3.441-0.697,2.538-5.918-0.809-5.979c-18.175-0.331-36.625,2.672-54.766,1.127c-6.804-0.579-33.81-2.905-22.349-17.698
	c4.512-5.825,22.031-7.126,28.95-7.897c15.469-1.722,33.503-0.551,48.243-6.027c9.148-3.399,12.911-11.889,4.763-18.705
	c-4.656-3.896-10.782-5.346-15.808-8.626c-3.272-2.136-7.726-5.803-9.559-9.378c-5.458-10.644,2.107-20.499,13.96-18.29
	c17.935,3.342,29.749,21.03,45.618,29.106c15.228,7.749,32.371,11.71,49.319,10.882c1.666,0.063,3.32,0.091,4.942,0.054
	c6.84-0.159,14.494-3.757,21.11-3.181C506.282,304.991,501.846,327.918,501.814,339.014z"/>
<path d="M240.225,326.256c-33.405-17.922-59.564,24.907-56.327,53.892c2.639,23.634,26.807,39.022,49.311,32.293
	c22.255-6.654,34.815-34.135,29.102-55.659C258.98,344.233,251.82,332.477,240.225,326.256z M230.026,406.833
	c-24.007,5.973-42.034-14.899-40.069-37.842c1.98-23.121,20.986-51.517,46.933-37.028c9.91,5.534,16.273,15.643,19.068,26.57
	C260.658,376.909,249.883,401.893,230.026,406.833z"/>
<path d="M143.125,405.55c-6.515-4.622-19.454-1.431-26.995-1.431c-5.995,0-15.709-1.676-21.314,1.571
	c-0.726,0.421-1.299,0.966-1.795,1.557c-0.033,0.038-0.07,0.071-0.099,0.117c-3.771,4.724-2.623,18.872,0.332,23.731
	c4.289,7.055,18.256,4.896,25.028,4.919c7.137,0.024,18.382,1.106,25.133-1.827c5.906-2.565,6.139-7.621,5.7-13.449
	C148.703,415.265,147.999,409.008,143.125,405.55z M143.049,423.913c-2.381,8.188-22.067,6.257-28.807,6.075
	c-7.464-0.201-18.008-1.656-18.279-11.021c-0.355-12.243,14.131-8.37,21.983-8.369c4.322,0,9.339-0.836,13.567-0.353
	C137.778,410.962,145.254,416.329,143.049,423.913z"/>
<path d="M93.632,312.249c7.524,3.022,15.309,2.273,23.211,2.212c8.741-0.067,17.495,0.137,26.236,0.159
	c17.374,0.045,35.082-1.092,52.211-4.15c2.395-0.428,1.513-3.685-0.53-3.916c-8.467-0.956-17.192,0.989-25.723,1.296
	c-8.655,0.312-17.302,0.786-25.957,0.78c-16.308-0.01-32.693-0.385-48.95-0.053C91.899,308.623,91.749,311.493,93.632,312.249z"/>
<path d="M179.786,321.364c-7.23-0.956-14.678,0.988-21.963,1.296c-7.39,0.312-14.773,0.786-22.163,0.78
	c-13.924-0.01-27.914-0.384-41.794-0.053c-1.903,0.045-2.032,2.915-0.424,3.671c6.424,3.022,13.071,2.273,19.818,2.213
	c7.463-0.067,14.937,0.137,22.4,0.159c14.834,0.045,29.954-1.092,44.579-4.15C182.284,324.853,181.531,321.595,179.786,321.364z"/>
<path d="M257.796,308.157c12.904,1.612,26.219,0.843,39.199,1.004c14.428,0.18,30.354,1.188,44.46-2.228
	c1.738-0.421,1.826-3.239,0-3.604c-14.083-2.819-30.072-0.4-44.46-0.712c-13.179-0.286-26.096,0.133-39.199,1.767
	C255.375,304.685,255.37,307.854,257.796,308.157z"/>
<path d="M307.009,190.682c8.481,2.952,16.986,5.892,25.516,8.714c4.612,1.526,12.405,5.862,17.483,5.106
	c6.612-0.984,14.021-7.54,19.645-10.758c7.694-4.402,15.556-8.573,23.207-13.027c11.059-6.438,10.612-13.49,4.141-24.419
	c-8.395-14.178-18.073-27.607-26.048-42.066c-5.667-10.273-10.979-20.994-18.741-29.898c-4.57-5.241-7.864-6.981-10.899,0.312
	c-2.419,5.811-4.522,11.723-7.483,17.296c-4,7.528-8.543,14.77-12.569,22.289c-9.129,17.05-19.557,34.976-26.172,53.156
	C291.64,186.865,299.388,188.03,307.009,190.682z M346.645,110.83c0.251-6.438,0.135-13.938,1.129-20.774
	c5.598,7.002,10.106,15.28,14.418,22.85c6.629,11.639,13.332,23.214,20.638,34.46c2.692,4.143,5.603,8.224,8.089,12.487
	c4.783,8.201,3.714,11.788-4.393,16.229c-5.61,3.074-11.162,6.218-16.712,9.409c-5.732,3.295-13.925,10.214-20.464,11.1
	c-0.295,0.04-0.614,0.02-0.92,0.032c-1.298-18.171-2.079-36.07-2.448-54.339C345.77,131.794,346.235,121.32,346.645,110.83z
	 M303.765,173.764c1.675-5.816,5.407-10.68,7.838-16.145c5.734-12.888,11.961-25.613,18.531-38.098
	c3.619-6.879,7.477-13.594,10.645-20.696c-0.06,2.229-0.115,4.422-0.231,6.507c-0.6,10.753-1.311,21.729-1.181,32.49
	c0.234,19.329,1.051,38.391,2.252,57.629c-3.304-1.058-6.633-2.543-9.36-3.427c-5.924-1.919-11.774-4.034-17.696-5.961
	C307.419,183.737,301.243,182.521,303.765,173.764z"/>
<g>
</g>
<g>
</g>
<g>
</g>
<g>
</g>
<g>
</g>
<g>
</g>
<g>
</g>
<g>
</g>
<g>
</g>
<g>
</g>
<g>
</g>
<g>
</g>
<g>
</g>
<g>
</g>
<g>
</g>
</svg>
