<?xml version="1.0" encoding="iso-8859-1"?>
<!-- Generator: Adobe Illustrator 19.0.0, SVG Export Plug-In . SVG Version: 6.00 Build 0)  -->
<svg version="1.1" id="Layer_1" xmlns="http://www.w3.org/2000/svg" xmlns:xlink="http://www.w3.org/1999/xlink" x="0px" y="0px"
	 viewBox="0 0 512 512" style="enable-background:new 0 0 512 512;" xml:space="preserve">
<g>
	<polygon style="fill:#2BA5F7;" points="372.824,49.726 372.824,188.35 203.229,188.35 203.229,49.726 245.624,49.726 	"/>
	<path style="fill:#2BA5F7;" d="M409.456,0v73.264h-36.632H262.916V0h59.178H409.456z"/>
</g>
<rect x="286.451" y="23.538" style="fill:#F7B239;" width="99.465" height="26.189"/>
<path style="fill:#2197D8;" d="M262.916,0v73.264h-36.632V188.35h-50.717V29.385C175.567,13.156,188.723,0,204.94,0H262.916z"/>
<polygon style="fill:#808080;" points="146.69,153.576 146.69,214.997 132.147,214.997 55.625,214.997 55.625,153.576 "/>
<path style="fill:#2197D8;" d="M53.264,187.475h107.28c-14.704,0.232-26.666,12.603-26.434,27.317l4.263,271.206
	c0.232,14.704,12.347,26.228,27.05,25.998H47.302c-14.716,0.232-27.177-9.432-27.408-24.136l-4.263-271.206
	C15.4,201.939,27.4,187.706,42.115,187.475L53.264,187.475L53.264,187.475z"/>
<g>
	<path style="fill:#2BA5F7;" d="M454.871,282.76c25.061,17.133,41.5,45.948,41.5,78.615c0,32.655-16.439,61.47-41.5,78.615v0.012
		c-15.287,10.456-33.783,16.575-53.703,16.575c-33.039,0-62.164-16.836-79.235-42.405c-10.084-15.114-15.968-33.262-15.968-52.798
		c0-19.536,5.884-37.697,15.968-52.798c17.071-25.569,46.196-42.405,79.235-42.405C421.089,266.173,439.584,272.292,454.871,282.76z
		"/>
	<path style="fill:#2BA5F7;" d="M438.911,485.362c0,14.705-11.93,26.635-26.647,26.635H146.922h-30.735
		c-14.705,0-26.635-11.93-26.635-26.635V214.122c0-14.717,11.93-26.647,26.635-26.647h14.544h26.052h2.825h50.717h146.54h55.4
		c14.717,0,26.647,11.93,26.647,26.647V485.362z"/>
</g>
<path style="fill:#2197D8;" d="M401.168,294.48c36.88,0,66.896,30.004,66.896,66.896c0,36.88-30.017,66.896-66.896,66.896
	c-5.451,0-10.741-0.657-15.82-1.895v-0.012c29.273-7.123,29.463-39.886,29.463-71.315c0-31.441-0.19-51.551-29.463-58.674
	C390.428,295.136,395.718,294.48,401.168,294.48z"/>
<path style="fill:#FFFFFF;" d="M368.756,314.775c21.171,0,46.056,19.103,46.056,40.274s-20.054,57.744-41.225,57.744
	c-5.959,0-24.622-14.389-29.639-16.817c-0.012,0-0.012,0-0.012,0c-6.12-10.096-9.663-21.952-9.663-34.6
	c0-12.661,3.543-24.516,9.663-34.613c0,0,0,0,0.012,0C348.965,324.335,362.797,314.775,368.756,314.775z"/>
<path style="fill:#9CD1EF;" d="M385.349,296.375c29.273,7.123,51.077,33.56,51.077,65.001c0,31.429-21.803,57.865-51.077,64.988
	v0.012c-17.492-4.249-32.308-15.398-41.401-30.401c5.017,2.428,10.654,3.791,16.613,3.791c21.171,0,38.403-17.22,38.403-38.391
	c0-21.171-17.232-38.403-38.403-38.403c-5.959,0-11.595,1.363-16.613,3.791C353.04,311.773,367.857,300.624,385.349,296.375z"/>
<path style="fill:#2197D8;" d="M336.031,430.799c17.034,15.993,39.952,25.78,65.137,25.78H296.587
	c-25.198,0-48.103-9.787-65.125-25.78c-4.794-4.484-9.118-9.465-12.896-14.866c-0.384-0.545-0.768-1.09-1.14-1.648
	c-8.833-13.206-14.469-28.741-15.758-45.477c-0.186-2.453-0.285-4.931-0.285-7.433c0-2.502,0.099-4.98,0.285-7.433
	c1.288-16.749,6.925-32.284,15.758-45.477c0.372-0.557,0.756-1.103,1.14-1.648c3.778-5.401,8.102-10.381,12.896-14.866
	c17.021-15.993,39.927-25.78,65.125-25.78h104.581c-25.185,0-48.103,9.787-65.137,25.78c-4.794,4.485-9.118,9.465-12.884,14.866
	c-0.421,0.582-0.818,1.165-1.214,1.759c-8.796,13.169-14.395,28.666-15.683,45.366c-0.186,2.453-0.285,4.931-0.285,7.433
	c0,2.502,0.099,4.98,0.285,7.433c1.288,16.699,6.888,32.185,15.683,45.366c0.396,0.595,0.793,1.177,1.214,1.759
	C326.914,421.335,331.237,426.315,336.031,430.799z"/>
<rect x="148.558" y="213.82" style="fill:#F7B239;" width="61.26" height="40.125"/>
<rect x="188.362" y="213.82" style="fill:#E09B2D;" width="21.456" height="40.125"/>
<g>
	<path style="fill:#1D8EBF;" d="M336.031,291.952c-4.794,4.485-9.118,9.465-12.884,14.866H218.567
		c3.778-5.401,8.102-10.381,12.896-14.866H336.031z"/>
	<path style="fill:#1D8EBF;" d="M323.148,415.933H218.567c3.778,5.401,8.102,10.381,12.896,14.866h104.569L323.148,415.933z"/>
	<path style="fill:#1D8EBF;" d="M305.965,361.376c0,2.502,0.099,4.98,0.285,7.433H201.669c-0.186-2.453-0.285-4.931-0.285-7.433
		c0-2.502,0.099-4.98,0.285-7.433H306.25C306.064,356.396,305.965,358.873,305.965,361.376z"/>
</g>
<circle style="fill:#F7B239;" cx="180.26" cy="454.151" r="11.562"/>
<g>
</g>
<g>
</g>
<g>
</g>
<g>
</g>
<g>
</g>
<g>
</g>
<g>
</g>
<g>
</g>
<g>
</g>
<g>
</g>
<g>
</g>
<g>
</g>
<g>
</g>
<g>
</g>
<g>
</g>
</svg>
