<?xml version="1.0" encoding="iso-8859-1"?>
<!-- Generator: Adobe Illustrator 19.0.0, SVG Export Plug-In . SVG Version: 6.00 Build 0)  -->
<svg version="1.1" id="Layer_1" xmlns="http://www.w3.org/2000/svg" xmlns:xlink="http://www.w3.org/1999/xlink" x="0px" y="0px"
	 viewBox="0 0 512 512" style="enable-background:new 0 0 512 512;" xml:space="preserve">
<g>
	<rect x="19.328" y="86.55" style="fill:#AAB2BC;" width="64" height="36.12"/>
	<rect x="119.33" y="85.48" style="fill:#AAB2BC;" width="85.67" height="36.12"/>
</g>
<polygon style="fill:#E6E9ED;" points="494.672,162.422 15.328,162.422 15.328,136.25 235.359,136.25 241.672,75.219 
	498.328,78.891 "/>
<rect x="394.67" y="103.55" style="fill:#4FC2E9;" width="75.33" height="35.672"/>
<rect x="15.328" y="405.72" style="fill:#E6E9ED;" width="479.34" height="26.17"/>
<rect x="15.328" y="172.55" style="fill:#434A54;" width="488" height="240"/>
<path style="fill:#5D9CEC;" d="M439.5,288.469c0,64.75-52.5,117.25-117.25,117.25S205,353.219,205,288.469
	s52.5-117.25,117.25-117.25S439.5,223.719,439.5,288.469z"/>
<path d="M490.656,64H245.344C233.562,64,224,73.562,224,85.344v32h-10.656v-32c0-5.906-4.781-10.672-10.688-10.672h-85.312
	c-5.906,0-10.688,4.766-10.688,10.672v32H96v-32c0-5.906-4.781-10.672-10.656-10.672h-64c-5.906,0-10.688,4.766-10.688,10.672
	v34.844C4.281,123.875,0,130.781,0,138.672V160v53.344v117.328V416v10.672C0,438.453,9.562,448,21.344,448h469.312
	c11.781,0,21.344-9.547,21.344-21.328V416v-85.328V213.344V160v-21.328V85.344C512,73.562,502.438,64,490.656,64z M128,96h64v21.344
	h-64V96z M74.656,96v21.344H32V96H74.656z M21.344,138.672h96V160h-96C21.344,160,21.344,138.672,21.344,138.672z M170.656,192
	c0,5.891,4.781,10.672,10.688,10.672c5.875,0,10.656-4.781,10.656-10.672v-10.656h57.234C214.75,204.266,192,243.469,192,288
	s22.75,83.735,57.234,106.672H21.344v-192v-21.328h149.312L170.656,192L170.656,192z M490.656,202.672v192h-99.891
	C425.25,371.735,448,332.531,448,288s-22.75-83.734-57.234-106.656h99.891L490.656,202.672L490.656,202.672z M320,394.672
	c-28.5,0-55.281-11.109-75.422-31.234c-20.14-20.157-31.234-46.938-31.234-75.438s11.094-55.281,31.234-75.422
	S291.5,181.344,320,181.344s55.281,11.094,75.422,31.234S426.656,259.5,426.656,288s-11.094,55.281-31.234,75.438
	C375.281,383.562,348.5,394.672,320,394.672z M490.656,426.672H21.344V416h469.312V426.672z M138.656,160v-21.328H224h21.344
	v-21.328v-32h245.312v53.328V160H138.656z"/>
<path d="M330.656,112h-64c-5.875,0-10.656,4.781-10.656,10.672c0,5.891,4.781,10.672,10.656,10.672h64
	c5.906,0,10.688-4.781,10.688-10.672S336.562,112,330.656,112z"/>
<path d="M362.656,96C356.781,96,352,100.781,352,106.672v32c0,5.891,4.781,10.672,10.656,10.672c5.906,0,10.688-4.781,10.688-10.672
	v-32C373.344,100.781,368.562,96,362.656,96z"/>
<path d="M384,149.344h96V96h-96V149.344z M405.344,117.344h53.312V128h-53.312V117.344z"/>
<path d="M320,203.344L320,203.344L320,203.344c-46.75,0-84.656,37.906-84.656,84.656l0,0l0,0c0,5.891,4.766,10.672,10.656,10.672
	s10.656-4.781,10.656-10.672l0,0l0,0c0-34.922,28.423-63.328,63.344-63.328l0,0l0,0c5.891,0,10.656-4.781,10.656-10.672
	S325.891,203.344,320,203.344z"/>
<g>
</g>
<g>
</g>
<g>
</g>
<g>
</g>
<g>
</g>
<g>
</g>
<g>
</g>
<g>
</g>
<g>
</g>
<g>
</g>
<g>
</g>
<g>
</g>
<g>
</g>
<g>
</g>
<g>
</g>
</svg>
