<?xml version="1.0" encoding="iso-8859-1"?>
<!-- Generator: Adobe Illustrator 19.0.0, SVG Export Plug-In . SVG Version: 6.00 Build 0)  -->
<svg version="1.1" id="Layer_1" xmlns="http://www.w3.org/2000/svg" xmlns:xlink="http://www.w3.org/1999/xlink" x="0px" y="0px"
	 viewBox="0 0 512.001 512.001" style="enable-background:new 0 0 512.001 512.001;" xml:space="preserve">
<path style="fill:#874D20;" d="M372.12,201.192l-39.845,302.091c-0.664,5.043-4.992,8.715-9.97,8.715
	c-0.437,0-0.878-0.028-1.322-0.087c-5.513-0.719-9.395-5.75-8.672-11.235l39.845-302.091c0.722-5.486,5.781-9.351,11.292-8.628
	C368.961,190.676,372.843,195.707,372.12,201.192z M450.248,498.765l-51.435-151.028c-1.785-5.239-7.499-8.047-12.767-6.272
	c-5.266,1.775-8.088,7.463-6.303,12.703l51.435,151.028c1.421,4.174,5.337,6.805,9.534,6.805c1.071,0,2.161-0.171,3.232-0.533
	C449.21,509.692,452.032,504.005,450.248,498.765z"/>
<path style="fill:#0D3131;" d="M332.367,501.977c0,5.533-4.507,10.017-10.068,10.017h-38.733c-5.561,0-10.067-4.484-10.067-10.017
	c0-5.533,4.507-10.017,10.067-10.017h38.733C327.86,491.96,332.367,496.444,332.367,501.977z M440.716,491.96h-38.733
	c-5.561,0-10.068,4.484-10.068,10.017c0,5.533,4.507,10.017,10.068,10.017h38.733c5.561,0,10.067-4.484,10.067-10.017
	C450.783,496.444,446.275,491.96,440.716,491.96z"/>
<path style="fill:#FFBB5E;" d="M243.38,143.149c-0.976,0.296-1.965,0.437-2.936,0.437c-4.315,0-8.306-2.783-9.628-7.102
	l-13.879-45.36c-1.619-5.293,1.38-10.889,6.699-12.501c5.318-1.609,10.945,1.373,12.563,6.666l13.879,45.36
	C251.698,135.941,248.698,141.537,243.38,143.149z"/>
<path style="fill:#415E5C;" d="M402.787,155.323c-0.263,5.526-4.99,9.8-10.532,9.533c-17.816-0.836-57.44-0.041-62.592,0.801
	c-11.042,1.81-23.768,28.7-31.371,44.765c-8.972,18.958-14.504,30.644-24.997,30.644c-0.348,0-0.701-0.013-1.061-0.039
	c-6.398-0.461-11.012-5.171-13.714-13.998l-27.705-90.549c-1.619-5.293,1.38-10.889,6.699-12.501
	c5.317-1.611,10.945,1.372,12.563,6.666l24.979,81.641c1.71-3.41,3.483-7.157,5.018-10.4c11.065-23.381,24.835-52.478,46.317-55.999
	c7.614-1.248,48.826-1.893,66.814-1.045C398.76,145.105,403.049,149.797,402.787,155.323z"/>
<path style="fill:#FFCE76;" d="M362.138,9.68c25.098,0,45.443,20.244,45.443,45.215s-20.346,45.216-45.443,45.216
	c-25.095,0-45.441-20.244-45.441-45.216S337.044,9.68,362.138,9.68L362.138,9.68z"/>
<path style="fill:#FFBB5E;" d="M407.582,54.897c0,24.972-20.346,45.216-45.443,45.216c-17.474,0-32.636-9.82-40.239-24.212
	c6.309,3.3,13.486,5.176,21.108,5.176c25.098,0,45.443-20.244,45.443-45.216c0-7.583-1.885-14.726-5.202-21.003
	C397.712,22.422,407.582,37.509,407.582,54.897z"/>
<path style="fill:#414343;" d="M221.603,39.539v38.957h-66.058V39.539C155.545,39.539,221.603,39.539,221.603,39.539z"/>
<path style="fill:#4D4F4F;" d="M253.659,19.812v78.409h-57.806V19.812H253.659z M155.544,29.874
	c-5.561,0-10.067,4.484-10.067,10.017v38.251c0,5.533,4.507,10.017,10.067,10.017s10.067-4.484,10.067-10.017V39.892
	C165.613,34.36,161.105,29.874,155.544,29.874z"/>
<path style="fill:#97BAA8;" d="M99.866,69.037H71.285c-5.561,0-10.067-4.484-10.067-10.017s4.507-10.017,10.067-10.017h28.581
	c5.561,0,10.067,4.484,10.067,10.017S105.426,69.037,99.866,69.037z M104.964,94.598l-6.206,6.545
	c-3.816,4.024-3.631,10.364,0.413,14.16c1.944,1.826,4.428,2.731,6.908,2.731c2.675,0,5.344-1.054,7.324-3.143l6.206-6.545
	c3.816-4.024,3.631-10.364-0.413-14.16C115.153,90.389,108.779,90.573,104.964,94.598z M104.963,23.439
	c1.98,2.089,4.65,3.143,7.325,3.143c2.478,0,4.962-0.905,6.906-2.73c4.045-3.797,4.231-10.136,0.415-14.161l-6.206-6.547
	c-3.814-4.024-10.187-4.21-14.231-0.413c-4.045,3.797-4.231,10.136-0.415,14.161L104.963,23.439z"/>
<g>
</g>
<g>
</g>
<g>
</g>
<g>
</g>
<g>
</g>
<g>
</g>
<g>
</g>
<g>
</g>
<g>
</g>
<g>
</g>
<g>
</g>
<g>
</g>
<g>
</g>
<g>
</g>
<g>
</g>
</svg>
