<?xml version="1.0" encoding="iso-8859-1"?>
<!-- Generator: Adobe Illustrator 17.1.0, SVG Export Plug-In . SVG Version: 6.00 Build 0)  -->
<!DOCTYPE svg PUBLIC "-//W3C//DTD SVG 1.1//EN" "http://www.w3.org/Graphics/SVG/1.1/DTD/svg11.dtd">
<svg version="1.1" id="Capa_1" xmlns="http://www.w3.org/2000/svg" xmlns:xlink="http://www.w3.org/1999/xlink" x="0px" y="0px"
	 viewBox="0 0 341.046 341.046" style="enable-background:new 0 0 341.046 341.046;" xml:space="preserve">
<path d="M237.156,81.165c20.694,0,37.529-16.835,37.529-37.528S257.85,6.108,237.156,6.108c-20.693,0-37.528,16.835-37.528,37.528
	S216.463,81.165,237.156,81.165z M237.156,24.108c10.769,0,19.529,8.761,19.529,19.528s-8.761,19.528-19.529,19.528
	c-10.768,0-19.528-8.761-19.528-19.528S226.388,24.108,237.156,24.108z M219.124,337.719c-0.076,0.093-0.159,0.181-0.238,0.271
	c-0.104,0.118-0.206,0.236-0.315,0.347c-0.09,0.092-0.186,0.178-0.28,0.267c-0.107,0.1-0.213,0.201-0.325,0.295
	c-0.103,0.087-0.21,0.169-0.317,0.252c-0.111,0.086-0.223,0.172-0.338,0.253c-0.112,0.079-0.227,0.153-0.343,0.227
	c-0.119,0.076-0.238,0.149-0.361,0.219c-0.118,0.067-0.237,0.131-0.357,0.193c-0.131,0.067-0.263,0.131-0.398,0.191
	c-0.117,0.053-0.234,0.105-0.353,0.153c-0.151,0.061-0.305,0.115-0.461,0.168c-0.107,0.036-0.213,0.074-0.322,0.106
	c-0.188,0.057-0.379,0.103-0.572,0.147c-0.081,0.018-0.16,0.04-0.241,0.056c-0.26,0.052-0.523,0.092-0.79,0.121
	c-0.019,0.002-0.037,0.006-0.056,0.008c-0.299,0.03-0.6,0.049-0.905,0.049c-0.015,0-0.03-0.003-0.045-0.003h-24.279
	c-4.971,0-9-4.029-9-9s4.029-9,9-9h16.417l23.987-182.771c0.646-4.929,5.161-8.393,10.094-7.753
	c4.929,0.647,8.399,5.167,7.752,10.095l-24.981,190.343c-0.001,0.01-0.003,0.019-0.004,0.028l-0.03,0.23
	c-0.008,0.064-0.024,0.126-0.034,0.19c-0.031,0.202-0.063,0.403-0.107,0.601c-0.017,0.075-0.039,0.147-0.057,0.222
	c-0.05,0.201-0.102,0.402-0.165,0.598c-0.024,0.074-0.054,0.145-0.079,0.217c-0.067,0.19-0.134,0.38-0.214,0.565
	c-0.037,0.086-0.082,0.167-0.122,0.252c-0.107,0.227-0.22,0.449-0.344,0.665c-0.102,0.178-0.205,0.356-0.319,0.525
	c-0.061,0.09-0.129,0.175-0.193,0.263C219.33,337.449,219.232,337.587,219.124,337.719z M181.44,163.782
	c8.227,0,12.181-8.396,18.058-20.875c2.983-6.336,6.365-13.518,10.045-19.059c4.559-6.863,7.182-7.605,7.64-7.681
	c3.158-0.469,27.078-1.031,38.753-0.476c4.944,0.222,9.18-3.601,9.415-8.564c0.235-4.965-3.599-9.181-8.564-9.416
	c-10.505-0.497-37.246-0.174-42.508,0.692c-14.875,2.45-23.853,21.515-31.066,36.834c-0.054,0.115-0.108,0.231-0.164,0.349
	l-18.855-61.935h4.86c4.971,0,9-4.029,9-9V15.18c0-4.971-4.029-9-9-9h-36.291c-4.971,0-9,4.029-9,9v49.472c0,4.971,4.029,9,9,9
	h12.616l24.164,79.372c2.555,8.392,7.381,10.464,10.979,10.725C180.834,163.771,181.139,163.782,181.44,163.782z M141.762,24.18
	h18.291v31.472h-7.894c-0.043,0-0.086,0-0.129,0h-10.268V24.18z M292.942,338.304c-0.08,0.082-0.162,0.161-0.245,0.24
	c-0.128,0.122-0.257,0.242-0.393,0.357c-0.086,0.073-0.175,0.142-0.263,0.212c-0.137,0.108-0.276,0.214-0.42,0.314
	c-0.104,0.072-0.211,0.14-0.318,0.208c-0.134,0.085-0.268,0.169-0.408,0.248c-0.134,0.076-0.273,0.144-0.411,0.213
	c-0.12,0.06-0.239,0.121-0.363,0.175c-0.167,0.074-0.338,0.138-0.51,0.202c-0.081,0.03-0.157,0.067-0.239,0.095
	c-0.033,0.011-0.067,0.019-0.1,0.029c-0.107,0.035-0.216,0.065-0.325,0.096c-0.171,0.049-0.342,0.094-0.514,0.132
	c-0.086,0.019-0.173,0.037-0.26,0.054c-0.228,0.044-0.456,0.079-0.684,0.104c-0.04,0.004-0.079,0.01-0.119,0.014
	c-0.297,0.03-0.593,0.05-0.888,0.05c-0.021,0-0.041-0.005-0.062-0.005H262.17c-4.971,0-9-4.029-9-9s4.029-9,9-9h11.762
	l-28.262-83.399c-1.595-4.708,0.928-9.817,5.635-11.412c4.71-1.598,9.817,0.928,11.413,5.635l32.291,95.29
	c0.005,0.016,0.008,0.033,0.014,0.049c0.072,0.218,0.133,0.44,0.188,0.665c0.019,0.077,0.042,0.153,0.059,0.23
	c0.04,0.182,0.069,0.367,0.098,0.553c0.019,0.123,0.042,0.245,0.056,0.368c0.016,0.139,0.022,0.28,0.032,0.421
	c0.011,0.168,0.024,0.337,0.025,0.505c0,0.032,0.005,0.063,0.005,0.096c0,0.092-0.011,0.181-0.014,0.273
	c-0.005,0.176-0.011,0.352-0.027,0.526c-0.012,0.14-0.032,0.277-0.051,0.416c-0.02,0.148-0.04,0.296-0.068,0.443
	c-0.03,0.161-0.068,0.318-0.106,0.476c-0.029,0.12-0.058,0.24-0.092,0.358c-0.049,0.172-0.106,0.34-0.165,0.507
	c-0.037,0.104-0.073,0.207-0.113,0.309c-0.066,0.167-0.139,0.332-0.215,0.494c-0.047,0.102-0.095,0.203-0.146,0.303
	c-0.077,0.15-0.16,0.297-0.245,0.442c-0.064,0.11-0.129,0.219-0.198,0.326c-0.081,0.126-0.166,0.248-0.254,0.369
	c-0.086,0.121-0.174,0.239-0.266,0.355c-0.08,0.101-0.164,0.199-0.248,0.296C293.17,338.06,293.059,338.184,292.942,338.304z
	 M116.456,27.849v24.134c0,4.971-4.029,9-9,9s-9-4.029-9-9V27.849c0-4.971,4.029-9,9-9S116.456,22.878,116.456,27.849z
	 M72.501,48.918H54.559c-4.971,0-9-4.029-9-9s4.029-9,9-9h17.942c4.971,0,9,4.029,9,9S77.472,48.918,72.501,48.918z M86.475,60.156
	c3.616,3.411,3.782,9.107,0.371,12.723l-3.896,4.13c-1.771,1.877-4.157,2.824-6.548,2.824c-2.216,0-4.436-0.813-6.174-2.453
	c-3.616-3.411-3.782-9.107-0.371-12.723l3.896-4.13C77.163,56.911,82.86,56.746,86.475,60.156z M86.846,6.956
	c3.411,3.615,3.244,9.312-0.372,12.722c-1.739,1.64-3.958,2.453-6.174,2.453c-2.392,0-4.778-0.947-6.549-2.825l-3.896-4.131
	c-3.411-3.615-3.244-9.312,0.372-12.722c3.617-3.41,9.313-3.244,12.723,0.372L86.846,6.956z"/>
<g>
</g>
<g>
</g>
<g>
</g>
<g>
</g>
<g>
</g>
<g>
</g>
<g>
</g>
<g>
</g>
<g>
</g>
<g>
</g>
<g>
</g>
<g>
</g>
<g>
</g>
<g>
</g>
<g>
</g>
</svg>
