<?xml version="1.0" encoding="iso-8859-1"?>
<!-- Generator: Adobe Illustrator 19.0.0, SVG Export Plug-In . SVG Version: 6.00 Build 0)  -->
<svg version="1.1" id="Layer_1" xmlns="http://www.w3.org/2000/svg" xmlns:xlink="http://www.w3.org/1999/xlink" x="0px" y="0px"
	 viewBox="0 0 512 512" style="enable-background:new 0 0 512 512;" xml:space="preserve">
<g>
	<path style="fill:#35BB9B;" d="M247.133,332.271c1.914,2.86,5.172,4.734,8.867,4.734c3.688,0,6.953-1.874,8.875-4.734l75.5-109.062
		c1.125-1.672,1.766-3.687,1.766-5.859c0-5.891-4.781-10.672-10.672-10.672c-3.688,0-6.938,1.875-8.844,4.718L256,307.615
		l-66.617-96.218c-1.914-2.843-5.164-4.718-8.852-4.718c-5.891,0-10.671,4.781-10.671,10.672c0,2.172,0.648,4.187,1.765,5.859
		L247.133,332.271z"/>
	<path style="fill:#35BB9B;" d="M245.336,196.022c0,5.891,4.773,10.657,10.664,10.657c4.203,0,7.844-2.422,9.578-5.969
		l21.172-42.359c0.797-1.5,1.25-3.188,1.25-5c0-3.031-1.266-5.75-3.297-7.703l-18.047-18.047c0,0,0-16.766,0-16.922
		c0-5.891-4.766-10.656-10.656-10.656s-10.664,4.766-10.664,10.656v21.344c0,3.016,1.266,5.75,3.289,7.688l15.813,15.812
		l-18.008,35.782C245.727,192.725,245.336,194.32,245.336,196.022z"/>
	<path style="fill:#35BB9B;" d="M501.344,206.695H383.359c-3.703,0-6.953,1.875-8.859,4.734L256,382.553L137.5,211.429
		c-1.914-2.86-5.164-4.734-8.859-4.734H10.664C4.774,206.695,0,211.477,0,217.367s4.774,10.656,10.664,10.656h112.382
		l124.446,179.703c1.945,2.579,5.031,4.251,8.508,4.251c3.469,0,6.563-1.672,8.5-4.251l124.453-179.703h112.391
		c5.875,0,10.656-4.765,10.656-10.656S507.219,206.695,501.344,206.695z"/>
</g>
<g>
</g>
<g>
</g>
<g>
</g>
<g>
</g>
<g>
</g>
<g>
</g>
<g>
</g>
<g>
</g>
<g>
</g>
<g>
</g>
<g>
</g>
<g>
</g>
<g>
</g>
<g>
</g>
<g>
</g>
</svg>
