<svg id="Layer_1" height="512" viewBox="0 0 512 512" width="512" xmlns="http://www.w3.org/2000/svg" xmlns:xlink="http://www.w3.org/1999/xlink" data-name="Layer 1"><linearGradient id="linear-gradient" gradientUnits="userSpaceOnUse" x1="256" x2="256" y1="431.612" y2="161.272"><stop offset=".322" stop-color="#a163f5"/><stop offset=".466" stop-color="#b074ee"/><stop offset=".752" stop-color="#d8a1dd"/><stop offset=".898" stop-color="#efbad3"/></linearGradient><path d="m466.973 342.556h-.806v-91.656c0-115.887-94.28-210.167-210.167-210.167s-210.167 94.276-210.167 210.167v91.66h-.806a40.028 40.028 0 0 0 0 80.055h.806v12.035a36.623 36.623 0 0 0 73.208 1.674v-115.644a36.6 36.6 0 0 0 -61.208-25.414v-13.745c0-109.27 88.9-198.167 198.167-198.167s198.167 88.9 198.167 198.167v13.745a36.607 36.607 0 0 0 -61.25 27.088v112.292a36.625 36.625 0 0 0 73.25 0v-12.035h.806a40.028 40.028 0 0 0 0-80.055zm-421.14 68.055h-.806a28.028 28.028 0 0 1 0-56.055h.806zm36.625-112.882a24.665 24.665 0 0 1 24.087 19.509 26.248 26.248 0 0 0 -19.462 25.32v7.7a6 6 0 0 0 12 0v-7.7a14.207 14.207 0 0 1 8-12.758v97.4a14.207 14.207 0 0 1 -8-12.758v-24.18a6 6 0 0 0 -12 0v24.18a26.248 26.248 0 0 0 19.462 25.32 24.625 24.625 0 0 1 -48.712-5.116v-112.292a24.653 24.653 0 0 1 24.625-24.625zm173.542-226.375c-81.687 0-152.633 46.847-187.4 115.083 26.813-77.721 100.687-133.708 187.4-133.708s160.587 55.987 187.4 133.708c-34.767-68.237-105.713-115.083-187.4-115.083zm148.917 258.346a14.209 14.209 0 0 1 8.2 12.856v71.884a14.209 14.209 0 0 1 -8.2 12.856zm49.25 104.944a24.624 24.624 0 0 1 -48.7 5.171 26.251 26.251 0 0 0 19.652-25.375v-71.882a26.251 26.251 0 0 0 -19.652-25.375 24.624 24.624 0 0 1 48.7 5.171zm12.806-24.035h-.806v-56.053h.806a28.028 28.028 0 0 1 0 56.055z" fill="url(#linear-gradient)"/></svg>