<?xml version="1.0" encoding="iso-8859-1"?>
<!-- Generator: Adobe Illustrator 19.0.0, SVG Export Plug-In . SVG Version: 6.00 Build 0)  -->
<svg version="1.1" id="Layer_1" xmlns="http://www.w3.org/2000/svg" xmlns:xlink="http://www.w3.org/1999/xlink" x="0px" y="0px"
	 viewBox="0 0 512 512" style="enable-background:new 0 0 512 512;" xml:space="preserve">
<path style="fill:#D94452;" d="M256,256.016c-7.266,0-14.391,0.625-21.328,1.781V153.75l79.844,79.844
	c4.156,4.172,10.922,4.164,15.078,0c4.172-4.164,4.172-10.922,0-15.086L239.078,128l90.516-90.508
	c4.172-4.164,4.172-10.922,0-15.086c-4.156-4.164-10.922-4.164-15.078,0l0,0l-79.844,79.844V10.664C234.672,4.773,229.891,0,224,0
	s-10.672,4.773-10.672,10.664v117.328c0,0,0,0.008,0,0.016v135.305C163.625,280.891,128,328.281,128,384.016
	C128,454.703,185.313,512,256,512s128-57.297,128-127.984S326.688,256.016,256,256.016z M331.422,459.422
	c-20.141,20.156-46.938,31.25-75.422,31.25s-55.281-11.094-75.422-31.25c-20.141-20.141-31.234-46.922-31.234-75.406
	c0-28.5,11.094-55.281,31.234-75.438c20.141-20.125,46.938-31.219,75.422-31.219s55.281,11.094,75.422,31.219
	c20.141,20.156,31.234,46.938,31.234,75.438C362.656,412.5,351.563,439.281,331.422,459.422z"/>
<g>
</g>
<g>
</g>
<g>
</g>
<g>
</g>
<g>
</g>
<g>
</g>
<g>
</g>
<g>
</g>
<g>
</g>
<g>
</g>
<g>
</g>
<g>
</g>
<g>
</g>
<g>
</g>
<g>
</g>
</svg>
