<?xml version="1.0" encoding="iso-8859-1"?>
<!-- Generator: Adobe Illustrator 19.0.0, SVG Export Plug-In . SVG Version: 6.00 Build 0)  -->
<svg version="1.1" id="Layer_1" xmlns="http://www.w3.org/2000/svg" xmlns:xlink="http://www.w3.org/1999/xlink" x="0px" y="0px"
	 viewBox="0 0 512 512" style="enable-background:new 0 0 512 512;" xml:space="preserve">
<g>
	<path style="fill:#F5BA45;" d="M256,0C114.609,0,0,114.617,0,256c0,141.391,114.609,256,256,256s256-114.609,256-256
		C512,114.617,397.391,0,256,0z M421.938,421.938c-21.563,21.547-46.656,38.484-74.594,50.297
		c-28.922,12.234-59.656,18.438-91.344,18.438s-62.422-6.203-91.344-18.438c-27.938-11.813-53.031-28.75-74.594-50.297
		c-21.563-21.563-38.484-46.656-50.297-74.609C27.531,318.422,21.328,287.688,21.328,256s6.203-62.422,18.438-91.336
		c11.813-27.945,28.734-53.039,50.297-74.602c21.563-21.555,46.656-38.477,74.594-50.297C193.578,27.531,224.313,21.328,256,21.328
		s62.422,6.203,91.344,18.438c27.938,11.82,53.031,28.742,74.594,50.297c21.563,21.563,38.484,46.656,50.297,74.602
		c12.234,28.914,18.438,59.648,18.438,91.336s-6.203,62.422-18.438,91.328C460.422,375.281,443.5,400.375,421.938,421.938z"/>
	<path style="fill:#F5BA45;" d="M256,181.391c-41.203,0-74.609,33.398-74.609,74.609c0,41.203,33.406,74.609,74.609,74.609
		s74.609-33.406,74.609-74.609C330.609,214.789,297.203,181.391,256,181.391z M256,309.281c-29.375,0-53.281-23.906-53.281-53.281
		s23.906-53.281,53.281-53.281s53.281,23.906,53.281,53.281S285.375,309.281,256,309.281z"/>
</g>
<g>
</g>
<g>
</g>
<g>
</g>
<g>
</g>
<g>
</g>
<g>
</g>
<g>
</g>
<g>
</g>
<g>
</g>
<g>
</g>
<g>
</g>
<g>
</g>
<g>
</g>
<g>
</g>
<g>
</g>
</svg>
