<?xml version="1.0" encoding="iso-8859-1"?>
<!-- Generator: Adobe Illustrator 19.0.0, SVG Export Plug-In . SVG Version: 6.00 Build 0)  -->
<svg version="1.1" id="Capa_1" xmlns="http://www.w3.org/2000/svg" xmlns:xlink="http://www.w3.org/1999/xlink" x="0px" y="0px"
	 viewBox="0 0 511.999 511.999" style="enable-background:new 0 0 511.999 511.999;" xml:space="preserve">
<path style="fill:#F4F4F4;" d="M260.915,61.041c-2.065,1.891-3.127,5.079-4.763,7.345c-3.157,4.374-6.99,8.214-10.001,12.713
	c-10.135,15.144-17.547,31.696-28.171,46.474c-3.593,4.998-6.702,10.251-10.425,15.184c-6.066,8.037-11.835,16.319-16.666,25.142
	c-4.83,8.822-9.906,17.178-15.552,25.508c-2.856,4.213-5.961,8.135-8.907,12.254c-4.25,5.942-6.03,13.18-10.516,19.008
	c-4.916,6.387-9.306,13.275-14.12,19.797c-4.576,6.199-8.727,12.7-12.689,19.305c-3.359,5.599-7.21,9.707-9.48,15.586
	c-1.377,3.565-3.073,6.567-5.007,9.846c-2.204,3.737-5.113,8.065-6.138,12.294c-2.544,10.496,3.504,18.141,11.47,24.091
	c5.528,4.128,9.184,9.346,13.772,14.437c4.583,5.085,9.001,8.551,14.77,12.211c5.793,3.674,11.11,6.9,17.675,9.089
	c7.121,2.374,13.386,5.994,20.612,8.094c7.556,2.196,13.638,9.057,20.378,13.05c8.33,4.935,16.638,9.269,25.164,13.768
	c18.139,9.571,34.364,22.276,52.519,31.636c6.295,3.245,21.517,10.48,25.776,0.859c1.476-3.334,1.03-7.932,1.448-11.495
	c0.794-6.771-0.596-13.241-0.342-20c0.159-4.238,0.323-8.391,0.361-12.637c0.14-15.583-1.34-31.172-3.953-46.526
	c-2.943-17.288-8.664-33.724-10.908-51.237c-2.618-20.437-3.33-40.944-5.45-61.381c-0.995-9.593-1.749-19.251-2.172-28.878
	c-0.431-9.806-2.626-19.558-3.615-29.353c-1.321-13.081-2.415-26.195-3.671-39.292c-0.753-7.846-1.96-15.604-2.916-23.414
	c-0.924-7.549,0.933-14.095-2.413-21.112c-3.274-6.867-3.488-15.138-6.033-22.374c-0.685-1.949-2.14-6.617-4.727-6.699
	C263.397,54.243,262.372,60.097,260.915,61.041z"/>
<g>
	<path style="fill:#BDBDB5;" d="M78.646,125.949c1.27,4.836,0.417,11.021,0.628,16.059c0.357,8.52,0.508,16.876,2.13,25.28
		c1.547,8.016,1.646,16.303,3.551,24.225c3.206,13.329,3.398,27.199,4.836,40.732c1.384,13.025,3.297,26.185,4.935,39.258
		c0.697,5.564,0.572,21.086,7.267,23.537c4.687,1.715,7.844-9.993,9.828-13.383c2.064-3.527,5.141-6.353,7.464-9.716
		c2.307-3.34,4.14-7.029,6.329-10.418c2.362-3.657,3.898-7.831,6.41-11.384c2.55-3.607,5.93-6.626,8.688-10.08
		c5.743-7.191,10.736-14.423,15.962-21.933c8.221-11.814,16.7-23.571,21.873-37.019c3.608-9.38-17.259-19.41-23.938-22.38
		c-7.257-3.228-12.093-8.285-19.661-10.821c-8.276-2.773-14.631-9.335-22.383-13.383c-6.662-3.478-13.514-7.969-20.544-10.185
		C85.975,122.429,78.873,121.508,78.646,125.949z"/>
	<path style="fill:#BDBDB5;" d="M308.121,339.36c1.936,6.315,1.813,13.899,1.985,20.507c0.232,8.911,1.254,17.814,1.292,26.724
		c0.043,9.9,0.662,19.678,0.657,29.486c-0.002,4.058,1.089,9.893,6.594,8.668c3.829-0.853,9.375-4.667,12.88-6.541
		c5.488-2.935,10.481-5.975,16.267-8.371c7.666-3.174,15.227-7.643,22.603-11.457c3.537-1.829,6.761-4.479,10.154-6.538
		c1.834-1.113,5.349-2.496,6.491-4.28c3.15-4.918-3.655-10.352-6.601-13.386c-3.61-3.718-8.287-4.98-12.259-8.103
		c-3.141-2.47-4.849-5.169-8.659-6.863c-4.817-2.142-9.306-4.997-14.106-7.129c-4.98-2.212-10.008-3.178-14.85-5.914
		C323.162,341.978,314.547,330.607,308.121,339.36z"/>
</g>
<g>
	<path style="fill:#94958E;" d="M366.801,442.624c4.085,2.234,8.763,2.461,12.816,4.918c2.596,1.573,5.335,3.333,7.763,5.173
		c1.447,1.097,8.442,9.291,10.588,8.217c1.737-0.87,0.631-10.46,0.631-12.103c0-5.386,0.144-10.796,0.012-16.179
		c-0.22-8.971-1.249-18.475-2.647-27.257c-0.489-3.069-0.829-5.967-1.707-9.007c-0.48-1.659-0.267-4.593-0.904-6.02
		c-1.91-4.28-7.739-0.062-10.763,1.702c-14.082,8.212-29.747,12.782-43.446,21.375c-1.645,1.032-6.095,3.882-6.444,5.573
		c-0.661,3.196,4.36,7.527,6.405,9.282c3.551,3.047,7.487,6.275,11.705,8.258c2.309,1.086,4.705,1.773,7.107,2.608
		C361.291,440.335,363.528,443.205,366.801,442.624z"/>
	<path style="fill:#94958E;" d="M66.517,132.833c-4.042,2.351-6.987,6.484-10.307,9.698c-3.942,3.815-8.222,6.562-12.737,9.644
		c-7.468,5.099-12.701,12.397-19.343,18.389c-7.431,6.704-16.389,13.5-19.407,23.386c-0.944,3.092-0.939,2.749,1.474,4.603
		c1.888,1.451,4.216,2.591,6.513,3.287c7.602,2.304,16.58,4.068,24.494,4.098c9.019,0.035,18.236,0.941,27.199,0.08
		c3.473-0.333,6.296-0.313,9.709,0.328c2.557,0.48,4.028,1.155,5.851-0.728c3.876-4.005,1.176-14.214,0.412-18.853
		c-1.511-9.176-0.767-18.001-1.075-27.22c-0.296-8.886-0.082-17.447,0.327-26.309c0.106-2.305,0.565-6.735-2.457-7.462
		C73.312,124.845,67.673,131.617,66.517,132.833z"/>
	<path style="fill:#94958E;" d="M276.978,60.713c3.124,3.617,2.311,9.014,2.294,13.443c-0.031,7.782-1.056,15.509-0.171,23.274
		c1.151,10.105,1.232,20.263,2.291,30.351c2.24,21.331,6.751,42.107,9.928,63.314c1.214,8.105,1.661,17.864,4.401,25.61
		c3.198,0.659,4.603-0.419,7.116-2.624c7.233-6.346,15.251-10.474,22.868-16.232c17.997-13.605,35.891-27.869,55.475-39.254
		c8.901-5.174,16.816-11.656,25.283-17.493c7.795-5.374,15.807-9.359,24.214-13.644c3.42-1.743,7.508-3.512,10.613-5.776
		c3.137-2.288,5.386-5.895,8.392-8.438c6.819-5.765,14.809-9.878,21.964-15.176c11.252-8.331,25.644-14.04,32.807-26.506
		c3.101-5.396,3.941-11.941-3.116-15.215c-2.99-1.387-6.758-0.809-9.953-1.111c-5.194-0.491-10.438-0.929-15.622-1.465
		c-4.223-0.437-8.323-1.754-12.552-2.253c-6.188-0.73-12.437-0.678-18.648-1.033c-5.284-0.302-10.377-1.263-15.701-1.261
		c-6.679,0.002-13.245,0.578-19.922-0.058c-11.89-1.133-23.663,0.429-35.584,0.404c-12.971-0.028-25.711,0.806-38.624,1.777
		c-10.394,0.782-21.409-2.346-31.832-3.18c-7.858-0.63-17.559-0.512-24.949,2.702c-1.352,0.588-3.277,1.487-4.174,2.708
		C271.864,56.18,273.776,59.931,276.978,60.713z"/>
</g>
<path style="fill:#63635F;" d="M481.471,154.065c1.813,4.781-4.115,10.987-8.003,12.634c-5.541,2.348-10.793,3.869-15.871,7.531
	c-3.753,2.706-7.202,5.347-11.472,7.21c-5.53,2.413-11.309,4.146-16.367,7.366c-5.995,3.817-11.974,7.662-18.121,11.231
	c-6.501,3.775-12.542,8.161-19.261,11.555c-7.784,3.932-15.801,7.357-23.086,12.199c-11.575,7.692-22.084,16.693-33.593,24.438
	c-5.564,3.745-11.728,6.448-17.1,10.496c-3.169,2.389-6.343,4.836-9.991,6.459c-1.677,0.746-3.842,0.978-5.371,1.928
	c-1.931,1.199-3.159,3.213-5.301,4.273c-0.839-2.439-0.296-6.12-0.561-8.816c-0.641-6.526-0.301-13.117-0.967-19.617
	c-0.531-5.185-4.637-14.512-2.398-19.656c0.808-1.857,4.901-4.884,6.416-6.17c7.105-6.028,14.921-11.484,22.169-17.362
	c8.311-6.739,17.843-11.322,25.937-18.374c7.454-6.495,16.176-10.891,24.252-16.496c10.74-7.454,22.123-14.074,33.332-20.656
	c6.772-3.977,10.467-6.312,17.95-5.169c8.244,1.26,14.627-0.783,22.563,3.272c7.598,3.882,15.377,6.452,23.517,8.94
	C473.57,152.328,480.06,150.343,481.471,154.065z"/>
<path d="M487.564,48.941c-35.068-3.357-70.803-3.451-106.013-4.956c-23.276-0.995-46.355,0.861-69.59,1.341
	c-11.189,0.231-22.393,0.411-33.537,0.558c-3.18,0.042-6.085,0.33-8.603,1.494c-1.051,0.166-2.194,0.535-3.475,1.226
	c-3.744,2.022-6.915,6.864-9.997,9.776c-5.967,5.637-10.838,11.892-14.751,19.101c-2.003,3.69-3.651,7.555-5.262,11.438
	c-19.229,26.674-37.658,53.962-55.806,81.438c-4.178-4.228-10.313-7.156-15.318-10.013c-14.212-8.111-27.825-17.044-42.209-24.866
	c-11.414-6.207-36.769-27.154-46.478-15.124c-3.839,1.674-7.691,5.573-10.553,7.61c-7.801,5.553-14.728,11.39-21.717,17.91
	c-14.43,13.46-31.424,27.06-42.088,43.883c-16.422,25.906,65.504,21.297,77.507,22.626c0.729,5.818,1.57,11.622,2.635,17.398
	c3.065,16.63,6.391,33.232,9.84,49.786c1.856,8.902,3.603,17.882,5.953,26.668c1.064,3.98,1.683,8.203,4.812,10.992
	c2.557,5.785,7.371,10.479,13.445,15.852c26.774,23.686,62.514,38.566,93.271,56.445c14.789,8.597,29.774,16.751,44.82,24.891
	c11.124,6.018,21.771,13.961,33.839,18.539c14.32,5.432,25.68,2.33,39.053-4.025c14.913,4.608,30.254,16.794,43.382,24.911
	c7.528,4.655,22.276,16.339,31.411,14.205c2.868-0.67,4.125-3.246,4.472-5.872c1.561-11.847-3.022-26.742-4.659-38.417
	c-1.069-7.619-2.293-15.191-3.511-22.789c-0.738-4.601-0.861-9.403-1.92-13.916c1.395-12.552-20.236-20.687-28.278-25.221
	c-9.681-5.457-19.68-10.263-29.251-15.921c-7.547-4.461-22.205-10.236-26.799-17.837c-0.229-0.379-0.512-0.698-0.815-0.989
	c-0.834-5.725-1.58-11.462-2.117-17.228c-1.045-11.234-3.174-22.303-5.184-33.388c11.292-8.679,24.357-15.776,36.261-23.684
	c12.278-8.157,24.361-16.605,36.658-24.73c25.347-16.746,52.477-31.314,78.642-46.772c8.521-5.034,47.155-20.738,28.44-34.392
	c-8.667-6.324-22.73-5.936-32.896-7.717c-6.281-1.1-12.114-3.329-18.254-4.921c-1.068-0.277-2.245-0.474-3.468-0.649
	c17.018-12.051,33.798-24.445,50.36-37.023c9.494-7.211,30.525-18.535,32.08-31.949C513.452,51.216,497.015,49.846,487.564,48.941z
	 M36.29,198.322c-6.145-0.153-12.964-0.423-18.921-1.994c-5.777-1.524-5.521-0.412-1.413-5.565c2.56-3.21,5.373-6.244,8.119-9.293
	c15.452-17.157,32.143-33.279,48.746-49.327c-1.484,16.067,1.738,32.608,3.452,48.528c0.691,6.421,1.31,12.85,1.983,19.27
	C64.44,198.415,50.164,198.668,36.29,198.322z M387.685,399.851c0.731,8.241,1.786,16.471,2.771,24.686
	c1.089,9.089,3.797,19.649,4.232,29.424c-3.744-2.213-8.808-5.289-10.042-5.951c-7.06-3.793-13.601-8.562-20.423-12.753
	c-6.455-3.966-14.48-9.84-22.575-13.728c4.577-2.488,9.039-4.948,13.307-7.101c9.251-4.668,18.457-9.357,27.586-14.279
	c1.519-0.819,3.238-1.655,4.942-2.58C387.569,398.65,387.652,399.482,387.685,399.851z M330.746,355.333
	c15.962,9.588,32.882,17.542,48.928,26.976c5.355,3.149,5.16,2.718,0.592,5.698c-3.534,2.305-8.024,4.245-11.711,6.306
	c-7.405,4.14-14.958,7.939-22.374,12.044c-6.128,3.392-11.805,7.655-17.849,11.053c-2.71,1.523-10.346,3.447-11.302,6.853
	c0.424-1.539,0.766-3.188,1.03-4.952c2.532-16.938,1.783-34.058-0.37-50.992c-0.942-7.412-2.12-14.788-3.318-22.159
	C320.052,349.803,326.449,352.752,330.746,355.333z M104.528,290.372c-0.202-2.191-0.428-4.327-0.755-6.317
	c-2.255-13.736-4.813-27.461-7.301-41.159c-4.858-26.746-7.242-53.607-10.161-80.619c-0.633-5.863-1.254-11.742-1.484-17.638
	c-0.118-3.02-0.239-6.091-0.07-9.112c0.401-7.137,0.087-8.419,6.509-4.805c9.91,5.576,19.249,12.035,29.269,17.447
	c18.047,9.747,36.319,20.726,52.88,32.998c-16.681,25.387-33.185,50.884-49.89,76.177
	C116.768,267.575,109.028,278.563,104.528,290.372z M305.813,374.6c0.716,7.855,1.466,15.832,1.292,23.727
	c-0.083,3.74,0.571,21.972-3.31,24.628c-3.671,2.513-19.365-7.533-22.47-9.114c-6.817-3.469-13.639-6.922-20.378-10.542
	c-13.573-7.29-27.197-14.439-40.503-22.204c-27.223-15.888-56.023-29.786-82.44-46.982c-6.479-4.217-12.346-9.269-17.903-14.623
	c-7.978-7.688-7.591-15.984-3.492-25.578c6.542-15.314,16.409-28.843,25.362-42.783c19.89-30.971,39.73-61.904,59.928-92.672
	c8.067-12.288,15.84-24.76,23.54-37.273c5.005-7.219,9.705-14.672,14-22.287c1.015-1.8,2.001-3.59,2.979-5.372
	c4.498-7.303,9.032-14.58,13.627-21.816c2.208-2.75,4.643-5.377,7.411-7.847c0.988-0.881,3.361-1.998,3.986-3.164
	c0.097-0.084,0.194-0.168,0.291-0.252c-1.489,4.795,3.14,19.793,3.785,25.006c2.007,16.211,2.656,32.512,4.119,48.759
	c5.835,64.805,13.27,129.804,23.307,194.044C301.35,343.662,304.398,359.055,305.813,374.6z M460.104,152.271
	c1.619,0.29,14.377,1.983,14.758,3.381c0.195,0.718-13.565,8.071-15.372,9.143c-11.417,6.772-22.768,13.671-34.228,20.369
	c-23.022,13.454-45.831,26.985-68.074,41.667c-10.783,7.117-21.526,14.289-32.249,21.501c-7.561,5.085-15.828,9.294-23.162,14.682
	c-0.772-5.011-1.425-10.039-1.837-15.104c-0.534-6.559-1.183-13.109-1.872-19.657c24.465-21.717,52.256-42.213,79.782-59.816
	c14.049-8.985,27.919-18.305,41.64-27.854c2.889,1.369,6.191,2.201,9.014,3.291C439.025,147.935,449.004,150.282,460.104,152.271z
	 M496.136,68.944c-1.395,3.191-8.573,6.786-11.704,9.214c-35.668,27.659-72.842,54.193-111.012,78.317
	c-15.546,9.825-30.998,20.423-45.287,31.954c-10.186,8.22-21.734,15.871-31.745,24.667c-3.236-27.697-7.124-55.346-9.307-83.12
	c-1.687-21.458-3.582-42.759-6.542-64.093c-0.355-2.562-0.832-6.471-1.878-10.049c1.126,0.21,2.178,0.416,3.021,0.483
	c6.306,0.499,12.478,0.238,18.804,0.159c10.7-0.133,21.342-0.207,32.042-0.661c21.316-0.905,42.466-0.222,63.755,0.822
	c19.831,0.972,39.709,1.585,59.512,2.774c8.576,0.515,17.179,0.626,25.743,1.194C487.106,60.973,500.481,58.99,496.136,68.944z"/>
<g>
</g>
<g>
</g>
<g>
</g>
<g>
</g>
<g>
</g>
<g>
</g>
<g>
</g>
<g>
</g>
<g>
</g>
<g>
</g>
<g>
</g>
<g>
</g>
<g>
</g>
<g>
</g>
<g>
</g>
</svg>
