<?xml version="1.0" encoding="iso-8859-1"?>
<!-- Generator: Adobe Illustrator 19.0.0, SVG Export Plug-In . SVG Version: 6.00 Build 0)  -->
<svg xmlns="http://www.w3.org/2000/svg" xmlns:xlink="http://www.w3.org/1999/xlink" version="1.1" id="Layer_1" x="0px" y="0px" viewBox="0 0 511.999 511.999" style="enable-background:new 0 0 511.999 511.999;" xml:space="preserve">
<path style="fill:#894A2B;" d="M233.323,347.949c0,14.738,0,134.353,0,149.719c0,7.909,6.413,14.32,14.32,14.32h16.709  c7.912,0,14.32-6.412,14.32-14.32c0-15.355,0-135.036,0-149.719H233.323z"/>
<path style="fill:#70371D;" d="M255.998,497.668c0-15.355,0-135.036,0-149.719h-22.674c0,14.738,0,134.353,0,149.719  c0,7.909,6.413,14.32,14.32,14.32c18.165,0,17.705,0.105,19.693-0.316C260.86,510.299,255.998,504.554,255.998,497.668z"/>
<polygon style="fill:#C66B44;" points="341.247,399.628 171.547,399.628 152.553,443.448 360.24,443.448 "/>
<polygon style="fill:#9E5D39;" points="162.051,421.538 152.553,443.448 360.24,443.448 350.744,421.538 "/>
<path style="fill:#CC7954;" d="M89.357,484.489c-3.048,7.298,0.396,15.685,7.694,18.733l15.417,6.44  c7.3,3.048,15.686-0.396,18.737-7.695c29.513-70.668,16.248-38.72,63.033-151.956h-49.146  C106.358,443.989,118.164,415.516,89.357,484.489z"/>
<path style="fill:#B25F42;" d="M109.508,492.075c30.437-72.873,17.967-42.799,58.879-142.066h-23.295  c-38.734,93.979-26.929,65.507-55.735,134.479c-3.048,7.298,0.396,15.685,7.694,18.733c16.866,7.045,16.155,6.84,17.957,7.224  C109.145,506.501,106.68,498.846,109.508,492.075z"/>
<path style="fill:#CC7954;" d="M422.063,484.489c-43.624-104.458-32.018-76.424-55.737-134.479h-49.144  c46.809,113.294,33.533,81.318,63.035,151.956c3.046,7.299,11.435,10.744,18.733,7.695l15.419-6.44  C421.667,500.174,425.112,491.787,422.063,484.489z"/>
<path style="fill:#B25F42;" d="M341.392,350.01h-24.21c46.809,113.294,33.533,81.318,63.035,151.956  c3.046,7.299,11.435,10.744,18.733,7.695l8.241-3.442C404.787,503.649,408.851,513.286,341.392,350.01z"/>
<path style="fill:#FFF8D9;" d="M439.478,82.534c-13.672,0-349.1,0-366.956,0c-0.495,0-0.983,0.025-1.465,0.074  c-7.223,0.733-12.855,6.832-12.855,14.247v181.048l73.134,73.136c324.575,0,308.41,0.048,309.606-0.074  c7.221-0.732,12.856-6.831,12.856-14.247c0-7.354,0-231.558,0-239.863C453.798,88.946,447.386,82.534,439.478,82.534z"/>
<path style="fill:#894A2B;" d="M278.672,63.966V14.333c0-7.909-6.409-14.321-14.32-14.321h-16.709  c-7.908,0-14.32,6.412-14.32,14.321v49.634L278.672,63.966L278.672,63.966z"/>
<path style="fill:#70371D;" d="M267.336,0.328c-1.987-0.421-1.527-0.316-19.693-0.316c-7.908,0-14.32,6.412-14.32,14.321v49.634  h22.674V14.333C255.998,7.447,260.86,1.701,267.336,0.328z"/>
<path style="fill:#989898;" d="M330.587,90.711c0,7.91-6.411,14.321-14.322,14.321H195.731c-7.91,0-14.322-6.411-14.322-14.321  V75.197c0-7.909,6.413-14.321,14.322-14.321h120.533c7.912,0,14.322,6.413,14.322,14.321v15.514H330.587z"/>
<path style="fill:#777674;" d="M316.265,82.954H195.731c-6.779,0-12.444-4.714-13.93-11.039c-0.247,1.055-0.392,2.15-0.392,3.282  v15.514c0,7.91,6.413,14.321,14.322,14.321h120.533c7.912,0,14.322-6.411,14.322-14.321c0-16.809,0.13-16.568-0.392-18.796  C328.708,78.24,323.044,82.954,316.265,82.954z"/>
<path style="fill:#F7E3BF;" d="M156.19,130.945c0-16.596,1.731-32.787,5.005-48.411H72.522c-0.495,0-0.983,0.025-1.465,0.074  c-7.223,0.733-12.855,6.832-12.855,14.247v181.048l73.134,73.136c5.362,0,160.331,0,177.562,0  C219.707,317.722,156.19,231.757,156.19,130.945z"/>
<path style="fill:#EFB160;" d="M131.336,351.04v-58.816c0-7.91-6.411-14.32-14.32-14.32H58.202L131.336,351.04z"/>
<path style="fill:#EDD3A9;" d="M72.522,351.04h58.814l-73.134-73.136v58.815C58.202,344.633,64.614,351.04,72.522,351.04z"/>
<g>
</g>
<g>
</g>
<g>
</g>
<g>
</g>
<g>
</g>
<g>
</g>
<g>
</g>
<g>
</g>
<g>
</g>
<g>
</g>
<g>
</g>
<g>
</g>
<g>
</g>
<g>
</g>
<g>
</g>
</svg>
