<?xml version="1.0" encoding="iso-8859-1"?>
<!-- Generator: Adobe Illustrator 19.0.0, SVG Export Plug-In . SVG Version: 6.00 Build 0)  -->
<svg version="1.1" id="Layer_1" xmlns="http://www.w3.org/2000/svg" xmlns:xlink="http://www.w3.org/1999/xlink" x="0px" y="0px"
	 viewBox="0 0 512 512" style="enable-background:new 0 0 512 512;" xml:space="preserve">
<path style="fill:#70E5CF;" d="M320.893,54.573l-67.524,27.54l-65.17-27.54l53.689-49.619c7.152-6.605,18.165-6.605,25.317,0
	L320.893,54.573z"/>
<path style="fill:#19BA9B;" d="M209.654,54.573l53.689-49.619c0.614-0.567,1.265-1.068,1.931-1.537
	c-7.092-5.002-16.848-4.502-23.386,1.537l-53.689,49.619H209.654z"/>
<polygon style="fill:#F95428;" points="268.973,362.974 248.168,414.986 105.137,512 13.831,512 13.831,216.068 76.141,215.886 
	172.752,218.643 253.623,297.397 "/>
<polygon style="fill:#70E5CF;" points="110.858,215.886 76.141,267.729 13.831,216.068 13.831,215.886 76.141,158.115 "/>
<polyline style="fill:#19BA9B;" points="13.831,216.068 13.831,215.886 76.141,158.115 83.818,170.889 35.286,215.886 
	35.286,216.068 35.247,238.553 13.683,238.58 13.831,216.068 "/>
<polygon style="fill:#F95428;" points="498.317,215.886 498.317,512 451.078,512 331.387,491.703 257.27,438.391 302.715,375.743 
	311.882,286.258 332.31,227.056 "/>
<polygon style="fill:#70E5CF;" points="498.317,215.886 433.732,268.665 432.965,267.729 383.398,215.886 432.965,158.115 "/>
<path style="fill:#F2F2F2;" d="M433.732,268.665l-0.013,0.013L302.715,375.743l-27.605-25.356
	c-10.766-9.869-27.306-9.869-38.085,0.026l-29.191,26.825l-1.131-1.235l-18.217-15.109L76.141,267.729V54.573h356.824v213.156
	L433.732,268.665z"/>
<rect x="76.145" y="54.573" style="fill:#E6E6E6;" width="28.125" height="251.735"/>
<g>
	<rect x="332.314" y="120.341" style="fill:#4D4D4D;" width="65.924" height="15.603"/>
	<rect x="110.862" y="120.341" style="fill:#4D4D4D;" width="182.17" height="15.603"/>
	<rect x="247.691" y="164.213" style="fill:#4D4D4D;" width="150.547" height="15.603"/>
	<rect x="110.862" y="164.213" style="fill:#4D4D4D;" width="102.111" height="15.603"/>
	<rect x="332.314" y="211.452" style="fill:#4D4D4D;" width="65.924" height="15.603"/>
	<rect x="110.862" y="211.452" style="fill:#4D4D4D;" width="182.17" height="15.603"/>
	<rect x="247.691" y="255.324" style="fill:#4D4D4D;" width="150.547" height="15.603"/>
	<rect x="110.862" y="255.324" style="fill:#4D4D4D;" width="102.111" height="15.603"/>
</g>
<polygon style="fill:#F95428;" points="207.834,377.238 185.794,397.484 61.109,512 13.831,512 13.831,216.068 206.702,376.003 "/>
<polygon style="fill:#E54728;" points="13.831,216.068 13.831,512 35.286,512 35.286,233.859 "/>
<path style="fill:#F95428;" d="M306.169,365.648l22.737,20.88L465.523,512H46.663l133.922-123l23.673-21.746l31.354-28.812
	c11.578-10.629,29.344-10.629,40.907-0.027L306.169,365.648z"/>
<g>
</g>
<g>
</g>
<g>
</g>
<g>
</g>
<g>
</g>
<g>
</g>
<g>
</g>
<g>
</g>
<g>
</g>
<g>
</g>
<g>
</g>
<g>
</g>
<g>
</g>
<g>
</g>
<g>
</g>
</svg>
