<?xml version="1.0" encoding="iso-8859-1"?>
<!-- Generator: Adobe Illustrator 19.0.0, SVG Export Plug-In . SVG Version: 6.00 Build 0)  -->
<svg version="1.1" id="Layer_1" xmlns="http://www.w3.org/2000/svg" xmlns:xlink="http://www.w3.org/1999/xlink" x="0px" y="0px"
	 viewBox="0 0 512 512" style="enable-background:new 0 0 512 512;" xml:space="preserve">
<path style="fill:#E6E9ED;" d="M404.098,170.422c0,80.594-65.344,145.922-145.938,145.922c-80.578,0-145.914-65.328-145.914-145.922
	S177.581,24.5,258.16,24.5C338.754,24.5,404.098,89.828,404.098,170.422z"/>
<path style="fill:#4FC2E9;" d="M316.051,170.406c0,31.969-25.922,57.891-57.891,57.891c-31.961,0-57.875-25.922-57.875-57.891
	c0-31.953,25.914-57.875,57.875-57.875C290.129,112.531,316.051,138.453,316.051,170.406z"/>
<path style="fill:#ED5564;" d="M277.004,408.172c0,10.406-8.438,18.828-18.828,18.828c-10.406,0-18.836-8.422-18.836-18.828
	c0-10.391,8.43-18.828,18.836-18.828C268.566,389.344,277.004,397.781,277.004,408.172z"/>
<path d="M416.004,160c-0.125,0-0.25,0.016-0.359,0.016c-5.25-79.875-69.109-143.734-148.984-148.984c0-0.125,0-0.25,0-0.375
	C266.66,4.781,261.895,0,256.004,0c-5.891,0-10.656,4.781-10.656,10.656c0,0.125,0,0.25,0,0.375
	C165.48,16.281,101.613,80.14,96.363,160.015c-0.117,0-0.234-0.016-0.359-0.016c-5.891,0-10.664,4.781-10.664,10.656
	c0,5.906,4.773,10.672,10.664,10.672c0.125,0,0.242-0.016,0.359-0.016c2.859,43.453,23.055,82.172,53.742,109.281v82.734
	c-5.891,0-10.664,4.781-10.664,10.672s4.773,10.656,10.664,10.656v64c0,5.906,4.781,10.672,10.672,10.672
	s10.664-4.766,10.664-10.672v-64c5.891,0,10.664-4.766,10.664-10.656s-4.773-10.672-10.664-10.672V306.5
	c21.906,13.672,47.367,22.188,74.656,23.844v44.812c-12.414,4.406-21.32,16.25-21.32,30.172c0,13.938,8.906,25.781,21.32,30.172
	v33.828c-5.875,0-10.656,4.781-10.656,10.672s4.781,10.656,10.656,10.656V502h0.047c0.344,5.578,4.953,10,10.641,10
	c5.656,0,10.281-4.422,10.625-10h0.031v-11.344c5.891,0,10.656-4.766,10.656-10.656s-4.766-10.672-10.656-10.672V435.5
	c12.438-4.391,21.344-16.234,21.344-30.172c0-13.922-8.906-25.766-21.344-30.172V330.25c27.359-1.938,52.812-10.734,74.656-24.719
	v67.797c-5.875,0-10.656,4.781-10.656,10.672s4.781,10.656,10.656,10.656v64c0,5.906,4.781,10.672,10.688,10.672
	c5.875,0,10.656-4.766,10.656-10.672v-64c5.891,0,10.656-4.766,10.656-10.656s-4.766-10.672-10.656-10.672v-84.109
	c29.828-27.031,49.391-65.188,52.203-107.906c0.109,0,0.234,0.016,0.359,0.016c5.891,0,10.656-4.766,10.656-10.672
	C426.66,164.781,421.895,160,416.004,160z M302.098,58.656c5.906,0,11.781,0.625,17.531,1.812
	c9.484,10.594,16.062,23.156,19.328,36.719c-11.953-4.406-24.359-6.531-36.672-6.531c-0.031,0-0.062,0-0.094,0
	c-6.141-10.688-14.188-20.375-24-28.547C285.941,59.828,294.004,58.656,302.098,58.656L302.098,58.656z M256.785,224
	c-29.422,0-53.344-23.938-53.344-53.344s23.922-53.328,53.344-53.328c29.406,0,53.312,23.922,53.312,53.328S286.191,224,256.785,224
	z M278.535,248c-6.094,8.281-13.688,15.406-22.531,21.094c-8.844-5.688-16.43-12.812-22.523-21.094
	c4.086-0.938,8.117-2.094,12.07-3.5c3.672,0.547,7.406,0.828,11.234,0.828c3.406,0,6.781-0.234,10.094-0.672
	C270.691,245.984,274.582,247.109,278.535,248z M233.479,93.312c6.094-8.25,13.68-15.391,22.523-21.062
	c8.844,5.672,16.438,12.812,22.531,21.078c-3.938,0.891-7.844,2.016-11.656,3.359C263.566,96.234,260.207,96,256.785,96
	c-3.828,0-7.562,0.281-11.219,0.844C241.598,95.438,237.574,94.25,233.479,93.312z M253.863,32.031
	c0.703-0.016,1.422-0.031,2.141-0.031c0.719,0,1.438,0.016,2.141,0.031c10.453,0.25,20.578,2.375,30,6.219
	c-10.922,1.438-21.766,4.609-32.141,9.609c-10.375-5-21.219-8.172-32.141-9.625C233.292,34.406,243.41,32.281,253.863,32.031z
	 M192.37,60.469c5.75-1.188,11.633-1.812,17.547-1.812l0,0c8.102,0,16.148,1.172,23.906,3.453
	c-9.812,8.172-17.867,17.859-24.016,28.547c-0.031,0-0.062,0-0.094,0c-12.289,0-24.703,2.125-36.664,6.531
	C176.324,83.625,182.895,71.062,192.37,60.469z M200.285,112.531c-1.344,4.344-2.398,8.766-3.18,13.25
	c-3.734,4.953-6.867,10.391-9.289,16.219c-3.547,2.938-6.914,6.125-10.047,9.5c-4.117-9.406-6.5-19.531-7-30.031
	C180.011,116.719,190.026,113.688,200.285,112.531z M177.77,189.828c3.133,3.391,6.5,6.547,10.047,9.516
	c2.422,5.812,5.555,11.25,9.289,16.219c0.781,4.469,1.836,8.906,3.18,13.25c-10.258-1.156-20.273-4.188-29.516-8.953
	C171.27,209.375,173.651,199.219,177.77,189.828z M135.917,101.328c5.523-9.578,12.828-17.922,21.445-24.641
	c-4.195,10.156-6.867,21.109-7.727,32.562c-9.516,6.5-17.672,14.312-24.391,23.031C126.738,121.516,130.315,111.031,135.917,101.328
	z M163.613,170.656c-6.172,10.688-10.547,22.516-12.719,35.109c-10.117-9.625-17.711-21.609-22.141-35.109
	c4.43-13.5,12.023-25.469,22.141-35.094C153.065,148.156,157.44,160,163.613,170.656z M135.917,240
	c-5.602-9.703-9.18-20.188-10.672-30.969c6.719,8.75,14.875,16.562,24.391,23.047c0.859,11.453,3.531,22.422,7.727,32.578
	C148.745,257.938,141.44,249.562,135.917,240z M192.37,280.844c-9.477-10.562-16.047-23.125-19.32-36.703
	c11.961,4.406,24.367,6.547,36.664,6.547c0.031,0,0.062,0,0.094,0c6.148,10.656,14.203,20.359,24.016,28.531
	c-7.758,2.281-15.805,3.469-23.906,3.469C204.003,282.688,198.128,282.062,192.37,280.844z M256.785,416
	c-5.891,0-10.688-4.781-10.688-10.672c0-5.875,4.797-10.672,10.688-10.672c5.875,0,10.656,4.797,10.656,10.672
	C267.441,411.219,262.66,416,256.785,416z M258.145,309.312c-0.703,0-1.422,0.016-2.141,0.016c-0.719,0-1.438-0.016-2.141-0.016
	c-10.453-0.266-20.57-2.391-30-6.219c10.922-1.438,21.766-4.625,32.141-9.625c10.375,5,21.219,8.188,32.141,9.625
	C278.723,306.922,268.582,309.047,258.145,309.312z M319.629,280.844c-5.75,1.219-11.625,1.844-17.531,1.844
	c-8.109,0-16.156-1.188-23.906-3.469c9.812-8.172,17.859-17.875,24-28.531c0.031,0,0.062,0,0.094,0
	c12.297,0,24.719-2.141,36.672-6.547C335.691,257.719,329.113,270.281,319.629,280.844z M311.723,228.812
	c1.094-3.516,1.984-7.094,2.703-10.688c5.078-6.188,9.203-13.188,12.109-20.781c2.688-2.375,5.266-4.875,7.703-7.516
	c4.109,9.391,6.5,19.547,7,30.031C332.004,224.625,321.973,227.656,311.723,228.812z M334.238,151.5
	c-2.438-2.625-5.016-5.125-7.703-7.5c-2.906-7.609-7.031-14.625-12.109-20.781c-0.719-3.625-1.609-7.188-2.703-10.688
	c10.25,1.156,20.281,4.188,29.516,8.938C340.738,131.969,338.348,142.094,334.238,151.5z M376.098,240
	c-5.531,9.562-12.844,17.938-21.453,24.656c4.203-10.172,6.859-21.125,7.734-32.578c9.5-6.484,17.656-14.297,24.375-23.047
	C385.27,219.812,381.691,230.297,376.098,240z M348.395,170.656c6.172-10.656,10.547-22.5,12.719-35.094
	c10.109,9.625,17.703,21.594,22.141,35.094c-4.438,13.5-12.031,25.484-22.141,35.109
	C358.941,193.172,354.566,181.344,348.395,170.656z M362.379,109.25c-0.875-11.453-3.547-22.406-7.75-32.578
	c8.625,6.734,15.938,15.078,21.469,24.656c5.594,9.703,9.172,20.188,10.656,30.953C380.035,123.562,371.879,115.75,362.379,109.25z"
	/>
<path d="M256.785,160c-5.906,0-10.688,4.781-10.688,10.656c0,5.906,4.781,10.672,10.688,10.672c5.875,0,10.656-4.766,10.656-10.672
	C267.441,164.781,262.66,160,256.785,160z"/>
<g>
</g>
<g>
</g>
<g>
</g>
<g>
</g>
<g>
</g>
<g>
</g>
<g>
</g>
<g>
</g>
<g>
</g>
<g>
</g>
<g>
</g>
<g>
</g>
<g>
</g>
<g>
</g>
<g>
</g>
</svg>
