<?xml version="1.0" encoding="iso-8859-1"?>
<!-- Generator: Adobe Illustrator 19.0.0, SVG Export Plug-In . SVG Version: 6.00 Build 0)  -->
<svg version="1.1" id="Layer_1" xmlns="http://www.w3.org/2000/svg" xmlns:xlink="http://www.w3.org/1999/xlink" x="0px" y="0px"
	 viewBox="0 0 511.999 511.999" style="enable-background:new 0 0 511.999 511.999;" xml:space="preserve">
<path style="fill:#FFEE88;" d="M375.746,130.315c0,45.497-25.839,85.008-63.761,104.925v-0.001c0-6.387-5.235-11.565-11.691-11.565
	h-88.589c-6.457,0-11.691,5.178-11.691,11.565l0,0c-37.923-19.918-63.761-59.428-63.761-104.923
	c0-65.544,53.614-118.677,119.75-118.677C322.132,11.638,375.746,64.771,375.746,130.315z"/>
<path style="fill:#FFBB5E;" d="M88.551,335.671l12.098,22.61v31.501c-3.683-0.045-7.057-2.067-8.784-5.297l-21.128-39.489
	c-2.603-4.866-0.726-10.899,4.193-13.474C79.849,328.947,85.948,330.804,88.551,335.671z M437.068,331.522
	c-4.919-2.574-11.016-0.717-13.62,4.148l-12.098,22.61v31.501c3.683-0.045,7.057-2.068,8.783-5.297l21.128-39.489
	C443.866,340.129,441.988,334.098,437.068,331.522z M224.498,454.342c-5.566,0-10.077,4.463-10.077,9.968v25.297v20.422l7.896,1.732
	c2.985,0.653,6.105-0.067,8.489-1.958c2.383-1.892,3.77-4.752,3.77-7.775v-37.719C234.576,458.804,230.065,454.342,224.498,454.342z
	 M287.503,454.342c-5.565,0-10.077,4.463-10.077,9.968v37.719c0,3.023,1.387,5.884,3.77,7.775c1.805,1.434,4.036,2.194,6.309,2.194
	c0.727,0,1.458-0.078,2.18-0.236l7.681-1.685V469.77h0.216v-5.459C297.581,458.804,293.07,454.342,287.503,454.342z"/>
<path style="fill:#FF431C;" d="M431.849,468.656c-13.265,14.964-18.294,16.441-37.462,20.287c-3.671,0.737-7.832,1.572-12.867,2.675
	l-91.836,20.143c-0.735,0.161-1.468,0.238-2.19,0.238c-4.621,0-8.788-3.163-9.829-7.812c-1.205-5.375,2.224-10.697,7.657-11.89
	l91.836-20.143c5.212-1.143,9.469-1.997,13.223-2.75c16.708-3.352,17.027-3.416,26.313-13.892c2.492-2.813,3.467-5.772,2.896-8.802
	c-0.806-4.276-4.526-8.507-9.951-11.319c-4.189-2.169-10.438-3.81-17.673-5.709l-0.803-0.21L256,393.947l-135.987,35.74
	c-7.228,1.898-13.47,3.535-17.655,5.703c-5.424,2.81-9.143,7.041-9.949,11.319c-0.57,3.029,0.404,5.99,2.896,8.802
	c9.286,10.475,9.606,10.538,26.312,13.892c3.755,0.752,8.011,1.606,13.223,2.749l91.838,20.143c5.434,1.191,8.862,6.515,7.657,11.89
	c-1.205,5.375-6.586,8.767-12.02,7.574l-91.838-20.143c-5.034-1.103-9.195-1.938-12.867-2.675
	c-19.167-3.847-24.195-5.324-37.461-20.286c-6.584-7.427-9.266-16.519-7.555-25.6c1.958-10.388,9.396-19.618,20.411-25.326
	c6.186-3.204,13.439-5.11,21.838-7.314l131.079-34.45v-120.17c0-5.505,4.511-9.968,10.077-9.968c5.566,0,10.078,4.463,10.078,9.968
	v120.173l131.056,34.445c8.407,2.206,15.667,4.11,21.857,7.317c11.016,5.707,18.456,14.939,20.413,25.327
	C441.115,452.139,438.432,461.23,431.849,468.656z M96.16,388.685c4.949,2.519,11.025,0.595,13.572-4.3l47.341-90.959
	c24.004-46.12,47.708-65.798,79.265-65.798h39.323c31.557,0,55.263,19.679,79.265,65.798l47.339,90.959
	c1.788,3.435,5.314,5.407,8.968,5.407c1.553,0,3.129-0.356,4.605-1.107c4.947-2.52,6.894-8.531,4.348-13.426L372.847,284.3
	c-18.563-35.667-46.386-76.61-97.189-76.61h-39.323c-50.797,0-78.619,40.942-97.183,76.61l-47.341,90.959
	C89.266,380.154,91.211,386.165,96.16,388.685z"/>
<path style="fill:#FFCE76;" d="M256.001,89.318c22.844,0,41.365,18.355,41.365,40.997s-18.521,40.997-41.365,40.997
	c-22.846,0-41.367-18.355-41.367-40.997S233.154,89.318,256.001,89.318L256.001,89.318z"/>
<path style="fill:#FFBB5E;" d="M297.366,130.315c0,22.642-18.521,40.997-41.365,40.997c-18.637,0-34.39-12.216-39.565-29.007
	c6.935,5.205,15.575,8.297,24.946,8.297c22.844,0,41.365-18.355,41.365-40.997c0-4.173-0.633-8.198-1.802-11.991
	C290.918,105.099,297.366,116.96,297.366,130.315z"/>
<path style="fill:#FF7B00;" d="M267.51,9.968v37.72c0,5.505-4.511,9.968-10.078,9.968c-5.566,0-10.077-4.463-10.077-9.968V9.968
	c0-5.505,4.511-9.968,10.077-9.968C262.998,0,267.51,4.463,267.51,9.968z M180.175,73.255l-27.335-23.398
	c-4.21-3.603-10.573-3.148-14.215,1.015c-3.642,4.163-3.182,10.458,1.026,14.061l27.335,23.398c1.906,1.631,4.253,2.431,6.59,2.431
	c2.824,0,5.632-1.168,7.624-3.446C184.843,83.152,184.383,76.857,180.175,73.255z M376.252,50.872
	c-3.641-4.163-10.006-4.618-14.215-1.016l-27.34,23.398c-4.208,3.602-4.669,9.897-1.027,14.061c1.992,2.278,4.801,3.446,7.625,3.446
	c2.336,0,4.684-0.799,6.589-2.43l27.34-23.398C379.433,61.331,379.894,55.036,376.252,50.872z"/>
<g>
</g>
<g>
</g>
<g>
</g>
<g>
</g>
<g>
</g>
<g>
</g>
<g>
</g>
<g>
</g>
<g>
</g>
<g>
</g>
<g>
</g>
<g>
</g>
<g>
</g>
<g>
</g>
<g>
</g>
</svg>
