<?xml version="1.0" encoding="iso-8859-1"?>
<!-- Generator: Adobe Illustrator 19.0.0, SVG Export Plug-In . SVG Version: 6.00 Build 0)  -->
<svg version="1.1" id="Layer_1" xmlns="http://www.w3.org/2000/svg" xmlns:xlink="http://www.w3.org/1999/xlink" x="0px" y="0px"
	 viewBox="0 0 512 512" style="enable-background:new 0 0 512 512;" xml:space="preserve">
<path style="fill:#F6BB42;" d="M355.359,285.203C355.359,285.203,252,84.609,244,85L128,410l-81-11l74,70.344
	c0,0,217-21.344,234.359-17.172S355.359,285.203,355.359,285.203z"/>
<g>
	<polygon style="fill:#FFCE54;" points="101.344,77.344 101.344,341.344 172.016,469.344 342.672,463.609 377.344,432.359 	"/>
	<polygon style="fill:#FFCE54;" points="430,138 322,351 382,424 447,220 455,197 480,181 	"/>
</g>
<path d="M426.656,117.344l-73.594,152.125L234.578,52.734l-40.125,123.953C135.812,99.562,86.656,34.656,85.328,32l0.188,320.219
	l28.938,43.438L0,373.344L106.656,480h64H192h154.594l46.547-42.656c0,0,60.141-199.531,69.719-234.688H512L426.656,117.344z
	 M239.625,106.438l102.016,186.625l-22.734,47c-32.625-42.781-71.812-94.203-108.719-142.688L239.625,106.438z M115.5,458.656
	l-51.031-51.031l66.625,13l25.344,38.031H115.5z M338.297,458.656H182.078L106.844,345.75l-0.141-249.422
	c3.391,4.484,7.094,9.391,11.109,14.703c25.688,33.906,61.25,80.688,105.703,139.062c58.047,76.234,116.453,152.75,140.844,184.688
	L338.297,458.656z M377.766,414.391l-2.312-0.234c-10.469-13.703-25-32.75-42.047-55.094l75.672-156.406h31.641
	C430.016,240.531,391.656,368.25,377.766,414.391z M419.391,181.344l13.406-27.703l27.688,27.703H419.391z"/>
<g>
</g>
<g>
</g>
<g>
</g>
<g>
</g>
<g>
</g>
<g>
</g>
<g>
</g>
<g>
</g>
<g>
</g>
<g>
</g>
<g>
</g>
<g>
</g>
<g>
</g>
<g>
</g>
<g>
</g>
</svg>
