<?xml version="1.0" encoding="iso-8859-1"?>
<!-- Generator: Adobe Illustrator 19.0.0, SVG Export Plug-In . SVG Version: 6.00 Build 0)  -->
<svg version="1.1" id="Layer_1" xmlns="http://www.w3.org/2000/svg" xmlns:xlink="http://www.w3.org/1999/xlink" x="0px" y="0px"
	 viewBox="0 0 512 512" style="enable-background:new 0 0 512 512;" xml:space="preserve">
<g>
	<rect x="298.985" style="fill:#2197D8;" width="27.487" height="53.944"/>
	<rect x="61.401" style="fill:#2197D8;" width="27.487" height="53.944"/>
</g>
<path style="fill:#F7B239;" d="M79.241,511.988C78.873,512,78.518,512,78.15,512c-11.652,0-22.201-4.722-29.83-12.351
	c-7.641-7.641-12.351-18.178-12.351-29.842V427.65V41.703h16.24h27.487h34.343h175.753h27.487h34.344h40.035v429.269
	l-228.875-11.039l-19.625,24.531C143.157,507.4,102.031,511.411,79.241,511.988z M286.811,273.178
	c4.587-9.064,6.881-19.968,6.881-32.724c0-14.535-2.649-26.334-7.924-35.411c-5.286-9.064-12.106-16.129-20.471-21.219
	c-8.365-5.078-17.785-8.463-28.235-10.156c-10.462-1.693-20.876-2.539-31.228-2.539c-9.972,0-19.981,0.454-30.038,1.349
	c-10.058,0.895-19.269,2.134-27.646,3.729v207.091h40.942v-72.011c0.993,0.196,2.637,0.392,4.931,0.589
	c2.294,0.208,4.636,0.356,7.028,0.454c2.392,0.098,4.673,0.147,6.869,0.147s3.79,0,4.784,0c10.352,0,20.373-1.349,30.038-4.035
	c9.653-2.686,18.276-6.967,25.843-12.842S282.224,282.254,286.811,273.178z"/>
<g>
	<polygon style="fill:#F95428;" points="83.186,511.993 83.186,104.175 344.442,104.175 344.442,428.226 	"/>
	<path style="fill:#F95428;" d="M247.071,223.576c2.392,4.281,3.582,9.714,3.582,16.289c0,7.764-1.239,14.044-3.729,18.828
		c-2.502,4.771-5.826,8.512-10.009,11.198c-4.195,2.698-8.929,4.538-14.203,5.532c-5.274,0.993-10.61,1.496-15.982,1.496
		c-0.797,0-2.048,0-3.741,0c-1.693,0-3.434-0.049-5.225-0.147c-1.791-0.098-3.496-0.258-5.078-0.454
		c-1.595-0.196-2.797-0.393-3.594-0.601v-67.828c2.196-0.405,5.078-0.748,8.672-1.055c3.582-0.294,7.372-0.442,11.358-0.442
		c5.176,0,10.254,0.503,15.234,1.496c4.98,0.993,9.42,2.784,13.296,5.372C241.539,215.861,244.679,219.295,247.071,223.576z"/>
</g>
<path style="fill:#F7B239;" d="M133.431,398.016V164.026l11.966-2.278c8.776-1.671,18.565-2.993,29.094-3.931
	c10.489-0.933,21.034-1.407,31.343-1.407c11.094,0,22.391,0.917,33.578,2.728c12.295,1.992,23.574,6.064,33.523,12.105
	c10.454,6.361,19.045,15.235,25.548,26.387c6.591,11.342,9.929,25.744,9.929,42.825c0,15.024-2.848,28.27-8.467,39.371
	c-5.553,10.986-13.068,20.207-22.334,27.4c-9.045,7.022-19.447,12.202-30.921,15.396c-10.924,3.036-22.356,4.574-33.985,4.574
	h-4.784c-1.334,0-2.707-0.017-4.109-0.05v70.871H133.431z M206.729,262.2c4.421,0,8.881-0.418,13.259-1.242
	c3.432-0.646,6.365-1.775,8.967-3.448c1.999-1.284,3.611-3.133,4.933-5.654c0.921-1.77,2.045-5.327,2.045-11.991
	c0-4.997-0.931-7.713-1.712-9.11c-1.25-2.236-2.804-3.957-4.752-5.259c-2.267-1.514-4.884-2.554-7.996-3.174
	c-4.03-0.803-8.188-1.212-12.353-1.212c-1.814,0-3.589,0.034-5.311,0.102v40.988h2.919V262.2z"/>
<path style="fill:#2197D8;" d="M293.692,240.453c0,12.756-2.294,23.66-6.881,32.724c-4.587,9.076-10.659,16.546-18.227,22.421
	c-7.568,5.875-16.19,10.156-25.843,12.842c-9.665,2.686-19.686,4.035-30.038,4.035c-0.994,0-2.588,0-4.784,0
	s-4.477-0.049-6.869-0.147c-2.392-0.098-4.734-0.245-7.028-0.454c-2.294-0.196-3.937-0.393-4.931-0.589v72.011h-40.942V176.207
	c8.377-1.595,17.589-2.833,27.646-3.729c10.058-0.895,20.066-1.349,30.038-1.349c10.352,0,20.766,0.846,31.228,2.539
	c10.45,1.693,19.87,5.078,28.235,10.156c8.365,5.09,15.185,12.155,20.471,21.219C291.043,214.119,293.692,225.919,293.692,240.453z
	 M250.652,239.865c0-6.574-1.19-12.008-3.582-16.289c-2.392-4.281-5.532-7.715-9.42-10.315c-3.876-2.588-8.316-4.379-13.296-5.372
	c-4.98-0.993-10.058-1.496-15.234-1.496c-3.986,0-7.776,0.147-11.358,0.442c-3.594,0.307-6.476,0.65-8.672,1.055v67.828
	c0.797,0.209,1.999,0.405,3.594,0.601c1.582,0.196,3.287,0.356,5.078,0.454s3.532,0.147,5.225,0.147s2.944,0,3.741,0
	c5.372,0,10.708-0.503,15.982-1.496c5.274-0.993,10.009-2.833,14.203-5.532c4.183-2.686,7.507-6.427,10.009-11.198
	C249.413,253.909,250.652,247.629,250.652,239.865z"/>
<g>
	<polygon style="fill:#2BA5F7;" points="351.622,41.703 351.622,71.14 317.279,71.14 317.279,41.703 317.279,0 351.622,0 	"/>
	<polygon style="fill:#2BA5F7;" points="114.039,41.703 114.039,71.14 79.695,71.14 79.695,41.703 79.695,0 114.039,0 	"/>
</g>
<path style="fill:#E09B2D;" d="M476.031,427.65v42.157c0,11.665-4.722,22.201-12.351,29.842C456.026,507.278,445.49,512,433.85,512
	v-0.012H79.241c22.789-0.577,41.09-19.245,41.09-42.181V427.65h271.326L476.031,427.65L476.031,427.65z"/>
<g>
</g>
<g>
</g>
<g>
</g>
<g>
</g>
<g>
</g>
<g>
</g>
<g>
</g>
<g>
</g>
<g>
</g>
<g>
</g>
<g>
</g>
<g>
</g>
<g>
</g>
<g>
</g>
<g>
</g>
</svg>
