<?xml version="1.0" encoding="iso-8859-1"?>
<!-- Generator: Adobe Illustrator 19.0.0, SVG Export Plug-In . SVG Version: 6.00 Build 0)  -->
<svg version="1.1" id="Layer_1" xmlns="http://www.w3.org/2000/svg" xmlns:xlink="http://www.w3.org/1999/xlink" x="0px" y="0px"
	 viewBox="0 0 512 512" style="enable-background:new 0 0 512 512;" xml:space="preserve">
<polygon style="fill:#5E9CEA;" points="399.984,256 338.984,183 298.984,170 256,160 207.984,171 174.984,185 138.672,217 
	105.984,291 105.984,501 406.984,506 406.984,309.328 "/>
<rect x="156.48" y="275.5" style="fill:#F4F6F9;" width="198" height="68"/>
<path style="fill:#46CEAD;" d="M271.648,31.656c0,9.766-7.836,17.672-17.5,17.672s-17.5-7.906-17.5-17.672
	c0-9.75,7.836-17.664,17.5-17.664S271.648,21.906,271.648,31.656z"/>
<path d="M266.672,149.695V62.172C279.078,57.781,287.984,45.93,287.984,32c0-17.672-14.313-32-32-32c-17.656,0-32,14.328-32,32
	c0,13.93,8.906,25.781,21.344,30.172v87.523c-83.406,5.492-149.344,74.859-149.344,159.633V512h320V309.328
	C415.984,224.555,350.047,155.188,266.672,149.695z M255.984,21.336c5.906,0,10.688,4.781,10.688,10.664
	s-4.781,10.664-10.688,10.664c-5.875,0-10.656-4.781-10.656-10.664S250.109,21.336,255.984,21.336z M394.672,309.328v181.344
	H117.328V309.328c0-18.719,3.656-36.875,10.875-53.969c7-16.508,17-31.336,29.75-44.078c12.719-12.742,27.563-22.742,44.063-29.727
	c17.094-7.227,35.25-10.891,53.969-10.891c18.75,0,36.906,3.664,53.969,10.891c16.531,6.984,31.344,16.984,44.094,29.727
	s22.75,27.57,29.719,44.078C390.984,272.453,394.672,290.609,394.672,309.328z"/>
<path d="M191.984,256c-29.438,0-53.313,23.875-53.313,53.328c0,29.469,23.875,53.344,53.313,53.344h128
	c29.469,0,53.344-23.875,53.344-53.344c0-29.453-23.875-53.328-53.344-53.328H191.984z M351.984,309.328c0,17.656-14.344,32-32,32
	h-128c-17.625,0-32-14.344-32-32c0-17.641,14.375-32,32-32h128C337.641,277.328,351.984,291.688,351.984,309.328z"/>
<path d="M191.984,298.672c-5.875,0-10.656,4.766-10.656,10.656c0,5.906,4.781,10.672,10.656,10.672h128
	c5.906,0,10.688-4.766,10.688-10.672c0-5.891-4.781-10.656-10.688-10.656H191.984z"/>
<path d="M74.672,277.328c-5.906,0-10.688,4.781-10.688,10.672v32c-5.875,0-10.656,4.766-10.656,10.672
	c0,5.875,4.781,10.656,10.656,10.656v32c0,5.906,4.781,10.672,10.688,10.672c5.875,0,10.656-4.766,10.656-10.672V288
	C85.328,282.109,80.547,277.328,74.672,277.328z"/>
<path d="M447.984,320v-32c0-5.891-4.781-10.672-10.656-10.672c-5.906,0-10.656,4.781-10.656,10.672v85.328
	c0,5.906,4.75,10.672,10.656,10.672c5.875,0,10.656-4.766,10.656-10.672v-32c5.906,0,10.688-4.781,10.688-10.656
	C458.672,324.766,453.891,320,447.984,320z"/>
<path d="M319.984,416c-5.875,0-10.656,4.766-10.656,10.672H202.672c0-5.906-4.781-10.672-10.688-10.672
	c-5.875,0-10.656,4.766-10.656,10.672v10.656c0,5.906,4.781,10.672,10.656,10.672h128c5.906,0,10.688-4.766,10.688-10.672v-10.656
	C330.672,420.766,325.891,416,319.984,416z"/>
<g>
</g>
<g>
</g>
<g>
</g>
<g>
</g>
<g>
</g>
<g>
</g>
<g>
</g>
<g>
</g>
<g>
</g>
<g>
</g>
<g>
</g>
<g>
</g>
<g>
</g>
<g>
</g>
<g>
</g>
</svg>
