<?xml version="1.0" encoding="iso-8859-1"?>
<!-- Generator: Adobe Illustrator 19.0.0, SVG Export Plug-In . SVG Version: 6.00 Build 0)  -->
<svg version="1.1" id="Layer_1" xmlns="http://www.w3.org/2000/svg" xmlns:xlink="http://www.w3.org/1999/xlink" x="0px" y="0px"
	 viewBox="0 0 512 512" style="enable-background:new 0 0 512 512;" xml:space="preserve">
<path style="fill:#EC5564;" d="M494.672,256c0,131.813-106.844,238.656-238.656,238.656C124.188,494.656,17.344,387.813,17.344,256
	S124.188,17.336,256.016,17.336C387.828,17.336,494.672,124.188,494.672,256z"/>
<path style="fill:#FB6D51;" d="M400.672,256c0,79.906-64.766,144.656-144.656,144.656c-79.906,0-144.672-64.75-144.672-144.656
	c0-79.898,64.766-144.664,144.672-144.664C335.906,111.336,400.672,176.102,400.672,256z"/>
<path style="fill:#FFCE54;" d="M300,258.438c0,21.547-19.094,39-42.656,39s-42.672-17.453-42.672-39
	c0-21.531,19.109-38.992,42.672-38.992S300,236.906,300,258.438z"/>
<path style="fill:#9ED36A;" d="M167.328,151.781c0,9.016-8.281,16.328-18.5,16.328s-18.5-7.313-18.5-16.328
	c0-9.023,8.281-16.336,18.5-16.336S167.328,142.758,167.328,151.781z"/>
<ellipse style="fill:#46CEAD;" cx="430.83" cy="428.45" rx="18.5" ry="16.328"/>
<path d="M330.656,245.344H308.25c-1.344-6.586-3.922-12.969-7.75-18.758l15.828-15.844c4.172-4.164,4.172-10.914,0-15.086
	c-4.156-4.164-10.922-4.164-15.078,0L285.406,211.5c-5.797-3.836-12.172-6.414-18.75-7.75v-22.414
	c0-5.891-4.766-10.672-10.656-10.672c-5.906,0-10.672,4.781-10.672,10.672v22.414c-6.578,1.336-12.953,3.914-18.75,7.75
	l-15.844-15.844c-4.156-4.164-10.922-4.164-15.078,0c-4.172,4.172-4.172,10.922,0,15.086l15.844,15.844
	c-3.844,5.789-6.422,12.172-7.766,18.758h-22.406c-5.891,0-10.672,4.766-10.672,10.656c0,5.89,4.781,10.656,10.672,10.656h22.406
	c1.344,6.594,3.922,12.969,7.766,18.75l-15.844,15.844c-4.172,4.172-4.172,10.922,0,15.094c4.156,4.156,10.922,4.156,15.078,0
	l15.844-15.844c5.797,3.844,12.172,6.406,18.75,7.75v22.406c0,5.906,4.766,10.688,10.672,10.688c5.891,0,10.656-4.781,10.656-10.688
	V308.25c6.578-1.344,12.953-3.906,18.75-7.75l15.844,15.844l0,0c4.156,4.156,10.922,4.156,15.078,0
	c4.172-4.172,4.172-10.922,0-15.094L300.5,285.406c3.828-5.781,6.406-12.156,7.75-18.75h22.406c5.891,0,10.672-4.766,10.672-10.656
	S336.547,245.344,330.656,245.344z M278.625,278.625C272.578,284.672,264.547,288,256,288c-8.563,0-16.594-3.328-22.641-9.375
	c-12.469-12.469-12.469-32.781,0-45.25C239.406,227.328,247.438,224,256,224c8.547,0,16.578,3.328,22.625,9.375
	C291.094,245.844,291.094,266.156,278.625,278.625z"/>
<path d="M512,256C512,114.617,397.375,0,256,0C114.609,0,0,114.617,0,256c0,141.375,114.609,256,256,256
	c59.531,0,114.313-20.328,157.797-54.422c4.969,2.922,10.563,4.359,16.141,4.359c8.188,0,16.375-3.125,22.625-9.359
	c10.516-10.516,12.188-26.516,5.016-38.766C491.656,370.313,512,315.531,512,256z M256,490.656
	c-31.688,0-62.422-6.188-91.344-18.422c-27.938-11.828-53.031-28.734-74.594-50.297s-38.484-46.656-50.297-74.594
	C27.531,318.422,21.328,287.688,21.328,256s6.203-62.422,18.438-91.336c11.813-27.945,28.734-53.039,50.297-74.602
	c21.563-21.555,46.656-38.477,74.594-50.297c28.922-12.234,59.656-18.43,91.344-18.43s62.406,6.195,91.328,18.43
	c27.938,11.82,53.047,28.742,74.594,50.297c21.563,21.563,38.484,46.656,50.297,74.602c12.234,28.914,18.438,59.648,18.438,91.336
	s-6.203,62.422-18.438,91.344c-8,18.938-18.375,36.563-30.938,52.688c-3.656-1.375-7.5-2.094-11.344-2.094
	c-8.188,0-16.375,3.125-22.625,9.375c-9.188,9.188-11.609,22.563-7.297,33.969c-16.109,12.563-33.734,22.938-52.688,30.953
	C318.406,484.469,287.688,490.656,256,490.656z M437.484,437.5c-2.719,2.719-5.891,3.125-7.547,3.125
	c-1.641,0-4.813-0.406-7.531-3.125s-3.125-5.906-3.125-7.563c0-1.641,0.406-4.813,3.125-7.531s5.891-3.125,7.531-3.125
	c1.656,0,4.828,0.406,7.547,3.125C441.641,426.563,441.641,433.344,437.484,437.5z"/>
<path d="M256,96c-32.953,0-63.563,9.961-89.016,27.031c-4.844-2.938-10.516-4.625-16.578-4.625c-17.688,0-32,14.328-32,32
	c0,6.07,1.688,11.742,4.625,16.578c-17.078,25.453-27.047,56.07-27.047,89.016c0,88.375,71.641,160,160.016,160
	c88.359,0,160-71.625,160-160C416,167.633,344.359,96,256,96z M150.406,139.742c5.875,0,10.656,4.781,10.656,10.664
	s-4.781,10.664-10.656,10.664c-5.891,0-10.672-4.781-10.672-10.664S144.516,139.742,150.406,139.742z M354.047,354.063
	c-12.734,12.734-27.578,22.734-44.078,29.719c-17.094,7.218-35.25,10.89-53.969,10.89c-18.734,0-36.891-3.672-53.969-10.891
	c-16.516-6.984-31.344-16.984-44.094-29.719c-12.734-12.75-22.75-27.594-29.719-44.094c-7.234-17.078-10.891-35.25-10.891-53.969
	c0-18.727,3.656-36.891,10.891-53.969c3.172-7.531,7-14.695,11.422-21.484c3.359,1.203,6.984,1.859,10.766,1.859
	c17.672,0,32-14.328,32-32c0-3.773-0.672-7.398-1.875-10.758c6.797-4.414,13.969-8.242,21.5-11.43
	c17.078-7.227,35.234-10.891,53.969-10.891c18.719,0,36.875,3.664,53.969,10.891c16.5,6.984,31.344,16.984,44.078,29.727
	s22.734,27.578,29.734,44.086c7.219,17.079,10.875,35.243,10.875,53.97c0,18.719-3.656,36.891-10.875,53.969
	C376.781,326.469,366.781,341.313,354.047,354.063z"/>
<g>
</g>
<g>
</g>
<g>
</g>
<g>
</g>
<g>
</g>
<g>
</g>
<g>
</g>
<g>
</g>
<g>
</g>
<g>
</g>
<g>
</g>
<g>
</g>
<g>
</g>
<g>
</g>
<g>
</g>
</svg>
