<?xml version="1.0" encoding="iso-8859-1"?>
<!-- Generator: Adobe Illustrator 19.0.0, SVG Export Plug-In . SVG Version: 6.00 Build 0)  -->
<svg version="1.1" id="Layer_1" xmlns="http://www.w3.org/2000/svg" xmlns:xlink="http://www.w3.org/1999/xlink" x="0px" y="0px"
	 viewBox="0 0 512 512" style="enable-background:new 0 0 512 512;" xml:space="preserve">
<g>
	<path style="fill:#FFCE54;" d="M501,254.656c0,15.094-12.25,27.328-27.344,27.328s-27.312-12.234-27.312-27.328
		s12.219-27.328,27.312-27.328S501,239.562,501,254.656z"/>
	<circle style="fill:#FFCE54;" cx="411.33" cy="100.67" r="27.328"/>
	<circle style="fill:#FFCE54;" cx="258.33" cy="37.34" r="27.328"/>
	<path style="fill:#FFCE54;" d="M128,100.672C128,115.766,115.758,128,100.664,128s-27.328-12.234-27.328-27.328
		s12.234-27.328,27.328-27.328S128,85.578,128,100.672z"/>
	<path style="fill:#FFCE54;" d="M64.664,256c0,15.094-12.242,27.328-27.336,27.328S10,271.094,10,256s12.234-27.328,27.328-27.328
		S64.664,240.906,64.664,256z"/>
	<path style="fill:#FFCE54;" d="M134,409.328c0,15.094-12.242,27.328-27.336,27.328s-27.328-12.234-27.328-27.328
		S91.57,382,106.664,382S134,394.234,134,409.328z"/>
	<path style="fill:#FFCE54;" d="M283.328,473.984c0,15.094-12.234,27.328-27.328,27.328s-27.336-12.234-27.336-27.328
		s12.242-27.328,27.336-27.328S283.328,458.891,283.328,473.984z"/>
	<circle style="fill:#FFCE54;" cx="411.33" cy="409.33" r="27.328"/>
</g>
<path style="fill:#E6E9ED;" d="M457.328,256c0,111.203-90.141,201.328-201.328,201.328c-111.195,0-201.336-90.125-201.336-201.328
	c0-111.188,90.141-201.328,201.336-201.328C367.188,54.672,457.328,144.812,457.328,256z"/>
<path style="fill:#ED5564;" d="M325.344,256c0,37-30,67-67,67c-37.016,0-67.008-30-67.008-67s29.992-67,67.008-67
	C295.344,189,325.344,219,325.344,256z"/>
<path d="M469.344,213.344c-1.438,0-2.844,0.062-4.25,0.203c-5.531-27.391-16.312-52.875-31.234-75.359
	c1.078-0.906,2.141-1.844,3.156-2.875c16.672-16.656,16.672-43.672,0-60.328c-8.328-8.328-19.25-12.5-30.172-12.5
	c-10.906,0-21.844,4.172-30.156,12.5c-1.031,1.016-1.969,2.078-2.875,3.172c-22.484-14.938-47.969-25.719-75.359-31.25
	c0.141-1.406,0.203-2.812,0.203-4.25C298.656,19.094,279.562,0,256,0s-42.664,19.094-42.664,42.656c0,1.438,0.078,2.844,0.211,4.25
	c-27.391,5.531-52.875,16.312-75.367,31.234c-0.898-1.078-1.844-2.141-2.859-3.156c-8.328-8.328-19.25-12.5-30.172-12.5
	c-10.914,0-21.836,4.172-30.164,12.5c-16.664,16.656-16.664,43.672,0,60.328c1.016,1.031,2.07,1.969,3.156,2.875
	c-14.93,22.484-25.711,47.969-31.242,75.359c-1.391-0.141-2.805-0.203-4.234-0.203C19.102,213.344,0,232.438,0,256
	s19.102,42.656,42.664,42.656c1.43,0,2.844-0.062,4.234-0.203c5.531,27.391,16.312,52.875,31.242,75.359
	c-1.086,0.906-2.141,1.844-3.156,2.875c-16.664,16.656-16.664,43.672,0,60.328c8.328,8.328,19.25,12.5,30.164,12.5
	c10.922,0,21.844-4.172,30.172-12.5c1.016-1.016,1.961-2.078,2.859-3.172c22.492,14.938,47.977,25.719,75.367,31.25
	c-0.133,1.406-0.211,2.812-0.211,4.25C213.336,492.906,232.438,512,256,512s42.656-19.094,42.656-42.656
	c0-1.438-0.062-2.844-0.203-4.25c27.391-5.531,52.875-16.312,75.375-31.25c7.828,9.562,19.703,15.672,33.016,15.672
	c23.562,0,42.672-19.109,42.672-42.672c0-13.312-6.109-25.188-15.672-33.016c14.938-22.5,25.719-47.984,31.25-75.375
	c1.406,0.141,2.812,0.203,4.25,0.203C492.906,298.656,512,279.562,512,256S492.906,213.344,469.344,213.344z M391.766,90.062
	c4.031-4.031,9.391-6.25,15.078-6.25l0,0l0,0c5.703,0,11.062,2.219,15.094,6.25c8.312,8.312,8.312,21.844,0,30.172
	c-0.25,0.266-0.531,0.484-0.781,0.734c-2.25-2.75-4.578-5.469-6.969-8.094c0.062-0.062,0.141-0.125,0.203-0.188
	c4.172-4.156,4.172-10.906,0-15.078s-10.922-4.172-15.078,0c-0.062,0.062-0.125,0.141-0.188,0.203
	c-2.625-2.391-5.344-4.719-8.094-6.969C391.281,90.594,391.516,90.312,391.766,90.062z M234.664,42.656
	c0-11.75,9.57-21.312,21.336-21.312s21.344,9.562,21.344,21.312c0,0.375-0.031,0.719-0.047,1.062
	c-3.516-0.344-7.078-0.609-10.641-0.781c0-0.094,0-0.188,0-0.281C266.656,36.781,261.891,32,256,32s-10.656,4.781-10.656,10.656
	c0,0.094,0,0.188,0,0.281c-3.562,0.172-7.117,0.438-10.641,0.781C234.688,43.375,234.664,43.031,234.664,42.656z M90.062,120.234
	c-8.312-8.328-8.312-21.859,0-30.172c4.031-4.031,9.391-6.25,15.086-6.25c5.703,0,11.055,2.219,15.086,6.25
	c0.258,0.25,0.492,0.531,0.727,0.781c-2.75,2.25-5.453,4.578-8.086,6.969c-0.062-0.062-0.117-0.141-0.18-0.203
	c-4.164-4.172-10.922-4.172-15.086,0s-4.164,10.922,0,15.078c0.062,0.062,0.133,0.125,0.195,0.188
	c-2.383,2.625-4.703,5.344-6.961,8.094C90.586,120.719,90.32,120.5,90.062,120.234z M42.664,277.344
	c-11.758,0-21.328-9.578-21.328-21.344s9.57-21.344,21.328-21.344c0.359,0,0.711,0.031,1.055,0.047
	c-0.344,3.516-0.609,7.078-0.789,10.641c-0.086,0-0.172,0-0.266,0C36.773,245.344,32,250.109,32,256
	c0,5.891,4.773,10.656,10.664,10.656c0.094,0,0.18,0,0.266,0c0.18,3.562,0.445,7.125,0.789,10.641
	C43.375,277.312,43.023,277.344,42.664,277.344z M120.234,421.938c-4.031,4.031-9.383,6.25-15.086,6.25
	c-5.695,0-11.055-2.219-15.086-6.25c-8.312-8.312-8.312-21.859,0-30.172c0.258-0.266,0.523-0.484,0.781-0.734
	c2.258,2.75,4.578,5.469,6.961,8.094c-0.062,0.062-0.133,0.125-0.195,0.188c-4.164,4.156-4.164,10.906,0,15.078
	s10.922,4.172,15.086,0c0.062-0.062,0.117-0.141,0.18-0.203c2.633,2.391,5.336,4.719,8.086,6.969
	C120.727,421.406,120.492,421.688,120.234,421.938z M277.344,469.344c0,11.75-9.578,21.312-21.344,21.312
	s-21.336-9.562-21.336-21.312c0-0.375,0.023-0.719,0.039-1.062c3.523,0.344,7.078,0.609,10.641,0.781c0,0.094,0,0.188,0,0.281
	c0,5.875,4.766,10.656,10.656,10.656s10.656-4.781,10.656-10.656c0-0.094,0-0.188,0-0.281c3.562-0.172,7.125-0.438,10.641-0.781
	C277.312,468.625,277.344,468.969,277.344,469.344z M428.188,406.844c0,11.766-9.578,21.344-21.344,21.344
	c-6.25,0-11.906-2.719-15.812-7.031c2.766-2.25,5.469-4.578,8.094-6.969c0.062,0.062,0.125,0.141,0.188,0.203
	c4.156,4.172,10.906,4.172,15.078,0s4.172-10.922,0-15.078c-0.062-0.062-0.141-0.125-0.203-0.188
	c2.391-2.625,4.719-5.344,6.969-8.094C425.469,394.938,428.188,400.594,428.188,406.844z M432.922,330.719
	c-9.672,22.875-23.516,43.406-41.156,61.047s-38.172,31.484-61.047,41.156C307.062,442.938,281.938,448,256,448
	c-25.93,0-51.07-5.062-74.727-15.078c-22.859-9.672-43.398-23.516-61.039-41.156s-31.484-38.172-41.156-61.047
	C69.07,307.062,64,281.938,64,256s5.07-51.062,15.078-74.719c9.672-22.875,23.516-43.406,41.156-61.047s38.18-31.484,61.039-41.156
	C204.93,69.062,230.07,64,256,64c25.938,0,51.062,5.062,74.719,15.078c22.875,9.672,43.406,23.516,61.047,41.156
	s31.484,38.172,41.156,61.047C442.938,204.938,448,230.062,448,256S442.938,307.062,432.922,330.719z M469.344,277.344
	c-0.375,0-0.719-0.031-1.062-0.047c0.344-3.516,0.609-7.078,0.781-10.641c0.094,0,0.188,0,0.281,0
	c5.875,0,10.656-4.766,10.656-10.656s-4.781-10.656-10.656-10.656c-0.094,0-0.188,0-0.281,0c-0.172-3.562-0.438-7.125-0.781-10.641
	c0.344-0.016,0.688-0.047,1.062-0.047c11.75,0,21.312,9.578,21.312,21.344C490.656,267.766,481.094,277.344,469.344,277.344z"/>
<path d="M256,170.656c-47.125,0-85.336,38.219-85.336,85.344s38.211,85.344,85.336,85.344s85.344-38.219,85.344-85.344
	S303.125,170.656,256,170.656z M256,320c-35.289,0-64-28.719-64-64s28.711-64,64-64c35.281,0,64,28.719,64,64S291.281,320,256,320z"
	/>
<path d="M256,245.344c-5.891,0-10.656,4.766-10.656,10.656c0,5.89,4.766,10.656,10.656,10.656c5.89,0,10.656-4.766,10.656-10.656
	S261.891,245.344,256,245.344z"/>
<path d="M256,128c5.891,0,10.656-4.781,10.656-10.656c0-5.906-4.766-10.688-10.656-10.688s-10.656,4.781-10.656,10.688
	C245.344,123.219,250.109,128,256,128z"/>
<path d="M256,384c-5.891,0-10.656,4.781-10.656,10.656c0,5.906,4.766,10.688,10.656,10.688c5.89,0,10.656-4.781,10.656-10.688
	C266.656,388.781,261.891,384,256,384z"/>
<path d="M192,145.156c5.102-2.953,6.852-9.469,3.906-14.578s-9.469-6.859-14.57-3.906c-5.101,2.953-6.852,9.469-3.906,14.578
	C180.375,146.344,186.898,148.094,192,145.156z"/>
<path d="M320,366.844c-5.094,2.953-6.844,9.469-3.906,14.578s9.469,6.859,14.562,3.906c5.109-2.953,6.859-9.469,3.906-14.578
	C331.625,365.656,325.094,363.906,320,366.844z"/>
<path d="M141.242,177.438c-5.102-2.953-11.625-1.203-14.57,3.906c-2.945,5.094-1.195,11.625,3.906,14.562s11.625,1.188,14.57-3.906
	S146.344,180.375,141.242,177.438z"/>
<path d="M381.422,316.094c-5.109-2.938-11.625-1.188-14.578,3.906c-2.938,5.094-1.188,11.625,3.906,14.562
	c5.109,2.953,11.625,1.203,14.578-3.906C388.281,325.562,386.531,319.031,381.422,316.094z"/>
<path d="M117.336,245.344c-5.891,0-10.672,4.766-10.672,10.656c0,5.89,4.781,10.656,10.672,10.656S128,261.891,128,256
	S123.227,245.344,117.336,245.344z"/>
<path d="M394.656,245.344C388.781,245.344,384,250.11,384,256c0,5.89,4.781,10.656,10.656,10.656
	c5.906,0,10.688-4.766,10.688-10.656S400.562,245.344,394.656,245.344z"/>
<path d="M130.578,316.094c-5.102,2.938-6.852,9.469-3.906,14.562c2.945,5.109,9.469,6.859,14.57,3.906
	c5.102-2.938,6.852-9.469,3.906-14.562S135.68,313.156,130.578,316.094z"/>
<path d="M381.422,195.906c5.109-2.938,6.859-9.469,3.906-14.562c-2.953-5.125-9.469-6.859-14.578-3.906
	c-5.094,2.938-6.844,9.469-3.906,14.562C369.797,197.094,376.312,198.844,381.422,195.906z"/>
<path d="M192,366.844c-5.102-2.938-11.625-1.188-14.57,3.906c-2.945,5.109-1.195,11.625,3.906,14.578s11.625,1.203,14.57-3.906
	S197.102,369.797,192,366.844z"/>
<path d="M320,145.156c5.094,2.938,11.625,1.188,14.562-3.906c2.953-5.109,1.203-11.625-3.906-14.578
	c-5.094-2.953-11.625-1.203-14.562,3.906S314.906,142.203,320,145.156z"/>
<g>
</g>
<g>
</g>
<g>
</g>
<g>
</g>
<g>
</g>
<g>
</g>
<g>
</g>
<g>
</g>
<g>
</g>
<g>
</g>
<g>
</g>
<g>
</g>
<g>
</g>
<g>
</g>
<g>
</g>
</svg>
