<?xml version="1.0" encoding="iso-8859-1"?>
<!-- Generator: Adobe Illustrator 19.0.0, SVG Export Plug-In . SVG Version: 6.00 Build 0)  -->
<svg version="1.1" id="Layer_1" xmlns="http://www.w3.org/2000/svg" xmlns:xlink="http://www.w3.org/1999/xlink" x="0px" y="0px"
	 viewBox="0 0 512 512" style="enable-background:new 0 0 512 512;" xml:space="preserve">
<circle style="fill:#FF6D3B;" cx="256" cy="256" r="256"/>
<path style="fill:#FFFFFF;" d="M256,187.587c-54.556,0-102.76,27.037-132.053,68.413c29.293,41.38,77.497,68.42,132.053,68.42
	c54.553,0,102.76-27.04,132.053-68.42C358.76,214.624,310.553,187.587,256,187.587z"/>
<circle style="fill:#16C6CC;" cx="256" cy="256" r="68.416"/>
<circle style="fill:#242D3C;" cx="256" cy="256" r="32.345"/>
<g>
	<path style="fill:#FFFFFF;" d="M249.304,233.135c0,8.929-7.237,16.169-16.169,16.169c-8.942,0-16.173-7.237-16.173-16.169
		c0-8.935,7.231-16.173,16.173-16.173C242.064,216.962,249.304,224.2,249.304,233.135z"/>
	<rect x="253.655" y="96.091" style="fill:#FFFFFF;" width="4.704" height="17.534"/>
	
		<rect x="222.234" y="99.392" transform="matrix(0.9783 -0.2072 0.2072 0.9783 -17.5363 48.8809)" style="fill:#FFFFFF;" width="4.7" height="17.53"/>
	
		<rect x="192.179" y="109.148" transform="matrix(0.9136 -0.4066 0.4066 0.9136 -31.1376 89.2824)" style="fill:#FFFFFF;" width="4.697" height="17.53"/>
	
		<rect x="164.815" y="124.942" transform="matrix(0.809 -0.5878 0.5878 0.809 -46.6667 123.7967)" style="fill:#FFFFFF;" width="4.697" height="17.533"/>
	
		<rect x="141.305" y="146.096" transform="matrix(0.6695 -0.7429 0.7429 0.6695 -67.5558 157.9052)" style="fill:#FFFFFF;" width="4.704" height="17.535"/>
	
		<rect x="122.749" y="171.669" transform="matrix(0.4994 -0.8664 0.8664 0.4994 -93.6987 198.7127)" style="fill:#FFFFFF;" width="4.704" height="17.534"/>
	
		<rect x="109.886" y="200.534" transform="matrix(0.309 -0.9511 0.9511 0.309 -121.5011 251.3698)" style="fill:#FFFFFF;" width="4.697" height="17.528"/>
	
		<rect x="103.369" y="231.464" transform="matrix(0.1036 -0.9946 0.9946 0.1036 -144.17 320.4912)" style="fill:#FFFFFF;" width="4.7" height="17.53"/>
	
		<rect x="96.898" y="269.464" transform="matrix(0.9945 -0.1046 0.1046 0.9945 -27.8525 12.5433)" style="fill:#FFFFFF;" width="17.523" height="4.7"/>
	
		<rect x="103.48" y="300.37" transform="matrix(0.9511 -0.3088 0.3088 0.9511 -87.9964 49.4572)" style="fill:#FFFFFF;" width="17.526" height="4.7"/>
	
		<rect x="116.33" y="329.246" transform="matrix(0.866 -0.5 0.5 0.866 -149.042 106.9766)" style="fill:#FFFFFF;" width="17.53" height="4.704"/>
	
		<rect x="134.914" y="354.787" transform="matrix(0.7431 -0.6691 0.6691 0.7431 -202.0673 187.873)" style="fill:#FFFFFF;" width="17.526" height="4.697"/>
	
		<rect x="158.391" y="375.929" transform="matrix(0.5879 -0.8089 0.8089 0.5879 -237.1152 291.0966)" style="fill:#FFFFFF;" width="17.526" height="4.697"/>
	
		<rect x="185.789" y="391.75" transform="matrix(0.4065 -0.9136 0.9136 0.4065 -244.6057 411.6389)" style="fill:#FFFFFF;" width="17.52" height="4.7"/>
	
		<rect x="215.78" y="401.515" transform="matrix(0.2078 -0.9782 0.9782 0.2078 -217.1683 539.5865)" style="fill:#FFFFFF;" width="17.524" height="4.704"/>
	<rect x="253.655" y="398.402" style="fill:#FFFFFF;" width="4.704" height="17.527"/>
	
		<rect x="285.064" y="395.088" transform="matrix(0.978 -0.2085 0.2085 0.978 -77.8876 68.8035)" style="fill:#FFFFFF;" width="4.704" height="17.523"/>
	
		<rect x="315.138" y="385.321" transform="matrix(0.9138 -0.4061 0.4061 0.9138 -132.6811 162.8958)" style="fill:#FFFFFF;" width="4.7" height="17.523"/>
	
		<rect x="342.488" y="369.518" transform="matrix(0.8092 -0.5875 0.5875 0.8092 -156.4542 274.7664)" style="fill:#FFFFFF;" width="4.7" height="17.523"/>
	
		<rect x="365.978" y="348.351" transform="matrix(0.6698 -0.7425 0.7425 0.6698 -143.5486 391.403)" style="fill:#FFFFFF;" width="4.7" height="17.52"/>
	
		<rect x="384.539" y="322.797" transform="matrix(0.5002 -0.8659 0.8659 0.5002 -93.7335 500.7217)" style="fill:#FFFFFF;" width="4.7" height="17.523"/>
	
		<rect x="397.411" y="293.96" transform="matrix(0.3092 -0.951 0.951 0.3092 -11.7378 589.291)" style="fill:#FFFFFF;" width="4.694" height="17.53"/>
	
		<rect x="403.965" y="263.059" transform="matrix(0.1037 -0.9946 0.9946 0.1037 93.8216 647.7572)" style="fill:#FFFFFF;" width="4.697" height="17.527"/>
	
		<rect x="397.538" y="237.818" transform="matrix(0.9945 -0.1051 0.1051 0.9945 -22.9906 44.0306)" style="fill:#FFFFFF;" width="17.524" height="4.701"/>
	
		<rect x="391.011" y="206.947" transform="matrix(0.951 -0.3092 0.3092 0.951 -45.1239 133.8659)" style="fill:#FFFFFF;" width="17.527" height="4.697"/>
	
		<rect x="378.13" y="178.065" transform="matrix(0.8659 -0.5003 0.5003 0.8659 -38.3619 217.7542)" style="fill:#FFFFFF;" width="17.524" height="4.701"/>
	
		<rect x="359.561" y="152.514" transform="matrix(0.7427 -0.6696 0.6696 0.7427 -8.9342 286.4793)" style="fill:#FFFFFF;" width="17.527" height="4.704"/>
	
		<rect x="336.073" y="131.374" transform="matrix(0.5877 -0.8091 0.8091 0.5877 33.9854 334.1381)" style="fill:#FFFFFF;" width="17.527" height="4.701"/>
	
		<rect x="308.702" y="115.581" transform="matrix(0.4063 -0.9137 0.9137 0.4063 80.7257 360.1012)" style="fill:#FFFFFF;" width="17.525" height="4.701"/>
	
		<rect x="278.653" y="105.796" transform="matrix(0.2077 -0.9782 0.9782 0.2077 121.9296 366.8304)" style="fill:#FFFFFF;" width="17.52" height="4.701"/>
</g>
<g>
</g>
<g>
</g>
<g>
</g>
<g>
</g>
<g>
</g>
<g>
</g>
<g>
</g>
<g>
</g>
<g>
</g>
<g>
</g>
<g>
</g>
<g>
</g>
<g>
</g>
<g>
</g>
<g>
</g>
</svg>
